<svg xmlns="http://www.w3.org/2000/svg" viewBox="0 0 451.16 426.93"><defs><style>.cls-1{fill:#f5f5f5;}.cls-2{fill:#ebebeb;}.cls-3{fill:#e0e0e0;}.cls-4{fill:#263238;}.cls-5{fill:#455a64;}.cls-6{fill:#fff;}.cls-7{fill:#ff725e;}.cls-8{opacity:0.2;}.cls-9{opacity:0.3;}.cls-10{opacity:0.1;}.cls-11{fill:#ae7461;}.cls-12{fill:#6f4439;}</style></defs><g id="Background_Complete" data-name="Background Complete"><path class="cls-1" d="M73.63,313.12a27.9,27.9,0,1,1-39.4-.92A27.87,27.87,0,0,1,73.63,313.12Z" transform="translate(-25.55 -28.95)"/><path class="cls-2" d="M68.82,317.7a21.26,21.26,0,1,1-30-.7A21.24,21.24,0,0,1,68.82,317.7Z" transform="translate(-25.55 -28.95)"/><path class="cls-3" d="M68.36,317.22a12.73,12.73,0,0,1-2.17-1.46,22.42,22.42,0,0,0-6.27-3,21.1,21.1,0,0,0-10.15-.52,20.21,20.21,0,0,0-2.86.77,19.85,19.85,0,0,0-2.82,1.22,20.23,20.23,0,0,0-2.7,1.69,20.08,20.08,0,0,0-4.6,4.66,21.2,21.2,0,0,0-1.65,2.72A20.88,20.88,0,0,0,33.23,329a21.15,21.15,0,0,0-.26,5.45,21.54,21.54,0,0,0,.92,4.69A22.47,22.47,0,0,0,37,345.35c1,1.35,1.59,2.06,1.5,2.15s-.85-.48-2-1.76a19.7,19.7,0,0,1-3.71-6.24,21.44,21.44,0,0,1-.32-13.86,22.21,22.21,0,0,1,1.23-3.08,21.66,21.66,0,0,1,1.76-2.95,21.93,21.93,0,0,1,5-5,22.39,22.39,0,0,1,2.93-1.8,21.88,21.88,0,0,1,6.14-2,21.44,21.44,0,0,1,10.78.89,19.81,19.81,0,0,1,6.3,3.62C67.87,316.38,68.43,317.15,68.36,317.22Z" transform="translate(-25.55 -28.95)"/><path class="cls-3" d="M63.91,339.89l2.6,2.64-2.37,2.32-2.52-2.58a15.73,15.73,0,0,1-7.73,3.88L52.36,342a13.33,13.33,0,0,0,6.23-2.81l-3.87-3.94c-3.24,1.93-7,3.92-10.34.55-2.45-2.51-2.74-6.44.58-10.52l-2.57-2.62,2.36-2.32,2.52,2.58a14.94,14.94,0,0,1,6.21-3.26l1.66,4.06A13.71,13.71,0,0,0,50.33,326l3.93,4c3.22-2,7-3.91,10.23-.58C66.89,331.92,67.18,335.81,63.91,339.89Zm-12.59-8.13L48,328.41c-1,1.51-.79,2.68,0,3.46S50,332.45,51.32,331.76ZM61,333.47c-.81-.82-1.93-.6-3.3,0l3.2,3.26C61.78,335.35,61.7,334.23,61,333.47Z" transform="translate(-25.55 -28.95)"/><path class="cls-1" d="M374.27,29.33A24.6,24.6,0,1,1,345.8,49.25,24.57,24.57,0,0,1,374.27,29.33Z" transform="translate(-25.55 -28.95)"/><path class="cls-2" d="M373.24,35.09a18.74,18.74,0,1,1-21.69,15.18A18.73,18.73,0,0,1,373.24,35.09Z" transform="translate(-25.55 -28.95)"/><path class="cls-3" d="M372.66,35a11.81,11.81,0,0,1-2.3.09,19.85,19.85,0,0,0-6,1.12,19.6,19.6,0,0,0-3.78,1.85,18.14,18.14,0,0,0-3.69,3.09,17.24,17.24,0,0,0-1.63,2,17.94,17.94,0,0,0-1.37,2.34,18.67,18.67,0,0,0-1,2.61,19.93,19.93,0,0,0-.64,2.82,18.87,18.87,0,0,0-.19,2.89,18.6,18.6,0,0,0,.89,5.43,17.85,17.85,0,0,0,1,2.41,19,19,0,0,0,2.66,4,19.76,19.76,0,0,0,3.1,2.85,20,20,0,0,0,5.47,2.79,10.1,10.1,0,0,1,2.18.75,5.55,5.55,0,0,1-2.33-.21,17.2,17.2,0,0,1-5.89-2.5,18.85,18.85,0,0,1-3.41-2.89,19.26,19.26,0,0,1-3-4.21,18.67,18.67,0,0,1-1.09-2.58,18.22,18.22,0,0,1-.74-2.82,19.94,19.94,0,0,1-.29-3,20.6,20.6,0,0,1,.2-3.12,20.35,20.35,0,0,1,.7-3,18.65,18.65,0,0,1,1.14-2.8,18.35,18.35,0,0,1,1.51-2.51,18.82,18.82,0,0,1,1.78-2.15,19.12,19.12,0,0,1,4-3.2A18.4,18.4,0,0,1,364,35.25a17.13,17.13,0,0,1,6.36-.72A5.28,5.28,0,0,1,372.66,35Z" transform="translate(-25.55 -28.95)"/><path class="cls-3" d="M381.34,53.42l3.22.52-.47,2.88L381,56.31a13.76,13.76,0,0,1-3.46,6.78l-3.26-2.15a11.77,11.77,0,0,0,3-5.25l-4.81-.78c-1.29,3.07-2.94,6.46-7.06,5.79-3-.5-5.3-3.14-5.08-7.77l-3.19-.52.47-2.88,3.13.51a13.3,13.3,0,0,1,2.71-5.55l3.3,2a12,12,0,0,0-2.21,4.15l4.89.8c1.27-3.07,2.91-6.41,7-5.75C379.29,46.2,381.53,48.81,381.34,53.42Zm-13.19.8-4.08-.67c.09,1.58.83,2.32,1.78,2.48S367.54,55.42,368.15,54.22Zm7.74-3.82c-1-.16-1.69.58-2.32,1.75l4,.65C377.46,51.31,376.81,50.55,375.89,50.4Z" transform="translate(-25.55 -28.95)"/><path class="cls-1" d="M453,328.76a17.94,17.94,0,1,1-20.77,14.53A17.92,17.92,0,0,1,453,328.76Z" transform="translate(-25.55 -28.95)"/><path class="cls-2" d="M452.24,333A13.68,13.68,0,1,1,436.41,344,13.65,13.65,0,0,1,452.24,333Z" transform="translate(-25.55 -28.95)"/><path class="cls-3" d="M451.82,332.89a8,8,0,0,1-1.69.07,14.45,14.45,0,0,0-4.4.82,13.94,13.94,0,0,0-2.76,1.34,13.35,13.35,0,0,0-2.69,2.26,13.12,13.12,0,0,0-2.19,3.19,13.21,13.21,0,0,0-.76,1.9,15.78,15.78,0,0,0-.47,2.06,15,15,0,0,0-.13,2.11,12.58,12.58,0,0,0,.18,2,12.23,12.23,0,0,0,.47,1.92,12.44,12.44,0,0,0,.71,1.76,13.81,13.81,0,0,0,1.94,2.93,14.13,14.13,0,0,0,6.25,4.12,7.47,7.47,0,0,1,1.59.54,4.1,4.1,0,0,1-1.7-.15,12.54,12.54,0,0,1-4.29-1.82,13.56,13.56,0,0,1-2.49-2.11,14.12,14.12,0,0,1-2.16-3.07,14.35,14.35,0,0,1-.8-1.88,13.64,13.64,0,0,1-.53-2.07,13.23,13.23,0,0,1-.21-2.2,14.49,14.49,0,0,1,.14-2.27,16.27,16.27,0,0,1,.51-2.22,14.17,14.17,0,0,1,.83-2.05,13.74,13.74,0,0,1,1.1-1.82,13.45,13.45,0,0,1,1.31-1.57,13.74,13.74,0,0,1,2.94-2.34,14.13,14.13,0,0,1,3-1.31,13,13,0,0,1,4.64-.52A4,4,0,0,1,451.82,332.89Z" transform="translate(-25.55 -28.95)"/><path class="cls-3" d="M458.14,346.33l2.36.38-.35,2.1-2.28-.37a10,10,0,0,1-2.54,4.95L453,351.82a8.62,8.62,0,0,0,2.16-3.83l-3.51-.57c-.94,2.24-2.15,4.71-5.15,4.22-2.22-.36-3.87-2.29-3.71-5.66l-2.33-.38.35-2.1,2.28.37a9.73,9.73,0,0,1,2-4.05l2.41,1.47a8.79,8.79,0,0,0-1.62,3l3.57.58c.93-2.24,2.12-4.67,5.08-4.19C456.65,341.07,458.28,343,458.14,346.33Zm-9.61.59-3-.49c.07,1.15.6,1.69,1.3,1.81S448.08,347.79,448.53,346.92Zm5.64-2.79c-.73-.12-1.23.42-1.69,1.28l2.89.47C455.31,344.79,454.84,344.24,454.17,344.13Z" transform="translate(-25.55 -28.95)"/><path class="cls-2" d="M68.74,61.32a34.18,34.18,0,0,1,5.73-7l-2.21-8.07,12.21-6.51,5.47,6.33a34,34,0,0,1,9-.88L103.05,38l13.24,4-.61,8.33a34.24,34.24,0,0,1,7,5.73l8.06-2.2,6.51,12.2-6.33,5.47a33.55,33.55,0,0,1,.88,9L139,84.64l-4,13.24-8.34-.61a33.92,33.92,0,0,1-5.73,7l2.21,8.06-12.21,6.51-5.46-6.32a34.07,34.07,0,0,1-9,.87l-4.14,7.27-13.23-4,.6-8.34a33.86,33.86,0,0,1-7-5.73l-8.07,2.21-6.51-12.2,6.33-5.47a34,34,0,0,1-.88-9L56.38,74l4-13.23,8.33.6ZM79.85,73.87a18.66,18.66,0,1,0,23.29-12.42A18.66,18.66,0,0,0,79.85,73.87Z" transform="translate(-25.55 -28.95)"/><path class="cls-1" d="M280.33,129.75a16.59,16.59,0,0,1,2.76-3.35L282,122.52l5.87-3.13,2.63,3a16.38,16.38,0,0,1,4.32-.42l2-3.5,6.37,1.94-.29,4a16.59,16.59,0,0,1,3.35,2.76l3.88-1.06,3.13,5.87-3,2.63a16,16,0,0,1,.42,4.32l3.5,2-1.94,6.37-4-.3a16.32,16.32,0,0,1-2.76,3.35l1.06,3.89-5.87,3.13-2.63-3a16.39,16.39,0,0,1-4.32.43l-2,3.49-6.37-1.94.29-4a16.22,16.22,0,0,1-3.35-2.75l-3.88,1.06-3.14-5.88,3.05-2.63a16,16,0,0,1-.42-4.32l-3.5-2,1.94-6.37,4,.29Zm5.35,6a9,9,0,1,0,11.2-6A9,9,0,0,0,285.68,135.79Z" transform="translate(-25.55 -28.95)"/><path class="cls-1" d="M305.09,318.85a16.59,16.59,0,0,1,2.76-3.35l-1.07-3.88,5.88-3.13,2.63,3a16.38,16.38,0,0,1,4.32-.42l2-3.5,6.37,1.94-.29,4a16.59,16.59,0,0,1,3.35,2.76l3.88-1.06,3.13,5.87-3,2.63a16,16,0,0,1,.42,4.32l3.5,2L337,336.45l-4-.3a16.66,16.66,0,0,1-2.76,3.36l1.06,3.88-5.87,3.13-2.63-3a16.39,16.39,0,0,1-4.32.43l-2,3.49-6.37-1.94.29-4a16.22,16.22,0,0,1-3.35-2.75l-3.88,1.06L300,333.87l3.05-2.63a16.39,16.39,0,0,1-.43-4.32l-3.49-2,1.94-6.37,4,.29Zm5.35,6a9,9,0,1,0,11.2-6A9,9,0,0,0,310.44,324.89Z" transform="translate(-25.55 -28.95)"/><path class="cls-1" d="M428.77,181.71a23.35,23.35,0,0,1,3.91-4.75l-1.51-5.5L439.5,167l3.73,4.32a22.73,22.73,0,0,1,6.12-.6l2.82-5,9,2.75-.41,5.69a22.71,22.71,0,0,1,4.75,3.91l5.5-1.51,4.44,8.33-4.32,3.73a22.69,22.69,0,0,1,.6,6.12l5,2.82-2.75,9-5.69-.42a22.78,22.78,0,0,1-3.9,4.76l1.5,5.5-8.32,4.44-3.73-4.32a22.8,22.8,0,0,1-6.13.6l-2.82,5-9-2.75.42-5.69a22.83,22.83,0,0,1-4.76-3.91l-5.5,1.51L421.57,203l4.32-3.73a22.69,22.69,0,0,1-.6-6.12l-5-2.82,2.74-9,5.69.41Zm7.58,8.56a12.73,12.73,0,1,0,15.88-8.47A12.71,12.71,0,0,0,436.35,190.27Z" transform="translate(-25.55 -28.95)"/><path class="cls-1" d="M37.44,119.45a19,19,0,0,1,3.16-3.84l-1.22-4.45,6.74-3.6,3,3.49a19,19,0,0,1,5-.48l2.29-4,7.3,2.22-.33,4.6a18.69,18.69,0,0,1,3.84,3.17l4.45-1.22,3.59,6.73-3.49,3a18.63,18.63,0,0,1,.49,5l4,2.29L74,139.62l-4.6-.33a18.65,18.65,0,0,1-3.16,3.84l1.22,4.45-6.74,3.6-3-3.5a18.55,18.55,0,0,1-5,.49l-2.28,4L43.17,150l.34-4.6a18.14,18.14,0,0,1-3.85-3.16l-4.45,1.22-3.59-6.74,3.49-3a18.66,18.66,0,0,1-.49-5l-4-2.28,2.22-7.3,4.6.33Zm6.13,6.92a10.3,10.3,0,1,0,12.85-6.85A10.3,10.3,0,0,0,43.57,126.37Z" transform="translate(-25.55 -28.95)"/></g><g id="Floor"><path class="cls-4" d="M470,446.75c0,.14-98.48.26-219.94.26s-220-.12-220-.26,98.46-.26,220-.26S470,446.6,470,446.75Z" transform="translate(-25.55 -28.95)"/></g><g id="Books"><rect class="cls-2" x="129.71" y="421.24" width="27.13" height="10.22" transform="translate(260.98 823.74) rotate(180)"/><rect class="cls-5" x="72.77" y="419.48" width="85.19" height="2.14" transform="translate(205.18 812.16) rotate(180)"/><rect class="cls-5" x="72.77" y="431" width="84.8" height="2.14" transform="translate(204.78 835.18) rotate(180)"/><polygon class="cls-5" points="104.15 391.04 104.02 403.78 47.22 403.78 47.22 391.04 104.15 391.04"/><path class="cls-4" d="M115.9,426.35a3.07,3.07,0,1,0,3.07-3.17A3.12,3.12,0,0,0,115.9,426.35Z" transform="translate(-25.55 -28.95)"/><path class="cls-3" d="M115.42,426.35A3.55,3.55,0,1,1,119,430,3.59,3.59,0,0,1,115.42,426.35Zm1,0a2.59,2.59,0,1,0,2.59-2.72A2.65,2.65,0,0,0,116.38,426.35Z" transform="translate(-25.55 -28.95)"/><path class="cls-4" d="M131.74,429c0,.13,5.58.24,12.45.24s12.45-.11,12.45-.24-5.57-.24-12.45-.24S131.74,428.82,131.74,429Z" transform="translate(-25.55 -28.95)"/><path class="cls-4" d="M131.74,427.17c0,.13,5.58.24,12.45.24s12.45-.11,12.45-.24-5.57-.24-12.45-.24S131.74,427,131.74,427.17Z" transform="translate(-25.55 -28.95)"/><path class="cls-4" d="M131.74,425.39c0,.13,5.58.24,12.45.24s12.45-.11,12.45-.24-5.57-.24-12.45-.24S131.74,425.26,131.74,425.39Z" transform="translate(-25.55 -28.95)"/><path class="cls-4" d="M131.74,423.61c0,.13,5.58.24,12.45.24s12.45-.11,12.45-.24-5.57-.24-12.45-.24S131.74,423.48,131.74,423.61Z" transform="translate(-25.55 -28.95)"/><rect class="cls-6" x="79.07" y="422.7" width="25.6" height="6.82" transform="translate(158.18 823.27) rotate(180)"/><path class="cls-3" d="M100.68,428.83a14.92,14.92,0,0,0,0-5.44,14.92,14.92,0,0,0,0,5.44Z" transform="translate(-25.55 -28.95)"/><path class="cls-3" d="M97.3,428.83a14.92,14.92,0,0,0,0-5.44,14.92,14.92,0,0,0,0,5.44Z" transform="translate(-25.55 -28.95)"/><path class="cls-3" d="M93.91,428.83a14.92,14.92,0,0,0,0-5.44,14.92,14.92,0,0,0,0,5.44Z" transform="translate(-25.55 -28.95)"/><path class="cls-3" d="M90.53,428.83a15.53,15.53,0,0,0,0-5.44,14.92,14.92,0,0,0,0,5.44Z" transform="translate(-25.55 -28.95)"/><path class="cls-3" d="M87.14,428.83a14.92,14.92,0,0,0,0-5.44,14.92,14.92,0,0,0,0,5.44Z" transform="translate(-25.55 -28.95)"/><path class="cls-3" d="M83.76,428.83a15.53,15.53,0,0,0,0-5.44,14.92,14.92,0,0,0,0,5.44Z" transform="translate(-25.55 -28.95)"/><path class="cls-4" d="M129.32,433.11a91.66,91.66,0,0,0,0-13.53,91.66,91.66,0,0,0,0,13.53Z" transform="translate(-25.55 -28.95)"/><rect class="cls-2" x="126.1" y="434.52" width="27.13" height="10.22" transform="translate(253.78 850.3) rotate(180)"/><rect class="cls-7" x="69.17" y="432.76" width="85.19" height="2.14" transform="translate(197.97 838.71) rotate(180)"/><rect class="cls-7" x="69.17" y="444.28" width="84.8" height="2.14" transform="translate(197.57 861.74) rotate(180)"/><polygon class="cls-7" points="100.55 404.32 100.42 417.06 43.61 417.06 43.61 404.32 100.55 404.32"/><path class="cls-4" d="M112.3,439.63a3.07,3.07,0,1,0,3.07-3.17A3.12,3.12,0,0,0,112.3,439.63Z" transform="translate(-25.55 -28.95)"/><path class="cls-3" d="M111.82,439.63a3.55,3.55,0,1,1,3.55,3.62A3.59,3.59,0,0,1,111.82,439.63Zm1,0a2.6,2.6,0,1,0,2.6-2.72A2.66,2.66,0,0,0,112.77,439.63Z" transform="translate(-25.55 -28.95)"/><path class="cls-4" d="M128.14,442.23c0,.13,5.57.23,12.45.23s12.45-.1,12.45-.23-5.58-.24-12.45-.24S128.14,442.1,128.14,442.23Z" transform="translate(-25.55 -28.95)"/><path class="cls-4" d="M128.14,440.45c0,.13,5.57.23,12.45.23s12.45-.1,12.45-.23-5.58-.24-12.45-.24S128.14,440.32,128.14,440.45Z" transform="translate(-25.55 -28.95)"/><path class="cls-4" d="M128.14,438.67c0,.13,5.57.24,12.45.24s12.45-.11,12.45-.24-5.58-.24-12.45-.24S128.14,438.54,128.14,438.67Z" transform="translate(-25.55 -28.95)"/><path class="cls-4" d="M128.14,436.89c0,.13,5.57.24,12.45.24S153,437,153,436.89s-5.58-.24-12.45-.24S128.14,436.76,128.14,436.89Z" transform="translate(-25.55 -28.95)"/><rect class="cls-6" x="75.47" y="435.98" width="25.6" height="6.82" transform="translate(150.98 849.82) rotate(180)"/><path class="cls-3" d="M97.08,442.1a7.77,7.77,0,0,0,.25-2.71,7.85,7.85,0,0,0-.25-2.72,7.57,7.57,0,0,0-.25,2.72A7.5,7.5,0,0,0,97.08,442.1Z" transform="translate(-25.55 -28.95)"/><path class="cls-3" d="M93.69,442.1a7.5,7.5,0,0,0,.25-2.71,7.57,7.57,0,0,0-.25-2.72,7.85,7.85,0,0,0-.25,2.72A7.77,7.77,0,0,0,93.69,442.1Z" transform="translate(-25.55 -28.95)"/><path class="cls-3" d="M90.31,442.1a7.77,7.77,0,0,0,.25-2.71,7.85,7.85,0,0,0-.25-2.72,7.57,7.57,0,0,0-.25,2.72A7.5,7.5,0,0,0,90.31,442.1Z" transform="translate(-25.55 -28.95)"/><path class="cls-3" d="M86.92,442.1a7.5,7.5,0,0,0,.25-2.71,7.57,7.57,0,0,0-.25-2.72,7.85,7.85,0,0,0-.25,2.72A7.77,7.77,0,0,0,86.92,442.1Z" transform="translate(-25.55 -28.95)"/><path class="cls-3" d="M83.54,442.1a7.77,7.77,0,0,0,.25-2.71,7.85,7.85,0,0,0-.25-2.72,7.57,7.57,0,0,0-.25,2.72A7.5,7.5,0,0,0,83.54,442.1Z" transform="translate(-25.55 -28.95)"/><path class="cls-3" d="M80.15,442.1a7.5,7.5,0,0,0,.25-2.71,7.57,7.57,0,0,0-.25-2.72,7.85,7.85,0,0,0-.25,2.72A7.77,7.77,0,0,0,80.15,442.1Z" transform="translate(-25.55 -28.95)"/><path class="cls-4" d="M125.72,446.39a91.66,91.66,0,0,0,0-13.53,91.66,91.66,0,0,0,0,13.53Z" transform="translate(-25.55 -28.95)"/><rect class="cls-2" x="127.11" y="407.9" width="27.13" height="10.22" transform="translate(255.79 797.06) rotate(180)"/><rect class="cls-7" x="70.17" y="406.14" width="85.19" height="2.14" transform="translate(199.98 785.48) rotate(180)"/><rect class="cls-7" x="70.17" y="417.66" width="84.8" height="2.14" transform="translate(199.59 808.51) rotate(180)"/><polygon class="cls-7" points="101.55 377.7 101.42 390.44 44.62 390.44 44.62 377.7 101.55 377.7"/><path class="cls-4" d="M113.3,413a3.07,3.07,0,1,0,3.07-3.17A3.13,3.13,0,0,0,113.3,413Z" transform="translate(-25.55 -28.95)"/><path class="cls-3" d="M112.82,413a3.55,3.55,0,1,1,3.55,3.63A3.59,3.59,0,0,1,112.82,413Zm1,0a2.6,2.6,0,1,0,2.59-2.71A2.65,2.65,0,0,0,113.78,413Z" transform="translate(-25.55 -28.95)"/><path class="cls-4" d="M129.15,415.61c0,.13,5.57.24,12.44.24s12.45-.11,12.45-.24-5.57-.24-12.45-.24S129.15,415.48,129.15,415.61Z" transform="translate(-25.55 -28.95)"/><path class="cls-4" d="M129.15,413.83c0,.13,5.57.24,12.44.24S154,414,154,413.83s-5.57-.24-12.45-.24S129.15,413.7,129.15,413.83Z" transform="translate(-25.55 -28.95)"/><path class="cls-4" d="M129.15,412.05c0,.13,5.57.24,12.44.24s12.45-.11,12.45-.24-5.57-.24-12.45-.24S129.15,411.92,129.15,412.05Z" transform="translate(-25.55 -28.95)"/><path class="cls-4" d="M129.15,410.27c0,.13,5.57.24,12.44.24s12.45-.11,12.45-.24-5.57-.24-12.45-.24S129.15,410.14,129.15,410.27Z" transform="translate(-25.55 -28.95)"/><rect class="cls-6" x="76.47" y="409.36" width="25.6" height="6.82" transform="translate(152.99 796.59) rotate(180)"/><path class="cls-3" d="M98.08,415.49a7.57,7.57,0,0,0,.25-2.72,7.5,7.5,0,0,0-.25-2.71,7.92,7.92,0,0,0-.24,2.71A8,8,0,0,0,98.08,415.49Z" transform="translate(-25.55 -28.95)"/><path class="cls-3" d="M94.7,415.49a7.57,7.57,0,0,0,.25-2.72,7.5,7.5,0,0,0-.25-2.71,7.5,7.5,0,0,0-.25,2.71A7.57,7.57,0,0,0,94.7,415.49Z" transform="translate(-25.55 -28.95)"/><path class="cls-3" d="M91.31,415.49a7.57,7.57,0,0,0,.25-2.72,7.5,7.5,0,0,0-.25-2.71,7.92,7.92,0,0,0-.24,2.71A8,8,0,0,0,91.31,415.49Z" transform="translate(-25.55 -28.95)"/><path class="cls-3" d="M87.93,415.49a7.57,7.57,0,0,0,.25-2.72,7.5,7.5,0,0,0-.25-2.71,7.5,7.5,0,0,0-.25,2.71A7.57,7.57,0,0,0,87.93,415.49Z" transform="translate(-25.55 -28.95)"/><path class="cls-3" d="M84.54,415.49a7.57,7.57,0,0,0,.25-2.72,7.5,7.5,0,0,0-.25-2.71,7.92,7.92,0,0,0-.24,2.71A8,8,0,0,0,84.54,415.49Z" transform="translate(-25.55 -28.95)"/><path class="cls-3" d="M81.16,415.49a7.57,7.57,0,0,0,.25-2.72,7.5,7.5,0,0,0-.25-2.71,7.5,7.5,0,0,0-.25,2.71A7.57,7.57,0,0,0,81.16,415.49Z" transform="translate(-25.55 -28.95)"/><path class="cls-4" d="M126.72,419.77a91.66,91.66,0,0,0,0-13.53,91.66,91.66,0,0,0,0,13.53Z" transform="translate(-25.55 -28.95)"/><rect class="cls-2" x="120.93" y="394.24" width="27.13" height="10.22" transform="translate(243.44 769.74) rotate(180)"/><rect class="cls-4" x="64" y="392.48" width="85.19" height="2.14" transform="translate(187.63 758.15) rotate(180)"/><rect class="cls-4" x="64" y="404" width="84.8" height="2.14" transform="translate(187.24 781.18) rotate(180)"/><polygon class="cls-4" points="95.38 364.04 95.25 376.78 38.44 376.78 38.44 364.04 95.38 364.04"/><path class="cls-4" d="M107.13,399.35a3.07,3.07,0,1,0,3.07-3.17A3.12,3.12,0,0,0,107.13,399.35Z" transform="translate(-25.55 -28.95)"/><path class="cls-3" d="M106.65,399.35A3.55,3.55,0,1,1,110.2,403,3.59,3.59,0,0,1,106.65,399.35Zm.95,0a2.6,2.6,0,1,0,2.6-2.72A2.66,2.66,0,0,0,107.6,399.35Z" transform="translate(-25.55 -28.95)"/><path class="cls-4" d="M123,402c0,.13,5.58.24,12.45.24s12.45-.11,12.45-.24-5.57-.24-12.45-.24S123,401.82,123,402Z" transform="translate(-25.55 -28.95)"/><path class="cls-4" d="M123,400.17c0,.13,5.58.24,12.45.24s12.45-.11,12.45-.24-5.57-.24-12.45-.24S123,400,123,400.17Z" transform="translate(-25.55 -28.95)"/><path class="cls-4" d="M123,398.39c0,.13,5.58.24,12.45.24s12.45-.11,12.45-.24-5.57-.24-12.45-.24S123,398.26,123,398.39Z" transform="translate(-25.55 -28.95)"/><path class="cls-4" d="M123,396.61c0,.13,5.58.24,12.45.24s12.45-.11,12.45-.24-5.57-.24-12.45-.24S123,396.48,123,396.61Z" transform="translate(-25.55 -28.95)"/><rect class="cls-6" x="70.3" y="395.7" width="25.6" height="6.82" transform="translate(140.64 769.27) rotate(180)"/><path class="cls-3" d="M91.91,401.82a7.5,7.5,0,0,0,.25-2.71,7.57,7.57,0,0,0-.25-2.72,7.57,7.57,0,0,0-.25,2.72A7.5,7.5,0,0,0,91.91,401.82Z" transform="translate(-25.55 -28.95)"/><path class="cls-3" d="M88.53,401.82a7.92,7.92,0,0,0,.24-2.71,8,8,0,0,0-.24-2.72,7.57,7.57,0,0,0-.25,2.72A7.5,7.5,0,0,0,88.53,401.82Z" transform="translate(-25.55 -28.95)"/><path class="cls-3" d="M85.14,401.82a7.5,7.5,0,0,0,.25-2.71,7.57,7.57,0,0,0-.25-2.72,7.57,7.57,0,0,0-.25,2.72A7.5,7.5,0,0,0,85.14,401.82Z" transform="translate(-25.55 -28.95)"/><path class="cls-3" d="M81.76,401.82a7.92,7.92,0,0,0,.24-2.71,8,8,0,0,0-.24-2.72,7.57,7.57,0,0,0-.25,2.72A7.5,7.5,0,0,0,81.76,401.82Z" transform="translate(-25.55 -28.95)"/><path class="cls-3" d="M78.37,401.82a7.5,7.5,0,0,0,.25-2.71,7.57,7.57,0,0,0-.25-2.72,7.57,7.57,0,0,0-.25,2.72A7.5,7.5,0,0,0,78.37,401.82Z" transform="translate(-25.55 -28.95)"/><path class="cls-3" d="M75,401.82a7.92,7.92,0,0,0,.24-2.71,8,8,0,0,0-.24-2.72,7.57,7.57,0,0,0-.25,2.72A7.5,7.5,0,0,0,75,401.82Z" transform="translate(-25.55 -28.95)"/><path class="cls-4" d="M120.55,406.11a91.66,91.66,0,0,0,0-13.53,91.66,91.66,0,0,0,0,13.53Z" transform="translate(-25.55 -28.95)"/></g><g id="Speech_Bubble" data-name="Speech Bubble"><path class="cls-6" d="M301.7,111.6l7.22,0a23.07,23.07,0,1,0-3.87-7.31h0Z" transform="translate(-25.55 -28.95)"/><path class="cls-4" d="M301.7,111.6l.23-.48.66-1.41c.58-1.24,1.42-3.07,2.52-5.44H305s.07,0,.1,0a.06.06,0,0,0,0-.08,23.19,23.19,0,0,1,.34-14.76A26.66,26.66,0,0,1,307.08,86a22.64,22.64,0,0,1,5.28-6.32,22.88,22.88,0,0,1,37.51,17.12,23.18,23.18,0,0,1-2.21,10.3,22.38,22.38,0,0,1-6.11,7.81,22.93,22.93,0,0,1-16.42,5.17l-1-.1a6,6,0,0,1-1-.13l-1.85-.38a31.32,31.32,0,0,1-3.39-1.14,23,23,0,0,1-9-6.84.07.07,0,0,0-.06,0l-5.35.08-1.39,0h6.74l-.05,0a22.83,22.83,0,0,0,9,7,33.18,33.18,0,0,0,3.41,1.18l1.87.38a5.16,5.16,0,0,0,1,.14l1,.1a22.94,22.94,0,0,0,8.4-.84A23.25,23.25,0,0,0,348,107.27a23.56,23.56,0,0,0,2.24-10.44A23,23,0,0,0,347.28,86a9.77,9.77,0,0,0-.72-1.2l-.76-1.17-.87-1.09a10,10,0,0,0-.91-1l-1-1a12.64,12.64,0,0,0-1-.91c-.35-.29-.68-.6-1-.87L339.86,78a23,23,0,0,0-9.79-3.69,23.23,23.23,0,0,0-17.89,5.2,23,23,0,0,0-5.32,6.41,27.12,27.12,0,0,0-1.62,3.48,23.57,23.57,0,0,0-.95,3.46,23,23,0,0,0,.7,11.42l.13-.06h0a.08.08,0,0,0-.1,0l0,0-2.46,5.52c-.27.61-.48,1.08-.62,1.41S301.7,111.6,301.7,111.6Z" transform="translate(-25.55 -28.95)"/><path class="cls-4" d="M317.33,93.41c0-2.89,1.76-4.73,4.26-4.73s4.24,1.81,4.24,4.73-1.74,4.73-4.24,4.73S317.33,96.3,317.33,93.41Zm6.05,0c0-1.84-.71-2.72-1.79-2.72s-1.78.91-1.78,2.72.73,2.72,1.78,2.72S323.38,95.25,323.38,93.41Zm8.43-4.53h2.92L323,106H320.1ZM329,101.5c0-2.9,1.77-4.73,4.24-4.73s4.27,1.83,4.27,4.73-1.77,4.73-4.27,4.73S329,104.39,329,101.5Zm6,0c0-1.82-.71-2.72-1.79-2.72s-1.78.88-1.78,2.72.73,2.72,1.78,2.72S335,103.31,335,101.5Z" transform="translate(-25.55 -28.95)"/></g><g id="Calculator"><path class="cls-1" d="M274,289.6c40.57-1.08,138-9.87,180-43.36-10.78-27.47-24.16-61.25-34.94-88.71C406.43,178.76,381.37,192.87,356,193c-13.06.08-26-2.34-38.5-5.83s-34.6-11.3-48-.16l-22.72,49.89Z" transform="translate(-25.55 -28.95)"/><path class="cls-4" d="M274,289.6s-.17-.29-.48-.89-.78-1.48-1.39-2.64c-1.22-2.34-3-5.8-5.37-10.29-4.68-9-11.52-22.19-20.14-38.78l0-.07,0-.07c6.4-14.08,14.08-31,22.67-49.91l0,0,0,0a24,24,0,0,1,7.63-4.22,32.3,32.3,0,0,1,8.84-1.57,67.07,67.07,0,0,1,18.5,2.24c6.2,1.48,12.39,3.55,18.86,5.12a148.1,148.1,0,0,0,20,3.65c3.43.38,6.92.61,10.43.67.88,0,1.76,0,2.64,0l2.65-.11c1.78,0,3.54-.27,5.31-.45l1.34-.15,1.32-.23,2.65-.47c1.76-.35,3.51-.82,5.27-1.24s3.49-1,5.2-1.65,3.45-1.23,5.11-2A77.64,77.64,0,0,0,404,174.7a71.61,71.61,0,0,0,14.79-17.31l.27-.45.2.49c.24.62.5,1.29.77,2l34.15,86.76.07.17-.14.11a104.62,104.62,0,0,1-17,10.83,180.35,180.35,0,0,1-17.67,7.9c-5.9,2.25-11.76,4.19-17.5,5.94s-11.41,3.25-16.94,4.56c-11,2.69-21.55,4.68-31.33,6.32s-18.87,2.86-27.11,3.82c-16.5,1.92-29.66,2.82-38.67,3.3-4.51.23-8,.36-10.34.43l-2.67.06H274l.91-.05,2.66-.11c2.34-.09,5.81-.24,10.32-.51,9-.53,22.16-1.47,38.64-3.43,8.24-1,17.31-2.23,27.09-3.88s20.27-3.66,31.29-6.37c5.52-1.31,11.15-2.88,16.91-4.57s11.58-3.7,17.46-5.95a177.38,177.38,0,0,0,17.62-7.89A104.62,104.62,0,0,0,453.84,246l-.08.29c-10.57-26.83-22.13-56.18-34.18-86.75l-.77-2,.47,0a72.25,72.25,0,0,1-14.9,17.43,78.14,78.14,0,0,1-19.06,11.82c-1.66.8-3.43,1.37-5.14,2s-3.49,1.1-5.23,1.66-3.53.89-5.31,1.25l-2.67.46-1.33.24-1.34.15c-1.79.18-3.57.43-5.35.45l-2.67.11c-.89,0-1.77,0-2.66,0-3.53-.06-7-.3-10.47-.68a150.44,150.44,0,0,1-20.07-3.67c-6.48-1.58-12.67-3.66-18.85-5.14a66.36,66.36,0,0,0-18.37-2.25,31.29,31.29,0,0,0-8.72,1.54,23.35,23.35,0,0,0-7.5,4.13l.06-.08c-8.64,18.91-16.35,35.8-22.77,49.87v-.14c8.54,16.6,15.32,29.76,20,38.79L272.2,286c.6,1.17,1.05,2.07,1.36,2.68S274,289.6,274,289.6Z" transform="translate(-25.55 -28.95)"/><path class="cls-3" d="M370.86,216h0a1.69,1.69,0,0,1-2.11-.89L364.79,206a1.67,1.67,0,0,1,.95-2.2h0a1.69,1.69,0,0,1,2.18.85l4,9A1.67,1.67,0,0,1,370.86,216Z" transform="translate(-25.55 -28.95)"/><path class="cls-3" d="M381.67,214.1h0a1.67,1.67,0,0,1-2.11-.89l-3.92-9.05a1.67,1.67,0,0,1,.95-2.2h0a1.69,1.69,0,0,1,2.18.86l4,9A1.67,1.67,0,0,1,381.67,214.1Z" transform="translate(-25.55 -28.95)"/><path class="cls-3" d="M392.77,210.35l0,0a1.69,1.69,0,0,1-2.11-.89l-3.92-9a1.67,1.67,0,0,1,.95-2.2h0a1.68,1.68,0,0,1,2.18.85l4,9A1.66,1.66,0,0,1,392.77,210.35Z" transform="translate(-25.55 -28.95)"/><path class="cls-3" d="M403.16,206.33h0a1.68,1.68,0,0,1-2.11-.89l-3.92-9a1.67,1.67,0,0,1,1-2.2h0a1.69,1.69,0,0,1,2.18.86l4,9A1.67,1.67,0,0,1,403.16,206.33Z" transform="translate(-25.55 -28.95)"/><path class="cls-3" d="M414.12,199.29h0a1.68,1.68,0,0,1-2.11-.88l-3.92-9.06a1.67,1.67,0,0,1,.95-2.2h0a1.68,1.68,0,0,1,2.18.86l4,9A1.66,1.66,0,0,1,414.12,199.29Z" transform="translate(-25.55 -28.95)"/><path class="cls-3" d="M388.83,264.65l-.06,0a2,2,0,0,1-2.59-1.14l-11.92-30.46a2,2,0,0,1,1.18-2.6h0a2.05,2.05,0,0,1,2.69,1.09l12,30.45A2,2,0,0,1,388.83,264.65Z" transform="translate(-25.55 -28.95)"/><path class="cls-3" d="M357.2,216h0a1.68,1.68,0,0,1-2.11-.89L351.13,206a1.67,1.67,0,0,1,.95-2.2h0a1.69,1.69,0,0,1,2.18.85l4,9A1.67,1.67,0,0,1,357.2,216Z" transform="translate(-25.55 -28.95)"/><path class="cls-3" d="M376.32,265.44l-.06,0a2,2,0,0,1-2.59-1.13l-11.92-30.47a2,2,0,0,1,1.18-2.6h0a2,2,0,0,1,2.69,1.1l12,30.44A2,2,0,0,1,376.32,265.44Z" transform="translate(-25.55 -28.95)"/><path class="cls-3" d="M345.32,214.1h0a1.68,1.68,0,0,1-2.11-.89l-3.92-9.05a1.67,1.67,0,0,1,.95-2.2h0a1.68,1.68,0,0,1,2.18.86l4,9A1.67,1.67,0,0,1,345.32,214.1Z" transform="translate(-25.55 -28.95)"/><path class="cls-3" d="M363.29,264.55l-.06,0a2,2,0,0,1-2.59-1.14L348.72,233a2,2,0,0,1,1.18-2.6h0a2.05,2.05,0,0,1,2.69,1.09l12,30.45A2,2,0,0,1,363.29,264.55Z" transform="translate(-25.55 -28.95)"/><path class="cls-3" d="M333.07,212.52l0,0a1.69,1.69,0,0,1-2.11-.89L327,202.6a1.67,1.67,0,0,1,.95-2.2h0a1.68,1.68,0,0,1,2.18.85l4,9A1.67,1.67,0,0,1,333.07,212.52Z" transform="translate(-25.55 -28.95)"/><path class="cls-3" d="M350.2,263.34l-.07,0a2,2,0,0,1-2.58-1.14l-11.93-30.47a2,2,0,0,1,1.19-2.6h0a2,2,0,0,1,2.68,1.1l12,30.44A2.05,2.05,0,0,1,350.2,263.34Z" transform="translate(-25.55 -28.95)"/><path class="cls-3" d="M320,212.79h0a1.67,1.67,0,0,1-2.11-.88l-3.92-9a1.68,1.68,0,0,1,.94-2.21h0a1.7,1.7,0,0,1,2.19.86l4,9A1.66,1.66,0,0,1,320,212.79Z" transform="translate(-25.55 -28.95)"/><path class="cls-3" d="M337.09,263.6l-.06,0a2,2,0,0,1-2.58-1.13L322.52,232a2,2,0,0,1,1.19-2.6h0a2,2,0,0,1,2.68,1.1l12,30.44A2,2,0,0,1,337.09,263.6Z" transform="translate(-25.55 -28.95)"/><path class="cls-3" d="M306.86,213.06h0a1.68,1.68,0,0,1-2.11-.89l-3.93-9.05a1.68,1.68,0,0,1,.95-2.2h0a1.7,1.7,0,0,1,2.19.85l4,9A1.69,1.69,0,0,1,306.86,213.06Z" transform="translate(-25.55 -28.95)"/><path class="cls-3" d="M324,263.87l-.06,0a2,2,0,0,1-2.59-1.13l-11.92-30.47a2,2,0,0,1,1.19-2.6h0a2,2,0,0,1,2.68,1.09l12,30.45A2,2,0,0,1,324,263.87Z" transform="translate(-25.55 -28.95)"/><path class="cls-3" d="M293.76,213.33h0a1.68,1.68,0,0,1-2.1-.89l-3.93-9a1.67,1.67,0,0,1,.95-2.2h0a1.69,1.69,0,0,1,2.19.85l4,9A1.69,1.69,0,0,1,293.76,213.33Z" transform="translate(-25.55 -28.95)"/><path class="cls-3" d="M310.89,264.14l-.06,0a2,2,0,0,1-2.59-1.14l-11.92-30.46A2,2,0,0,1,297.5,230h0a2.06,2.06,0,0,1,2.69,1.1l12,30.45A2,2,0,0,1,310.89,264.14Z" transform="translate(-25.55 -28.95)"/><path class="cls-3" d="M280.66,213.59l0,0a1.68,1.68,0,0,1-2.1-.89l-3.93-9.05a1.67,1.67,0,0,1,1-2.2h0a1.68,1.68,0,0,1,2.19.85l4,9A1.67,1.67,0,0,1,280.66,213.59Z" transform="translate(-25.55 -28.95)"/><path class="cls-3" d="M297.79,264.4l-.06,0a2,2,0,0,1-2.59-1.14l-11.92-30.47a2,2,0,0,1,1.18-2.6h0a2,2,0,0,1,2.69,1.1l12,30.44A2,2,0,0,1,297.79,264.4Z" transform="translate(-25.55 -28.95)"/><path class="cls-3" d="M399.22,263.34l-.06,0a2,2,0,0,1-2.59-1.14l-11.92-30.47a2,2,0,0,1,1.18-2.6h0a2.05,2.05,0,0,1,2.69,1.1l12,30.44A2,2,0,0,1,399.22,263.34Z" transform="translate(-25.55 -28.95)"/><path class="cls-3" d="M410.18,258l-.06,0a2,2,0,0,1-2.58-1.14l-11.93-30.46a2,2,0,0,1,1.19-2.61h0a2.06,2.06,0,0,1,2.68,1.1l12,30.45A2,2,0,0,1,410.18,258Z" transform="translate(-25.55 -28.95)"/><path class="cls-3" d="M422.05,252.35l-.06,0a2,2,0,0,1-2.59-1.13l-11.93-30.47a2,2,0,0,1,1.19-2.6h0a2,2,0,0,1,2.68,1.1l12,30.44A2,2,0,0,1,422.05,252.35Z" transform="translate(-25.55 -28.95)"/><path class="cls-3" d="M433.67,245.46l-.06,0a2,2,0,0,1-2.59-1.14L419.1,213.88a2,2,0,0,1,1.19-2.6h0a2,2,0,0,1,2.68,1.09l12,30.45A2,2,0,0,1,433.67,245.46Z" transform="translate(-25.55 -28.95)"/><g class="cls-8"><path d="M271.25,185.73s-6.75,13.46,11.9,24.17c23.77,13.64,68.37,10.82,86.54,31.15s20.56,33.1,20.56,33.1l-19.05,4.14-91.15-43.86s-18.67-29.06-18.4-30.15S269.51,187,269.51,187Z" transform="translate(-25.55 -28.95)"/></g><path class="cls-3" d="M223.44,113.38c-1.15-16.35-6.63-25-21.82-28.95,0,0-13.38-1.36-20.89,1.65l-71.26,16.1c5.46,6.8,7.53,15.65,9.34,24.19,18.18,86,8,177.54-4.28,260.6l106.29,13.92C225.42,313.08,229.68,202.17,223.44,113.38Z" transform="translate(-25.55 -28.95)"/><path class="cls-3" d="M383.32,298.66c-.11-20.57-14.28-46.17-34.73-58.13-9.18-5.37-20.35-11.58-30.3-15.31s-35.14-7.06-41.82-15.32-10.48-13.55-7-22.86l-36,76.64a84.91,84.91,0,0,0,51.33,49.2c12.42,4.19,25.85,5.48,37.63,11.23s22,18.16,19.25,31c0,0,22.44-5.47,30.64-22.75C379.85,318.86,385.8,312.23,383.32,298.66Z" transform="translate(-25.55 -28.95)"/><path class="cls-3" d="M153.08,455.34s24.59-6.52,43.91-23c21.19-18,24-54.81,24-54.81S154.94,423.42,153.08,455.34Z" transform="translate(-25.55 -28.95)"/><g class="cls-8"><path d="M203.71,417.69a101.56,101.56,0,0,1-48.62,34.79s10.44-15.89,26.47-24.32S203.71,417.69,203.71,417.69Z" transform="translate(-25.55 -28.95)"/></g><g class="cls-8"><path d="M120.25,338.45h82.69c6.51,0,11.79-4.19,11.79-9.35L211.79,120a8.71,8.71,0,0,0-8.71-8.6h-71Z" transform="translate(-25.55 -28.95)"/></g><path class="cls-1" d="M107,83.89s-10.2-.06-20.27,8.57c-7.57,6.5-12.22,15.11-11.57,23.92l107.55-2.79c-1.21-4.37-1.69-14.37,3.19-20.89,4.1-5.48,9-7.35,15.7-8.27C193.12,83.37,143.8,83.87,107,83.89Z" transform="translate(-25.55 -28.95)"/><path class="cls-1" d="M153.09,455.69c10.49-18.48,49.9-43.82,70.12-41.25,24.22,3.07,45.65,17.17,69.37,22.94.84.21,1.68.4,2.53.58,49,10.57,94.24-29.56,90.91-79.57L383.23,298c-.53,17.25-10.34,32.62-23.52,44-15.9,13.68-37.86,19.4-58.72,17.23-22.38-2.32-43-13-64.78-18.52-34-8.67-118.84-18.47-144.44,55.27Z" transform="translate(-25.55 -28.95)"/><path class="cls-4" d="M153.09,455.69,91.66,396l-.08-.07,0-.1q1.22-3.13,2.46-6.41c1-2.12,2-4.26,3-6.45,1.19-2.09,2.32-4.27,3.62-6.39l2.07-3.14,1-1.59,1.17-1.52,2.36-3.07c.84-1,1.74-1.95,2.61-2.94,1.7-2,3.74-3.78,5.67-5.69a88,88,0,0,1,13.49-9.81A100.62,100.62,0,0,1,145,341.47a119.2,119.2,0,0,1,17.69-4.66,156.44,156.44,0,0,1,38.64-1.9A191.4,191.4,0,0,1,242,342c13.65,4,27.12,9.68,41.5,13.54,3.6,1,7.24,1.82,10.95,2.44a91.54,91.54,0,0,0,11.25,1.27,81.49,81.49,0,0,0,33.91-5.57,81.36,81.36,0,0,0,10.51-5.19,75.1,75.1,0,0,0,9.57-6.93,78.85,78.85,0,0,0,8.42-8.43,70.74,70.74,0,0,0,6-8,65.11,65.11,0,0,0,4.63-8.67,58.32,58.32,0,0,0,3-9.18A54.43,54.43,0,0,0,383,298h.52q.87,19,1.72,37.4.42,9.21.84,18.25c.15,3,.28,6,.38,9,0,1.5-.06,3-.08,4.49s-.23,3-.34,4.46a75.9,75.9,0,0,1-11.36,32.72,77.27,77.27,0,0,1-23.3,23.56,73.25,73.25,0,0,1-44.47,11.89c-2.48-.09-4.92-.43-7.34-.74s-4.79-.85-7.12-1.43c-4.65-1.17-9.13-2.6-13.48-4.15s-8.54-3.26-12.65-4.93c-8.19-3.37-16-6.69-23.69-9.23-1.91-.67-3.84-1.2-5.72-1.78s-3.78-1-5.66-1.43-3.73-.82-5.58-1.06a29.35,29.35,0,0,0-5.48-.55A40.4,40.4,0,0,0,209.75,416a75.22,75.22,0,0,0-9.37,3.21,127.89,127.89,0,0,0-28.17,16.55,92.57,92.57,0,0,0-15,14.12c-.75.9-1.36,1.74-1.9,2.45s-1,1.34-1.28,1.85l-1,1.54.93-1.57c.31-.51.75-1.12,1.25-1.86s1.13-1.57,1.89-2.47a90.72,90.72,0,0,1,14.93-14.21,127.85,127.85,0,0,1,28.18-16.65,75.33,75.33,0,0,1,9.41-3.25,40.32,40.32,0,0,1,10.48-1.56,28.87,28.87,0,0,1,5.53.54c1.86.24,3.72.66,5.6,1s3.77.93,5.68,1.43,3.83,1.11,5.74,1.78c7.7,2.53,15.53,5.85,23.73,9.21,4.1,1.66,8.3,3.35,12.63,4.9s8.82,3,13.45,4.12c2.32.59,4.69,1,7.08,1.43s4.84.64,7.31.73a73,73,0,0,0,44.19-11.86A76.86,76.86,0,0,0,374.24,404a75.63,75.63,0,0,0,11.28-32.52c.1-1.48.27-2.95.33-4.43s.09-3,.07-4.46c-.1-3-.23-6-.37-9q-.42-9-.85-18.25-.85-18.42-1.73-37.4h.52a55.71,55.71,0,0,1-1.22,9.45,59.36,59.36,0,0,1-3,9.26,64.54,64.54,0,0,1-4.67,8.75,71.85,71.85,0,0,1-6,8,78.86,78.86,0,0,1-8.47,8.48,74.27,74.27,0,0,1-9.64,7,80.67,80.67,0,0,1-10.59,5.23,82.8,82.8,0,0,1-34.13,5.6,90.6,90.6,0,0,1-11.31-1.28c-3.72-.62-7.38-1.49-11-2.45-14.43-3.88-27.89-9.6-41.5-13.56a191.8,191.8,0,0,0-40.62-7.09,156,156,0,0,0-38.53,1.88,117.15,117.15,0,0,0-17.63,4.62,99.79,99.79,0,0,0-15.82,7.31,88,88,0,0,0-13.44,9.75c-1.92,1.89-4,3.63-5.64,5.65-.87,1-1.77,1.93-2.6,2.93l-2.36,3.05-1.17,1.51-1,1.58c-.7,1.05-1.39,2.09-2.07,3.13-1.3,2.11-2.43,4.27-3.61,6.36-1,2.18-2,4.31-3,6.42L91.92,396l0-.17Z" transform="translate(-25.55 -28.95)"/><path class="cls-3" d="M202.59,408.35l-.07,0a2.34,2.34,0,0,1-2.76-1.7l-11.3-38.09a2.37,2.37,0,0,1,1.45-3h0a2.32,2.32,0,0,1,2.87,1.66l11.36,38.07A2.35,2.35,0,0,1,202.59,408.35Z" transform="translate(-25.55 -28.95)"/><path class="cls-3" d="M188,360.47H188a2.26,2.26,0,0,1-2.62-1.61l-3.64-13a2.25,2.25,0,0,1,1.62-2.79h0a2.24,2.24,0,0,1,2.73,1.57l3.69,13A2.26,2.26,0,0,1,188,360.47Z" transform="translate(-25.55 -28.95)"/><path class="cls-3" d="M192.12,411.66l-.07,0a2.33,2.33,0,0,1-2.84-1.56L176.15,372.6a2.38,2.38,0,0,1,1.31-3h0a2.32,2.32,0,0,1,2.94,1.52l13.13,37.51A2.36,2.36,0,0,1,192.12,411.66Z" transform="translate(-25.55 -28.95)"/><path class="cls-3" d="M174.17,362.42h0a2.26,2.26,0,0,1-2.6-1.64l-3.49-13a2.26,2.26,0,0,1,1.65-2.78h0a2.25,2.25,0,0,1,2.71,1.6l3.54,13A2.27,2.27,0,0,1,174.17,362.42Z" transform="translate(-25.55 -28.95)"/><path class="cls-3" d="M181.71,416.13l-.06,0a2.35,2.35,0,0,1-2.91-1.45l-14.53-37a2.35,2.35,0,0,1,1.18-3.08h0a2.33,2.33,0,0,1,3,1.4L183,413A2.34,2.34,0,0,1,181.71,416.13Z" transform="translate(-25.55 -28.95)"/><path class="cls-3" d="M161,364.63h0a2.23,2.23,0,0,1-2.66-1.43l-4-12.29a2.2,2.2,0,0,1,1.55-2.75h0a2.22,2.22,0,0,1,2.76,1.39l4,12.28A2.21,2.21,0,0,1,161,364.63Z" transform="translate(-25.55 -28.95)"/><path class="cls-3" d="M174,419.9l-.06,0a2.33,2.33,0,0,1-3-1.17L153,383.29a2.37,2.37,0,0,1,.89-3.18h0a2.33,2.33,0,0,1,3.12,1.12l18,35.44A2.33,2.33,0,0,1,174,419.9Z" transform="translate(-25.55 -28.95)"/><path class="cls-3" d="M148.34,369.61h-.05a2.25,2.25,0,0,1-2.82-1.22L140.06,356a2.26,2.26,0,0,1,1.22-3h0a2.25,2.25,0,0,1,2.91,1.18l5.46,12.35A2.26,2.26,0,0,1,148.34,369.61Z" transform="translate(-25.55 -28.95)"/><path class="cls-3" d="M165.38,424.81l-.07,0a2.32,2.32,0,0,1-3.09-1l-20.3-34.15a2.37,2.37,0,0,1,.67-3.24h0a2.34,2.34,0,0,1,3.2.9l20.35,34.13A2.35,2.35,0,0,1,165.38,424.81Z" transform="translate(-25.55 -28.95)"/><path class="cls-3" d="M138,376.34l0,0a2.25,2.25,0,0,1-2.91-1l-6.5-11.82a2.26,2.26,0,0,1,.94-3.1h0a2.26,2.26,0,0,1,3,.91l6.55,11.81A2.25,2.25,0,0,1,138,376.34Z" transform="translate(-25.55 -28.95)"/><path class="cls-3" d="M157.83,429.88l-.06,0a2.33,2.33,0,0,1-3.17-.69L131.41,397a2.35,2.35,0,0,1,.39-3.28h0a2.31,2.31,0,0,1,3.25.63l23.25,32.22A2.34,2.34,0,0,1,157.83,429.88Z" transform="translate(-25.55 -28.95)"/><path class="cls-3" d="M171.23,103.23v.06a2.33,2.33,0,0,1-2.44,2.14l-39.73-.5a2.36,2.36,0,0,1-2.41-2.26h0a2.33,2.33,0,0,1,2.44-2.25l39.73.43A2.36,2.36,0,0,1,171.23,103.23Z" transform="translate(-25.55 -28.95)"/><path class="cls-3" d="M176.88,93v.07a2.35,2.35,0,0,1-2.44,2.14l-39.73-.51a2.36,2.36,0,0,1-2.41-2.26h0a2.34,2.34,0,0,1,2.44-2.25l39.73.43A2.36,2.36,0,0,1,176.88,93Z" transform="translate(-25.55 -28.95)"/><path class="cls-3" d="M126.58,386.66l0,0a2.26,2.26,0,0,1-3-.72l-7.46-11.24a2.26,2.26,0,0,1,.68-3.16h0a2.26,2.26,0,0,1,3.08.66l7.51,11.21A2.27,2.27,0,0,1,126.58,386.66Z" transform="translate(-25.55 -28.95)"/><path class="cls-3" d="M150.26,438.45l-.06,0A2.33,2.33,0,0,1,147,438l-24.72-31.1a2.36,2.36,0,0,1,.23-3.3h0a2.32,2.32,0,0,1,3.28.47l24.78,31.06A2.34,2.34,0,0,1,150.26,438.45Z" transform="translate(-25.55 -28.95)"/><path class="cls-3" d="M116.65,399.88l0,0a2.27,2.27,0,0,1-3.06-.35l-8.78-10.23a2.26,2.26,0,0,1,.28-3.22h0a2.26,2.26,0,0,1,3.14.27L117,396.59A2.25,2.25,0,0,1,116.65,399.88Z" transform="translate(-25.55 -28.95)"/><path class="cls-3" d="M212.89,406.11l-.07,0a2.27,2.27,0,0,1-2.62-1.75l-8.32-36.56a2.28,2.28,0,0,1,1.67-2.73h0a2.27,2.27,0,0,1,2.73,1.72l8.39,36.55A2.27,2.27,0,0,1,212.89,406.11Z" transform="translate(-25.55 -28.95)"/><path class="cls-3" d="M202.33,359.32h-.05a2.19,2.19,0,0,1-2.5-1.59L197,345.53a2.15,2.15,0,0,1,1.8-2.52h0a2.21,2.21,0,0,1,2.61,1.58l2.79,12.18A2.17,2.17,0,0,1,202.33,359.32Z" transform="translate(-25.55 -28.95)"/><path class="cls-3" d="M224.37,405.82h-.07a2.2,2.2,0,0,1-2.51-1.76l-6.18-35a2.2,2.2,0,0,1,1.82-2.52h0a2.23,2.23,0,0,1,2.62,1.75l6.25,35A2.2,2.2,0,0,1,224.37,405.82Z" transform="translate(-25.55 -28.95)"/><path class="cls-3" d="M215.74,360.69h-.05a2,2,0,0,1-2.1-1.7l-1.7-11.76a2,2,0,0,1,1.73-2.26h0a2,2,0,0,1,2.2,1.69l1.75,11.75A2,2,0,0,1,215.74,360.69Z" transform="translate(-25.55 -28.95)"/><path class="cls-3" d="M236.67,407.87h-.07a2,2,0,0,1-2.31-1.62L228.6,374a2,2,0,0,1,1.68-2.32h0a2,2,0,0,1,2.41,1.6l5.75,32.21A2,2,0,0,1,236.67,407.87Z" transform="translate(-25.55 -28.95)"/><path class="cls-3" d="M229.85,364.57h0a2.07,2.07,0,0,1-2.22-1.75l-2-12.25a2.08,2.08,0,0,1,1.78-2.39h0a2.07,2.07,0,0,1,2.32,1.72l2,12.26A2.08,2.08,0,0,1,229.85,364.57Z" transform="translate(-25.55 -28.95)"/><path class="cls-3" d="M249.93,411.41h-.06a2,2,0,0,1-2.32-1.62l-5.68-32.22a2,2,0,0,1,1.67-2.32h0a2,2,0,0,1,2.42,1.61l5.75,32.21A2,2,0,0,1,249.93,411.41Z" transform="translate(-25.55 -28.95)"/><path class="cls-3" d="M241.79,368.72h0a2.07,2.07,0,0,1-2.23-1.74l-1.95-12.26a2.07,2.07,0,0,1,1.77-2.38h0a2.07,2.07,0,0,1,2.33,1.72l2,12.25A2.08,2.08,0,0,1,241.79,368.72Z" transform="translate(-25.55 -28.95)"/><path class="cls-3" d="M262.06,415H262a2,2,0,0,1-2.32-1.62L254,381.12a2,2,0,0,1,1.68-2.32h0a2.05,2.05,0,0,1,2.41,1.61l5.75,32.21A2,2,0,0,1,262.06,415Z" transform="translate(-25.55 -28.95)"/><path class="cls-3" d="M253.72,372.86h0a2.08,2.08,0,0,1-2.23-1.74l-2-12.26a2.09,2.09,0,0,1,1.78-2.39h0a2.09,2.09,0,0,1,2.33,1.73l2,12.25A2.08,2.08,0,0,1,253.72,372.86Z" transform="translate(-25.55 -28.95)"/><path class="cls-3" d="M273.22,421.19h-.07a2,2,0,0,1-2.31-1.62l-5.69-32.22a2,2,0,0,1,1.68-2.32h0a2,2,0,0,1,2.41,1.61L275,418.86A2,2,0,0,1,273.22,421.19Z" transform="translate(-25.55 -28.95)"/><path class="cls-3" d="M266.14,376.42h-.05a2.07,2.07,0,0,1-2.19-1.78l-1.71-12.3A2.07,2.07,0,0,1,264,360h0a2.07,2.07,0,0,1,2.29,1.77l1.76,12.29A2.08,2.08,0,0,1,266.14,376.42Z" transform="translate(-25.55 -28.95)"/><path class="cls-3" d="M286.2,425.09h-.07a2,2,0,0,1-2.31-1.62l-5.69-32.22a2,2,0,0,1,1.68-2.32h0a2,2,0,0,1,2.41,1.61L288,422.76A2,2,0,0,1,286.2,425.09Z" transform="translate(-25.55 -28.95)"/><path class="cls-3" d="M278,380.8h-.05a2.07,2.07,0,0,1-2.19-1.79L274,366.72a2.08,2.08,0,0,1,1.82-2.35h0a2.08,2.08,0,0,1,2.29,1.77l1.76,12.3A2.07,2.07,0,0,1,278,380.8Z" transform="translate(-25.55 -28.95)"/><path class="cls-3" d="M298,428.13H298a2,2,0,0,1-2.31-1.62L290,394.3a2,2,0,0,1,1.68-2.32h0a2,2,0,0,1,2.41,1.6l5.75,32.22A2,2,0,0,1,298,428.13Z" transform="translate(-25.55 -28.95)"/><path class="cls-3" d="M289.88,384.54h0a2.08,2.08,0,0,1-2.2-1.79l-1.7-12.3a2.08,2.08,0,0,1,1.82-2.35h0a2.09,2.09,0,0,1,2.29,1.77l1.76,12.3A2.08,2.08,0,0,1,289.88,384.54Z" transform="translate(-25.55 -28.95)"/><path class="cls-3" d="M310.61,430.34h-.07a2,2,0,0,1-2.31-1.62l-5.69-32.22a2,2,0,0,1,1.68-2.32h0a2,2,0,0,1,2.41,1.6L312.38,428A2,2,0,0,1,310.61,430.34Z" transform="translate(-25.55 -28.95)"/><path class="cls-3" d="M304.1,385.24h-.05a2.06,2.06,0,0,1-2.31-1.63l-2.57-12.14a2.08,2.08,0,0,1,1.66-2.47h0a2.07,2.07,0,0,1,2.41,1.6l2.61,12.14A2.07,2.07,0,0,1,304.1,385.24Z" transform="translate(-25.55 -28.95)"/><path class="cls-3" d="M323.19,429.52h-.07a2,2,0,0,1-2.31-1.62l-5.69-32.22a2,2,0,0,1,1.68-2.32h0a2,2,0,0,1,2.41,1.6L325,427.18A2,2,0,0,1,323.19,429.52Z" transform="translate(-25.55 -28.95)"/><path class="cls-3" d="M315.45,384.45h0a2.1,2.1,0,0,1-2.32-1.63l-2.56-12.15a2.07,2.07,0,0,1,1.65-2.47h0a2.08,2.08,0,0,1,2.41,1.61L317.21,382A2.09,2.09,0,0,1,315.45,384.45Z" transform="translate(-25.55 -28.95)"/><path class="cls-3" d="M334.16,426.21h-.07a2,2,0,0,1-2.3-1.56l-5.55-31.17a2,2,0,0,1,1.69-2.25h0a2,2,0,0,1,2.4,1.54l5.61,31.16A2,2,0,0,1,334.16,426.21Z" transform="translate(-25.55 -28.95)"/><path class="cls-3" d="M326.54,382.45h-.05a2.05,2.05,0,0,1-2.3-1.57l-2.51-11.75a2,2,0,0,1,1.66-2.4h0a2.05,2.05,0,0,1,2.4,1.55L328.3,380A2,2,0,0,1,326.54,382.45Z" transform="translate(-25.55 -28.95)"/><path class="cls-3" d="M344,418.9h-.06a2,2,0,0,1-2.31-1.56l-5.54-31.17a2,2,0,0,1,1.68-2.25h0a2,2,0,0,1,2.41,1.54l5.61,31.16A2,2,0,0,1,344,418.9Z" transform="translate(-25.55 -28.95)"/><path class="cls-3" d="M336.44,378.3h-.05a2,2,0,0,1-2.28-1.36l-2.32-10.37a1.9,1.9,0,0,1,1.69-2.15h0a2,2,0,0,1,2.38,1.33l2.37,10.36A1.92,1.92,0,0,1,336.44,378.3Z" transform="translate(-25.55 -28.95)"/><path class="cls-3" d="M353.74,412.23h-.06a1.91,1.91,0,0,1-2.2-1.49l-5.28-29.7a1.89,1.89,0,0,1,1.6-2.14h0a1.92,1.92,0,0,1,2.29,1.47l5.35,29.69A1.91,1.91,0,0,1,353.74,412.23Z" transform="translate(-25.55 -28.95)"/><path class="cls-3" d="M346.55,373.54h-.05a1.94,1.94,0,0,1-2.19-1.5l-2.4-11.19a2,2,0,0,1,1.59-2.29h0a2,2,0,0,1,2.29,1.47l2.43,11.19A1.94,1.94,0,0,1,346.55,373.54Z" transform="translate(-25.55 -28.95)"/><path class="cls-3" d="M364,404.47h-.06a1.89,1.89,0,0,1-2.21-1.36l-5-27.73a1.85,1.85,0,0,1,1.65-2h0a1.92,1.92,0,0,1,2.31,1.35l5.09,27.72A1.88,1.88,0,0,1,364,404.47Z" transform="translate(-25.55 -28.95)"/><path class="cls-3" d="M357.07,367.91h0a2,2,0,0,1-2.23-1.51L352.37,355a2,2,0,0,1,1.61-2.32h0a2,2,0,0,1,2.32,1.49l2.48,11.36A2,2,0,0,1,357.07,367.91Z" transform="translate(-25.55 -28.95)"/><path class="cls-3" d="M372.07,393.61H372a1.77,1.77,0,0,1-2.07-1.27l-4.69-25.86a1.72,1.72,0,0,1,1.54-1.89h0a1.77,1.77,0,0,1,2.15,1.26l4.76,25.85A1.75,1.75,0,0,1,372.07,393.61Z" transform="translate(-25.55 -28.95)"/><path class="cls-3" d="M365.61,359.51h0a1.85,1.85,0,0,1-2.08-1.41l-2.27-10.61a1.84,1.84,0,0,1,1.5-2.16h0a1.85,1.85,0,0,1,2.17,1.39l2.31,10.6A1.85,1.85,0,0,1,365.61,359.51Z" transform="translate(-25.55 -28.95)"/><path class="cls-3" d="M378.34,382.93h0a1.61,1.61,0,0,1-1.88-1.16l-4.27-23.53a1.57,1.57,0,0,1,1.4-1.72h0a1.63,1.63,0,0,1,2,1.14l4.32,23.53A1.58,1.58,0,0,1,378.34,382.93Z" transform="translate(-25.55 -28.95)"/><path class="cls-3" d="M372.46,351.9h0a1.68,1.68,0,0,1-1.89-1.29L368.47,341a1.66,1.66,0,0,1,1.36-2h0a1.68,1.68,0,0,1,2,1.26l2.11,9.64A1.68,1.68,0,0,1,372.46,351.9Z" transform="translate(-25.55 -28.95)"/><path class="cls-4" d="M268.18,193.22s0,.18,0,.53a13.89,13.89,0,0,0,.11,1.56A18.38,18.38,0,0,0,270,201a26.79,26.79,0,0,0,5.62,7.58,39.14,39.14,0,0,0,10.62,6.62,87.88,87.88,0,0,0,14.41,5c2.65.71,5.49,1,8.35,1.76,1.43.35,2.84.83,4.28,1.29l2.17.7,2.18.77a135.69,135.69,0,0,1,35.52,18.78,83.15,83.15,0,0,1,15.09,14.41,65.54,65.54,0,0,1,9.48,16.94c4.48,11.62,5.91,22.85,6.56,32.16s.51,16.94.46,22.17c0,2.61-.09,4.65-.13,6l-.06,1.57c0,.35,0,.53,0,.53s0-.18,0-.53v-1.57c0-1.4,0-3.43,0-6,0-5.23.07-12.81-.62-22.14s-2.17-20.47-6.65-32a65.13,65.13,0,0,0-9.43-16.8,82.77,82.77,0,0,0-15-14.31A136.27,136.27,0,0,0,317.5,225.2l-2.17-.78-2.16-.69c-1.44-.46-2.84-.94-4.26-1.29-2.81-.76-5.66-1.06-8.33-1.79a88.36,88.36,0,0,1-14.46-5.08,39.54,39.54,0,0,1-10.68-6.75,27,27,0,0,1-5.6-7.71,18,18,0,0,1-1.67-5.79,11.56,11.56,0,0,1-.05-1.57A2.46,2.46,0,0,1,268.18,193.22Z" transform="translate(-25.55 -28.95)"/><path class="cls-4" d="M379.15,317.12a2.86,2.86,0,0,1-.22.55c-.19.4-.42.9-.72,1.52s-.7,1.46-1.22,2.36-1.05,1.95-1.77,3-1.45,2.32-2.35,3.55-1.9,2.55-3,3.91A72,72,0,0,1,353.24,347c-1.47.91-2.85,1.8-4.21,2.51s-2.62,1.39-3.79,2-2.27,1-3.22,1.42-1.79.72-2.48.95l-1.59.55a2.62,2.62,0,0,1-.56.15,2.15,2.15,0,0,1,.53-.25l1.55-.64c.68-.26,1.5-.59,2.43-1s2-.87,3.17-1.49,2.44-1.22,3.75-2,2.7-1.62,4.16-2.54a74.61,74.61,0,0,0,16.56-14.83c1.07-1.34,2.11-2.59,3-3.85s1.69-2.41,2.39-3.5,1.3-2.1,1.83-3,1-1.66,1.29-2.31.59-1.08.8-1.47A2.66,2.66,0,0,1,379.15,317.12Z" transform="translate(-25.55 -28.95)"/><path class="cls-4" d="M201.83,84.43a30.81,30.81,0,0,0-5.6,1.23,21.14,21.14,0,0,0-14.43,21.28,30.46,30.46,0,0,0,.93,5.66s-.08-.12-.18-.36-.24-.61-.37-1.1a19.21,19.21,0,0,1-.75-4.18,20.93,20.93,0,0,1,14.68-21.65,19.27,19.27,0,0,1,4.16-.85c.5-.06.9,0,1.16-.06S201.83,84.41,201.83,84.43Z" transform="translate(-25.55 -28.95)"/><path class="cls-4" d="M104.71,84.43s-.61.09-1.7.29A29,29,0,0,0,98.48,86a45.42,45.42,0,0,0-6.35,2.88,39.12,39.12,0,0,0-7,4.81A16.47,16.47,0,0,0,82.22,97c-.81,1.19-1.61,2.32-2.32,3.43a23.37,23.37,0,0,0-3,6.25,22.93,22.93,0,0,0-.82,4.62,16.82,16.82,0,0,1-.15,1.73,1.27,1.27,0,0,1-.05-.45c0-.3,0-.73,0-1.29a20.59,20.59,0,0,1,.66-4.71,22.49,22.49,0,0,1,3-6.41C80.2,99,81,97.89,81.8,96.7a16.48,16.48,0,0,1,3-3.38,37.12,37.12,0,0,1,7.14-4.85,43.41,43.41,0,0,1,6.46-2.81A25.17,25.17,0,0,1,103,84.52a9.25,9.25,0,0,1,1.29-.1A1.4,1.4,0,0,1,104.71,84.43Z" transform="translate(-25.55 -28.95)"/><path class="cls-3" d="M113.94,102.74v.05a2.27,2.27,0,0,1-2.21,2.14l-13.49.26a2.25,2.25,0,0,1-2.3-2.26h0a2.26,2.26,0,0,1,2.2-2.25l13.5-.32A2.26,2.26,0,0,1,113.94,102.74Z" transform="translate(-25.55 -28.95)"/><path class="cls-3" d="M118.42,93.26v0a2.25,2.25,0,0,1-2.2,2.14l-13.49.27a2.27,2.27,0,0,1-2.31-2.27h0a2.27,2.27,0,0,1,2.21-2.25l13.49-.32A2.27,2.27,0,0,1,118.42,93.26Z" transform="translate(-25.55 -28.95)"/><path class="cls-4" d="M210,415.93a4,4,0,0,1-.34.64c-.26.46-.61,1.05-1,1.79s-1,1.73-1.77,2.77-1.52,2.28-2.57,3.52l-1.58,2c-.55.69-1.2,1.34-1.83,2.05-1.25,1.43-2.73,2.82-4.27,4.3a86.38,86.38,0,0,1-11,8.45,118.35,118.35,0,0,1-22.6,11c-3,1.11-5.49,1.94-7.22,2.47l-2,.6a3.49,3.49,0,0,1-.7.17,4,4,0,0,1,.67-.27l2-.7c1.7-.58,4.15-1.46,7.15-2.62A125.88,125.88,0,0,0,185.31,441a89,89,0,0,0,10.95-8.37c1.53-1.46,3-2.82,4.27-4.24.63-.69,1.29-1.33,1.84-2l1.6-1.94c1.06-1.21,1.85-2.44,2.62-3.46s1.36-1.94,1.84-2.7l1.12-1.74A4.07,4.07,0,0,1,210,415.93Z" transform="translate(-25.55 -28.95)"/><rect class="cls-7" x="32.37" y="82.95" width="148.39" height="217.67" rx="11.45"/><rect class="cls-6" x="39.35" y="99.5" width="124.6" height="50.23" rx="5.19"/><rect class="cls-3" x="42.48" y="160.69" width="36.16" height="18.98" rx="7.43"/><rect class="cls-3" x="84.49" y="160.69" width="36.16" height="18.98" rx="7.43"/><rect class="cls-5" x="126.5" y="160.69" width="36.16" height="18.98" rx="7.43"/><rect class="cls-6" x="42.48" y="186.49" width="36.16" height="18.98" rx="7.43"/><rect class="cls-6" x="84.49" y="186.49" width="36.16" height="18.98" rx="7.43"/><rect class="cls-6" x="126.5" y="186.49" width="36.16" height="18.98" rx="7.43"/><rect class="cls-6" x="126.5" y="212.1" width="36.16" height="18.98" rx="7.43"/><rect class="cls-6" x="42.48" y="212.3" width="36.16" height="18.98" rx="7.43"/><rect class="cls-6" x="84.49" y="212.3" width="36.16" height="18.98" rx="7.43"/><rect class="cls-6" x="42.48" y="263.91" width="36.16" height="18.98" rx="7.43"/><rect class="cls-6" x="84.91" y="263.91" width="36.16" height="18.98" rx="7.43"/><rect class="cls-6" x="42.48" y="238.11" width="36.16" height="18.98" rx="7.43"/><rect class="cls-6" x="84.49" y="238.11" width="36.16" height="18.98" rx="7.43"/><rect class="cls-5" x="126.49" y="237.88" width="36.16" height="44.79" rx="7.43"/><path class="cls-4" d="M90.73,220.43v.95l-4,8.87H85.28l3.88-8.6H84.67v1.75H83.33v-3Z" transform="translate(-25.55 -28.95)"/><path class="cls-4" d="M132.14,227.47c0,1.78-1.51,2.89-3.91,2.89s-3.89-1.11-3.89-2.89a2.44,2.44,0,0,1,1.73-2.37,2.22,2.22,0,0,1-1.38-2.12c0-1.64,1.42-2.66,3.54-2.66s3.56,1,3.56,2.66a2.23,2.23,0,0,1-1.39,2.12A2.44,2.44,0,0,1,132.14,227.47Zm-1.4,0c0-1.08-1-1.76-2.51-1.76s-2.48.68-2.48,1.76.92,1.79,2.48,1.79S130.74,228.53,130.74,227.43ZM126.08,223c0,1,.8,1.57,2.15,1.57s2.18-.6,2.18-1.57-.86-1.59-2.18-1.59S126.08,222.06,126.08,223Z" transform="translate(-25.55 -28.95)"/><path class="cls-4" d="M173.92,224.41c0,3.35-1.89,5.14-4.64,5.14a4.76,4.76,0,0,1-2.44-.57l.54-1.09a3.47,3.47,0,0,0,1.89.46c2,0,3.25-1.25,3.25-3.7v-.35a3.28,3.28,0,0,1-2.83,1.29c-1.95,0-3.35-1.17-3.35-3a3.16,3.16,0,0,1,3.46-3.1C172.44,219.51,173.92,221.28,173.92,224.41Zm-1.72-1.87c0-1-.81-1.89-2.34-1.89a1.93,1.93,0,0,0-2.16,1.91c0,1.15.85,1.89,2.23,1.89A2,2,0,0,0,172.2,222.54Z" transform="translate(-25.55 -28.95)"/><path class="cls-4" d="M92,253.64H90.14v2.41H88.78v-2.41H83.33v-1l5-6.42h1.51l-4.81,6.19h3.78V250.3h1.31v2.13H92Z" transform="translate(-25.55 -28.95)"/><path class="cls-4" d="M132.82,253.11c0,1.69-1.21,3.05-3.72,3.05a5.57,5.57,0,0,1-3.6-1.19l.64-1.11a4.42,4.42,0,0,0,3,1.06c1.48,0,2.33-.69,2.33-1.76s-.71-1.79-3-1.79h-2.23l.52-5.13h5.54v1.22h-4.36l-.27,2.69h1.1C131.67,250.15,132.82,251.37,132.82,253.11Z" transform="translate(-25.55 -28.95)"/><path class="cls-4" d="M173.93,252.47a3.18,3.18,0,0,1-3.48,3.1c-2.63,0-4.12-1.77-4.12-4.9,0-3.35,1.89-5.14,4.64-5.14a4.74,4.74,0,0,1,2.44.57l-.53,1.09a3.48,3.48,0,0,0-1.88-.46c-2,0-3.27,1.25-3.27,3.7a2.06,2.06,0,0,0,0,.35,3.27,3.27,0,0,1,2.82-1.29C172.51,249.49,173.93,250.66,173.93,252.47Zm-1.36.05c0-1.15-.87-1.89-2.24-1.89a2,2,0,0,0-2.26,1.91c0,1,.81,1.89,2.33,1.89A1.94,1.94,0,0,0,172.57,252.52Z" transform="translate(-25.55 -28.95)"/><path class="cls-4" d="M87.91,297.45v9.81H86.53v-8.59H84.31v-1.22Z" transform="translate(-25.55 -28.95)"/><path class="cls-4" d="M89.17,280.14v1.22h-7v-.95l4-3.86c1-1,1.24-1.63,1.24-2.24,0-1-.72-1.63-2.09-1.63a3.09,3.09,0,0,0-2.51,1.06l-1-.82a4.53,4.53,0,0,1,3.59-1.49c2.05,0,3.37,1.05,3.37,2.74,0,.95-.28,1.8-1.61,3.08l-3,2.89Z" transform="translate(-25.55 -28.95)"/><path class="cls-4" d="M134.07,278.51c0,1.66-1.21,3-3.71,3a5.56,5.56,0,0,1-3.6-1.19l.64-1.11a4.4,4.4,0,0,0,3,1.05c1.47,0,2.31-.67,2.31-1.73s-.74-1.71-2.42-1.71h-.79v-1l2.47-3H127.2v-1.22h6.48v1l-2.56,3.17C133.08,275.89,134.07,277,134.07,278.51Z" transform="translate(-25.55 -28.95)"/><path class="cls-4" d="M126.41,302.36c0-3.2,1.71-5,4-5s4,1.82,4,5-1.71,5-4,5S126.41,305.55,126.41,302.36Zm6.61,0c0-2.51-1.07-3.78-2.6-3.78s-2.56,1.27-2.56,3.78,1,3.77,2.56,3.77S133,304.87,133,302.36Z" transform="translate(-25.55 -28.95)"/><path class="cls-4" d="M82.27,199.13a4.26,4.26,0,0,1,4.47-4.31A4.15,4.15,0,0,1,90,196.13l-.78.76a3.12,3.12,0,0,0-2.38-1,3.24,3.24,0,1,0,0,6.48,3.13,3.13,0,0,0,2.38-1l.78.76a4.17,4.17,0,0,1-3.22,1.32A4.27,4.27,0,0,1,82.27,199.13Z" transform="translate(-25.55 -28.95)"/><rect class="cls-4" x="140.99" y="259.52" width="7.17" height="0.75"/><path class="cls-4" d="M174.08,289.6h-7.9v-1.5h7.9Zm-7.16-.74,6.43,0Z" transform="translate(-25.55 -28.95)"/><rect class="cls-4" x="166.55" y="288.47" width="7.17" height="0.75" transform="translate(-144.27 430.03) rotate(-90)"/><path class="cls-4" d="M170.88,292.8h-1.5v-7.9h1.5Zm-.76-.73h0l0-6.44Z" transform="translate(-25.55 -28.95)"/><rect class="cls-4" x="140.28" y="168.57" width="10.09" height="1.29"/><rect class="cls-4" x="140.28" y="172.46" width="10.09" height="1.29"/><rect class="cls-4" x="91.86" y="169.91" width="7.17" height="0.75"/><path class="cls-4" d="M125,200h-7.9v-1.5H125Zm-7.17-.74,6.44,0Z" transform="translate(-25.55 -28.95)"/><path class="cls-4" d="M122.2,195.3a1.2,1.2,0,1,1-1.2-1.21A1.2,1.2,0,0,1,122.2,195.3Z" transform="translate(-25.55 -28.95)"/><path class="cls-4" d="M122.2,203a1.2,1.2,0,1,1-1.2-1.2A1.21,1.21,0,0,1,122.2,203Z" transform="translate(-25.55 -28.95)"/><polygon class="cls-4" points="113.91 167.91 112.86 166.85 110.59 169.12 108.32 166.85 107.26 167.91 109.53 170.18 107.26 172.45 108.32 173.5 110.59 171.23 112.85 173.5 113.91 172.45 111.64 170.18 113.91 167.91"/><path class="cls-4" d="M110.84,159.38c0,3.13-2.16,5.59-6.61,5.59a9.31,9.31,0,0,1-6.52-2.38l.91-1.5a7.83,7.83,0,0,0,5.59,2.14c3.09,0,4.73-1.53,4.73-3.77s-1.46-3.85-6.08-3.85H99l.94-9.25h10v1.69h-8.32l-.63,5.87h2.34C108.76,153.92,110.84,156.11,110.84,159.38Z" transform="translate(-25.55 -28.95)"/><path class="cls-4" d="M113.2,155.58c0-5.87,3-9.38,7.26-9.38s7.28,3.51,7.28,9.38-3.07,9.39-7.28,9.39S113.2,161.46,113.2,155.58Zm12.61,0c0-4.92-2.18-7.64-5.35-7.64s-5.36,2.72-5.36,7.64,2.19,7.65,5.36,7.65S125.81,160.51,125.81,155.58Z" transform="translate(-25.55 -28.95)"/><path class="cls-4" d="M130.16,163.49a1.38,1.38,0,0,1,1.38-1.42,1.4,1.4,0,0,1,1.4,1.42,1.43,1.43,0,0,1-1.4,1.45A1.41,1.41,0,0,1,130.16,163.49Z" transform="translate(-25.55 -28.95)"/><path class="cls-4" d="M148.33,163.12v1.69H135.57v-1.35l7.56-7.51c2.06-2,2.45-3.29,2.45-4.56,0-2.13-1.49-3.45-4.27-3.45a6.11,6.11,0,0,0-5,2.06L135,148.84a8.12,8.12,0,0,1,6.45-2.64c3.69,0,6,1.9,6,5,0,1.77-.55,3.35-3,5.77l-6.19,6.17Z" transform="translate(-25.55 -28.95)"/><path class="cls-4" d="M162.71,159.51c0,3.08-2.21,5.46-6.6,5.46a9.37,9.37,0,0,1-6.55-2.38l.91-1.5a7.9,7.9,0,0,0,5.64,2.14c3,0,4.68-1.43,4.68-3.72s-1.54-3.66-4.92-3.66h-1.3v-1.4l5.05-6.4h-9.31v-1.69H162v1.34l-5.15,6.57C160.76,154.48,162.71,156.56,162.71,159.51Z" transform="translate(-25.55 -28.95)"/><path class="cls-4" d="M165.34,155.58c0-5.87,3-9.38,7.25-9.38s7.28,3.51,7.28,9.38-3.06,9.39-7.28,9.39S165.34,161.46,165.34,155.58Zm12.61,0c0-4.92-2.18-7.64-5.36-7.64s-5.35,2.72-5.35,7.64,2.18,7.65,5.35,7.65S178,160.51,178,155.58Z" transform="translate(-25.55 -28.95)"/><path class="cls-4" d="M197,318.36c-.14,0-.26-45.65-.26-101.93s.12-101.95.26-101.95.26,45.64.26,102S197.14,318.36,197,318.36Z" transform="translate(-25.55 -28.95)"/><g class="cls-8"><path d="M185.25,128.45H69.55a4.65,4.65,0,0,0-4.65,4.65v40.52A5.07,5.07,0,0,0,70,178.68c-1.64-1.17-2.86-2.58-2.69-4.75,0,0-.38-36.74,0-39.92a4.37,4.37,0,0,1,3.18-3.81s113.28-.26,115.06,0,4,3.31,4,3.31A5.12,5.12,0,0,0,185.25,128.45Z" transform="translate(-25.55 -28.95)"/></g></g><g id="Coins"><g id="freepik--Coins--inject-2"><rect class="cls-7" x="338.36" y="354.18" width="71.89" height="14.5"/><path class="cls-4" d="M431.17,383.38a79.75,79.75,0,0,0,0,14.05c.17,0,.32-3.14.32-7S431.35,383.38,431.17,383.38Z" transform="translate(-25.55 -28.95)"/><path class="cls-4" d="M424.51,383.38c-.17,0-.31,3.15-.31,7s.14,7,.31,7,.32-3.14.32-7S424.68,383.38,424.51,383.38Z" transform="translate(-25.55 -28.95)"/><path class="cls-4" d="M417.92,383.38c-.17,0-.31,3.15-.31,7s.14,7,.31,7,.32-3.14.32-7S418.1,383.38,417.92,383.38Z" transform="translate(-25.55 -28.95)"/><path class="cls-4" d="M411.37,383.38c-.17,0-.31,3.15-.31,7s.14,7,.31,7,.31-3.14.31-7S411.56,383.38,411.37,383.38Z" transform="translate(-25.55 -28.95)"/><path class="cls-4" d="M404.82,383.38c-.18,0-.31,3.15-.31,7s.13,7,.31,7,.31-3.14.31-7S405,383.38,404.82,383.38Z" transform="translate(-25.55 -28.95)"/><path class="cls-4" d="M398.27,383.38c-.18,0-.31,3.15-.31,7s.13,7,.31,7,.31-3.14.31-7S398.44,383.38,398.27,383.38Z" transform="translate(-25.55 -28.95)"/><path class="cls-4" d="M391.72,383.38c-.18,0-.32,3.15-.32,7s.14,7,.32,7,.31-3.14.31-7S391.89,383.38,391.72,383.38Z" transform="translate(-25.55 -28.95)"/><path class="cls-4" d="M385.16,383.38c-.17,0-.31,3.15-.31,7s.14,7,.31,7,.32-3.14.32-7S385.34,383.38,385.16,383.38Z" transform="translate(-25.55 -28.95)"/><path class="cls-4" d="M378.61,383.38c-.17,0-.31,3.15-.31,7s.14,7,.31,7,.31-3.14.31-7S378.79,383.38,378.61,383.38Z" transform="translate(-25.55 -28.95)"/><path class="cls-4" d="M372.06,383.38c-.18,0-.31,3.15-.31,7s.13,7,.31,7,.31-3.14.31-7S372.24,383.38,372.06,383.38Z" transform="translate(-25.55 -28.95)"/><path class="cls-4" d="M365.51,383.38c-.18,0-.31,3.15-.31,7s.13,7,.31,7,.31-3.14.31-7A41.33,41.33,0,0,0,365.51,383.38Z" transform="translate(-25.55 -28.95)"/><path class="cls-4" d="M399.73,382.87c-19.82,0-35.88.14-35.88.31s16.07.31,35.88.31,35.88-.13,35.88-.31" transform="translate(-25.55 -28.95)"/><rect class="cls-7" x="336.74" y="368.43" width="71.89" height="14.5"/><path class="cls-4" d="M429.57,397.64c-.18,0-.31,3.14-.31,7s.13,7,.31,7,.31-3.15.31-7A41.23,41.23,0,0,0,429.57,397.64Z" transform="translate(-25.55 -28.95)"/><path class="cls-4" d="M422.9,397.64c-.18,0-.31,3.14-.31,7s.13,7,.31,7,.31-3.15.31-7S423.07,397.64,422.9,397.64Z" transform="translate(-25.55 -28.95)"/><path class="cls-4" d="M416.31,397.64c-.17,0-.31,3.14-.31,7s.14,7,.31,7a41.5,41.5,0,0,0,.31-7C416.62,400.77,416.48,397.64,416.31,397.64Z" transform="translate(-25.55 -28.95)"/><path class="cls-4" d="M409.76,397.64c-.18,0-.32,3.14-.32,7s.14,7,.32,7,.31-3.15.31-7S409.93,397.64,409.76,397.64Z" transform="translate(-25.55 -28.95)"/><path class="cls-4" d="M403.2,397.64c-.17,0-.31,3.14-.31,7s.14,7,.31,7,.32-3.15.32-7S403.38,397.64,403.2,397.64Z" transform="translate(-25.55 -28.95)"/><path class="cls-4" d="M396.65,397.64c-.17,0-.31,3.14-.31,7s.14,7,.31,7,.31-3.15.31-7S396.83,397.64,396.65,397.64Z" transform="translate(-25.55 -28.95)"/><path class="cls-4" d="M390.14,397.64c-.18,0-.31,3.14-.31,7s.13,7,.31,7,.31-3.15.31-7A43.86,43.86,0,0,0,390.14,397.64Z" transform="translate(-25.55 -28.95)"/><path class="cls-4" d="M383.55,397.64c-.18,0-.31,3.14-.31,7s.13,7,.31,7,.31-3.15.31-7S383.72,397.64,383.55,397.64Z" transform="translate(-25.55 -28.95)"/><path class="cls-4" d="M377,397.64c-.18,0-.32,3.14-.32,7s.14,7,.32,7,.31-3.15.31-7S377.17,397.64,377,397.64Z" transform="translate(-25.55 -28.95)"/><path class="cls-4" d="M370.44,397.64c-.17,0-.31,3.14-.31,7s.14,7,.31,7,.32-3.15.32-7S370.67,397.64,370.44,397.64Z" transform="translate(-25.55 -28.95)"/><path class="cls-4" d="M363.85,397.64c-.17,0-.31,3.14-.31,7s.14,7,.31,7,.31-3.15.31-7S364.07,397.64,363.85,397.64Z" transform="translate(-25.55 -28.95)"/><g class="cls-9"><path d="M433,397.4a261.53,261.53,0,0,1-69.59,0Z" transform="translate(-25.55 -28.95)"/></g><path class="cls-4" d="M362.28,397.43c0,.18,16.06.31,35.88.31s35.88-.13,35.88-.31-16.06-.31-35.88-.31S362.28,397.32,362.28,397.43Z" transform="translate(-25.55 -28.95)"/><rect class="cls-7" x="343.58" y="382.46" width="71.89" height="14.5"/><path class="cls-4" d="M436.39,411.66c-.17,0-.31,3.15-.31,7s.14,7,.31,7,.31-3.14.31-7S436.56,411.66,436.39,411.66Z" transform="translate(-25.55 -28.95)"/><path class="cls-4" d="M429.72,411.66c-.17,0-.31,3.15-.31,7s.14,7,.31,7,.31-3.14.31-7S429.9,411.66,429.72,411.66Z" transform="translate(-25.55 -28.95)"/><path class="cls-4" d="M423.13,411.66a79.75,79.75,0,0,0,0,14c.17,0,.31-3.14.31-7S423.31,411.66,423.13,411.66Z" transform="translate(-25.55 -28.95)"/><path class="cls-4" d="M416.58,411.66c-.17,0-.31,3.15-.31,7s.14,7,.31,7,.31-3.14.31-7S416.76,411.66,416.58,411.66Z" transform="translate(-25.55 -28.95)"/><path class="cls-4" d="M410,411.66c-.17,0-.31,3.15-.31,7s.14,7,.31,7a41.33,41.33,0,0,0,.31-7C410.34,414.8,410.2,411.66,410,411.66Z" transform="translate(-25.55 -28.95)"/><path class="cls-4" d="M403.48,411.66c-.17,0-.32,3.15-.32,7s.15,7,.32,7a41.33,41.33,0,0,0,.31-7C403.79,414.8,403.65,411.66,403.48,411.66Z" transform="translate(-25.55 -28.95)"/><path class="cls-4" d="M397,411.66c-.17,0-.31,3.15-.31,7s.14,7,.31,7,.32-3.14.32-7A42,42,0,0,0,397,411.66Z" transform="translate(-25.55 -28.95)"/><path class="cls-4" d="M390.37,411.66c-.17,0-.31,3.15-.31,7s.14,7,.31,7,.31-3.14.31-7S390.55,411.66,390.37,411.66Z" transform="translate(-25.55 -28.95)"/><path class="cls-4" d="M383.82,411.66c-.17,0-.31,3.15-.31,7s.14,7,.31,7,.31-3.14.31-7S384,411.66,383.82,411.66Z" transform="translate(-25.55 -28.95)"/><path class="cls-4" d="M377.27,411.66c-.18,0-.31,3.15-.31,7s.13,7,.31,7,.31-3.14.31-7S377.48,411.66,377.27,411.66Z" transform="translate(-25.55 -28.95)"/><path class="cls-4" d="M370.72,411.66c-.18,0-.31,3.15-.31,7s.13,7,.31,7,.31-3.14.31-7S370.89,411.66,370.72,411.66Z" transform="translate(-25.55 -28.95)"/><g class="cls-9"><path d="M439.86,411.43a262.37,262.37,0,0,1-69.59,0Z" transform="translate(-25.55 -28.95)"/></g><path class="cls-4" d="M369.1,411.46c0,.18,16.06.31,35.89.31s35.87-.13,35.87-.31-16.05-.31-35.87-.31S369.1,411.3,369.1,411.46Z" transform="translate(-25.55 -28.95)"/><rect class="cls-7" x="335.15" y="396.85" width="71.89" height="13.94"/><path class="cls-4" d="M428,426.05c-.17,0-.31,3-.31,6.75s.14,6.76.31,6.76.31-3,.31-6.76A40.68,40.68,0,0,0,428,426.05Z" transform="translate(-25.55 -28.95)"/><path class="cls-4" d="M421.29,426.05c-.17,0-.31,3-.31,6.75s.14,6.76.31,6.76.31-3,.31-6.76S421.48,426.05,421.29,426.05Z" transform="translate(-25.55 -28.95)"/><path class="cls-4" d="M414.71,426.05a73.75,73.75,0,0,0,0,13.51c.17,0,.31-3,.31-6.76S414.89,426.05,414.71,426.05Z" transform="translate(-25.55 -28.95)"/><path class="cls-4" d="M408.16,426.05c-.17,0-.31,3-.31,6.75s.14,6.76.31,6.76a38.4,38.4,0,0,0,.31-6.76C408.47,429.07,408.33,426.05,408.16,426.05Z" transform="translate(-25.55 -28.95)"/><path class="cls-4" d="M401.61,426.05c-.17,0-.31,3-.31,6.75s.14,6.76.31,6.76a38.4,38.4,0,0,0,.31-6.76C401.92,429.07,401.82,426.05,401.61,426.05Z" transform="translate(-25.55 -28.95)"/><path class="cls-4" d="M395.06,426.05c-.18,0-.32,3-.32,6.75s.14,6.76.32,6.76.31-3,.31-6.76S395.23,426.05,395.06,426.05Z" transform="translate(-25.55 -28.95)"/><path class="cls-4" d="M388.5,426.05c-.17,0-.31,3-.31,6.75s.14,6.76.31,6.76.31-3,.31-6.76S388.68,426.05,388.5,426.05Z" transform="translate(-25.55 -28.95)"/><path class="cls-4" d="M382,426.05c-.17,0-.31,3-.31,6.75s.14,6.76.31,6.76.31-3,.31-6.76S382.13,426.05,382,426.05Z" transform="translate(-25.55 -28.95)"/><path class="cls-4" d="M375.4,426.05c-.18,0-.31,3-.31,6.75s.13,6.76.31,6.76.31-3,.31-6.76A40.68,40.68,0,0,0,375.4,426.05Z" transform="translate(-25.55 -28.95)"/><path class="cls-4" d="M368.85,426.05c-.18,0-.31,3-.31,6.75s.13,6.76.31,6.76.31-3,.31-6.76S369,426.05,368.85,426.05Z" transform="translate(-25.55 -28.95)"/><path class="cls-4" d="M362.3,426.05c-.18,0-.32,3-.32,6.75s.14,6.76.32,6.76.31-3,.31-6.76S362.47,426.05,362.3,426.05Z" transform="translate(-25.55 -28.95)"/><g class="cls-9"><path d="M431.44,425.82a205.82,205.82,0,0,1-69.59,0Z" transform="translate(-25.55 -28.95)"/></g><path class="cls-4" d="M360.68,425.85c0,.18,16.06.31,35.88.31s35.88-.13,35.88-.31-16-.3-35.88-.3S360.68,425.68,360.68,425.85Z" transform="translate(-25.55 -28.95)"/><rect class="cls-7" x="339.77" y="410.8" width="71.89" height="13.94"/><path class="cls-4" d="M432.59,440c-.17,0-.32,3-.32,6.76s.15,6.76.32,6.76a37.79,37.79,0,0,0,.32-6.76C432.91,443,432.76,440,432.59,440Z" transform="translate(-25.55 -28.95)"/><path class="cls-4" d="M425.93,440c-.18,0-.32,3-.32,6.76s.14,6.76.32,6.76.31-3,.31-6.76A38.4,38.4,0,0,0,425.93,440Z" transform="translate(-25.55 -28.95)"/><path class="cls-4" d="M419.35,440c-.18,0-.32,3-.32,6.76s.14,6.76.32,6.76.31-3,.31-6.76A38.4,38.4,0,0,0,419.35,440Z" transform="translate(-25.55 -28.95)"/><path class="cls-4" d="M412.78,440c-.17,0-.31,3-.31,6.76s.14,6.76.31,6.76.32-3,.32-6.76S413,440,412.78,440Z" transform="translate(-25.55 -28.95)"/><path class="cls-4" d="M406.23,440c-.17,0-.31,3-.31,6.76s.14,6.76.31,6.76.31-3,.31-6.76S406.41,440,406.23,440Z" transform="translate(-25.55 -28.95)"/><path class="cls-4" d="M399.68,440c-.18,0-.31,3-.31,6.76s.13,6.76.31,6.76.31-3,.31-6.76S399.87,440,399.68,440Z" transform="translate(-25.55 -28.95)"/><path class="cls-4" d="M393.13,440c-.18,0-.31,3-.31,6.76s.13,6.76.31,6.76.31-3,.31-6.76S393.3,440,393.13,440Z" transform="translate(-25.55 -28.95)"/><path class="cls-4" d="M386.58,440c-.18,0-.32,3-.32,6.76s.14,6.76.32,6.76.31-3,.31-6.76S386.75,440,386.58,440Z" transform="translate(-25.55 -28.95)"/><path class="cls-4" d="M380,440c-.17,0-.31,3-.31,6.76s.14,6.76.31,6.76.32-3,.32-6.76S380.2,440,380,440Z" transform="translate(-25.55 -28.95)"/><path class="cls-4" d="M373.47,440c-.17,0-.31,3-.31,6.76s.14,6.76.31,6.76.31-3,.31-6.76S373.65,440,373.47,440Z" transform="translate(-25.55 -28.95)"/><path class="cls-4" d="M366.92,440c-.18,0-.31,3-.31,6.76s.13,6.76.31,6.76.31-3,.31-6.76S367.09,440,366.92,440Z" transform="translate(-25.55 -28.95)"/><g class="cls-9"><path d="M436.05,439.77a181.79,181.79,0,0,1-69.58,0Z" transform="translate(-25.55 -28.95)"/></g><path class="cls-4" d="M365.3,439.8c0,.18,16.07.31,35.88.31s35.88-.13,35.88-.31-16.06-.31-35.88-.31S365.3,439.63,365.3,439.8Z" transform="translate(-25.55 -28.95)"/></g><ellipse class="cls-7" cx="421.18" cy="288.16" rx="29.67" ry="24.72" transform="translate(-111.39 201.18) rotate(-27.85)"/><g class="cls-8"><ellipse cx="421.18" cy="288.16" rx="29.67" ry="24.72" transform="translate(-111.39 201.18) rotate(-27.85)"/></g><ellipse class="cls-7" cx="418.94" cy="283.92" rx="29.67" ry="24.72" transform="translate(-109.67 199.65) rotate(-27.85)"/><g class="cls-10"><path class="cls-6" d="M447.59,280.71a21.23,21.23,0,0,0-2.42-10.64c-6.38-12.08-23.29-15.66-37.78-8a33.52,33.52,0,0,0-13.45,12.72,51.15,51.15,0,0,0,17.91,12c6.7,2.65,13.68,3.36,20.57.92C437.17,286,443.41,284.23,447.59,280.71Z" transform="translate(-25.55 -28.95)"/></g><path class="cls-7" d="M428,299.79c-11.14,5.88-24.07,3.27-28.88-5.85s.31-21.26,11.44-27.14,24.06-3.27,28.88,5.84S439.08,293.91,428,299.79Z" transform="translate(-25.55 -28.95)"/><g class="cls-8"><path d="M428,299.79c-11.14,5.88-24.07,3.27-28.88-5.85s.31-21.26,11.44-27.14,24.06-3.27,28.88,5.84S439.08,293.91,428,299.79Z" transform="translate(-25.55 -28.95)"/></g><path class="cls-7" d="M427.88,300.85c-10.86,5.74-23.45,3.24-28.11-5.59s.36-20.63,11.23-26.37,23.45-3.24,28.11,5.58S438.75,295.11,427.88,300.85Z" transform="translate(-25.55 -28.95)"/><g class="cls-8"><path class="cls-6" d="M427.88,300.85c-10.86,5.74-23.45,3.24-28.11-5.59s.36-20.63,11.23-26.37,23.45-3.24,28.11,5.58S438.75,295.11,427.88,300.85Z" transform="translate(-25.55 -28.95)"/></g><path class="cls-7" d="M422.21,284.47l5.21-2.75v0a5.74,5.74,0,0,1,.17,4.05l.19,0,2.22-.36.51-.08.58-1.25-.38-.25a7.5,7.5,0,0,0-.5-3.58l2.87-1.52.34-1.09-.72.38-.51-1-2.92,1.54a5.73,5.73,0,0,0-7.82-1.91c-3.6,1.9-3.24,4.83-2.73,7.48l-5.17,2.73a8,8,0,0,1-.21-5.14l-3.09.45a8.93,8.93,0,0,0,.51,6.17l-2.17,1.14-.44-.79-.26,1.17.89,1.68,2.9-1.53a5.75,5.75,0,0,0,7.84,2C423.12,290.09,422.71,287.12,422.21,284.47Zm-.35-2c-.19-1.42-.09-2.61,1.15-3.26a2.58,2.58,0,0,1,3.45.83Zm5.57-.79Zm-12.93,6.83,4.58-2.42c.21,1.47.09,2.69-1.17,3.36A2.56,2.56,0,0,1,414.5,288.54Z" transform="translate(-25.55 -28.95)"/><g class="cls-9"><path d="M422.21,284.47l5.21-2.75v0a5.74,5.74,0,0,1,.17,4.05l.19,0,2.22-.36.51-.08.58-1.25-.38-.25a7.5,7.5,0,0,0-.5-3.58l2.87-1.52.34-1.09-.72.38-.51-1-2.92,1.54a5.73,5.73,0,0,0-7.82-1.91c-3.6,1.9-3.24,4.83-2.73,7.48l-5.17,2.73a8,8,0,0,1-.21-5.14l-3.09.45a8.93,8.93,0,0,0,.51,6.17l-2.17,1.14-.44-.79-.26,1.17.89,1.68,2.9-1.53a5.75,5.75,0,0,0,7.84,2C423.12,290.09,422.71,287.12,422.21,284.47Zm-.35-2c-.19-1.42-.09-2.61,1.15-3.26a2.58,2.58,0,0,1,3.45.83Zm5.57-.79Zm-12.93,6.83,4.58-2.42c.21,1.47.09,2.69-1.17,3.36A2.56,2.56,0,0,1,414.5,288.54Z" transform="translate(-25.55 -28.95)"/></g><path class="cls-7" d="M412,289l-2.9,1.53-.89-1.69,2.87-1.51a8.93,8.93,0,0,1-.51-6.17l3.1-.46a7.94,7.94,0,0,0,.2,5.15l5.17-2.73c-.51-2.65-.87-5.59,2.73-7.49a5.73,5.73,0,0,1,7.82,1.92l2.92-1.55.89,1.69-2.87,1.51a8.58,8.58,0,0,1,.63,5l-3.06.53a8.28,8.28,0,0,0-.36-4.06l-5.22,2.76c.5,2.65.91,5.61-2.68,7.51A5.77,5.77,0,0,1,412,289Zm10.17-7.53,4.6-2.43a2.58,2.58,0,0,0-3.45-.84C422.11,278.82,422,280,422.2,281.43Zm-3.95,7c1.26-.67,1.38-1.88,1.17-3.35l-4.58,2.42A2.55,2.55,0,0,0,418.25,288.4Z" transform="translate(-25.55 -28.95)"/><path class="cls-4" d="M440.93,283.87a4.24,4.24,0,0,1-.08.53c-.09.34-.15.87-.36,1.51a22.47,22.47,0,0,1-2.23,5.23,26.33,26.33,0,0,1-5.38,6.51,27.27,27.27,0,0,1-4.07,2.92,25.79,25.79,0,0,1-4.92,2.19,27.91,27.91,0,0,1-10.23,1.45,15.77,15.77,0,0,1-12.17-6.44c-.39-.55-.65-1-.85-1.3a2.86,2.86,0,0,1-.26-.47,2.17,2.17,0,0,1,.34.42c.22.28.51.71.92,1.24a17.34,17.34,0,0,0,4.17,3.73,16.3,16.3,0,0,0,7.88,2.38,28,28,0,0,0,10.06-1.47,26.27,26.27,0,0,0,4.82-2.13,27.72,27.72,0,0,0,4-2.85A26.75,26.75,0,0,0,438,291a24.19,24.19,0,0,0,2.34-5.12C440.72,284.58,440.88,283.85,440.93,283.87Z" transform="translate(-25.55 -28.95)"/><path class="cls-6" d="M404.65,264.05s.23-.22.7-.55a20.76,20.76,0,0,1,2-1.28,31.73,31.73,0,0,1,7.42-2.94,31.36,31.36,0,0,1,7.92-1,20.06,20.06,0,0,1,2.42.14,3.49,3.49,0,0,1,.87.15c0,.08-1.26,0-3.28,0a36.81,36.81,0,0,0-7.81,1.1,36.21,36.21,0,0,0-7.38,2.77C405.76,263.44,404.7,264.12,404.65,264.05Z" transform="translate(-25.55 -28.95)"/><path class="cls-6" d="M397.91,270.7a7.35,7.35,0,0,1,1.51-2.06c.93-1.06,1.76-1.84,1.86-1.75a7,7,0,0,1-1.5,2.06C398.85,270,398,270.79,397.91,270.7Z" transform="translate(-25.55 -28.95)"/><path class="cls-6" d="M439.77,279.32c-.09,0-.34-1.06-1.07-2.66a17.55,17.55,0,0,0-1.54-2.67,17.76,17.76,0,0,0-5.49-5.1,16.9,16.9,0,0,0-2.78-1.34c-1.65-.61-2.75-.78-2.73-.87a2.56,2.56,0,0,1,.78.06,12.13,12.13,0,0,1,2.06.49,15.78,15.78,0,0,1,2.89,1.28A17.49,17.49,0,0,1,435,270.8a18,18,0,0,1,2.51,2.94,15.42,15.42,0,0,1,1.49,2.79,11.66,11.66,0,0,1,.64,2A2.45,2.45,0,0,1,439.77,279.32Z" transform="translate(-25.55 -28.95)"/><path class="cls-6" d="M422.55,276.66c-.05,0,.05-.28.34-.56a2.74,2.74,0,0,1,1.41-.67,2.68,2.68,0,0,1,1.56.2c.36.18.53.38.49.43a6.94,6.94,0,0,0-2-.16C423.3,276.05,422.65,276.75,422.55,276.66Z" transform="translate(-25.55 -28.95)"/><path class="cls-6" d="M411.37,282.41c-.06,0-.14-.06-.16-.21a.61.61,0,0,1,.22-.5.59.59,0,0,1,.52-.16c.15,0,.21.12.19.18s-.24.18-.39.33S411.5,282.37,411.37,282.41Z" transform="translate(-25.55 -28.95)"/><ellipse class="cls-7" cx="420.7" cy="114.58" rx="27.39" ry="22.83" transform="translate(-32.15 172.43) rotate(-26.72)"/><g class="cls-8"><ellipse cx="420.7" cy="114.58" rx="27.39" ry="22.83" transform="translate(-32.15 172.43) rotate(-26.72)"/></g><ellipse class="cls-7" cx="418.71" cy="110.63" rx="27.39" ry="22.83" transform="translate(-30.59 171.11) rotate(-26.72)"/><g class="cls-10"><path class="cls-6" d="M445.23,108.18a19.67,19.67,0,0,0-2.05-9.87c-5.66-11.26-21.21-14.88-34.73-8.07a31,31,0,0,0-12.65,11.5,47.38,47.38,0,0,0,16.31,11.41c6.14,2.57,12.58,3.35,19,1.23C435.5,112.91,441.3,111.36,445.23,108.18Z" transform="translate(-25.55 -28.95)"/></g><path class="cls-7" d="M426.74,125.44c-10.39,5.23-22.27,2.58-26.55-5.92s.67-19.63,11.06-24.86,22.27-2.58,26.55,5.92S437.13,120.21,426.74,125.44Z" transform="translate(-25.55 -28.95)"/><g class="cls-8"><path d="M426.74,125.44c-10.39,5.23-22.27,2.58-26.55-5.92s.67-19.63,11.06-24.86,22.27-2.58,26.55,5.92S437.13,120.21,426.74,125.44Z" transform="translate(-25.55 -28.95)"/></g><path class="cls-7" d="M426.66,126.41c-10.14,5.11-21.71,2.57-25.85-5.67s.71-19,10.84-24.14,21.72-2.56,25.86,5.67S436.8,121.31,426.66,126.41Z" transform="translate(-25.55 -28.95)"/><g class="cls-8"><path class="cls-6" d="M426.66,126.41c-10.14,5.11-21.71,2.57-25.85-5.67s.71-19,10.84-24.14,21.72-2.56,25.86,5.67S436.8,121.31,426.66,126.41Z" transform="translate(-25.55 -28.95)"/></g><path class="cls-7" d="M421.72,111.19l4.87-2.45v0a5.38,5.38,0,0,1,.08,3.74l.17,0,2.06-.29.47-.06.56-1.15-.35-.24a7,7,0,0,0-.39-3.31l2.67-1.35.34-1-.67.34-.46-.91-2.72,1.37a5.3,5.3,0,0,0-7.19-1.91c-3.35,1.69-3.07,4.41-2.65,6.86l-4.83,2.43a7.38,7.38,0,0,1-.09-4.75l-2.87.36a8.21,8.21,0,0,0,.36,5.7l-2,1-.39-.74-.27,1.07.79,1.57,2.71-1.36a5.32,5.32,0,0,0,7.2,2C422.46,116.39,422.14,113.65,421.72,111.19Zm-.28-1.82c-.15-1.32,0-2.41,1.12-3a2.39,2.39,0,0,1,3.17.84Zm5.15-.63Zm-12.06,6.07,4.27-2.15c.17,1.36,0,2.48-1.14,3.07A2.35,2.35,0,0,1,414.53,114.81Z" transform="translate(-25.55 -28.95)"/><g class="cls-9"><path d="M421.72,111.19l4.87-2.45v0a5.38,5.38,0,0,1,.08,3.74l.17,0,2.06-.29.47-.06.56-1.15-.35-.24a7,7,0,0,0-.39-3.31l2.67-1.35.34-1-.67.34-.46-.91-2.72,1.37a5.3,5.3,0,0,0-7.19-1.91c-3.35,1.69-3.07,4.41-2.65,6.86l-4.83,2.43a7.38,7.38,0,0,1-.09-4.75l-2.87.36a8.21,8.21,0,0,0,.36,5.7l-2,1-.39-.74-.27,1.07.79,1.57,2.71-1.36a5.32,5.32,0,0,0,7.2,2C422.46,116.39,422.14,113.65,421.72,111.19Zm-.28-1.82c-.15-1.32,0-2.41,1.12-3a2.39,2.39,0,0,1,3.17.84Zm5.15-.63Zm-12.06,6.07,4.27-2.15c.17,1.36,0,2.48-1.14,3.07A2.35,2.35,0,0,1,414.53,114.81Z" transform="translate(-25.55 -28.95)"/></g><path class="cls-7" d="M412.24,115.15l-2.7,1.36-.79-1.57,2.67-1.35a8.29,8.29,0,0,1-.36-5.71l2.87-.36a7.34,7.34,0,0,0,.1,4.76l4.82-2.43c-.42-2.46-.7-5.17,2.65-6.86a5.29,5.29,0,0,1,7.19,1.91l2.73-1.37.79,1.57-2.68,1.34a7.94,7.94,0,0,1,.49,4.64l-2.83.44a7.85,7.85,0,0,0-.26-3.76l-4.88,2.45c.42,2.45.75,5.2-2.6,6.88A5.33,5.33,0,0,1,412.24,115.15Zm9.53-6.77,4.29-2.16a2.37,2.37,0,0,0-3.17-.83C421.74,106,421.62,107.06,421.77,108.38ZM418,114.75c1.18-.6,1.32-1.72,1.15-3.07l-4.27,2.14A2.35,2.35,0,0,0,418,114.75Z" transform="translate(-25.55 -28.95)"/><path class="cls-4" d="M439,111a1.67,1.67,0,0,1-.08.5,13.88,13.88,0,0,1-.35,1.38,20.72,20.72,0,0,1-2.16,4.79,24.18,24.18,0,0,1-5.09,5.92,25.81,25.81,0,0,1-3.81,2.62,24.41,24.41,0,0,1-4.58,1.93,26,26,0,0,1-9.47,1.15,14.61,14.61,0,0,1-11.12-6.17c-.35-.51-.59-.93-.76-1.21a2.48,2.48,0,0,1-.23-.44,2.34,2.34,0,0,1,.31.39c.19.26.45.67.82,1.16a15.87,15.87,0,0,0,3.78,3.52,15.09,15.09,0,0,0,7.23,2.35,26,26,0,0,0,9.32-1.18,23.7,23.7,0,0,0,4.49-1.88,25.55,25.55,0,0,0,3.76-2.56,24.57,24.57,0,0,0,5.08-5.76,22.26,22.26,0,0,0,2.26-4.68C438.81,111.63,439,111,439,111Z" transform="translate(-25.55 -28.95)"/><path class="cls-6" d="M405.89,92s.21-.2.65-.5a21.66,21.66,0,0,1,1.92-1.14,29.08,29.08,0,0,1,6.9-2.58,29.44,29.44,0,0,1,7.33-.75,19.81,19.81,0,0,1,2.23.17,2.89,2.89,0,0,1,.81.16c0,.07-1.17,0-3,0a34.62,34.62,0,0,0-7.23.87,33.44,33.44,0,0,0-6.86,2.43C406.92,91.47,405.93,92.08,405.89,92Z" transform="translate(-25.55 -28.95)"/><path class="cls-6" d="M399.54,98A6.39,6.39,0,0,1,401,96.16c.88-1,1.66-1.67,1.75-1.59a6.43,6.43,0,0,1-1.42,1.89A6.59,6.59,0,0,1,399.54,98Z" transform="translate(-25.55 -28.95)"/><path class="cls-6" d="M438,106.76c-.09,0-.29-1-.94-2.48a15.89,15.89,0,0,0-1.37-2.49,16.33,16.33,0,0,0-5-4.81,16,16,0,0,0-2.54-1.29c-1.51-.6-2.52-.77-2.51-.85a2.43,2.43,0,0,1,.72.07,10.42,10.42,0,0,1,1.9.49A14.45,14.45,0,0,1,431,96.63a16.5,16.5,0,0,1,2.84,2.17,17,17,0,0,1,2.27,2.76,14.83,14.83,0,0,1,1.32,2.6,10.59,10.59,0,0,1,.55,1.88A2.91,2.91,0,0,1,438,106.76Z" transform="translate(-25.55 -28.95)"/><path class="cls-6" d="M422.18,104s.05-.25.32-.51a2.57,2.57,0,0,1,1.32-.59,2.49,2.49,0,0,1,1.43.22c.34.17.48.36.45.4a6.8,6.8,0,0,0-1.82-.18C422.88,103.44,422.27,104.07,422.18,104Z" transform="translate(-25.55 -28.95)"/><path class="cls-6" d="M411.76,109.09c-.06,0-.14,0-.15-.19a.56.56,0,0,1,.21-.46.54.54,0,0,1,.49-.14c.13,0,.18.11.17.17s-.23.16-.37.3S411.88,109.06,411.76,109.09Z" transform="translate(-25.55 -28.95)"/><path class="cls-7" d="M412.78,356.64c-3.1-6.16-10.79-13.21-20.87-19s-20.05-8.85-26.94-8.41l-4.31-2.47L357,333.26c-4,7,5.35,19.95,20.94,28.87s31.47,10.48,35.49,3.46l3.71-6.48Z" transform="translate(-25.55 -28.95)"/><g class="cls-9"><path d="M412.78,356.64c-3.1-6.16-10.79-13.21-20.87-19s-20.05-8.85-26.94-8.41l-4.31-2.47L357,333.26c-4,7,5.35,19.95,20.94,28.87s31.47,10.48,35.49,3.46l3.71-6.48Z" transform="translate(-25.55 -28.95)"/></g><path class="cls-7" d="M381.34,356.11c-15.59-8.92-25-21.84-20.95-28.86s19.91-5.46,35.49,3.47,25,21.85,20.94,28.86S396.92,365,381.34,356.11Z" transform="translate(-25.55 -28.95)"/><g class="cls-10"><path class="cls-6" d="M377.05,332.33a71.29,71.29,0,0,0,6.53,7.67c8.64,8.2,21,12.22,32.59,9.93-3.08-6.33-10.44-13.57-20.29-19.21-9.43-5.4-19-8.1-25.92-7.84C372.23,326.1,374.61,329.24,377.05,332.33Z" transform="translate(-25.55 -28.95)"/></g><path class="cls-7" d="M384.8,351.27c-12-6.86-20.32-14.72-17.63-19.43,2.87-5,15.43-4.49,27.41,2.37s19.49,16.24,16.79,21c-.66,1.16-1.38,2.42-4.53,3.33C401.87,359.92,393.84,356.45,384.8,351.27Z" transform="translate(-25.55 -28.95)"/><g class="cls-9"><path d="M384.8,351.27c-12-6.86-20.32-14.72-17.63-19.43,2.87-5,15.43-4.49,27.41,2.37s19.49,16.24,16.79,21c-.66,1.16-1.38,2.42-4.53,3.33C401.87,359.92,393.84,356.45,384.8,351.27Z" transform="translate(-25.55 -28.95)"/></g><path class="cls-7" d="M383.17,352.92c-11.69-6.7-19-15.94-16.28-20.65s14.36-3.11,26.05,3.59,19,15.94,16.27,20.65S394.85,359.61,383.17,352.92Z" transform="translate(-25.55 -28.95)"/><g class="cls-8"><path class="cls-6" d="M383.17,352.92c-11.69-6.7-19-15.94-16.28-20.65s14.36-3.11,26.05,3.59,19,15.94,16.27,20.65S394.85,359.61,383.17,352.92Z" transform="translate(-25.55 -28.95)"/></g><path class="cls-7" d="M389.79,346.29l5.25,2.92h0a5.26,5.26,0,0,1-1.66,1.29,6.54,6.54,0,0,1-1.27.33l.14.13,1.62,1.54.37.36,1.3,0,0-.39a4.9,4.9,0,0,0,2.37-1.69l2.89,1.6,1-.14-.72-.4.41-.75-2.93-1.63c1-2.67-.7-5.12-3.35-6.59-3.61-2-5.59-.66-7.26.7l-5.2-2.89a5.8,5.8,0,0,1,3.72-2.05l-2.23-2.16a6.26,6.26,0,0,0-4.3,2.65l-2.18-1.21.33-.62-1,.23-.72,1.29,2.91,1.62c-1,2.7.68,5.15,3.33,6.63C386.15,349.05,388.12,347.65,389.79,346.29Zm1.26-1a2.67,2.67,0,0,1,3.15-.34,2.51,2.51,0,0,1,1.48,2.91Zm4,3.9ZM382,342l4.61,2.56a2.72,2.72,0,0,1-3.23.35A2.44,2.44,0,0,1,382,342Z" transform="translate(-25.55 -28.95)"/><g class="cls-9"><path d="M389.79,346.29l5.25,2.92h0a5.26,5.26,0,0,1-1.66,1.29,6.54,6.54,0,0,1-1.27.33l.14.13,1.62,1.54.37.36,1.3,0,0-.39a4.9,4.9,0,0,0,2.37-1.69l2.89,1.6,1-.14-.72-.4.41-.75-2.93-1.63c1-2.67-.7-5.12-3.35-6.59-3.61-2-5.59-.66-7.26.7l-5.2-2.89a5.8,5.8,0,0,1,3.72-2.05l-2.23-2.16a6.26,6.26,0,0,0-4.3,2.65l-2.18-1.21.33-.62-1,.23-.72,1.29,2.91,1.62c-1,2.7.68,5.15,3.33,6.63C386.15,349.05,388.12,347.65,389.79,346.29Zm1.26-1a2.67,2.67,0,0,1,3.15-.34,2.51,2.51,0,0,1,1.48,2.91Zm4,3.9ZM382,342l4.61,2.56a2.72,2.72,0,0,1-3.23.35A2.44,2.44,0,0,1,382,342Z" transform="translate(-25.55 -28.95)"/></g><path class="cls-7" d="M380.46,339.78l-2.81-1.8.8-1.24,2.78,1.78a6.28,6.28,0,0,1,4.46-2.39l2.09,2.3a5.75,5.75,0,0,0-3.84,1.82l5,3.2c1.75-1.25,3.81-2.48,7.29-.25,2.56,1.64,4.07,4.19,2.93,6.79L402,351.8l-.79,1.25-2.78-1.78a5.82,5.82,0,0,1-3.5,2.1l-2.14-2.24a5.77,5.77,0,0,0,2.93-1.59l-5.06-3.24c-1.76,1.25-3.81,2.53-7.29.3C380.81,345,379.34,342.42,380.46,339.78Zm3.93,4.73a2.71,2.71,0,0,0,3.24-.15l-4.44-2.84A2.43,2.43,0,0,0,384.39,344.51Zm7.59.88,4.46,2.86a2.5,2.5,0,0,0-1.3-3A2.68,2.68,0,0,0,392,345.39Z" transform="translate(-25.55 -28.95)"/><path class="cls-4" d="M404.26,359.39a1.76,1.76,0,0,1-.4,0l-1.13-.08c-.49,0-1.09-.09-1.78-.18s-1.48-.18-2.35-.35a43.44,43.44,0,0,1-13-4.36,58.15,58.15,0,0,1-11.24-7.87c-1.31-1.17-2.36-2.13-3.05-2.83l-.8-.8a1.56,1.56,0,0,1-.26-.3,1.65,1.65,0,0,1,.31.24l.85.75c.72.67,1.79,1.6,3.12,2.74a62.74,62.74,0,0,0,11.25,7.73,45.5,45.5,0,0,0,12.86,4.44c.86.18,1.64.3,2.33.4s1.28.2,1.77.25l1.12.15A1.35,1.35,0,0,1,404.26,359.39Z" transform="translate(-25.55 -28.95)"/><path class="cls-4" d="M374.89,352a7.85,7.85,0,0,1-1-.7c-.63-.47-1.51-1.17-2.58-2.08a53.89,53.89,0,0,1-7.62-7.85,26.14,26.14,0,0,1-3.16-5.14,12.54,12.54,0,0,1-1.19-4.79,7.86,7.86,0,0,1,.58-3.28,4.56,4.56,0,0,1,.41-.81c.1-.18.16-.27.17-.26s-.19.4-.44,1.13a8.26,8.26,0,0,0-.46,3.21,12.66,12.66,0,0,0,1.25,4.65,26.61,26.61,0,0,0,3.14,5.06,60.83,60.83,0,0,0,7.5,7.88c1,.93,1.9,1.66,2.49,2.17A7.35,7.35,0,0,1,374.89,352Z" transform="translate(-25.55 -28.95)"/><path class="cls-6" d="M377.54,324.63a19.56,19.56,0,0,1-2.64-.22,30.93,30.93,0,0,0-6.35-.09,13.83,13.83,0,0,0-5.93,2,19,19,0,0,0-2,1.66,2.21,2.21,0,0,1,.42-.58,8.42,8.42,0,0,1,1.46-1.3,12.94,12.94,0,0,1,6-2.19,25.9,25.9,0,0,1,6.42.2c.81.11,1.47.22,1.92.31A2.11,2.11,0,0,1,377.54,324.63Z" transform="translate(-25.55 -28.95)"/><path class="cls-6" d="M384.27,337.2a11.92,11.92,0,0,1-1.69.68,12.77,12.77,0,0,1-1.66.75,4.17,4.17,0,0,1,3.35-1.43Z" transform="translate(-25.55 -28.95)"/><path class="cls-6" d="M357.76,339.25a5.07,5.07,0,0,1-.7-3.05,5.15,5.15,0,0,1,.86-3,22.48,22.48,0,0,0-.49,3A20.11,20.11,0,0,0,357.76,339.25Z" transform="translate(-25.55 -28.95)"/></g><g id="Shadow"><g class="cls-8"><path d="M292.58,437.38s-8.05-7.17-6.67-14.33,10.37-64.51,10.37-64.51L277,353.91l-14.81,72.67S285.06,435.9,292.58,437.38Z" transform="translate(-25.55 -28.95)"/></g><g class="cls-8"><path d="M304.47,317.12s10.24-38.73,8.61-51.54S308,229.8,308,229.8s10.1-.3,14.93-4.13,38.23-32.45,38.23-32.45L326,192.43l-34.12,27.89-1.59,94.2Z" transform="translate(-25.55 -28.95)"/></g></g><g id="Character"><path class="cls-4" d="M280,82.36c5.52-.76,11.37,2.37,13.45,7.19a11.59,11.59,0,0,1-4.32,13.9,7.87,7.87,0,0,1,1.47,8.93c-1.41,2.92-8.26,9.87-11.61,10.5s-3.17-4.95-6.15-6.52a7.25,7.25,0,0,1-5.66,5.84,7.79,7.79,0,0,1-7.82-3c-3,3.28-.37,8.1-4.88,7.28-10.3-1.89-14.34-11.66-13.31-15.88a10.85,10.85,0,0,1-.32-19.73,9,9,0,0,1,3.28-9.67,10.57,10.57,0,0,1,10.83-.81,14,14,0,0,1,13.47-7c5.45.53,10.32,4.5,11.62,9.47" transform="translate(-25.55 -28.95)"/><path class="cls-11" d="M247.25,105a16.69,16.69,0,0,1,7.31-16.53,21.52,21.52,0,0,1,8-2.76,13,13,0,0,1,7.73.9c1.81.25,8.85,5.63,9.79,12.09,1,7.18,2,16,1.61,21.43-.83,11-9,13-9,13s2.05,9.44,2.05,9.44l-13,3.08-6.95-8.77Z" transform="translate(-25.55 -28.95)"/><path class="cls-12" d="M272.75,133.05A27.46,27.46,0,0,1,258,130.38s4.46,7.31,15.15,5.41Z" transform="translate(-25.55 -28.95)"/><path class="cls-11" d="M250,111.25c-.07-.81-1.15-2.63-2-2.69-2.14-.16-5.94.33-5.53,5.73.55,7.38,9.16,5.21,9.15,5A69.46,69.46,0,0,1,250,111.25Z" transform="translate(-25.55 -28.95)"/><path class="cls-12" d="M248.44,116.87s-.12.1-.33.22a1.3,1.3,0,0,1-1,.09,3.19,3.19,0,0,1-1.68-2.75,4.17,4.17,0,0,1,.22-1.86,1.45,1.45,0,0,1,.89-1.06.65.65,0,0,1,.78.29c.11.2.08.35.12.36s.15-.13.06-.44a.84.84,0,0,0-.32-.44,1,1,0,0,0-.72-.13,1.81,1.81,0,0,0-1.25,1.24,4.37,4.37,0,0,0-.29,2.1c.16,1.48,1,2.82,2.1,3a1.37,1.37,0,0,0,1.16-.28C248.44,117.05,248.47,116.88,248.44,116.87Z" transform="translate(-25.55 -28.95)"/><path class="cls-4" d="M283.59,102.55c-10.54,0-8-10.2-12.35-8.81-8.11,2.63-11.33-2.13-13.56-5.77,0,0-3.25,12.7-6.5,13.74a30,30,0,0,1,0,7.51c-.39,2,.42,5.28-.29,5.89-1.49,1.28-5.36-6.84-6.65-8.33a14.89,14.89,0,0,1-2.55-5.3l3.4-12.67,12.63-6.65,9.54-2.86,8,2.5s8.52,6.53,8.34,6.67S283.59,102.55,283.59,102.55Z" transform="translate(-25.55 -28.95)"/><path class="cls-12" d="M269.36,120.68a2.28,2.28,0,1,1-2-2.52A2.27,2.27,0,0,1,269.36,120.68Z" transform="translate(-25.55 -28.95)"/><path class="cls-4" d="M276.77,109.13a1.42,1.42,0,0,1-1.36,1.45,1.36,1.36,0,0,1-1.48-1.26,1.42,1.42,0,0,1,1.35-1.45A1.36,1.36,0,0,1,276.77,109.13Z" transform="translate(-25.55 -28.95)"/><path class="cls-4" d="M277.51,103c-.18.18-1.27-.6-2.8-.57s-2.64.8-2.81.61.1-.42.58-.78a3.92,3.92,0,0,1,2.25-.72,3.73,3.73,0,0,1,2.22.68C277.43,102.53,277.59,102.86,277.51,103Z" transform="translate(-25.55 -28.95)"/><path class="cls-4" d="M264.47,118.88c.2-.16,1.13.81,2.64,1.05s2.74-.33,2.88-.12-.17.4-.71.67a3.87,3.87,0,0,1-2.33.32,3.72,3.72,0,0,1-2.07-1.06C264.47,119.3,264.37,119,264.47,118.88Z" transform="translate(-25.55 -28.95)"/><path class="cls-4" d="M268.52,115.57a9.56,9.56,0,0,1,2.48-.48c.39,0,.76-.13.82-.4a2,2,0,0,0-.27-1.15c-.38-1-.78-1.93-1.2-3-1.66-4.22-2.86-7.69-2.69-7.75s1.65,3.3,3.31,7.51l1.14,3a2.23,2.23,0,0,1,.23,1.53,1,1,0,0,1-.64.58,2.46,2.46,0,0,1-.66.1A10.79,10.79,0,0,1,268.52,115.57Z" transform="translate(-25.55 -28.95)"/><path class="cls-4" d="M277.19,96.5c-.25.37-1.43.14-2.79.27s-2.5.51-2.81.18c-.13-.17,0-.53.48-.91a4.2,4.2,0,0,1,2.21-.82,4.14,4.14,0,0,1,2.3.45C277.1,96,277.3,96.32,277.19,96.5Z" transform="translate(-25.55 -28.95)"/><path class="cls-4" d="M261.2,109.77a1.42,1.42,0,0,0,1.44,1.36,1.36,1.36,0,0,0,1.4-1.35,1.43,1.43,0,0,0-1.44-1.37A1.37,1.37,0,0,0,261.2,109.77Z" transform="translate(-25.55 -28.95)"/><path class="cls-4" d="M257.52,104.59c.18.17,1.22-.68,2.75-.75,2.72.23,3.32.81,2.84.44.08-.09-.12-.41-.62-.74a3.86,3.86,0,0,0-2.29-.58,3.75,3.75,0,0,0-2.18.82C257.57,104.17,257.43,104.51,257.52,104.59Z" transform="translate(-25.55 -28.95)"/><path class="cls-4" d="M257.17,101.06c.32.33,1.48-.09,2.89-.17s2.63.1,2.89-.28c.11-.18-.09-.52-.63-.82a4.37,4.37,0,0,0-2.39-.45,4.24,4.24,0,0,0-2.27.81C257.17,100.53,257,100.9,257.17,101.06Z" transform="translate(-25.55 -28.95)"/><path class="cls-11" d="M266.34,413.74c.28,0,1.32,10.3,1,11s-3.73,2.77-3.43,4.06,16.37,19.26,18.52,20.07a11.64,11.64,0,0,0,4.44.61s-5.16-16.76-6.64-21.49-1.62-14.57-1.62-14.57Z" transform="translate(-25.55 -28.95)"/><path class="cls-4" d="M266.78,425.36c-.28.25-4.14,2.93-5.36,6.8s-.87,21-.87,21l1.7.24s.79-12.72,1.33-13.62,2.52-2.05,7.11,2.92,3.61,9.57,8,11.4,19.5,1.46,19.49.39-11.7-6.08-11.7-6.08a6.63,6.63,0,0,1-5.84-2.08C277.9,443.57,266.78,425.36,266.78,425.36Z" transform="translate(-25.55 -28.95)"/><path class="cls-11" d="M249.3,419.85s-3.14,6.94-2.92,9.28a49,49,0,0,1-.17,11c-.61,3.17-2.12,6-.53,8.25s12.65-2.95,12.65-2.95,0-8.8-.12-12.81-.49-12.43.43-16.07l-9.75-1.17Z" transform="translate(-25.55 -28.95)"/><path class="cls-4" d="M245.3,443.39a27.54,27.54,0,0,0-.84,8.23c.39,3.57,4.77,4.29,7.14,4.26,4.94-.06,7.66-2.06,8.27-2.67s-1.22-8.14-1-9.18-.68-11-.68-10.85.62,10.92-.43,11.55S247.71,445.18,245.3,443.39Z" transform="translate(-25.55 -28.95)"/><path class="cls-4" d="M246.71,445s-.42-4.37-.32-5.76.21-5.41.21-5.41a48.9,48.9,0,0,1-.7,6.33,30.7,30.7,0,0,0-.78,4Z" transform="translate(-25.55 -28.95)"/><path class="cls-4" d="M239.63,237.08c.42,1.68-10.43,25.88-9.73,36.29s9.36,70.62,8.71,79.36-.25,27.91.24,38.46c.65,13.76.78,35,.78,35l19.17.13s7.5-56.12,7.15-74.94,4.22-108.88,4.22-108.88S271,215.7,271.29,218s-28.49.84-28.49.84Z" transform="translate(-25.55 -28.95)"/><path class="cls-4" d="M271.29,218l-20.71,91,8.22,117.28h23s1.78-13.06,2.62-25.9c.87-13.25,4.13-37.76,5.24-45.75,1.19-8.49,11.32-59.41,12.72-77.9s-7.07-57.41-7.21-58.74Z" transform="translate(-25.55 -28.95)"/><path class="cls-5" d="M239.63,426.15a1.6,1.6,0,0,0,.35,0l1,0,4,.07,14.9.18H260v-.15c.92-8.13,1.47-18.59,2.19-30.6s1.36-25.55,2.06-39.87c1.74-36.42,3-67.82,3.54-82.05v.05l3.39-5.51.86-1.43c.19-.32.27-.49.27-.49s-.12.15-.32.46l-.91,1.4-3.48,5.45,0,0v0c-.67,14.32-2.15,45.66-3.85,82-.72,14.32-1.4,27.87-2,39.88s-1.19,22.47-2,30.58l.16-.15-14.9,0-4,0-1,0Z" transform="translate(-25.55 -28.95)"/><path class="cls-5" d="M245,366.33a10.11,10.11,0,0,0,2.17-1.39,34.4,34.4,0,0,0,8.37-9.14,9.26,9.26,0,0,0,1.19-2.29,17.16,17.16,0,0,0-1.51,2.08,48.72,48.72,0,0,1-3.84,4.8,49.57,49.57,0,0,1-4.45,4.25A16,16,0,0,0,245,366.33Z" transform="translate(-25.55 -28.95)"/><path class="cls-5" d="M275.27,358.78a8.83,8.83,0,0,0,3.16-2.21,8.66,8.66,0,0,0,2.34-3.07,38,38,0,0,0-2.71,2.69A35.3,35.3,0,0,0,275.27,358.78Z" transform="translate(-25.55 -28.95)"/><path class="cls-1" d="M254,133.34l16.11,10.55,4.59-6.54,3.18,6.08s16.21,17.37,18.9,29-2.25,47.22-2.25,47.22c-11.82,7.78-41.58,0-41.58,0l-2.87-81.21Z" transform="translate(-25.55 -28.95)"/><path class="cls-7" d="M251.25,136.88l-2.88,4.17-17.93,6L233.72,209,221.2,262.62s21,8.76,25.29,8.51,8.82-50.2,9.93-64.18c1.27-16.07-.21-44.19-1-51.7S251.25,136.88,251.25,136.88Z" transform="translate(-25.55 -28.95)"/><path class="cls-7" d="M275.9,140c.75,1.26,3.91,3,3.91,3l9.06.3s13.64,40.85,11.89,63.38,4.5,56.33,3.75,61.84H299s-7.76-45.82-7-61.34,2.51-18.78,0-29.54S275.9,140,275.9,140Z" transform="translate(-25.55 -28.95)"/><path class="cls-7" d="M282.73,143s8.09-1,11,1.52,5.52,5.42,5.52,5.42,18.42,5.81,19.64,4.14,27.2-21,27.2-21,11.83,19.06,11.14,19.08-29.55,19.31-33.74,20.92-27.19,7.09-27.19,7.09Z" transform="translate(-25.55 -28.95)"/><path class="cls-4" d="M292.94,164a11.75,11.75,0,0,1,1.28,2.34,58.71,58.71,0,0,1,2.43,6,59.35,59.35,0,0,1,1.77,6.19,12.74,12.74,0,0,1,.43,2.63,15.26,15.26,0,0,1-.79-2.54c-.45-1.58-1.09-3.75-1.9-6.12s-1.65-4.46-2.27-6A15.19,15.19,0,0,1,292.94,164Z" transform="translate(-25.55 -28.95)"/><path class="cls-4" d="M315.36,162a25.91,25.91,0,0,1,1.46-3.19,30,30,0,0,1,1.38-3.23,7.74,7.74,0,0,1-.9,3.44A8,8,0,0,1,315.36,162Z" transform="translate(-25.55 -28.95)"/><path class="cls-4" d="M255.56,196.34a2.68,2.68,0,0,1-.18-.5l-.45-1.47c-.38-1.27-.89-3.12-1.49-5.42-1.19-4.6-2.68-11-4-18.12s-2.19-13.64-2.7-18.36c-.26-2.36-.44-4.27-.54-5.59,0-.62-.08-1.12-.1-1.53a1.78,1.78,0,0,1,0-.53,2.41,2.41,0,0,1,.1.52c0,.41.12.91.2,1.52.18,1.39.41,3.27.7,5.57.61,4.7,1.55,11.19,2.86,18.31s2.73,13.51,3.83,18.12l1.33,5.46c.14.6.25,1.09.35,1.49A1.88,1.88,0,0,1,255.56,196.34Z" transform="translate(-25.55 -28.95)"/><path class="cls-4" d="M291.29,175.91a6.07,6.07,0,0,1-.33-1.24c-.21-.91-.46-2-.76-3.41-.66-2.87-1.65-6.81-3-11.1s-2.76-8.1-3.85-10.83c-.52-1.29-1-2.37-1.3-3.24a6.87,6.87,0,0,1-.44-1.2,4.8,4.8,0,0,1,.62,1.12c.37.74.87,1.82,1.46,3.18a107.62,107.62,0,0,1,4,10.82,109.8,109.8,0,0,1,2.85,11.18c.28,1.45.48,2.62.6,3.44A7.43,7.43,0,0,1,291.29,175.91Z" transform="translate(-25.55 -28.95)"/><path class="cls-4" d="M279.53,200.88a2.08,2.08,0,0,1-.09-.55c0-.42-.08-1-.15-1.59-.13-1.45-.31-3.43-.53-5.84-.47-4.93-1.26-11.73-2.48-19.18s-2.65-14.15-3.78-19c-.56-2.36-1-4.29-1.36-5.71l-.37-1.55a1.93,1.93,0,0,1-.09-.55,3.47,3.47,0,0,1,.19.52c.12.41.27.91.46,1.53.4,1.33.92,3.27,1.53,5.67,1.22,4.81,2.7,11.5,3.93,19s2,14.28,2.34,19.23c.19,2.47.32,4.47.37,5.86,0,.64,0,1.17.05,1.59A1.85,1.85,0,0,1,279.53,200.88Z" transform="translate(-25.55 -28.95)"/><path class="cls-6" d="M351.6,190c-3-1.93-3.65-8.17-2.74-11.58s3.19-6.22,5.24-9.09c4.64-6.51,12.62-12.76,17.16-18.79l-29.39-7.82c-3.78,6-8.8,11.15-13.4,16.56s-8.91,11.33-10.82,18.18a15.45,15.45,0,0,0-.65,5.84,7.85,7.85,0,0,0,2.57,5.16Z" transform="translate(-25.55 -28.95)"/><path class="cls-4" d="M351.66,189.85c-2.79-1.95-3.26-6.44-3-9.56.36-4.27,3.23-7.75,5.65-11.09,5-6.85,11.93-11.93,17.05-18.64a.12.12,0,0,0-.07-.18l-25.72-6.84-3.68-1a.13.13,0,0,0-.14.06c-5,8-12.13,14.32-17.66,21.92a42.5,42.5,0,0,0-6.2,11.62c-1.19,3.65-1.91,8.1.64,11.36.92,1.18,1.23,1,2.56,1.1l5.31.26,15.14.72,10.05.48c.16,0,.16-.24,0-.25l-22.45-1.07-6.1-.3a15,15,0,0,1-3.28-.15c-1-.31-1.79-2-2.15-3a12.46,12.46,0,0,1,0-7.45,38.33,38.33,0,0,1,5.8-12c5.12-7.42,11.9-13.53,17.05-20.93.3-.42.59-.85.87-1.28a6.17,6.17,0,0,1,.48-.87c.06,0,.17.06.24.06a5.2,5.2,0,0,1,1.3.34l5.12,1.37,14.12,3.75,5.86,1.56,1.86.49c.12,0,.77.11.84.23a11,11,0,0,0-1.3,1.41c-.68.8-1.38,1.59-2.1,2.36-1.48,1.58-3,3.11-4.55,4.64a94.35,94.35,0,0,0-8.43,9.11c-2.4,3.11-5.22,6.56-6.14,10.47a14.62,14.62,0,0,0,.71,8.6,6.26,6.26,0,0,0,2.16,2.86C351.67,190.16,351.79,189.94,351.66,189.85Z" transform="translate(-25.55 -28.95)"/><path class="cls-11" d="M346.92,134.09s5.62-5,8.26-3.08,2.81,2.64,2.81,2.64a2.52,2.52,0,0,1,3.42,1c1.14,2.2,1.58,3.08,1.58,3.08a4.31,4.31,0,0,1,2.82,2.81c.61,2.19,0,2.81,0,2.81s2.89.61,3,2.28-3.6,7.55-4.57,7.47-1.75-.53-1.31-1.67a33.15,33.15,0,0,1,1.93-3.6l-1.14-.71S360,151,358.16,151a2.18,2.18,0,0,1-2.28-1.5s-2,1.67-3.78,1.06-1.32-1.58-1.32-1.58-1.84.7-2.37-.35.79-4,.79-4-2.18-.58-4.12-1.14C344.52,143.37,346.92,134.09,346.92,134.09Z" transform="translate(-25.55 -28.95)"/><path class="cls-12" d="M351.61,137.23a20.89,20.89,0,0,1-1.07,4.55,21.37,21.37,0,0,1-1.58,4.41,20.6,20.6,0,0,1,1.08-4.55A21,21,0,0,1,351.61,137.23Z" transform="translate(-25.55 -28.95)"/><path class="cls-12" d="M357.78,138.17a5.45,5.45,0,0,1-.52,1.84,22.71,22.71,0,0,1-2.11,4.11,22.36,22.36,0,0,1-2.9,3.6,5.54,5.54,0,0,1-1.47,1.23c-.11-.12,2-2.12,3.93-5.11S357.63,138.11,357.78,138.17Z" transform="translate(-25.55 -28.95)"/><path class="cls-12" d="M361.6,142.21a2.87,2.87,0,0,1-.25,1.51,9,9,0,0,1-2,3.13,16.26,16.26,0,0,1-2.82,2.35,4.56,4.56,0,0,1-1.32.75c0-.06.39-.45,1.1-1a28.66,28.66,0,0,0,2.66-2.42,11.14,11.14,0,0,0,2-2.9A11.09,11.09,0,0,1,361.6,142.21Z" transform="translate(-25.55 -28.95)"/><path class="cls-12" d="M366.08,142.84a5.39,5.39,0,0,1-1.29,3.33,5.51,5.51,0,0,1-2.76,2.27c-.09-.13,1.23-1,2.34-2.57S365.93,142.8,366.08,142.84Z" transform="translate(-25.55 -28.95)"/><path class="cls-4" d="M345.63,184.38c0,.14-5.39,0-12-.3s-12-.67-12-.81,5.39,0,12,.29S345.63,184.23,345.63,184.38Z" transform="translate(-25.55 -28.95)"/><path class="cls-4" d="M344.78,179.87c0,.14-4.9-.12-10.93-.58s-10.91-.95-10.9-1.09,4.91.11,10.94.57S344.79,179.72,344.78,179.87Z" transform="translate(-25.55 -28.95)"/><path class="cls-4" d="M323,178a5.4,5.4,0,0,1-.1-.73,9.71,9.71,0,0,1,.05-2.11,19,19,0,0,1,2.77-7.34,103.16,103.16,0,0,1,16.9-20.6l.11-.1.14,0,8.71,2.62,12.83,3.87.44.13-.35.3a120.64,120.64,0,0,0-9.82,8.85,47.09,47.09,0,0,0-6.42,8.17,34.26,34.26,0,0,0-3,6.15c-.27.75-.45,1.34-.57,1.74a2.74,2.74,0,0,1-.21.6,4,4,0,0,1,.13-.62c.09-.41.25-1,.5-1.77a31.07,31.07,0,0,1,2.86-6.26,45.91,45.91,0,0,1,6.39-8.3,113.55,113.55,0,0,1,9.8-8.94l.08.43-12.83-3.86-8.71-2.62.25-.06a107.25,107.25,0,0,0-17,20.4,19.34,19.34,0,0,0-2.88,7.19A16.15,16.15,0,0,0,323,178Z" transform="translate(-25.55 -28.95)"/><path class="cls-4" d="M346.71,149.19a6.69,6.69,0,0,1-.82,1.15c-.56.71-1.4,1.71-2.48,2.93-2.12,2.44-5.26,5.62-8.33,9.46a35.94,35.94,0,0,0-6.15,10.85,38.16,38.16,0,0,0-1.17,5.07,5.82,5.82,0,0,1,.05-1.41,19.25,19.25,0,0,1,.77-3.77,33.92,33.92,0,0,1,6.09-11.07c3.1-3.87,6.28-7,8.47-9.38l2.59-2.81A8.63,8.63,0,0,1,346.71,149.19Z" transform="translate(-25.55 -28.95)"/><path class="cls-4" d="M341.15,176.05a12.58,12.58,0,0,1-3.68-.29,12.7,12.7,0,0,1-3.6-.81,26.89,26.89,0,0,1,7.28,1.1Z" transform="translate(-25.55 -28.95)"/><path class="cls-4" d="M342.92,172.81a12.58,12.58,0,0,1-3.68-.29,12.7,12.7,0,0,1-3.6-.81,26.89,26.89,0,0,1,7.28,1.1Z" transform="translate(-25.55 -28.95)"/><path class="cls-4" d="M344.69,169.57a12.58,12.58,0,0,1-3.68-.29,12.7,12.7,0,0,1-3.6-.81,26.89,26.89,0,0,1,7.28,1.1Z" transform="translate(-25.55 -28.95)"/><path class="cls-4" d="M348.42,166.33a12.51,12.51,0,0,1-3.67-.29,12.72,12.72,0,0,1-3.61-.81,26.89,26.89,0,0,1,7.28,1.1Z" transform="translate(-25.55 -28.95)"/><path class="cls-4" d="M351.14,163.32a25.89,25.89,0,0,1-7.28-1.1,26.89,26.89,0,0,1,7.28,1.1Z" transform="translate(-25.55 -28.95)"/><path class="cls-4" d="M353.86,160.31a13.45,13.45,0,0,1-3.68-.29,13,13,0,0,1-3.6-.81,13.39,13.39,0,0,1,3.67.29A13.71,13.71,0,0,1,353.86,160.31Z" transform="translate(-25.55 -28.95)"/><path class="cls-4" d="M356.57,157.3a25.89,25.89,0,0,1-7.28-1.1,25.89,25.89,0,0,1,7.28,1.1Z" transform="translate(-25.55 -28.95)"/><path class="cls-3" d="M277,204.51c.29,3.62,4,5.87,7.26,7.35A110.37,110.37,0,0,0,309,219.57l12.49-32.39C309.37,195.53,291.67,204,277,204.51Z" transform="translate(-25.55 -28.95)"/><path class="cls-3" d="M277.73,202.32c.28,3.61,3.95,5.86,7.25,7.34a109.85,109.85,0,0,0,24.71,7.71l11.76-30.19C309.37,195.53,292.4,201.83,277.73,202.32Z" transform="translate(-25.55 -28.95)"/><path class="cls-4" d="M313.08,192.43a7.64,7.64,0,0,1-1.19.92c-.78.58-1.95,1.34-3.43,2.24A64.46,64.46,0,0,1,283,204.27c-1.72.21-3.12.31-4.08.34a7.72,7.72,0,0,1-1.51,0,10,10,0,0,1,1.49-.2c1-.08,2.35-.24,4.05-.49a72.29,72.29,0,0,0,25.31-8.64c1.49-.85,2.69-1.57,3.5-2.09A8.51,8.51,0,0,1,313.08,192.43Z" transform="translate(-25.55 -28.95)"/><path class="cls-4" d="M304.47,199.43a3.63,3.63,0,0,1-.79.6c-.53.37-1.33.86-2.32,1.43a53.24,53.24,0,0,1-16.85,6.09c-1.13.2-2.06.33-2.7.39a3.48,3.48,0,0,1-1,0c0-.08,1.39-.3,3.63-.79a68.53,68.53,0,0,0,8.57-2.46,70.2,70.2,0,0,0,8.17-3.59C303.21,200.08,304.43,199.36,304.47,199.43Z" transform="translate(-25.55 -28.95)"/><path class="cls-4" d="M276.72,219.8l44.73-32.62a1.59,1.59,0,0,1,1-.31L354,188.11a1.61,1.61,0,0,1,.87,2.93l-44.56,31.39a1.63,1.63,0,0,1-.93.3H277.67A1.62,1.62,0,0,1,276.72,219.8Z" transform="translate(-25.55 -28.95)"/><path class="cls-11" d="M268.49,210.09s4.64-3.06,8.64-2.69,13.37,2.36,13.37,2.36l-4.36,3.17s4.08,1.25,3.8,2.55-2.51,2.32-2.51,2.32,1.3,1.67.28,2.88-1.58,1.2-1.58,1.2.1,1.3-2.13,2.14c0,0,.18,1.95-3.25,2.6s-11.51-.56-14.67-1.11l-4.36-.47V212.45s2.12.9,3.16,0C265.63,211.8,268.49,210.09,268.49,210.09Z" transform="translate(-25.55 -28.95)"/><path class="cls-12" d="M286.37,213a9.46,9.46,0,0,1-3.09-.68,10.16,10.16,0,0,1-2.95-1.17,19.49,19.49,0,0,1,6,1.85Z" transform="translate(-25.55 -28.95)"/><path class="cls-12" d="M278.83,217.75a39,39,0,0,1,4.36,0,41.51,41.51,0,0,1,4.36-.06,17.71,17.71,0,0,1-8.72.07Z" transform="translate(-25.55 -28.95)"/><path class="cls-12" d="M278.19,221.13c.05-.15,1.75.51,3.95.72s4,0,4,.1a7.63,7.63,0,0,1-4.07.42A7.76,7.76,0,0,1,278.19,221.13Z" transform="translate(-25.55 -28.95)"/><path class="cls-12" d="M275.85,225a35.27,35.27,0,0,1,3.91-.28c2.15-.17,3.87-.51,3.9-.37a9.62,9.62,0,0,1-3.85.89A9.52,9.52,0,0,1,275.85,225Z" transform="translate(-25.55 -28.95)"/><path class="cls-7" d="M233.66,146.09c-.82.41-9,.1-10.85,15.82-1.78,14.87-7.11,56.13-3.22,59.17S266,231.48,266,231.48l2-21.14-28.44-6.58s2.1-39.87.46-44.38A142,142,0,0,0,233.66,146.09Z" transform="translate(-25.55 -28.95)"/><path class="cls-4" d="M240.68,164.84c-.09,0-.27-1.07-.77-2.74a26.73,26.73,0,0,0-2.75-6.2,27.22,27.22,0,0,0-4.25-5.3c-1.25-1.21-2.12-1.86-2.07-1.94a2.49,2.49,0,0,1,.67.39,15.25,15.25,0,0,1,1.65,1.28A23.06,23.06,0,0,1,240.27,162a15.61,15.61,0,0,1,.38,2.06A2.18,2.18,0,0,1,240.68,164.84Z" transform="translate(-25.55 -28.95)"/><path class="cls-4" d="M232.22,225.4a5.07,5.07,0,0,1,.64.09l1.86.32,7,1.3L266,231.78l-.29.21c.63-6.5,1.31-13.64,2-21.13l.21.28-.19,0-28.18-6.38-.18,0v-.18c.37-8.07.68-14.78.9-19.53.12-2.32.22-4.15.29-5.45q.06-.9.09-1.44a3.26,3.26,0,0,1,.06-.49,3.69,3.69,0,0,1,0,.49c0,.36,0,.84,0,1.44,0,1.3-.1,3.14-.17,5.47-.18,4.74-.42,11.46-.72,19.53l-.17-.23,28.2,6.31.18,0,.23.05,0,.23c-.73,7.49-1.43,14.63-2.07,21.13l0,.26-.26-.05-24.3-4.85L234.69,226l-1.84-.4A3.07,3.07,0,0,1,232.22,225.4Z" transform="translate(-25.55 -28.95)"/><path class="cls-4" d="M335.64,188.78l.56-1.27a22.15,22.15,0,0,1,2.5-1.92c.36-.17,8.69.43,8.8.71s-2.75,2.56-3.28,2.48S335.64,188.78,335.64,188.78Z" transform="translate(-25.55 -28.95)"/></g></svg>