<svg width="258" height="234" viewBox="0 0 258 234" fill="none" xmlns="http://www.w3.org/2000/svg">
<path d="M204.501 49.6068C233.326 57.1668 255.195 93.0382 257.745 131.378C260.296 169.718 243.526 210.681 214.702 226.11C185.878 241.538 144.843 231.432 115.169 220.17C85.4946 208.907 67.1027 196.41 44.8469 180.981C22.5138 165.552 -3.60591 147.192 0.412505 132.921C4.50819 118.572 38.8192 108.39 61.0751 100.752C83.4082 93.1925 93.6087 88.2554 116.715 75.4496C139.743 62.6439 175.677 42.0468 204.501 49.6068Z" fill="#50DBF5"/>
<g clip-path="url(#clip0_63_15541)">
<path d="M159.656 140.934H103.354C103.354 137.396 103.425 133.905 103.354 130.414C103.219 124.942 100.307 122.123 94.8538 122.082C92.0302 122.082 89.2065 122.082 86.43 122.082C85.7403 119.316 86.0469 117.818 88.788 116.545C99.894 111.397 105.883 102.392 105.883 90.2151C105.883 78.0381 99.9234 69.0513 88.8823 63.8031C86.5833 62.7063 86.0174 61.521 86.0351 59.2153C86.1353 48.4182 86.0822 37.6211 86.0822 26.3522H93.5039C97.3415 26.3522 101.167 26.4229 105.005 26.3522C108.978 26.2578 111.389 23.8106 111.442 19.8303C111.513 14.6233 111.442 9.41642 111.442 4.20359C111.442 3.2483 111.525 2.29301 111.578 1.16081C112.704 1.10774 113.659 1.02518 114.613 1.01929H191.312C195.757 1.01929 196.894 2.1397 196.894 6.56234C196.894 32.8033 196.894 59.0443 196.894 85.2854C196.894 86.0696 196.894 86.848 196.894 87.9979C195.715 88.0687 194.701 88.1748 193.676 88.1748C186.401 88.1748 179.127 88.1453 171.865 88.1748C163.93 88.2338 159.674 92.5267 159.668 100.405C159.668 112.788 159.668 125.172 159.668 137.555L159.656 140.934ZM170.391 42.5803C170.391 35.6043 170.332 28.6284 170.426 21.6524C170.462 19.329 169.572 18.4622 167.302 18.5801C165.032 18.6981 162.781 18.6568 160.523 18.5801C158.625 18.5271 157.917 19.3821 157.917 21.2396C157.953 35.5808 157.953 49.9298 157.917 64.2866C157.917 66.1501 158.719 67.0051 160.558 66.9874C162.716 66.9874 164.885 66.8813 167.043 66.9874C169.636 67.1407 170.468 65.9967 170.426 63.4847C170.338 56.5264 170.397 49.5504 170.391 42.5803ZM147.808 48.4772C147.808 43.3823 147.749 38.2815 147.808 33.1866C147.843 30.8279 147.059 29.6957 144.565 29.8549C142.51 29.9905 140.449 29.9905 138.393 29.8549C135.918 29.6957 135.116 30.822 135.128 33.1689C135.195 43.3626 135.195 53.5563 135.128 63.75C135.128 66.1913 136.171 67.1054 138.517 66.9874C140.481 66.8749 142.449 66.8749 144.412 66.9874C147.006 67.1407 147.872 65.9437 147.825 63.4493C147.737 58.49 147.808 53.4895 147.808 48.489V48.4772ZM125.047 54.1382C125.047 52.8644 125.047 51.5848 125.047 50.317C124.812 39.4373 127.04 41.3656 115.374 41.1651H115.079C113.381 41.1651 112.586 42.0024 112.592 43.7007C112.592 50.5588 112.592 57.4227 112.592 64.2808C112.592 66.1383 113.423 66.9874 115.244 66.9756C117.602 66.9756 119.96 66.9756 122.318 66.9756C124.305 67.011 125.142 66.1088 125.095 64.1157C124.994 60.8016 125.047 57.4699 125.047 54.1382ZM141.677 78.0912C132.351 78.0912 123.029 78.0912 113.712 78.0912C111.79 78.0912 109.962 78.3271 110.175 80.8391C110.357 83.1448 112.226 83.0858 113.941 83.0858H168.988C170.815 83.0858 172.796 83.1507 172.837 80.6209C172.879 78.0912 170.892 78.0971 169.065 78.0971L141.677 78.0912ZM127.105 90.6987C122.495 90.6987 117.885 90.6987 113.281 90.6987C111.477 90.6987 109.868 91.3768 110.245 93.3051C110.446 94.3075 112.102 95.7287 113.122 95.7523C122.336 95.941 131.555 95.8761 140.775 95.8525C142.543 95.8525 143.958 95.2628 143.905 93.193C143.852 91.1232 142.384 90.6928 140.634 90.6987C136.148 90.6987 131.614 90.6987 127.105 90.6987Z" fill="#1A2E35"/>
<path d="M229.994 135.639C229.994 147.432 229.994 159.226 229.994 171.02C229.994 175.531 227.672 177.966 223.162 177.978C205.972 178.021 188.783 178.021 171.593 177.978C166.96 177.978 164.637 175.507 164.632 170.784C164.632 147.405 164.632 124.026 164.632 100.647C164.632 95.6166 166.925 93.2225 171.977 93.1812C181.308 93.1163 190.64 93.1812 199.971 93.1812C207.34 93.1812 214.709 93.1812 222.071 93.1812C227.884 93.1812 230 95.3571 230 101.189L229.994 135.639ZM197.537 101.378C190.563 101.378 183.59 101.437 176.622 101.348C174.217 101.319 173.22 102.221 173.338 104.651C173.468 107.298 173.421 109.958 173.338 112.605C173.291 114.545 173.993 115.501 176.062 115.495C190.304 115.456 204.544 115.456 218.782 115.495C220.551 115.495 221.281 114.722 221.264 113.012C221.264 110.264 221.146 107.505 221.299 104.757C221.441 102.18 220.391 101.301 217.851 101.342C211.089 101.454 204.31 101.378 197.537 101.378ZM221.276 154.662C221.276 152.203 221.317 149.75 221.276 147.291C221.164 141.223 222.508 141.647 215.381 141.565C213.253 141.565 212.386 142.249 212.433 144.466C212.539 150.162 212.433 155.865 212.48 161.567C212.563 168.189 211.107 167.658 218.894 167.694C220.621 167.694 221.376 167.104 221.329 165.276C221.205 161.738 221.276 158.2 221.276 154.662ZM177.653 133.062C182.175 133.062 182.175 133.062 182.181 129.246C182.181 124.322 182.181 124.322 178.184 124.317C173.35 124.317 173.35 124.317 173.35 128.444C173.368 133.062 173.368 133.062 177.671 133.062H177.653ZM197.195 133.062C201.705 133.062 201.705 133.062 201.71 129.246C201.71 124.322 201.71 124.322 197.737 124.317C192.874 124.317 192.874 124.317 192.874 128.409C192.886 133.062 192.886 133.062 197.213 133.062H197.195ZM216.778 133.062C221.258 133.062 221.258 133.062 221.258 128.934C221.258 124.334 221.258 124.334 217.249 124.328C212.427 124.328 212.427 124.328 212.421 128.456C212.433 133.062 212.433 133.062 216.795 133.062H216.778ZM201.728 146.129C201.728 141.606 201.728 141.606 197.602 141.606C192.886 141.606 192.886 141.606 192.886 145.858C192.886 150.31 192.886 150.31 197.048 150.31C201.728 150.298 201.728 150.298 201.728 146.129ZM182.198 146.129C182.198 141.624 182.198 141.624 178.072 141.624C173.391 141.624 173.391 141.624 173.386 145.61C173.386 150.328 173.386 150.328 177.541 150.328C182.198 150.298 182.198 150.298 182.198 146.129ZM182.198 163.56C182.198 159.037 182.198 159.037 178.149 159.037C173.368 159.037 173.368 159.037 173.368 163.165C173.368 167.735 173.368 167.735 177.73 167.735C182.198 167.676 182.198 167.676 182.198 163.531V163.56ZM197.454 159.008C192.892 159.008 192.892 159.008 192.892 163.047C192.892 167.67 192.892 167.67 197.219 167.676C201.728 167.676 201.728 167.676 201.728 163.295C201.728 159.008 201.728 159.008 197.454 159.008Z" fill="black"/>
<path d="M100.831 90.109C100.94 93.3195 100.401 96.519 99.2469 99.5167C98.0928 102.514 96.347 105.249 94.1137 107.557C91.8803 109.865 89.2051 111.7 86.2476 112.952C83.2902 114.203 80.111 114.846 76.8997 114.842C73.6885 114.838 70.5109 114.187 67.5566 112.929C64.6022 111.67 61.9315 109.828 59.7039 107.515C57.4762 105.201 55.7371 102.462 54.5904 99.4616C53.4437 96.4611 52.9128 93.2602 53.0294 90.05C53.0341 86.9084 53.6573 83.7983 54.8634 80.8976C56.0696 77.9968 57.8351 75.3621 60.0592 73.1439C62.2832 70.9257 64.9222 69.1674 67.8256 67.9694C70.7289 66.7714 73.8398 66.1572 76.9804 66.1619C80.121 66.1665 83.23 66.7899 86.1298 67.9965C89.0296 69.2031 91.6634 70.9691 93.8809 73.1939C96.0984 75.4187 97.8561 78.0586 99.0537 80.963C100.251 83.8673 100.865 86.9791 100.861 90.1208L100.831 90.109ZM85.5634 81.2637C84.4669 80.0844 83.6416 78.905 82.5216 78.0971C81.0655 77.0593 79.1084 76.7232 78.9846 74.2995C78.9846 73.7688 77.4756 72.8312 76.78 72.9256C75.9134 73.0494 75.0704 73.9516 74.3866 74.6946C73.6085 75.5202 73.2077 76.8116 72.3116 77.3895C69.2404 79.3826 67.4896 82.3429 67.9789 85.4623C68.5684 89.1478 70.8202 91.4063 74.3159 92.4383C75.4949 92.7921 77.0099 92.5385 78.0297 93.14C79.0495 93.7415 80.5527 95.1567 80.5055 96.1533C80.4584 97.1499 78.8609 98.7656 77.8116 98.8776C76.3732 99.0309 74.7109 98.2054 73.3197 97.4683C71.3213 96.4128 68.9692 97.0496 69.1225 99.0133C69.205 100.157 70.2366 101.419 71.1621 102.274C72.5297 103.536 74.6047 103.99 74.9525 106.355C75.0292 106.88 76.556 107.611 77.3105 107.505C78.065 107.399 78.7665 106.408 79.3973 105.736C80.199 104.851 80.7354 103.672 81.6315 103.082C84.3903 101.254 86.0998 98.8658 85.8699 95.5282C85.64 92.0786 83.6475 89.6903 80.4702 88.452C79.132 87.9331 77.5876 87.9744 76.1728 87.6264C74.3159 87.1665 72.683 86.1935 73.1841 83.9999C73.6851 81.8062 75.4654 81.0102 77.4991 81.476C78.7665 81.7591 79.8571 82.8559 81.0773 83.3335C81.9301 83.693 82.8789 83.7553 83.7713 83.5104C84.4315 83.2628 84.8029 82.2662 85.5634 81.2637Z" fill="#1A2E35"/>
<path d="M76.8921 157.681C71.0974 157.681 65.2968 157.681 59.4962 157.681C56.3012 157.681 55.5408 156.914 55.4995 153.654C55.3757 143.629 55.3286 144.991 63.9705 144.967C73.9918 144.938 84.0131 144.967 94.0344 144.967C97.5301 144.967 98.2846 145.646 98.32 148.989C98.4261 158.849 98.6265 157.663 89.8549 157.693C85.5458 157.693 81.2189 157.681 76.8921 157.681Z" fill="black"/>
<path d="M77.1984 162.699C82.9872 162.699 88.7701 162.77 94.553 162.664C97.2293 162.617 98.3139 163.843 98.3257 166.355C98.3965 176.598 98.8091 175.478 89.7015 175.478C79.7038 175.478 69.7021 175.478 59.6965 175.478C56.3128 175.478 55.5288 174.723 55.4875 171.35C55.3637 161.426 55.3166 162.723 63.9644 162.693C68.3856 162.682 72.8008 162.699 77.1984 162.699Z" fill="black"/>
<path d="M76.8921 127.224C82.787 127.224 88.6819 127.306 94.5768 127.188C97.2766 127.129 98.3259 128.338 98.3436 130.862C98.4025 141.27 98.7798 139.79 89.9139 139.825C79.7924 139.867 69.6767 139.825 59.5552 139.825C56.2305 139.825 55.5467 139.177 55.5054 135.916C55.3757 125.75 55.3168 127.289 63.9292 127.224C68.2502 127.194 72.5711 127.224 76.8921 127.224Z" fill="black"/>
<path d="M106.201 20.9919H90.3735L106.201 5.13525V20.9919Z" fill="black"/>
<path d="M170.391 42.5803C170.391 49.5504 170.32 56.5264 170.432 63.5024C170.473 66.0144 169.642 67.1584 167.048 67.0051C164.891 66.8754 162.722 66.9638 160.564 67.0051C158.725 67.0051 157.917 66.1677 157.923 64.3043C157.951 49.9632 157.951 35.6142 157.923 21.2573C157.923 19.3998 158.631 18.5447 160.529 18.5978C162.786 18.6627 165.056 18.704 167.308 18.5978C169.56 18.4917 170.467 19.3467 170.432 21.6701C170.338 28.6284 170.391 35.6043 170.391 42.5803Z" fill="white"/>
<path d="M147.808 48.489C147.808 53.4895 147.737 58.5136 147.837 63.4905C147.884 65.9613 147.018 67.1584 144.424 67.0286C142.461 66.9162 140.492 66.9162 138.529 67.0286C136.171 67.1466 135.128 66.2326 135.14 63.7913C135.206 53.6015 135.206 43.4078 135.14 33.2102C135.14 30.8514 135.929 29.7369 138.405 29.8962C140.46 30.0318 142.522 30.0318 144.577 29.8962C147.071 29.7369 147.855 30.8986 147.819 33.2279C147.749 38.2933 147.808 43.3941 147.808 48.489Z" fill="white"/>
<path d="M125.047 54.1382C125.047 57.4699 124.994 60.8016 125.047 64.1275C125.094 66.1206 124.257 67.0228 122.271 66.9874C119.913 66.9462 117.555 66.9874 115.197 66.9874C113.375 66.9874 112.538 66.1501 112.544 64.2926C112.58 57.4345 112.544 50.5706 112.544 43.7125C112.544 42.0143 113.334 41.171 115.032 41.1769H115.327C126.993 41.3774 124.758 39.4491 125 50.3288C125.071 51.5849 125.047 52.8645 125.047 54.1382Z" fill="white"/>
<path d="M141.677 78.0911H169.053C170.88 78.0911 172.867 78.0616 172.825 80.615C172.784 83.1683 170.804 83.0798 168.976 83.0798H113.93C112.214 83.0798 110.346 83.1388 110.163 80.8331C109.962 78.3211 111.79 78.0852 113.7 78.0852C123.025 78.097 132.351 78.099 141.677 78.0911Z" fill="white"/>
<path d="M127.105 90.6986C131.614 90.6986 136.124 90.6986 140.633 90.6986C142.402 90.6986 143.858 91.1291 143.905 93.193C143.952 95.2569 142.52 95.8525 140.775 95.8525C131.555 95.8525 122.336 95.9409 113.122 95.7522C112.102 95.7522 110.446 94.3075 110.245 93.305C109.868 91.3768 111.477 90.6986 113.281 90.6986C117.873 90.6986 122.495 90.6986 127.105 90.6986Z" fill="white"/>
<path d="M197.537 101.378C204.31 101.378 211.095 101.455 217.862 101.337C220.403 101.295 221.452 102.174 221.311 104.751C221.158 107.493 221.252 110.253 221.276 113.006C221.276 114.717 220.545 115.495 218.794 115.489C204.552 115.465 190.312 115.465 176.074 115.489C174.004 115.489 173.303 114.54 173.35 112.6C173.421 109.946 173.468 107.292 173.35 104.645C173.232 102.215 174.228 101.313 176.634 101.342C183.59 101.437 190.563 101.378 197.537 101.378Z" fill="white"/>
<path d="M221.276 154.662C221.276 158.2 221.205 161.738 221.276 165.276C221.323 167.086 220.568 167.7 218.841 167.694C211.054 167.658 212.51 168.189 212.427 161.567C212.363 155.871 212.486 150.168 212.38 144.466C212.339 142.249 213.205 141.518 215.328 141.565C222.472 141.647 221.128 141.223 221.223 147.291C221.317 149.75 221.276 152.203 221.276 154.662Z" fill="white"/>
<path d="M177.671 133.062C173.368 133.062 173.368 133.062 173.368 128.421C173.368 124.293 173.368 124.293 178.201 124.293C182.204 124.293 182.204 124.293 182.198 129.223C182.192 133.067 182.192 133.067 177.671 133.062Z" fill="white"/>
<path d="M197.213 133.062C192.886 133.062 192.886 133.062 192.892 128.409C192.892 124.311 192.892 124.311 197.755 124.317C201.734 124.317 201.734 124.317 201.728 129.246C201.722 133.068 201.722 133.068 197.213 133.062Z" fill="white"/>
<path d="M216.795 133.062C212.433 133.062 212.433 133.062 212.439 128.444C212.439 124.317 212.439 124.317 217.267 124.317C221.281 124.317 221.281 124.317 221.276 128.922C221.276 133.068 221.276 133.068 216.795 133.062Z" fill="white"/>
<path d="M201.728 146.129C201.728 150.31 201.728 150.31 197.053 150.31C192.892 150.31 192.892 150.31 192.892 145.858C192.892 141.6 192.892 141.6 197.608 141.606C201.728 141.594 201.728 141.594 201.728 146.129Z" fill="white"/>
<path d="M182.198 146.129C182.198 150.328 182.198 150.328 177.524 150.328C173.362 150.328 173.362 150.328 173.368 145.61C173.368 141.618 173.368 141.618 178.054 141.624C182.198 141.594 182.198 141.594 182.198 146.129Z" fill="white"/>
<path d="M182.198 163.531C182.198 167.659 182.198 167.659 177.73 167.659C173.368 167.659 173.368 167.659 173.368 163.088C173.368 158.961 173.368 158.961 178.148 158.961C182.198 159.008 182.198 159.008 182.198 163.531Z" fill="white"/>
<path d="M197.454 159.008C201.728 159.008 201.728 159.008 201.728 163.295C201.728 167.676 201.728 167.676 197.219 167.676C192.886 167.676 192.886 167.676 192.892 163.047C192.892 159.002 192.892 159.002 197.454 159.008Z" fill="white"/>
<path d="M85.5633 81.2636C84.8028 82.2838 84.4315 83.2803 83.7948 83.528C82.9024 83.7729 81.9536 83.7106 81.1008 83.3511C79.8511 82.8735 78.79 81.7766 77.5226 81.4936C75.4889 81.0277 73.691 81.8946 73.2076 84.0175C72.7242 86.1403 74.3394 87.1841 76.1963 87.644C77.6111 87.9919 79.1437 87.9506 80.4937 88.4696C83.671 89.702 85.6635 92.0902 85.8934 95.5458C86.1233 98.8834 84.4138 101.272 81.655 103.1C80.7471 103.689 80.2225 104.869 79.4444 105.712C78.8136 106.396 78.1239 107.381 77.3576 107.481C76.5912 107.581 75.0763 106.856 74.9996 106.331C74.6518 103.972 72.5768 103.512 71.2092 102.251C70.2837 101.395 69.2521 100.134 69.1696 98.9896C69.0163 97.0259 71.3684 96.389 73.3667 97.4446C74.7579 98.1817 76.4203 99.0072 77.8586 98.8539C78.9079 98.7419 80.5055 97.132 80.5526 96.1296C80.5998 95.1271 79.1791 93.7708 78.0768 93.1163C76.9744 92.4617 75.5714 92.7684 74.363 92.4146C70.8673 91.3826 68.6155 89.1241 68.026 85.4386C67.5367 82.3191 69.2875 79.3589 72.3587 77.3658C73.2547 76.7761 73.6556 75.4965 74.4337 74.6709C75.1175 73.9456 75.9605 73.0434 76.827 72.9019C77.5226 72.8075 79.0082 73.7451 79.0317 74.2758C79.1319 76.6994 81.089 77.0356 82.5687 78.0734C83.6415 78.8695 84.4668 80.0842 85.5633 81.2636Z" fill="white"/>
</g>
<defs>
<clipPath id="clip0_63_15541">
<rect width="177" height="177" fill="white" transform="translate(53 0.983887)"/>
</clipPath>
</defs>
</svg>
