<svg xmlns="http://www.w3.org/2000/svg" viewBox="0 0 340.9 333.29"><defs><style>.cls-1{fill:#fff;}.cls-2{fill:#263238;}.cls-3{fill:#ffbf9d;}.cls-4{fill:#ff9a6c;}.cls-5{fill:#e0e0e0;}.cls-6{fill:#455a64;}.cls-7{opacity:0.6;}.cls-8{fill:#fafafa;}.cls-9{fill:#ff725e;}.cls-10{opacity:0.3;}.cls-11{fill:#6f4439;}.cls-12{fill:#ebebeb;}.cls-13{fill:#f5f5f5;}</style></defs><g id="Speech_Bubble" data-name="Speech Bubble"><path class="cls-1" d="M88.58,180.5l-3.43-6a23.15,23.15,0,1,0-4,7.25h0Z" transform="translate(-24.72 -143.8)"/><path class="cls-2" d="M88.58,180.5a2.49,2.49,0,0,1-.45.1l-1.41.26-5.57,1a.1.1,0,0,1-.12-.09s0,0,0-.06v0l.19.12a23.05,23.05,0,0,1-9.11,6.84,22.82,22.82,0,0,1-7.23,1.7,23.12,23.12,0,0,1-16.5-5.26,23.22,23.22,0,0,1-5.71-28.93,23,23,0,0,1,7.54-8.36A23.66,23.66,0,0,1,60.27,144a23.33,23.33,0,0,1,25.91,19.22,23,23,0,0,1-.93,11.3v-.09L87.76,179l.62,1.15.2.38s-.09-.14-.25-.4L87.65,179c-.61-1-1.47-2.51-2.6-4.42a.14.14,0,0,1,0-.09,22.95,22.95,0,0,0-6.85-24.59,23,23,0,0,0-17.87-5.37,23.25,23.25,0,0,0-9.83,3.74,22.59,22.59,0,0,0-7.36,8.17A22.85,22.85,0,0,0,64.86,190,22.59,22.59,0,0,0,72,188.32a23,23,0,0,0,9.06-6.66.11.11,0,0,1,.16,0,.12.12,0,0,1,0,.14h0l-.12-.16,5.51-.85,1.44-.21Z" transform="translate(-24.72 -143.8)"/><path class="cls-2" d="M56.8,167.12a2.35,2.35,0,1,1-2.34-2.35A2.34,2.34,0,0,1,56.8,167.12Z" transform="translate(-24.72 -143.8)"/><path class="cls-2" d="M66.19,167.12a2.35,2.35,0,1,1-2.35-2.35A2.35,2.35,0,0,1,66.19,167.12Z" transform="translate(-24.72 -143.8)"/><path class="cls-2" d="M75.55,165.94a2.35,2.35,0,1,1-3.2-.86A2.34,2.34,0,0,1,75.55,165.94Z" transform="translate(-24.72 -143.8)"/></g><g id="Character_1" data-name="Character 1"><path class="cls-3" d="M217.54,212.51a34.34,34.34,0,0,1-1.36,6.73c-.87,2.13-2.18,2.88-2.13,6.18s-.06,6.84-.06,6.84-4.85,6.83-4.53,6.86,8.7,8.14,8.7,8.14l7.87-12.9,11.34-12.24,2.73-11.65-.7-.69,0-2.14s-1.75-1.92-3,.31c0,0-.56-2.76-2.8-.08s-5.83,9-6.2,9.19-4.86,3.74-4.86,3.74l-2.55.51a6.83,6.83,0,0,0,1.39-4c-.08-2.12.81-3.72-.77-4.94A2.44,2.44,0,0,0,217.54,212.51Z" transform="translate(-24.72 -143.8)"/><path class="cls-4" d="M221.43,228.25a5.36,5.36,0,0,0,.69-.6,13.19,13.19,0,0,1,2.07-1.36,35.69,35.69,0,0,1,7.87-2.85l.08,0,.05-.06,1.19-1.49.59-.73.05-.07V221c0-1.28,0-2.52.07-3.69a2.29,2.29,0,0,1,.42-1.45,1.38,1.38,0,0,1,1.21-.46l-.15-.13c1.08,3.41,2,5.58,2.11,5.52s-.19-.55-.5-1.53-.74-2.39-1.25-4.1l0-.12-.12,0a1.82,1.82,0,0,0-1.59.57,2.71,2.71,0,0,0-.54,1.72c0,1.16-.06,2.39-.09,3.67l.05-.13-.59.73-1.19,1.49L232,223a31.53,31.53,0,0,0-7.92,3,11,11,0,0,0-2,1.5A2.64,2.64,0,0,0,221.43,228.25Z" transform="translate(-24.72 -143.8)"/><path class="cls-4" d="M230.44,218.35a38.2,38.2,0,0,0,3.08-5.14,40.74,40.74,0,0,0,2.67-5.37,38.2,38.2,0,0,0-3.08,5.14A40.06,40.06,0,0,0,230.44,218.35Z" transform="translate(-24.72 -143.8)"/><path class="cls-4" d="M236.4,215c.06,0,.17-.35.31-.93a12.4,12.4,0,0,1,.7-2.17,4.73,4.73,0,0,1,1.37-1.72c.46-.34.82-.46.8-.53s-.41-.05-1,.25a4,4,0,0,0-1.61,1.81,7.24,7.24,0,0,0-.61,2.3C236.33,214.59,236.34,215,236.4,215Z" transform="translate(-24.72 -143.8)"/><path class="cls-4" d="M226.84,218.52a8.17,8.17,0,0,1,5.66,2.71c.05,0-.09-.39-.47-.87a5.62,5.62,0,0,0-4.22-2C227.2,218.35,226.83,218.46,226.84,218.52Z" transform="translate(-24.72 -143.8)"/><rect class="cls-5" x="146.29" y="365.5" width="10.97" height="58.66" transform="translate(278.83 645.86) rotate(180)"/><path class="cls-5" d="M191,356.06c-.18,0-33.75,10.53-33.75,10.53h-11l-38.48-10.53Z" transform="translate(-24.72 -143.8)"/><path class="cls-5" d="M198.35,445s-5.07-15.49-12.07-19.24c-11.24-6-37.14-8.9-37.14-8.9l-2.85,7.33s34.56,1.36,40,8.33A145.52,145.52,0,0,1,195,445Z" transform="translate(-24.72 -143.8)"/><circle class="cls-2" cx="194.06" cy="447.85" r="7.34" transform="translate(-284.56 124.59) rotate(-45)"/><path class="cls-5" d="M104.7,444.67s5.07-15.49,12.07-19.24c11.24-6,37.15-8.9,37.15-8.9l2.84,7.33s-34.55,1.36-40,8.33a145.52,145.52,0,0,0-8.68,12.48Z" transform="translate(-24.72 -143.8)"/><circle class="cls-2" cx="106.7" cy="447.85" r="7.34" transform="translate(-310.15 62.82) rotate(-45)"/><polyline class="cls-5" points="130.84 276.96 129.23 296.89 124.7 297.79 124.7 276.96"/><circle class="cls-2" cx="151.31" cy="447.85" r="7.34" transform="translate(-344.01 348.77) rotate(-76.76)"/><path class="cls-2" d="M146.55,366.82a29,29,0,0,0,5.23.24,28.9,28.9,0,0,0,5.22-.24,30.69,30.69,0,0,0-5.22-.23A30.76,30.76,0,0,0,146.55,366.82Z" transform="translate(-24.72 -143.8)"/><path class="cls-2" d="M146.34,418.07a11.24,11.24,0,0,0,10.57.28,23,23,0,0,1-5.31.71A22.64,22.64,0,0,1,146.34,418.07Z" transform="translate(-24.72 -143.8)"/><path class="cls-6" d="M98.12,196.41h74.49a11.51,11.51,0,0,1,11.51,11.51V321.56a23,23,0,0,1-23,23H109.63a23,23,0,0,1-23-23V207.92A11.51,11.51,0,0,1,98.12,196.41Z" transform="translate(246 397.2) rotate(180)"/><rect class="cls-6" x="86.61" y="342.01" width="116.28" height="14.05" rx="6.04" transform="translate(264.77 554.27) rotate(180)"/><path class="cls-2" d="M186.19,341.94c0-.14-21.45-.26-47.92-.26s-47.92.12-47.92.26,21.45.25,47.92.25S186.19,342.08,186.19,341.94Z" transform="translate(-24.72 -143.8)"/><path class="cls-6" d="M212.62,416.41l-5.49,20.29s18.21,12.56,17.55,16.41l-38.63-9.53,7.28-32Z" transform="translate(-24.72 -143.8)"/><path class="cls-5" d="M195.58,432a1.64,1.64,0,0,0-1.52,1.58,1.59,1.59,0,0,0,1.51,1.57,1.75,1.75,0,0,0,1.61-1.69c-.08-.82-1-1.66-1.75-1.45" transform="translate(-24.72 -143.8)"/><path class="cls-2" d="M186.05,443.58l.85-3.2,36.72,10.33s1.55,1.2,1.06,2.4Z" transform="translate(-24.72 -143.8)"/><path class="cls-1" d="M207.8,436.66c-.05.19-1,0-2.09.44s-1.75,1.09-1.91,1,.39-1.17,1.69-1.63S207.89,436.49,207.8,436.66Z" transform="translate(-24.72 -143.8)"/><path class="cls-1" d="M211.45,439.38c0,.2-.89.33-1.72,1s-1.22,1.48-1.41,1.43,0-1.18,1-2S211.49,439.19,211.45,439.38Z" transform="translate(-24.72 -143.8)"/><path class="cls-1" d="M212.59,444.94c-.18,0-.22-1,.52-2s1.71-1.15,1.75-1-.64.62-1.22,1.4S212.78,445,212.59,444.94Z" transform="translate(-24.72 -143.8)"/><path class="cls-1" d="M208.55,431.89c-.12.16-.92-.32-2-.51s-2-.05-2.06-.24.9-.69,2.18-.45S208.68,431.76,208.55,431.89Z" transform="translate(-24.72 -143.8)"/><path class="cls-6" d="M178.61,429.28l4.08,25.13,8.8,18.92a2.64,2.64,0,0,1-1.35,3.55h0a2.49,2.49,0,0,1-2.32-.23c-4.39-2.94-20.17-14.08-20.5-15.4-.53-2.09-6.2-26.49-6.2-26.49Z" transform="translate(-24.72 -143.8)"/><path class="cls-2" d="M190.14,476.88l-23.33-17.59.2,1.06a4.19,4.19,0,0,0,1.35,2.33c1.9,1.56,7.21,5.76,19.39,14a2.49,2.49,0,0,0,2.39.21Z" transform="translate(-24.72 -143.8)"/><g class="cls-7"><path class="cls-1" d="M170.31,450.23a1.6,1.6,0,0,1,.79,1.95,1.47,1.47,0,0,1-1.87.82,1.69,1.69,0,0,1-.82-2.06,1.51,1.51,0,0,1,2-.64" transform="translate(-24.72 -143.8)"/></g><path class="cls-1" d="M182.55,467a8,8,0,0,1,1.77-2.37,7.6,7.6,0,0,1,2.7-1.1c0-.06-.33-.2-.92-.17a4,4,0,0,0-2.11.82,4.17,4.17,0,0,0-1.35,1.86C182.45,466.65,182.48,467,182.55,467Z" transform="translate(-24.72 -143.8)"/><path class="cls-1" d="M184.9,470.05c.14.08.77-.88,2-1.5a18.55,18.55,0,0,1,2.32-.78,2.77,2.77,0,0,0-2.57.28C185.26,468.76,184.76,470,184.9,470.05Z" transform="translate(-24.72 -143.8)"/><path class="cls-1" d="M178.53,463.37a25.21,25.21,0,0,1,2.86-2.52,23.78,23.78,0,0,1,3.45-1.57,5.49,5.49,0,0,0-3.74,1.1A5.72,5.72,0,0,0,178.53,463.37Z" transform="translate(-24.72 -143.8)"/><path class="cls-1" d="M176.67,455.84c.09.14,1.33-.71,3.06-1.11s3.21-.25,3.23-.42a6.16,6.16,0,0,0-6.29,1.53Z" transform="translate(-24.72 -143.8)"/><path class="cls-1" d="M175.29,448.49a12.06,12.06,0,0,1,3.16-1.24,12.18,12.18,0,0,1,3.38.2c0-.06-.29-.32-.91-.55a5.38,5.38,0,0,0-4.92.79C175.47,448.09,175.24,448.44,175.29,448.49Z" transform="translate(-24.72 -143.8)"/><path class="cls-1" d="M178.15,445.86a2.41,2.41,0,0,0-.14-1,7,7,0,0,0-1.19-2.33,2.91,2.91,0,0,0-1.48-1.16,1,1,0,0,0-1.08.45,1.72,1.72,0,0,0-.18,1.21,3.61,3.61,0,0,0,3.71,2.75,4.2,4.2,0,0,0,3.61-3,1.52,1.52,0,0,0-.16-1.22,1,1,0,0,0-1.13-.34,3.6,3.6,0,0,0-1.44,1.17,7.42,7.42,0,0,0-1.3,2.27,2.38,2.38,0,0,0-.22.94,12.14,12.14,0,0,1,1.8-2.94,3.34,3.34,0,0,1,1.29-1,.5.5,0,0,1,.61.18,1,1,0,0,1,.06.81,3.73,3.73,0,0,1-3.16,2.55,3.12,3.12,0,0,1-3.18-2.29,1.23,1.23,0,0,1,.09-.84.55.55,0,0,1,.6-.26,2.61,2.61,0,0,1,1.26.95A9.79,9.79,0,0,1,178.15,445.86Z" transform="translate(-24.72 -143.8)"/><path class="cls-2" d="M187.44,309.73h0c7.36,3.94,36,20.48,43.74,25.5,5.64,3.67,9.1,13.62,7.31,19.83-7.46,25.76-28.64,78.07-28.64,78.07l-24.41-3.07,17.06-73L168,340.84l-33.66-33.42Z" transform="translate(-24.72 -143.8)"/><path class="cls-2" d="M147.15,311.28s30.65,35.86,31.29,43.24c.86,10,9,98,9,98l-25.56,3.85-19.63-90.84-24-28L115.19,322l3.36-16.3Z" transform="translate(-24.72 -143.8)"/><path class="cls-6" d="M155.46,322a2,2,0,0,0,.2.29l.63.84,2.46,3.19c2.13,2.78,5.24,6.78,9,11.77,1.89,2.5,4,5.24,6.09,8.23,1.06,1.5,2.17,3,3.18,4.71a7.24,7.24,0,0,1,.88,2.74c.19,1,.32,2,.46,3,1,8.21,1.61,17.29,2.4,26.81.41,4.76.8,9.4,1.18,13.89s.85,8.81,1.25,12.93c.8,8.23,1.53,15.65,2.14,21.88s1.13,11.24,1.48,14.75c.19,1.72.33,3.07.43,4,.05.44.1.78.13,1a1.71,1.71,0,0,0,.06.36,2.46,2.46,0,0,0,0-.36c0-.26,0-.61-.08-1.05-.07-.95-.19-2.29-.33-4-.31-3.51-.77-8.55-1.32-14.76s-1.27-13.66-2-21.89c-.39-4.13-.8-8.45-1.22-12.93s-.77-9.14-1.17-13.9c-.8-9.51-1.43-18.59-2.45-26.82-.14-1-.27-2-.47-3a15,15,0,0,0-.33-1.48,4.43,4.43,0,0,0-.62-1.4c-1-1.69-2.15-3.23-3.22-4.73-2.16-3-4.23-5.71-6.14-8.2-3.81-5-7-8.93-9.15-11.67l-2.53-3.13-.67-.81C155.55,322.1,155.47,322,155.46,322Z" transform="translate(-24.72 -143.8)"/><path class="cls-6" d="M211.37,349a39.84,39.84,0,0,0-5,4.31,41.72,41.72,0,0,0-4.6,4.68,41.59,41.59,0,0,0,5-4.31A44,44,0,0,0,211.37,349Z" transform="translate(-24.72 -143.8)"/><path class="cls-2" d="M165.4,218.39s7.94.72,11.39,5.43c4.05,5.52,22.83,30.62,22.83,30.62l13.82-22.56,14.31,7.2S214.44,273.91,209.22,277s-12.16,3.36-15.3,0-20.41-26-20.41-26Z" transform="translate(-24.72 -143.8)"/><polygon class="cls-8" points="161.01 165.27 128.84 73.73 124.48 68.35 100.31 65.22 96.19 76.8 109.64 166 161.01 165.27"/><path class="cls-2" d="M156.52,288.56a2,2,0,0,0,0-.58c0-.44,0-1,0-1.67s-.08-1.6-.16-2.63-.16-2.19-.31-3.47c-.51-5.15-1.6-12.21-3.18-19.93s-3.29-14.66-4.58-19.66c-.64-2.51-1.19-4.52-1.57-5.91-.19-.65-.34-1.18-.46-1.6a1.91,1.91,0,0,0-.2-.55,3.43,3.43,0,0,0,.1.57c.09.43.21,1,.36,1.63l1.42,5.94c1.2,5,2.85,12,4.43,19.68s2.72,14.75,3.32,19.87c.17,1.28.29,2.44.39,3.46s.19,1.9.24,2.62l.15,1.65A2.73,2.73,0,0,0,156.52,288.56Z" transform="translate(-24.72 -143.8)"/><path class="cls-2" d="M186.43,296.32c0-.95-10.91-66.19-10.91-66.19l-1.73-5.08a12.28,12.28,0,0,0-8.44-7.25l-11.25-2.75-4.75-3.68-.21,2.22,5,16.13,20.38,66.75Z" transform="translate(-24.72 -143.8)"/><path class="cls-2" d="M137.73,294.55c0-1.89,1.78-15.93.58-27.09-.88-8.23-3.24-22.33-5-32.35a86.56,86.56,0,0,0-7-22l-2-4.27-4.2,6.7-18.18,7.19,6.86,71.84Z" transform="translate(-24.72 -143.8)"/><polygon class="cls-2" points="77.2 152.88 67.21 188.96 107.79 200.1 111.11 149.54 77.2 152.88"/><path class="cls-6" d="M101.92,296.68a.7.7,0,0,0-.06.16c0,.14-.1.3-.16.5-.14.47-.33,1.12-.58,2-.49,1.74-1.21,4.23-2.11,7.38-1.79,6.37-4.31,15.37-7.3,26l-.06.22.22.06,26.67,7.35,13.91,3.82.3.08,0-.31c.91-14.47,1.71-27.1,2.28-36.15.26-4.49.47-8.09.62-10.6.06-1.21.11-2.16.14-2.84,0-.31,0-.55,0-.74a1,1,0,0,0,0-.25,1.53,1.53,0,0,0,0,.25c0,.19-.05.43-.07.73-.06.68-.14,1.63-.23,2.84-.19,2.51-.45,6.1-.77,10.59-.62,9-1.48,21.67-2.46,36.14l.31-.22-13.91-3.83L92,332.53l.16.29c2.91-10.67,5.38-19.69,7.12-26.08.85-3.16,1.52-5.66,2-7.41.22-.84.39-1.49.51-2l.12-.51C101.92,296.74,101.93,296.68,101.92,296.68Z" transform="translate(-24.72 -143.8)"/><path class="cls-2" d="M143,279.7l-31.86-2.43-.93-34.66-7.23-20.3A19,19,0,0,0,91.44,240c-.27,13.58-.63,42.44,1.76,51,.08.3.18.6.28.89A14,14,0,0,0,108.67,301l37.08-5Z" transform="translate(-24.72 -143.8)"/><path class="cls-6" d="M109.72,244.45a3.37,3.37,0,0,0,0,.66q0,.72,0,1.89c0,1.7.12,4.05.21,6.94.22,5.91.53,14,.88,22.89v.68h.23l22.55,1.75,6.82.48,1.86.1a2.71,2.71,0,0,0,.65,0,3,3,0,0,0-.64-.1l-1.85-.2-6.81-.63L111.11,277l.23.25v-.45c-.4-8.91-.77-17-1-22.89-.16-2.88-.28-5.23-.37-6.93-.05-.78-.1-1.4-.13-1.89A2.56,2.56,0,0,0,109.72,244.45Z" transform="translate(-24.72 -143.8)"/><path class="cls-6" d="M102.94,224.5a32.9,32.9,0,0,1,4.27,6.4,32.69,32.69,0,0,1,2.15,7.39,7,7,0,0,0-.1-2.29,19.15,19.15,0,0,0-4.63-9.95A7.33,7.33,0,0,0,102.94,224.5Z" transform="translate(-24.72 -143.8)"/><path class="cls-6" d="M119.66,216.67a2.17,2.17,0,0,0,0,.56c0,.37.06.91.14,1.6.15,1.39.41,3.4.86,5.89a95.05,95.05,0,0,0,5.57,19.07l.08.19.2,0,2.52-.45,1.21-.22-.24-.42c-1.29,1.54-2.66,3.22-2.85,5.28a6.1,6.1,0,0,0,.5,2.86c.35.87.76,1.67,1.12,2.47l4,8.42c1.12,2.34,2,4.25,2.7,5.64l.76,1.52a2.08,2.08,0,0,0,.29.51,2.16,2.16,0,0,0-.2-.55c-.18-.41-.4-.92-.67-1.56l-2.55-5.71c-1.11-2.42-2.41-5.29-3.86-8.47-.68-1.59-1.73-3.25-1.56-5.09s1.46-3.46,2.75-5l.46-.54-.7.13L129,243l-2.52.46.28.16a102.17,102.17,0,0,1-5.7-18.95c-.49-2.46-.81-4.46-1-5.84-.1-.65-.18-1.17-.24-1.59A2,2,0,0,0,119.66,216.67Z" transform="translate(-24.72 -143.8)"/><path class="cls-6" d="M167.13,264.86a1.76,1.76,0,0,0,.05-.53c0-.35,0-.86,0-1.51,0-1.31-.09-3.21-.32-5.55a137.3,137.3,0,0,0-3.24-18c-.83-3.48-1.59-6.8-2.43-9.79a52.85,52.85,0,0,0-2.75-7.78,29.25,29.25,0,0,0-2.73-4.85,15,15,0,0,0-.92-1.21,2.91,2.91,0,0,0-.35-.39s.4.61,1.1,1.71a34.35,34.35,0,0,1,2.57,4.88,56.86,56.86,0,0,1,2.62,7.76c.81,3,1.56,6.31,2.39,9.79a158.57,158.57,0,0,1,3.38,17.95c.28,2.32.4,4.21.48,5.51,0,.61.06,1.11.08,1.51A4,4,0,0,0,167.13,264.86Z" transform="translate(-24.72 -143.8)"/><path class="cls-6" d="M102.8,284.53a18.1,18.1,0,0,1,3.69-4.58,17.81,17.81,0,0,1,5.21-2.72,4.18,4.18,0,0,0-1.75.28,11.4,11.4,0,0,0-6.53,5.35A4.21,4.21,0,0,0,102.8,284.53Z" transform="translate(-24.72 -143.8)"/><polygon class="cls-9" points="119.98 90.78 122.69 154.51 130.73 169.11 136.09 152.26 123.12 90.22 119.98 90.78"/><path class="cls-5" d="M212.72,255.51c-.12.37-22.39,49-22.39,49H149.14l18.12-45.94s14.1,1.83,26.63.79A87.94,87.94,0,0,0,212.72,255.51Z" transform="translate(-24.72 -143.8)"/><path class="cls-2" d="M212.72,255.51a.78.78,0,0,1-.19.09l-.6.21c-.53.17-1.31.42-2.34.72a89.68,89.68,0,0,1-9.09,2.09c-7.92,1.51-19.53,1.69-33.27.15l.24-.13-18,45.81-.05.13-.25-.35,41.19,0-.22.14c13.31-28.76,21.75-47,22.61-48.88-.84,1.87-9.13,20.2-22.18,49.07l-.06.14h-.15l-41.19,0h-.38l.14-.36.06-.13c6.65-16.83,12.86-32.55,18.1-45.79l.06-.16.17,0c13.69,1.58,25.27,1.47,33.17,0,3.95-.66,7-1.43,9.09-2l2.36-.66.61-.18Z" transform="translate(-24.72 -143.8)"/><path class="cls-3" d="M142.91,280l2.8.17s9.28-8.63,10.61-8.63a34.55,34.55,0,0,1,5.36,1.15l-1.13,2.86s6.83-.36,8.9,0,4.5,1.46,3.65,4c0,0,1.7,2.8-1.83,4.13,0,0,.84,1.49-1.23,2.84a6.33,6.33,0,0,1-1.08.57c-3.4,1.46-3.16,1.75-3.16,1.75a4.83,4.83,0,0,1-1.33,2.75c-1.22,1.21-8.07,3.82-11.82,4a23.13,23.13,0,0,1-7.14-1Z" transform="translate(-24.72 -143.8)"/><path class="cls-4" d="M152.69,275.55a16.38,16.38,0,0,0,4,.25,16.41,16.41,0,0,0,4-.27,16.05,16.05,0,0,0-4-.24A16,16,0,0,0,152.69,275.55Z" transform="translate(-24.72 -143.8)"/><path class="cls-4" d="M154.47,280.87a16.31,16.31,0,0,0,2.71-.1l6.51-.44,6.51-.34a16.13,16.13,0,0,0,2.7-.21,12.68,12.68,0,0,0-2.71-.15c-1.67,0-4,0-6.53.19s-4.86.38-6.52.59A13.26,13.26,0,0,0,154.47,280.87Z" transform="translate(-24.72 -143.8)"/><path class="cls-4" d="M158.37,285.76a44.37,44.37,0,0,0,6.68-.69,44.64,44.64,0,0,0,6.61-1.19,45.26,45.26,0,0,0-6.69.68A43.84,43.84,0,0,0,158.37,285.76Z" transform="translate(-24.72 -143.8)"/><path class="cls-4" d="M159.09,289.82a14.31,14.31,0,0,0,7-1.19,19.34,19.34,0,0,0-3.49.52A21,21,0,0,0,159.09,289.82Z" transform="translate(-24.72 -143.8)"/><g class="cls-10"><polygon points="168.34 169.12 178.21 174.78 69.91 179.21 72.71 169.11 168.34 169.12"/></g><polygon class="cls-9" points="119.98 90.78 117.75 87.95 119.41 83.18 122.03 83.18 124.14 87.52 123.12 90.22 119.98 90.78"/><path class="cls-2" d="M153.51,226.26a1.77,1.77,0,0,1-.09.53,8.82,8.82,0,0,1-.52,1.45,10.47,10.47,0,0,1-3.57,4.27l-.22.15-.09-.26a31,31,0,0,0-1.54-3.75,8.86,8.86,0,0,0-2.9-3.45l.39-.15c-.24.86-.5,1.75-.79,2.66a66.49,66.49,0,0,1-2.47,6.56l-.12.28-.24-.18a61,61,0,0,1-6.66-5.71c-.77-.76-1.35-1.39-1.74-1.82a3.39,3.39,0,0,1-.56-.71,3.86,3.86,0,0,1,.67.6l1.83,1.71a76,76,0,0,0,6.75,5.54l-.37.1c.83-2,1.67-4.18,2.42-6.53.28-.9.55-1.79.78-2.63l.1-.35.29.2a9.18,9.18,0,0,1,3,3.66,29.42,29.42,0,0,1,1.51,3.84l-.31-.11a10.79,10.79,0,0,0,3.59-4C153.29,227,153.45,226.24,153.51,226.26Z" transform="translate(-24.72 -143.8)"/><path class="cls-2" d="M155.55,151.46c-4-.76-7.73,3.19-11.82,2.85-2.49-.2-4.55-1.95-6.85-2.91a12.58,12.58,0,0,0-11.18.81c-3.12,2-5,4.08-5.09,7.82-3.2-1.4-7.81,2.95-9.11,6.8s-.45,7.58,1,11.4A53.69,53.69,0,0,0,123.36,196c.42.46,1.06.94,1.59.62a1.35,1.35,0,0,0,.46-1.15c.18-3.65-.69-7.25-1.4-10.84s-1.28-7.29-.52-10.87,3.1-7,6.59-8.11a11.53,11.53,0,0,1,7.88.79c2.49,1.05,4.74,2.58,7.13,3.82a14.86,14.86,0,0,0,7.73,2.05c2.69-.18,5.42-1.77,6.29-4.32s-.79-5.86-3.48-6.12a5.31,5.31,0,0,0-.08-10.41Z" transform="translate(-24.72 -143.8)"/><path class="cls-3" d="M157.88,194.58c-.67-5-2.87-15-5-24.15a19.28,19.28,0,0,0-21.59-14.75l-1,.15c-10.56,2.19-13.3,12.61-10.82,23.1l5.42,31.24L144.63,225l5.3-9.1-.38-8S159.26,204.83,157.88,194.58Z" transform="translate(-24.72 -143.8)"/><path class="cls-4" d="M149.55,207.83a24.47,24.47,0,0,1-14.19-1.74s4.23,6.72,14.31,4.29Z" transform="translate(-24.72 -143.8)"/><path class="cls-2" d="M151.2,180.5a1.49,1.49,0,0,1-1.19,1.69,1.43,1.43,0,0,1-1.71-1.1,1.48,1.48,0,0,1,1.2-1.68A1.41,1.41,0,0,1,151.2,180.5Z" transform="translate(-24.72 -143.8)"/><path class="cls-2" d="M151.45,175.76c-.15.22-1.38-.44-3-.2s-2.6,1.19-2.8,1,0-.44.48-.88a4.06,4.06,0,0,1,2.22-1.06,3.87,3.87,0,0,1,2.38.4C151.31,175.34,151.53,175.66,151.45,175.76Z" transform="translate(-24.72 -143.8)"/><path class="cls-2" d="M136.73,183a1.49,1.49,0,0,1-1.2,1.69,1.42,1.42,0,0,1-1.7-1.1,1.48,1.48,0,0,1,1.19-1.68A1.42,1.42,0,0,1,136.73,183Z" transform="translate(-24.72 -143.8)"/><path class="cls-2" d="M136,178.33c-.16.22-1.39-.44-3-.21s-2.61,1.2-2.81,1,0-.45.49-.89a4.09,4.09,0,0,1,2.21-1,3.88,3.88,0,0,1,2.39.4C135.89,177.91,136.1,178.23,136,178.33Z" transform="translate(-24.72 -143.8)"/><path class="cls-2" d="M143.45,189.16a10.2,10.2,0,0,1,2.49-.84c.4-.1.76-.24.79-.52a2.08,2.08,0,0,0-.44-1.15l-1.64-2.89c-2.29-4.11-4-7.52-3.84-7.61s2.15,3.17,4.44,7.29q.84,1.51,1.59,2.91a2.37,2.37,0,0,1,.45,1.54,1,1,0,0,1-.58.69,3,3,0,0,1-.67.19A11.11,11.11,0,0,1,143.45,189.16Z" transform="translate(-24.72 -143.8)"/><path class="cls-2" d="M135,170.24c-.09.45-1.69.48-3.51,1s-3.23,1.21-3.53.87c-.14-.17.06-.61.6-1.12a6.32,6.32,0,0,1,5.37-1.4C134.65,169.74,135,170,135,170.24Z" transform="translate(-24.72 -143.8)"/><path class="cls-2" d="M150.2,171.29c-.22.4-1.36.19-2.67.36s-2.37.6-2.68.26c-.14-.16,0-.55.42-1a3.72,3.72,0,0,1,2.08-.9,3.82,3.82,0,0,1,2.23.4C150.09,170.75,150.3,171.1,150.2,171.29Z" transform="translate(-24.72 -143.8)"/><path class="cls-3" d="M121,186c-.18,0-8.14-.87-6.89,6.1s8.53,4.63,8.53,4.63Z" transform="translate(-24.72 -143.8)"/><path class="cls-4" d="M119.43,193.89s-.1.11-.29.24a1.22,1.22,0,0,1-.9.18,3,3,0,0,1-1.88-2.44,4.18,4.18,0,0,1,0-1.8,1.46,1.46,0,0,1,.74-1.1.63.63,0,0,1,.78.21c.13.18.11.32.15.33s.13-.15,0-.42a.76.76,0,0,0-.35-.39,1,1,0,0,0-.71-.06A1.75,1.75,0,0,0,116,190a4.14,4.14,0,0,0-.07,2c.3,1.39,1.25,2.58,2.31,2.69a1.31,1.31,0,0,0,1.08-.39C119.45,194.06,119.46,193.9,119.43,193.89Z" transform="translate(-24.72 -143.8)"/><path class="cls-2" d="M151.63,160.86a13.49,13.49,0,0,0-5-4.32,23,23,0,0,0-13.92-2.78,18.76,18.76,0,0,0-12.3,6.83,19.82,19.82,0,0,0-3.93,10.69,34.93,34.93,0,0,0,1.29,12.55c.53,1.6,1.55,2.06,2.88,3.1.83.65,2.15,1,2.88.2a2.8,2.8,0,0,0,.58-1.73c.55-5.6,1-11.6-1.72-16.51a16,16,0,0,1,4.17-5.14,8.39,8.39,0,0,1,6.23-1.81c3.27.5,5.63,3.25,8.43,5a14.94,14.94,0,0,0,13.57,1Z" transform="translate(-24.72 -143.8)"/><path class="cls-5" d="M111.61,175.83c0-.08.76-.1,1.93-.35a12.73,12.73,0,0,0,7.62-5c.69-1,1-1.66,1.08-1.63a5.15,5.15,0,0,1-.82,1.81,11.46,11.46,0,0,1-7.82,5.15A5.1,5.1,0,0,1,111.61,175.83Z" transform="translate(-24.72 -143.8)"/><path class="cls-5" d="M112.43,177.82c0-.08.75-.1,1.92-.35a12.65,12.65,0,0,0,7.62-5c.7-1,1-1.66,1.08-1.63a4.92,4.92,0,0,1-.82,1.81,11.46,11.46,0,0,1-7.82,5.15A5.29,5.29,0,0,1,112.43,177.82Z" transform="translate(-24.72 -143.8)"/><path class="cls-4" d="M139.65,192a32.35,32.35,0,0,1,3.26.78l2.2.49c-.25.92-.66,2.41-1.46,2.94a3.16,3.16,0,0,1-3.1.21,3.27,3.27,0,0,1-1.31-2.12A5,5,0,0,1,139.65,192Z" transform="translate(-24.72 -143.8)"/><path class="cls-2" d="M144.57,194.9s0,.23-.14.59a3.27,3.27,0,0,1-.36.63,2.12,2.12,0,0,1-.33.35,1.37,1.37,0,0,1-.49.23,4.33,4.33,0,0,1-1.16.17,3.17,3.17,0,0,1-1.36-.23,2.75,2.75,0,0,1-1.21-.95,2.57,2.57,0,0,1-.44-1.6,6.89,6.89,0,0,1,.24-1.56,2.49,2.49,0,0,1,.1-.39.55.55,0,0,1,.48-.38,2.24,2.24,0,0,1,.42.08l.33.09,2.32.67a9.35,9.35,0,0,1,2.1.74,10.61,10.61,0,0,1-2.19-.39l-2.35-.55-.34-.08a1.11,1.11,0,0,0-.27-.06s0,0,0,0a.14.14,0,0,0,0,.05c0,.07,0,.22-.08.33a8,8,0,0,0-.21,1.46,2.13,2.13,0,0,0,1.32,2.1,3.85,3.85,0,0,0,2.23.15,1.08,1.08,0,0,0,.69-.41,4.54,4.54,0,0,0,.41-.54C144.46,195.08,144.54,194.89,144.57,194.9Z" transform="translate(-24.72 -143.8)"/><path class="cls-6" d="M178.91,259.41c-.15,0-1.1-5.25-2.14-11.77s-1.76-11.83-1.62-11.85,1.1,5.25,2.14,11.77S179.05,259.39,178.91,259.41Z" transform="translate(-24.72 -143.8)"/><path class="cls-6" d="M144.93,296.06a2.14,2.14,0,0,1-.47.12l-1.35.24-5,.8c-4.2.66-10,1.53-16.45,2.46-3.22.45-6.28.93-9.09,1.2a43.24,43.24,0,0,1-7.5.19,24.09,24.09,0,0,1-5-.83c-.58-.15-1-.32-1.31-.42a1.61,1.61,0,0,1-.44-.2c0-.05.65.16,1.8.42a27.76,27.76,0,0,0,5,.67,48.06,48.06,0,0,0,7.43-.3c2.79-.3,5.85-.79,9.06-1.25,6.43-.93,12.26-1.74,16.48-2.3l5-.64,1.37-.15A1.76,1.76,0,0,1,144.93,296.06Z" transform="translate(-24.72 -143.8)"/></g><g id="Table"><path class="cls-5" d="M322.3,300.9H308.21a1.86,1.86,0,0,0-.06-.34l-9.62-40.48a4.58,4.58,0,0,0-4.45-3.52H241.56a4.58,4.58,0,0,0-4.41,5.78l11,40.48c.43,1.56,1.22,3.16,3.18,3.37h75.42v-.84A4.45,4.45,0,0,0,322.3,300.9Z" transform="translate(-24.72 -143.8)"/><path class="cls-2" d="M322.3,300.9a4.7,4.7,0,0,1,.5,0,4.55,4.55,0,0,1,1.43.4,4.41,4.41,0,0,1,1.85,1.6,4.5,4.5,0,0,1,.62,1.46,8.23,8.23,0,0,1,.12,1.82v.07h-.07l-75.42.11h0a3.31,3.31,0,0,1-2.28-1.24,6.45,6.45,0,0,1-1.08-2.37q-.67-2.49-1.37-5-1.37-5.07-2.8-10.32c-1.91-7-3.87-14.23-5.88-21.61-.2-.74-.4-1.49-.61-2.23a11.12,11.12,0,0,1-.49-2.28,4.82,4.82,0,0,1,2-4.08,4.72,4.72,0,0,1,2.19-.82c.79-.07,1.52,0,2.27,0h49.75a10.73,10.73,0,0,1,1.87.08,4.77,4.77,0,0,1,3.8,3.69c.27,1.15.54,2.29.8,3.41q.8,3.38,1.55,6.57,1.51,6.38,2.83,12c1.75,7.45,3.27,13.76,4.4,18.75l-.09-.07,10.49,0,2.69,0,.91,0-.91,0-2.69,0-10.49,0h-.06l0-.07c-1.19-5-2.7-11.29-4.47-18.73l-2.87-12q-.77-3.18-1.56-6.56l-.82-3.41a4.47,4.47,0,0,0-1.91-2.8,4.59,4.59,0,0,0-1.63-.64,10.91,10.91,0,0,0-1.82-.07H243.3c-.74,0-1.52,0-2.23,0a4.3,4.3,0,0,0-2,.76,4.42,4.42,0,0,0-1.88,3.75,10.34,10.34,0,0,0,.48,2.2l.6,2.23c2,7.38,4,14.61,5.88,21.61,1,3.5,1.88,6.95,2.8,10.32.45,1.69.91,3.36,1.36,5a5.9,5.9,0,0,0,1,2.25,2.94,2.94,0,0,0,2,1.1h0l75.42.12-.06.06a7.93,7.93,0,0,0-.1-1.79A4.17,4.17,0,0,0,326,303a4.29,4.29,0,0,0-1.79-1.59A4.52,4.52,0,0,0,322.3,300.9Z" transform="translate(-24.72 -143.8)"/><polygon class="cls-1" points="269.07 116.75 216.34 116.75 226.81 154.2 278.11 154.2 269.07 116.75"/><path class="cls-2" d="M302.86,298H251.51L241,260.53h52.78v0Zm-51.31,0H302.8l-9-37.39H241.09Z" transform="translate(-24.72 -143.8)"/><path class="cls-2" d="M308.73,301c0,.11-12.42.19-27.75.19s-27.76-.08-27.76-.19,12.43-.19,27.76-.19S308.73,300.9,308.73,301Z" transform="translate(-24.72 -143.8)"/><path class="cls-2" d="M297.68,294.48s-.05,0-.17,0l-.51,0-2,0-7.25.06-23.89.05h-8.51l0-.14c-1.95-7-3.64-13.16-4.85-17.55l-1.38-5.13-.36-1.38a4,4,0,0,1-.1-.48,3.07,3.07,0,0,1,.17.47l.41,1.36c.35,1.22.86,2.95,1.48,5.1,1.25,4.38,3,10.49,5,17.52l-.18-.14h8.37l23.89.05,7.25.06,2,0,.51,0Z" transform="translate(-24.72 -143.8)"/><polygon class="cls-6" points="237.72 137.82 231.38 137.82 234.44 147.84 240.78 147.84 237.72 137.82"/><polygon class="cls-9" points="267.38 137.82 261.04 137.82 264.11 147.84 270.44 147.84 267.38 137.82"/><polygon class="cls-9" points="246.49 134.32 240.16 134.32 244.1 147.84 250.44 147.84 246.49 134.32"/><polygon class="cls-6" points="254.68 128.06 248.34 128.06 254.46 147.84 260.8 147.84 254.68 128.06"/><rect class="cls-5" x="306.68" y="172.91" width="10.77" height="138.42"/><path class="cls-2" d="M342.18,455.13s0-.25,0-.72,0-1.18,0-2.08c0-1.84,0-4.53,0-8,0-6.94-.05-17-.08-29.45,0-24.91-.06-59.48-.11-98.17l.26.26H331.41l.26-.26c-.08,62.91-.14,116.68-.17,138.42l-.09-.09,8,0,2.06,0,.71,0s-.22,0-.67,0l-2.05,0-8,.06h-.1v-.1c0-21.74-.09-75.51-.16-138.42v-.26h11.29v.26c0,38.76-.08,73.4-.11,98.36,0,12.44-.06,22.46-.08,29.39,0,3.44,0,6.11,0,7.94,0,.89,0,1.57,0,2.05S342.18,455.13,342.18,455.13Z" transform="translate(-24.72 -143.8)"/><rect class="cls-5" x="17.99" y="168.11" width="10.77" height="143.21"/><path class="cls-2" d="M53.49,455.12s0-.26,0-.75,0-1.22,0-2.15c0-1.91,0-4.69,0-8.28,0-7.19-.05-17.58-.08-30.48,0-25.77-.06-61.54-.11-101.55l.26.26H42.72l.26-.26c-.08,65.33-.14,121.13-.17,143.21l-.09-.09,8,.05,2.06,0,.7,0-.67,0-2,0-8.07,0h-.1v-.09c0-22.08-.09-77.88-.16-143.21v-.26H53.75v.26c0,40.09-.08,75.92-.11,101.74,0,12.87-.06,23.25-.08,30.42,0,3.56,0,6.33,0,8.22,0,.92,0,1.63,0,2.12S53.49,455.12,53.49,455.12Z" transform="translate(-24.72 -143.8)"/><rect class="cls-5" x="100.05" y="168.11" width="10.77" height="143.28"/><path class="cls-2" d="M135.55,455.18s0-.25,0-.74,0-1.22,0-2.16c0-1.9,0-4.69,0-8.28,0-7.19,0-17.59-.08-30.49,0-25.79-.06-61.57-.11-101.6l.26.26H124.78l.26-.26c-.08,65.37-.14,121.19-.17,143.27l-.09-.09,8,.05,2.06,0h.7s-.22,0-.67,0l-2,0-8.07,0h-.1v-.1c0-22.08-.09-77.9-.16-143.27v-.26h11.29v.26c0,40.1-.08,75.95-.11,101.79,0,12.88-.06,23.26-.08,30.43,0,3.57,0,6.33,0,8.22,0,.92,0,1.63,0,2.12S135.55,455.18,135.55,455.18Z" transform="translate(-24.72 -143.8)"/><rect class="cls-11" y="161.25" width="340.9" height="17.46"/><g class="cls-10"><rect x="0.54" y="161.28" width="92.31" height="17.39"/></g><rect class="cls-12" x="88.46" y="280.19" width="25.63" height="10.1" transform="translate(177.83 426.69) rotate(180)"/><rect class="cls-6" x="34.67" y="278.46" width="80.49" height="2.11" transform="translate(125.11 415.24) rotate(180)"/><rect class="cls-6" x="34.67" y="289.84" width="80.12" height="2.11" transform="translate(124.73 438) rotate(180)"/><polygon class="cls-6" points="63.74 135.16 63.62 147.75 9.95 147.75 9.95 135.16 63.74 135.16"/><path class="cls-2" d="M75.42,285.25a2.91,2.91,0,1,0,2.9-3.14A3,3,0,0,0,75.42,285.25Z" transform="translate(-24.72 -143.8)"/><path class="cls-5" d="M75,285.25a3.36,3.36,0,1,1,3.35,3.58A3.48,3.48,0,0,1,75,285.25Zm.9,0a2.46,2.46,0,1,0,2.45-2.69A2.57,2.57,0,0,0,75.87,285.25Z" transform="translate(-24.72 -143.8)"/><path class="cls-2" d="M90.39,287.82c0,.13,5.27.23,11.76.23s11.76-.1,11.76-.23-5.26-.24-11.76-.24S90.39,287.69,90.39,287.82Z" transform="translate(-24.72 -143.8)"/><path class="cls-2" d="M90.39,286.06c0,.13,5.27.23,11.76.23s11.76-.1,11.76-.23-5.26-.24-11.76-.24S90.39,285.93,90.39,286.06Z" transform="translate(-24.72 -143.8)"/><path class="cls-2" d="M90.39,284.3c0,.13,5.27.23,11.76.23s11.76-.1,11.76-.23-5.26-.24-11.76-.24S90.39,284.17,90.39,284.3Z" transform="translate(-24.72 -143.8)"/><path class="cls-2" d="M90.39,282.54c0,.13,5.27.23,11.76.23s11.76-.1,11.76-.23-5.26-.23-11.76-.23S90.39,282.41,90.39,282.54Z" transform="translate(-24.72 -143.8)"/><rect class="cls-1" x="40.62" y="281.64" width="24.19" height="6.74" transform="translate(80.71 426.22) rotate(180)"/><path class="cls-5" d="M61,287.7a7.85,7.85,0,0,0,.24-2.69,7.76,7.76,0,0,0-.24-2.68,7.92,7.92,0,0,0-.23,2.68A8,8,0,0,0,61,287.7Z" transform="translate(-24.72 -143.8)"/><path class="cls-5" d="M57.84,287.7a7.85,7.85,0,0,0,.24-2.69,7.76,7.76,0,0,0-.24-2.68,7.92,7.92,0,0,0-.23,2.68A8,8,0,0,0,57.84,287.7Z" transform="translate(-24.72 -143.8)"/><path class="cls-5" d="M54.64,287.7a7.85,7.85,0,0,0,.24-2.69,7.76,7.76,0,0,0-.24-2.68,8.23,8.23,0,0,0-.23,2.68A8.32,8.32,0,0,0,54.64,287.7Z" transform="translate(-24.72 -143.8)"/><path class="cls-5" d="M51.45,287.7a8,8,0,0,0,.23-2.69,7.92,7.92,0,0,0-.23-2.68,7.76,7.76,0,0,0-.24,2.68A7.85,7.85,0,0,0,51.45,287.7Z" transform="translate(-24.72 -143.8)"/><path class="cls-5" d="M48.25,287.7a8,8,0,0,0,.23-2.69,7.92,7.92,0,0,0-.23-2.68A7.76,7.76,0,0,0,48,285,7.85,7.85,0,0,0,48.25,287.7Z" transform="translate(-24.72 -143.8)"/><path class="cls-5" d="M45.05,287.7a8,8,0,0,0,.23-2.69,7.92,7.92,0,0,0-.23-2.68,7.92,7.92,0,0,0-.23,2.68A8,8,0,0,0,45.05,287.7Z" transform="translate(-24.72 -143.8)"/><path class="cls-2" d="M88.1,291.93a48.22,48.22,0,0,0,.23-6.69,48.13,48.13,0,0,0-.23-6.68,48.13,48.13,0,0,0-.23,6.68A48.22,48.22,0,0,0,88.1,291.93Z" transform="translate(-24.72 -143.8)"/><polygon class="cls-13" points="12.67 115.02 12.67 111.73 81.47 111.88 85.44 111.88 85.44 115.07 81.47 115.07 81.47 134.76 7.17 134.76 7.17 115.02 12.67 115.02"/><polygon class="cls-12" points="29.54 134.76 29.54 111.73 12.67 111.73 12.67 115.02 7.17 115.02 7.17 134.76 29.54 134.76"/><path class="cls-5" d="M37.4,255.53c0,.13,16.15.24,36.07.24s36.07-.11,36.07-.24-16.15-.23-36.07-.23S37.4,255.41,37.4,255.53Z" transform="translate(-24.72 -143.8)"/><path class="cls-5" d="M32.44,265.88c0,.13,16.45.23,36.74.23s36.73-.1,36.73-.23-16.44-.24-36.73-.24S32.44,265.75,32.44,265.88Z" transform="translate(-24.72 -143.8)"/><path class="cls-5" d="M31.89,272.93c0,.13,16.57.23,37,.23s37-.1,37-.23-16.56-.23-37-.23S31.89,272.8,31.89,272.93Z" transform="translate(-24.72 -143.8)"/><path class="cls-5" d="M109.54,258.82c0-.13-16.15-.23-36.07-.23s-36.07.1-36.07.23,16.14.24,36.07.24S109.54,259,109.54,258.82Z" transform="translate(-24.72 -143.8)"/><rect class="cls-12" x="85.06" y="293.32" width="25.63" height="10.1" transform="translate(171.02 452.93) rotate(180)"/><rect class="cls-9" x="31.26" y="291.59" width="80.49" height="2.11" transform="translate(118.3 441.48) rotate(180)"/><rect class="cls-9" x="31.26" y="302.97" width="80.12" height="2.12" transform="translate(117.92 464.25) rotate(180)"/><polygon class="cls-9" points="60.34 148.29 60.21 160.88 6.54 160.88 6.54 148.29 60.34 148.29"/><path class="cls-2" d="M72,298.37a2.91,2.91,0,1,0,2.9-3.13A3,3,0,0,0,72,298.37Z" transform="translate(-24.72 -143.8)"/><path class="cls-5" d="M71.56,298.37A3.36,3.36,0,1,1,74.92,302,3.48,3.48,0,0,1,71.56,298.37Zm.9,0a2.46,2.46,0,1,0,2.46-2.68A2.58,2.58,0,0,0,72.46,298.37Z" transform="translate(-24.72 -143.8)"/><path class="cls-2" d="M87,300.94c0,.13,5.27.24,11.76.24s11.77-.11,11.77-.24-5.27-.23-11.77-.23S87,300.81,87,300.94Z" transform="translate(-24.72 -143.8)"/><path class="cls-2" d="M87,299.18c0,.13,5.27.24,11.76.24s11.77-.11,11.77-.24-5.27-.23-11.77-.23S87,299.05,87,299.18Z" transform="translate(-24.72 -143.8)"/><path class="cls-2" d="M87,297.42c0,.13,5.27.24,11.76.24s11.77-.11,11.77-.24-5.27-.23-11.77-.23S87,297.29,87,297.42Z" transform="translate(-24.72 -143.8)"/><path class="cls-2" d="M87,295.66c0,.13,5.27.24,11.76.24s11.77-.11,11.77-.24-5.27-.23-11.77-.23S87,295.53,87,295.66Z" transform="translate(-24.72 -143.8)"/><rect class="cls-1" x="37.22" y="294.77" width="24.19" height="6.74" transform="translate(73.9 452.47) rotate(180)"/><path class="cls-5" d="M57.64,300.82a15.79,15.79,0,0,0,0-5.37,15.14,15.14,0,0,0,0,5.37Z" transform="translate(-24.72 -143.8)"/><path class="cls-5" d="M54.44,300.82a15.79,15.79,0,0,0,0-5.37,15.14,15.14,0,0,0,0,5.37Z" transform="translate(-24.72 -143.8)"/><path class="cls-5" d="M51.24,300.82a15.79,15.79,0,0,0,0-5.37,15.79,15.79,0,0,0,0,5.37Z" transform="translate(-24.72 -143.8)"/><path class="cls-5" d="M48,300.82a15.14,15.14,0,0,0,0-5.37,15.79,15.79,0,0,0,0,5.37Z" transform="translate(-24.72 -143.8)"/><path class="cls-5" d="M44.84,300.82a15.14,15.14,0,0,0,0-5.37,15.79,15.79,0,0,0,0,5.37Z" transform="translate(-24.72 -143.8)"/><path class="cls-5" d="M41.65,300.82a15.79,15.79,0,0,0,0-5.37,15.14,15.14,0,0,0,0,5.37Z" transform="translate(-24.72 -143.8)"/><path class="cls-2" d="M84.69,305.05a47.13,47.13,0,0,0,.24-6.68,47.34,47.34,0,0,0-.24-6.69,50.29,50.29,0,0,0-.23,6.69A50.07,50.07,0,0,0,84.69,305.05Z" transform="translate(-24.72 -143.8)"/></g></svg>