<svg width="213" height="255" viewBox="0 0 213 255" fill="none" xmlns="http://www.w3.org/2000/svg">
<path d="M152.572 48.6491C175.344 58.9938 185.761 94.2324 183.758 127.536C181.821 160.772 167.464 192.073 144.693 217.1C121.855 242.128 90.5357 260.882 68.499 251.605C46.4623 242.328 33.7077 205.02 27.4306 179.993C21.2203 154.966 21.4206 142.218 14.9431 122.997C8.53246 103.843 -4.62278 78.2148 1.65434 67.8702C7.93146 57.5255 33.5742 62.4643 64.0249 57.659C94.4756 52.8537 129.734 38.3045 152.572 48.6491Z" fill="#50DBF5"/>
<path d="M103.022 104.031C104.094 103.689 105.14 103.272 106.153 102.783C107.856 101.777 109.484 100.641 111.162 99.5485C115.74 96.5265 118.84 97.744 119.979 103.02C120.349 104.743 120.693 106.473 121.063 108.202C121.82 111.768 123.242 112.985 126.836 113.035C129.967 113.079 133.098 112.998 136.229 113.035C147.607 113.235 146.398 112.91 148.54 102.808C149.573 97.9251 152.773 96.564 156.956 99.2862C158.703 100.429 160.463 101.546 162.191 102.708C164.545 104.294 166.699 104.007 168.672 102.052C170.97 99.7857 173.237 97.4818 175.56 95.2216C183.657 87.2858 183.231 88.241 177.157 79.1127C174.389 74.9543 175.779 71.7201 180.757 70.7023C182.799 70.284 184.834 69.8469 186.882 69.4536C189.537 68.9353 190.845 67.2495 190.877 64.6396C190.931 59.2284 190.931 53.8171 190.877 48.4059C190.877 45.7897 189.555 44.0977 186.913 43.5607C184.763 43.1445 182.621 42.6991 180.488 42.2246C175.81 41.238 174.47 37.9288 177.125 33.9203C178.04 32.528 178.973 31.1544 179.887 29.762C182.436 25.8784 182.323 24.5734 179.117 21.3517C177.132 19.3599 175.122 17.3869 173.137 15.3951C165.422 7.65912 166.324 7.41561 156.987 13.7156C152.879 16.4815 149.523 15.0517 148.571 10.2191C148.17 8.17735 147.776 6.13565 147.319 4.11891C146.693 1.45283 145.071 0.010523 142.222 0.0417418C138.778 0.0854481 135.333 0.0417418 131.889 0.0417418C122.628 0.0417418 121.964 -1.16331 120.192 9.37615C120.136 9.68209 120.004 10.0005 119.942 10.2752C118.915 15.1017 115.64 16.4129 111.476 13.6594C109.822 12.5667 108.169 11.4803 106.522 10.3814C104.087 8.75178 101.832 8.95158 99.7596 11.0058C97.474 13.291 95.2009 15.5825 92.8715 17.8739C85.2632 25.3664 85.1067 24.6609 91.2809 33.758C94.0988 37.9164 92.7525 41.2505 87.9058 42.262C85.9708 42.6679 84.0234 43.0362 82.0822 43.4109C79.089 43.9915 77.5673 45.6898 77.6488 48.8367C77.7427 52.1646 77.6801 55.4925 77.6488 58.8267C77.6049 68.9603 76.841 68.6544 87.5614 70.6586C92.6961 71.6202 94.1364 74.9231 91.2809 79.2313C90.1851 80.8796 89.083 82.5155 87.9872 84.1639C86.3904 86.5864 86.5469 88.8342 88.6134 90.9134C92.3079 94.5847 95.9523 98.3122 99.7032 101.921C100.668 102.814 101.932 103.351 103.022 104.031ZM91.8633 172.831C94.9942 169.791 99.0708 169.291 103.485 169.322C119.654 169.422 135.834 169.46 152.003 169.241C154.257 169.241 157.144 168.23 158.634 166.65C175.948 148.331 193.075 129.812 210.201 111.324C211.276 110.248 212.079 108.931 212.542 107.484C213.004 106.036 213.114 104.5 212.862 103.001C212.236 99.2051 210.051 96.5202 206.331 95.3652C202.38 94.1164 198.948 95.2028 196.036 98.1062C183.513 110.619 170.974 123.129 158.421 135.637C157.819 136.213 157.304 136.874 156.893 137.598C153.875 143.386 149.035 145.852 142.591 145.802C131.639 145.715 120.674 145.802 109.722 145.802C108.889 145.802 107.919 145.996 107.261 145.64C106.479 145.209 105.383 144.204 105.47 143.598C105.602 142.73 106.547 141.787 107.393 141.282C108.019 140.907 109.015 141.163 109.854 141.163C121.019 141.163 132.184 141.201 143.349 141.163C149.191 141.126 153.512 136.974 153.574 131.56C153.637 126.147 149.335 121.857 143.555 121.845C121.747 121.803 99.937 121.82 78.1247 121.895C76.4715 121.895 74.3988 122.382 73.2278 123.425C67.7361 128.338 62.4887 133.527 57.3351 138.41L91.8633 172.831ZM92.8026 182.603C92.095 181.354 91.6942 180.143 90.8739 179.319C77.1979 165.582 63.4843 151.898 49.7331 138.266C47.5477 136.099 45.3498 136.118 43.1143 138.266C38.9147 142.291 34.7839 146.406 30.722 150.61C28.4364 152.964 28.4176 155.099 30.722 157.441C44.3312 171.081 57.9759 184.686 71.6561 198.256C74.0294 200.61 76.1334 200.585 78.5066 198.287C82.6812 194.229 86.8037 190.104 90.8739 185.912C91.7067 185.075 92.1012 183.845 92.8026 182.603Z" fill="white"/>
<path d="M103.022 104.032C101.933 103.351 100.668 102.814 99.7409 101.921C95.9838 98.3123 92.3456 94.5848 88.6511 90.9135C86.5533 88.8343 86.3968 86.5866 88.0249 84.164C89.1207 82.5156 90.2228 80.8798 91.3187 79.2314C94.1741 74.9232 92.7338 71.6203 87.5991 70.6587C76.8787 68.6545 77.6426 68.9604 77.6865 58.8268C77.6865 55.4989 77.7616 52.171 77.6865 48.8368C77.6051 45.7149 79.1267 43.9917 82.1199 43.411C84.0611 43.0364 86.0086 42.668 87.9435 42.2621C92.7902 41.2382 94.1365 37.8915 91.3187 33.7582C85.1444 24.661 85.301 25.3728 92.9092 17.874C95.2136 15.6076 97.4866 13.3161 99.7973 11.0059C101.87 8.93298 104.124 8.73318 106.56 10.3815C108.207 11.4804 109.86 12.5668 111.513 13.6595C115.677 16.413 118.952 15.1018 119.979 10.2754C120.042 9.97568 120.174 9.68222 120.23 9.37628C121.927 -1.17567 122.591 0.0730848 131.852 0.0730848C135.296 0.0730848 138.74 0.0730848 142.184 0.0730848C145.033 0.0418661 146.661 1.48417 147.281 4.15026C147.751 6.16699 148.146 8.20869 148.534 10.2504C149.486 15.0831 152.842 16.4942 156.95 13.7469C166.286 7.44696 165.385 7.69047 173.099 15.4265C175.084 17.4182 177.094 19.3913 179.079 21.383C182.285 24.6048 182.398 25.9098 179.85 29.7934C178.935 31.1857 178.002 32.5594 177.088 33.9517C174.433 37.9602 175.773 41.2694 180.451 42.2559C182.584 42.7055 184.725 43.1508 186.875 43.5921C189.518 44.129 190.814 45.8211 190.839 48.4372C190.885 53.8485 190.885 59.2597 190.839 64.671C190.808 67.2809 189.499 68.9667 186.844 69.4849C184.796 69.8845 182.761 70.3216 180.72 70.7337C175.742 71.7514 174.352 74.9857 177.119 79.144C183.193 88.2724 183.619 87.3171 175.523 95.2529C173.218 97.5131 170.951 99.8171 168.634 102.084C166.662 104.038 164.508 104.325 162.153 102.739C160.425 101.578 158.666 100.46 156.918 99.3176C152.735 96.5766 149.536 97.9565 148.502 102.839C146.361 112.941 147.569 113.266 136.192 113.066C133.061 113.01 129.93 113.066 126.799 113.066C123.204 113.016 121.789 111.818 121.025 108.234C120.656 106.504 120.311 104.775 119.942 103.051C118.802 97.7754 115.703 96.5578 111.125 99.5798C109.478 100.672 107.85 101.809 106.116 102.814C105.114 103.291 104.08 103.698 103.022 104.032ZM134.413 32.422C131.225 32.3832 128.061 32.9748 125.104 34.1625C122.147 35.3502 119.455 37.1105 117.184 39.3416C114.913 41.5728 113.109 44.2306 111.874 47.1614C110.64 50.0922 110 53.2379 109.992 56.4167C109.854 69.4974 120.787 80.5614 133.918 80.6238C140.329 80.6875 146.502 78.2095 151.081 73.7348C155.659 69.2601 158.267 63.1552 158.33 56.7633C158.394 50.3713 155.909 44.2158 151.421 39.651C146.934 35.0861 140.811 32.4857 134.401 32.422H134.413Z" fill="#1A2E35"/>
<path d="M91.8633 172.832L57.3101 138.385C62.4636 133.471 67.7111 128.282 73.2028 123.4C74.3738 122.357 76.4465 121.876 78.0996 121.87C99.9078 121.77 121.718 121.753 143.53 121.82C149.335 121.82 153.631 126.097 153.549 131.535C153.468 136.974 149.166 141.101 143.324 141.138C132.159 141.201 120.994 141.138 109.829 141.138C108.99 141.138 107.981 140.882 107.368 141.257C106.522 141.763 105.577 142.705 105.445 143.573C105.358 144.198 106.454 145.184 107.236 145.615C107.894 145.971 108.864 145.777 109.697 145.777C120.656 145.777 131.614 145.721 142.566 145.777C149.009 145.827 153.837 143.361 156.868 137.573C157.279 136.849 157.794 136.188 158.396 135.612C170.92 123.092 183.458 110.581 196.011 98.0813C198.923 95.1779 202.355 94.1102 206.306 95.3402C210.026 96.4953 212.198 99.1802 212.837 102.976C213.089 104.475 212.979 106.011 212.516 107.459C212.054 108.906 211.251 110.223 210.176 111.299C193.037 129.793 175.923 148.306 158.609 166.625C157.119 168.205 154.226 169.191 151.978 169.216C135.809 169.435 119.629 169.397 103.46 169.298C99.0707 169.279 94.9692 169.791 91.8633 172.832Z" fill="black"/>
<path d="M92.8025 182.603C92.1012 183.852 91.7067 185.1 90.9239 185.912C86.8662 190.104 82.7438 194.229 78.5567 198.287C76.1834 200.585 74.0794 200.61 71.7061 198.256C58.0259 184.686 44.3812 171.081 30.772 157.441C28.4426 155.099 28.4614 152.964 30.772 150.61C34.8381 146.427 38.9689 142.308 43.1643 138.254C45.3811 136.118 47.5978 136.099 49.7832 138.254C63.5594 151.898 77.273 165.582 90.9239 179.306C91.6942 180.143 92.0949 181.373 92.8025 182.603Z" fill="black"/>
<path d="M134.413 32.4221C137.587 32.4536 140.724 33.1083 143.644 34.3486C146.565 35.589 149.212 37.3907 151.434 39.651C153.656 41.9113 155.41 44.5859 156.595 47.522C157.781 50.4582 158.374 53.5984 158.343 56.7633C158.311 59.9283 157.655 63.0561 156.411 65.968C155.167 68.88 153.36 71.5192 151.093 73.7348C148.826 75.9505 146.144 77.6993 143.199 78.8813C140.254 80.0633 137.105 80.6554 133.931 80.6239C120.781 80.5614 109.866 69.4975 110.004 56.4168C110.012 53.239 110.651 50.0944 111.885 47.1644C113.119 44.2344 114.923 41.5772 117.192 39.3462C119.462 37.1152 122.152 35.3546 125.108 34.1662C128.064 32.9777 131.226 32.3849 134.413 32.4221ZM153.662 56.6728C153.702 51.5142 151.689 46.5502 148.064 42.8692C144.439 39.1882 139.499 37.0906 134.325 37.0362C123.718 36.9051 114.782 45.7774 114.769 56.4792C114.832 61.5643 116.895 66.4215 120.514 70.0044C124.134 73.5874 129.02 75.6093 134.12 75.6347C139.22 75.66 144.127 73.6868 147.782 70.1401C151.437 66.5934 153.549 61.757 153.662 56.6728Z" fill="white"/>
<path d="M153.662 56.6727C153.549 61.7569 151.437 66.5933 147.782 70.14C144.127 73.6867 139.22 75.66 134.12 75.6346C129.02 75.6092 124.134 73.5873 120.514 70.0043C116.895 66.4214 114.832 61.5642 114.769 56.4791C114.769 45.7898 123.718 36.905 134.325 37.0361C139.499 37.0905 144.439 39.1881 148.064 42.8691C151.689 46.5501 153.702 51.5141 153.662 56.6727Z" fill="black"/>
</svg>
