<svg xmlns="http://www.w3.org/2000/svg" viewBox="0 0 455.28 442.48"><defs><style>.cls-1{fill:#f5f5f5;}.cls-2{fill:#e0e0e0;}.cls-3{fill:#263238;}.cls-4{fill:#455a64;}.cls-5{opacity:0.3;}.cls-6{fill:#ff725e;}.cls-7{opacity:0.4;}.cls-8{fill:#fff;}.cls-9{fill:#ffbf9d;}.cls-10{fill:#ff9a6c;}.cls-11{fill:#fafafa;}</style></defs><g id="Background_Complete" data-name="Background Complete"><path class="cls-1" d="M314.87,250.66l-115.13-1.08-34.89-.16-9.49,0-2.46,0a5.34,5.34,0,0,0-.84.05,5.34,5.34,0,0,0,.84,0l2.46.06,9.49.12,34.89.18,115.13.07c44.94,0,85.63.05,115.09.27,14.73.1,26.65.23,34.89.39,4.12.08,7.31.16,9.48.24a17.85,17.85,0,0,1,3.31.24,17.77,17.77,0,0,1-3.31.21c-2.17.06-5.37.11-9.49.15-8.24.07-20.16.09-34.89,0C400.49,251.46,359.8,251.11,314.87,250.66Z" transform="translate(-22.36 -28.76)"/><path class="cls-1" d="M314,260.52,200.42,242.06,166,236.63l-9.38-1.41-2.44-.34a6.54,6.54,0,0,0-.84-.08,4.78,4.78,0,0,0,.82.18l2.43.44,9.35,1.55,34.44,5.45,113.72,17.45c44.39,6.78,84.58,13,113.65,17.63,14.53,2.33,26.29,4.26,34.4,5.66,4.06.7,7.2,1.27,9.33,1.68a16.84,16.84,0,0,1,3.23.74,17.29,17.29,0,0,1-3.3-.29c-2.16-.27-5.32-.7-9.4-1.29-8.15-1.17-19.93-2.95-34.47-5.22C398.43,274.25,358.29,267.76,314,260.52Z" transform="translate(-22.36 -28.76)"/><path class="cls-1" d="M311.5,270.12,202.35,234.51l-33.13-10.64-9-2.82-2.36-.71a8.06,8.06,0,0,0-.81-.21,4.7,4.7,0,0,0,.78.31l2.33.8,9,3,33.12,10.66,109.48,34.63c42.74,13.49,81.43,25.76,109.38,34.81,14,4.52,25.27,8.23,33.05,10.85,3.89,1.31,6.91,2.35,8.94,3.08a17.64,17.64,0,0,1,3.07,1.23,16.8,16.8,0,0,1-3.22-.78c-2.08-.6-5.14-1.51-9.07-2.71-7.86-2.4-19.2-6-33.2-10.43C392.67,296.61,354.09,284.06,311.5,270.12Z" transform="translate(-22.36 -28.76)"/><path class="cls-1" d="M307.5,279.22l-102-51.86-31-15.57L166,207.62l-2.21-1.06a4.84,4.84,0,0,0-.77-.33,4.82,4.82,0,0,0,.72.42l2.17,1.14,8.39,4.3,31,15.59,102.5,50.95c40,19.86,76.24,37.9,102.38,51.11,13.07,6.6,23.62,12,30.88,15.77,3.63,1.89,6.44,3.38,8.34,4.41a17.84,17.84,0,0,1,2.83,1.68,17.36,17.36,0,0,1-3.05-1.28c-2-.9-4.83-2.27-8.52-4.06-7.37-3.58-18-8.83-31.09-15.38C383.38,317.78,347.31,299.48,307.5,279.22Z" transform="translate(-22.36 -28.76)"/><path class="cls-1" d="M302.09,287.59l-92.43-66.72-28.11-20.08-7.69-5.41-2-1.38a6.08,6.08,0,0,0-.71-.45,5.13,5.13,0,0,0,.64.53l2,1.45,7.6,5.53,28.1,20.1,93.05,65.9c36.34,25.69,69.21,49,92.9,66,11.84,8.51,21.4,15.44,28,20.28,3.29,2.42,5.82,4.31,7.53,5.62a16,16,0,0,1,2.52,2.09,17.82,17.82,0,0,1-2.8-1.72c-1.79-1.19-4.41-3-7.76-5.31-6.71-4.65-16.36-11.46-28.24-19.91C370.83,337.21,338.14,313.66,302.09,287.59Z" transform="translate(-22.36 -28.76)"/><path class="cls-1" d="M295.4,295l-80.63-79.88-24.56-24.09-6.72-6.5-1.77-1.67a7.6,7.6,0,0,0-.63-.55,6.82,6.82,0,0,0,.55.62l1.71,1.73c1.53,1.54,3.76,3.75,6.62,6.61l24.54,24.1,81.37,79.17c31.78,30.87,60.52,58.87,81.2,79.26,10.34,10.2,18.67,18.48,24.38,24.25,2.86,2.89,5.06,5.15,6.53,6.69a16,16,0,0,1,2.16,2.45,18.07,18.07,0,0,1-2.49-2.12c-1.58-1.45-3.88-3.61-6.82-6.42-5.88-5.61-14.32-13.79-24.7-23.94C355.36,354.45,326.84,326.24,295.4,295Z" transform="translate(-22.36 -28.76)"/><path class="cls-1" d="M287.6,301.39l-66.87-91.1-20.4-27.51-5.6-7.44-1.48-1.91a6.56,6.56,0,0,0-.53-.64,3.6,3.6,0,0,0,.44.69l1.41,2,5.48,7.52,20.38,27.52L288.15,301c26.45,35.3,50.36,67.31,67.52,90.58,8.59,11.63,15.49,21.08,20.21,27.64,2.36,3.28,4.17,5.84,5.38,7.6a15.82,15.82,0,0,1,1.74,2.74,18,18,0,0,1-2.12-2.47c-1.33-1.67-3.25-4.16-5.71-7.37-4.91-6.43-11.94-15.79-20.57-27.39C337.32,369.14,313.67,337,287.6,301.39Z" transform="translate(-22.36 -28.76)"/><path class="cls-1" d="M278.88,306.48,227.49,206.34l-15.72-30.27c-1.88-3.54-3.34-6.3-4.34-8.2-.5-.91-.88-1.62-1.16-2.12a7.21,7.21,0,0,0-.42-.71,3.68,3.68,0,0,0,.33.76l1.07,2.16c1,1.91,2.39,4.69,4.2,8.26,3.73,7.18,9.09,17.51,15.71,30.28l52.32,99.68c20.45,38.89,38.92,74.13,52.13,99.72,6.6,12.79,11.9,23.17,15.51,30.37,1.8,3.6,3.18,6.41,4.09,8.33a16.66,16.66,0,0,1,1.28,3,15.8,15.8,0,0,1-1.7-2.77c-1.05-1.85-2.55-4.59-4.46-8.14-3.81-7.1-9.25-17.41-15.91-30.18C317.09,381,298.9,345.57,278.88,306.48Z" transform="translate(-22.36 -28.76)"/><path class="cls-1" d="M269.44,310.17c-13.49-41.68-25.69-79.4-34.53-106.75-4.49-13.61-8.11-24.64-10.63-32.29-1.28-3.79-2.28-6.73-3-8.76-.35-1-.61-1.73-.8-2.27a6.5,6.5,0,0,0-.3-.77,4.2,4.2,0,0,0,.2.8c.17.54.4,1.31.71,2.3.65,2,1.59,5,2.81,8.8,2.51,7.66,6.13,18.68,10.61,32.31,9.1,27.26,21.66,64.87,35.53,106.43s26.44,79.16,35.34,106.45c4.45,13.65,8,24.71,10.4,32.37,1.2,3.83,2.1,6.81,2.69,8.84a16.09,16.09,0,0,1,.78,3.13,15.86,15.86,0,0,1-1.23-3c-.73-2-1.77-4.93-3.08-8.72-2.62-7.59-6.32-18.61-10.83-32.23C295.12,389.56,282.88,351.84,269.44,310.17Z" transform="translate(-22.36 -28.76)"/><path class="cls-1" d="M259.52,312.38C253,269.15,247,230,242.69,201.68c-2.22-14.14-4-25.58-5.26-33.52l-1.51-9.11c-.18-1-.31-1.8-.41-2.36a6,6,0,0,0-.18-.8,5,5,0,0,0,.07.82q.12.84.33,2.37c.31,2.12.77,5.19,1.35,9.13,1.25,7.94,3,19.39,5.25,33.52,4.57,28.32,10.88,67.38,17.86,110.55s13.29,82.21,17.66,110.52c2.19,14.16,3.9,25.63,5,33.56.56,4,1,7.05,1.23,9.14a16.47,16.47,0,0,1,.26,3.22,16.61,16.61,0,0,1-.73-3.15c-.4-2.07-.95-5.13-1.63-9.08-1.36-7.9-3.23-19.34-5.48-33.49C272,394.71,266.05,355.59,259.52,312.38Z" transform="translate(-22.36 -28.76)"/><path class="cls-1" d="M249.36,313.05c.41-43.7.77-83.24,1-111.9.06-14.3.11-25.87.15-33.91,0-4,0-7.08,0-9.22,0-1,0-1.82,0-2.39a6.47,6.47,0,0,0,0-.82,4.16,4.16,0,0,0-.06.81c0,.58,0,1.37-.06,2.4,0,2.14-.06,5.24-.11,9.22,0,8-.1,19.61-.17,33.91v111.9c0,43.67,0,83.22-.2,111.85-.1,14.32-.23,25.9-.38,33.91-.08,4-.16,7.11-.24,9.22a17.11,17.11,0,0,1-.25,3.21,16.12,16.12,0,0,1-.22-3.21c-.06-2.11-.12-5.22-.16-9.22-.08-8-.1-19.6-.07-33.91C248.59,396.27,248.92,356.72,249.36,313.05Z" transform="translate(-22.36 -28.76)"/><path class="cls-1" d="M239.22,312.18c7.39-43.1,14.07-82.1,18.92-110.37,2.35-14.12,4.24-25.55,5.56-33.48.63-3.94,1.11-7,1.45-9.11.15-1,.26-1.81.34-2.38a5.42,5.42,0,0,0,.09-.81,4.92,4.92,0,0,0-.19.8c-.1.56-.25,1.34-.44,2.36-.37,2.11-.9,5.16-1.59,9.09-1.33,7.93-3.23,19.35-5.59,33.47-4.58,28.31-10.9,67.37-17.88,110.54s-13.3,82.21-18.07,110.46c-2.39,14.13-4.37,25.55-5.81,33.44-.71,3.94-1.29,7-1.71,9.07a16.74,16.74,0,0,1-.76,3.14,15.38,15.38,0,0,1,.29-3.21c.27-2.1.72-5.18,1.32-9.14,1.2-7.92,3-19.37,5.35-33.5C225.14,394.27,231.8,355.26,239.22,312.18Z" transform="translate(-22.36 -28.76)"/><path class="cls-1" d="M229.34,309.78l36.57-106.1c4.61-13.58,8.33-24.57,10.92-32.21l2.9-8.77c.31-1,.56-1.75.73-2.3a3.75,3.75,0,0,0,.21-.79,4.86,4.86,0,0,0-.31.76c-.2.54-.47,1.29-.82,2.26-.71,2-1.73,5-3,8.74-2.6,7.63-6.33,18.62-10.95,32.2C256.44,230.83,243.87,268.43,230,310s-26.45,79.15-35.75,106.32c-4.64,13.59-8.45,24.57-11.15,32.13-1.34,3.79-2.41,6.72-3.16,8.7a16,16,0,0,1-1.27,3,18,18,0,0,1,.81-3.13c.61-2,1.55-5,2.78-8.82,2.47-7.64,6.13-18.66,10.71-32.27C202.13,388.69,215,351.18,229.34,309.78Z" transform="translate(-22.36 -28.76)"/><path class="cls-1" d="M220,305.91l53.29-99.19c6.74-12.71,12.2-23,16-30.14l4.28-8.22,1.09-2.16a4,4,0,0,0,.34-.75,6.63,6.63,0,0,0-.43.71l-1.17,2.11c-1,1.89-2.51,4.63-4.42,8.16l-16,30.12c-13.41,25.53-31.92,60.74-52.36,99.66s-38.94,74.11-52.52,99.52c-6.78,12.71-12.33,23-16.21,30-1.94,3.53-3.47,6.26-4.53,8.1a16.67,16.67,0,0,1-1.73,2.76,16.51,16.51,0,0,1,1.31-3c.93-1.91,2.34-4.7,4.18-8.29,3.67-7.16,9.07-17.49,15.8-30.23C180.34,379.68,199.15,344.6,220,305.91Z" transform="translate(-22.36 -28.76)"/><path class="cls-1" d="M211.36,300.65,280,210.77l20.65-27.33,5.55-7.47,1.43-2a4.72,4.72,0,0,0,.45-.69,6.1,6.1,0,0,0-.54.63l-1.5,1.9c-1.31,1.72-3.22,4.2-5.67,7.39l-20.67,27.32L211.9,301c-26.41,35.33-50.38,67.29-67.87,90.32-8.75,11.52-15.87,20.81-20.84,27.2-2.49,3.19-4.44,5.66-5.78,7.31a17.6,17.6,0,0,1-2.15,2.46A15.7,15.7,0,0,1,117,425.6c1.22-1.74,3.06-4.28,5.45-7.54,4.78-6.52,11.78-15.91,20.48-27.46C160.34,367.49,184.56,335.7,211.36,300.65Z" transform="translate(-22.36 -28.76)"/><path class="cls-1" d="M203.69,294.15l82.14-78.41,24.77-23.88c2.88-2.83,5.13-5,6.68-6.54.74-.74,1.31-1.32,1.72-1.72a7.3,7.3,0,0,0,.56-.61,5.09,5.09,0,0,0-.63.53l-1.79,1.66-6.78,6.44-24.79,23.86-81.4,79.14c-31.75,30.91-60.54,58.85-81.51,79-10.49,10.06-19,18.16-24.94,23.72-3,2.78-5.29,4.92-6.88,6.35a16.62,16.62,0,0,1-2.52,2.1,17.45,17.45,0,0,1,2.19-2.42c1.49-1.54,3.71-3.77,6.59-6.63,5.77-5.72,14.18-13.93,24.62-24C142.6,352.47,171.61,324.73,203.69,294.15Z" transform="translate(-22.36 -28.76)"/><path class="cls-1" d="M197.15,286.57c36.59-25.39,69.69-48.38,93.69-65l28.29-19.84,7.65-5.45,2-1.44a5.31,5.31,0,0,0,.66-.52,4.54,4.54,0,0,0-.72.43l-2,1.37-7.74,5.33-28.31,19.83-93.07,65.87c-36.31,25.73-69.22,49-93.16,65.68-12,8.35-21.67,15.07-28.43,19.66-3.37,2.29-6,4.06-7.81,5.23a17.44,17.44,0,0,1-2.82,1.7,16.3,16.3,0,0,1,2.55-2.07c1.71-1.29,4.27-3.16,7.57-5.55,6.62-4.78,16.24-11.62,28.17-20C127.47,334.94,160.57,311.93,197.15,286.57Z" transform="translate(-22.36 -28.76)"/><path class="cls-1" d="M191.91,278.1l103-50,31.14-15.31,8.43-4.22,2.18-1.12a8.06,8.06,0,0,0,.73-.41,4.32,4.32,0,0,0-.78.32l-2.22,1-8.5,4.09-31.15,15.28L192.22,278.69c-40,19.9-76.25,37.87-102.58,50.72C76.48,335.84,65.81,341,58.4,344.5c-3.7,1.76-6.59,3.1-8.56,4a17.85,17.85,0,0,1-3.06,1.24,18,18,0,0,1,2.85-1.65c1.9-1,4.73-2.48,8.38-4.34,7.3-3.71,17.9-9,31-15.49C115.31,315.28,151.69,297.58,191.91,278.1Z" transform="translate(-22.36 -28.76)"/><path class="cls-1" d="M188.1,268.93,297.92,235.3,331.14,225l9-2.88,2.34-.78a6.83,6.83,0,0,0,.78-.29,4.79,4.79,0,0,0-.82.2l-2.36.68L331,224.62,297.8,235,188.31,269.56C145.59,283.1,106.88,295.3,78.8,304c-14,4.33-25.41,7.79-33.29,10.12-3.95,1.17-7,2.05-9.1,2.63a17.68,17.68,0,0,1-3.22.76,16.53,16.53,0,0,1,3.07-1.2c2.05-.71,5.07-1.72,9-3,7.81-2.55,19.14-6.16,33.16-10.55C106.43,293.94,145.23,282,188.1,268.93Z" transform="translate(-22.36 -28.76)"/><path class="cls-1" d="M185.83,259.29l113.89-16.42,34.48-5.14,9.37-1.47,2.43-.41a3.88,3.88,0,0,0,.82-.17,5.34,5.34,0,0,0-.84.07l-2.44.32-9.39,1.32-34.49,5.12L185.93,259.94c-44.38,6.84-84.58,13-113.71,17.23-14.57,2.14-26.36,3.82-34.53,4.91-4.08.55-7.25,1-9.4,1.2a17.43,17.43,0,0,1-3.31.26,17.75,17.75,0,0,1,3.23-.71c2.14-.39,5.29-.93,9.35-1.59,8.13-1.32,19.9-3.15,34.46-5.35C101.13,271.5,141.37,265.66,185.83,259.29Z" transform="translate(-22.36 -28.76)"/><path class="cls-1" d="M185.13,249.42l115.13.94,34.89.12,9.49,0,2.47,0a6.86,6.86,0,0,0,.84,0,4.6,4.6,0,0,0-.84-.06l-2.47-.05-9.49-.11L300.26,250l-115.13.07c-44.94.06-85.63,0-115.09-.13-14.73-.08-26.65-.2-34.89-.35-4.12-.07-7.31-.15-9.48-.23a18.6,18.6,0,0,1-3.31-.23,17.08,17.08,0,0,1,3.31-.22c2.17-.06,5.37-.12,9.49-.16,8.24-.08,20.16-.11,34.89-.08C99.51,248.72,140.2,249,185.13,249.42Z" transform="translate(-22.36 -28.76)"/><path class="cls-1" d="M186,239.56,299.6,257.88,334,263.27l9.38,1.39,2.44.34a4.8,4.8,0,0,0,.84.08,4.78,4.78,0,0,0-.82-.18l-2.43-.43-9.35-1.54-34.45-5.41L185.91,240.21c-44.4-6.72-84.6-12.87-113.68-17.49-14.53-2.31-26.29-4.23-34.4-5.62-4.06-.69-7.21-1.25-9.34-1.66a17.28,17.28,0,0,1-3.22-.74,17.66,17.66,0,0,1,3.3.28c2.15.27,5.32.7,9.4,1.28,8.15,1.16,19.93,2.93,34.48,5.18C101.54,225.93,141.69,232.38,186,239.56Z" transform="translate(-22.36 -28.76)"/><path class="cls-1" d="M188.48,230l109.19,35.48L330.81,276l9,2.81,2.36.7a4.26,4.26,0,0,0,.81.21,4.3,4.3,0,0,0-.78-.3l-2.33-.8-9-2.95-33.14-10.62L188.26,230.59c-42.76-13.44-81.46-25.66-109.42-34.67-14-4.51-25.28-8.2-33.06-10.82-3.9-1.31-6.92-2.34-9-3.07a16.68,16.68,0,0,1-3.07-1.23,18.63,18.63,0,0,1,3.22.79c2.08.59,5.14,1.5,9.07,2.69,7.87,2.4,19.21,5.95,33.21,10.39C107.27,203.56,145.87,216.07,188.48,230Z" transform="translate(-22.36 -28.76)"/><path class="cls-1" d="M192.46,220.86l102.09,51.73,31,15.53,8.46,4.16,2.22,1.05a3.86,3.86,0,0,0,.77.33,6.84,6.84,0,0,0-.72-.41l-2.17-1.15-8.4-4.28-31-15.55L192.15,221.44c-40.05-19.81-76.29-37.8-102.44-51-13.08-6.58-23.64-12-30.91-15.73-3.63-1.89-6.44-3.37-8.34-4.4a17.23,17.23,0,0,1-2.83-1.68,17.68,17.68,0,0,1,3,1.27c2,.91,4.84,2.27,8.52,4.06,7.38,3.56,18,8.8,31.12,15.34C116.53,182.38,152.63,200.64,192.46,220.86Z" transform="translate(-22.36 -28.76)"/><path class="cls-1" d="M197.86,212.48l92.52,66.6,28.14,20.05,7.69,5.4,2,1.38a4,4,0,0,0,.71.44,5.58,5.58,0,0,0-.65-.52l-2-1.46-7.61-5.51L290.6,278.79,197.46,213c-36.37-25.65-69.27-48.93-93-65.92-11.86-8.49-21.42-15.4-28-20.23-3.29-2.42-5.83-4.31-7.53-5.61a17.35,17.35,0,0,1-2.53-2.09,17.13,17.13,0,0,1,2.81,1.72c1.79,1.18,4.41,3,7.76,5.29,6.72,4.65,16.37,11.44,28.27,19.88C129.06,162.94,161.78,186.45,197.86,212.48Z" transform="translate(-22.36 -28.76)"/><path class="cls-1" d="M204.55,205l80.73,79.78c10.36,10.14,18.76,18.35,24.58,24.06l6.74,6.49,1.77,1.67a6,6,0,0,0,.63.55,4.33,4.33,0,0,0-.56-.62l-1.7-1.73-6.63-6.6c-5.83-5.7-14.21-13.92-24.57-24.07l-81.48-79.07c-31.82-30.83-60.59-58.8-81.3-79.17-10.35-10.18-18.69-18.45-24.41-24.22-2.86-2.88-5.07-5.13-6.54-6.68A18.46,18.46,0,0,1,89.64,93a16.22,16.22,0,0,1,2.5,2.12c1.58,1.44,3.88,3.6,6.83,6.4,5.88,5.61,14.34,13.78,24.73,23.92C144.5,145.68,173.06,173.86,204.55,205Z" transform="translate(-22.36 -28.76)"/><path class="cls-1" d="M212.34,198.66l67,91,20.44,27.49,5.61,7.43,1.48,1.92a4,4,0,0,0,.54.63,6.18,6.18,0,0,0-.45-.69c-.34-.47-.81-1.12-1.41-2L300,317l-20.42-27.5-67.83-90.41c-26.51-35.27-50.45-67.25-67.65-90.5-8.59-11.62-15.51-21.06-20.24-27.62-2.36-3.28-4.18-5.83-5.39-7.59a15.82,15.82,0,0,1-1.74-2.74,18.58,18.58,0,0,1,2.12,2.48c1.33,1.66,3.26,4.14,5.72,7.36,4.92,6.42,12,15.77,20.61,27.36C162.52,131,186.22,163.12,212.34,198.66Z" transform="translate(-22.36 -28.76)"/><path class="cls-1" d="M221.05,193.56l51.52,100.07c6.64,12.76,12,23.09,15.76,30.26l4.35,8.19,1.16,2.12a5.15,5.15,0,0,0,.42.7,4.11,4.11,0,0,0-.33-.75L292.86,332l-4.22-8.26L272.9,293.47l-52.45-99.61c-20.51-38.86-39-74.08-52.26-99.66C161.57,81.42,156.26,71,152.64,63.85c-1.8-3.6-3.19-6.41-4.1-8.32a16.07,16.07,0,0,1-1.28-3,16.15,16.15,0,0,1,1.7,2.76c1,1.85,2.55,4.59,4.46,8.14,3.83,7.09,9.28,17.4,16,30.16C182.74,119.13,201,154.49,221.05,193.56Z" transform="translate(-22.36 -28.76)"/><path class="cls-1" d="M230.48,189.85l34.68,106.71,10.67,32.28c1.28,3.79,2.28,6.73,3,8.76.34,1,.61,1.73.8,2.27a5.09,5.09,0,0,0,.3.76,4.46,4.46,0,0,0-.2-.79c-.17-.55-.4-1.31-.71-2.3-.66-2-1.61-5-2.83-8.8-2.52-7.65-6.15-18.68-10.64-32.29L229.84,190.06c-14-41.52-26.54-79.13-35.48-106.41-4.47-13.64-8-24.7-10.44-32.35-1.2-3.83-2.11-6.82-2.7-8.84a16.52,16.52,0,0,1-.79-3.14,16.15,16.15,0,0,1,1.24,3c.73,2,1.78,4.93,3.09,8.72,2.63,7.59,6.35,18.6,10.88,32.22C204.7,110.49,217,148.2,230.48,189.85Z" transform="translate(-22.36 -28.76)"/><path class="cls-1" d="M240.4,187.64C247,230.86,253,270,257.37,298.31c2.24,14.14,4.05,25.58,5.31,33.52.66,3.93,1.16,7,1.51,9.1.19,1,.33,1.8.43,2.36a4.18,4.18,0,0,0,.18.8,6.08,6.08,0,0,0-.08-.81c-.08-.57-.19-1.36-.33-2.38-.31-2.12-.77-5.18-1.36-9.12-1.26-7.95-3.06-19.39-5.29-33.52-4.61-28.31-11-67.37-18-110.52s-13.39-82.2-17.8-110.51c-2.21-14.15-3.94-25.62-5.07-33.55-.57-4-1-7-1.25-9.14a15.46,15.46,0,0,1-.26-3.21,16.33,16.33,0,0,1,.73,3.14c.4,2.07,1,5.13,1.64,9.08,1.37,7.9,3.26,19.34,5.53,33.48C227.79,105.32,233.82,144.44,240.4,187.64Z" transform="translate(-22.36 -28.76)"/><path class="cls-1" d="M250.56,187c-.35,43.7-.67,83.24-.9,111.9,0,14.3-.07,25.87-.1,33.91,0,4,0,7.08,0,9.22,0,1,0,1.83,0,2.4a3.83,3.83,0,0,0,.05.81,7.09,7.09,0,0,0,.05-.81c0-.57,0-1.37,0-2.4,0-2.14.06-5.24.1-9.22,0-8,.08-19.61.13-33.91,0-28.66-.09-68.2-.14-111.9s-.11-83.22.05-111.85c.08-14.32.2-25.9.34-33.91.07-4,.15-7.11.23-9.22a16.08,16.08,0,0,1,.25-3.21A17.16,17.16,0,0,1,251,32c.06,2.11.12,5.22.17,9.22.09,8,.13,19.6.11,33.91C251.22,103.73,250.94,143.28,250.56,187Z" transform="translate(-22.36 -28.76)"/><path class="cls-1" d="M260.7,187.81c-7.33,43.11-14,82.12-18.77,110.4-2.33,14.11-4.22,25.54-5.52,33.48-.62,3.94-1.1,7-1.44,9.11-.14,1-.26,1.81-.34,2.38a4.47,4.47,0,0,0-.08.81,4.18,4.18,0,0,0,.18-.8c.11-.56.25-1.34.44-2.36.37-2.11.9-5.16,1.58-9.09,1.31-7.93,3.21-19.36,5.55-33.48,4.54-28.32,10.81-67.39,17.73-110.56S273.22,105.47,278,77.21c2.36-14.13,4.33-25.55,5.76-33.44.71-3.94,1.28-7,1.7-9.07a16.74,16.74,0,0,1,.76-3.14,16.36,16.36,0,0,1-.29,3.21c-.27,2.09-.71,5.17-1.31,9.13-1.19,7.93-3,19.38-5.31,33.52C274.67,105.7,268.07,144.72,260.7,187.81Z" transform="translate(-22.36 -28.76)"/><path class="cls-1" d="M270.59,190.19c-14.23,41.45-27.11,79-36.44,106.15l-10.88,32.22-2.88,8.78c-.32,1-.56,1.75-.73,2.29a5,5,0,0,0-.21.8,4.86,4.86,0,0,0,.31-.76c.2-.54.47-1.29.82-2.27l3-8.73c2.59-7.64,6.31-18.63,10.9-32.21,9.08-27.28,21.59-64.9,35.43-106.47s26.34-79.19,35.6-106.37C310.16,70,314,59,316.64,51.47c1.35-3.78,2.41-6.71,3.16-8.69a16.88,16.88,0,0,1,1.26-3,15.74,15.74,0,0,1-.81,3.13c-.6,2-1.53,5-2.76,8.82C315,59.39,311.38,70.42,306.82,84,297.69,111.25,284.84,148.77,270.59,190.19Z" transform="translate(-22.36 -28.76)"/><path class="cls-1" d="M280,194.06l-53.16,99.26-16,30.15-4.27,8.23-1.09,2.15a4.43,4.43,0,0,0-.34.75,4.47,4.47,0,0,0,.43-.7l1.17-2.11c1-1.89,2.51-4.64,4.41-8.17l16-30.14c13.38-25.54,31.84-60.78,52.23-99.72s38.84-74.17,52.39-99.6c6.76-12.71,12.29-23,16.17-30,1.93-3.54,3.46-6.27,4.52-8.11a16.13,16.13,0,0,1,1.72-2.75,17.28,17.28,0,0,1-1.31,3c-.92,1.91-2.33,4.7-4.16,8.29C345,71.68,339.63,82,332.91,94.75,319.49,120.24,300.73,155.34,280,194.06Z" transform="translate(-22.36 -28.76)"/><path class="cls-1" d="M288.58,199.31,220.1,289.26c-8.69,11.54-15.72,20.88-20.61,27.36l-5.55,7.48-1.42,2a6.18,6.18,0,0,0-.45.69,4.84,4.84,0,0,0,.54-.63l1.49-1.9,5.67-7.4,20.63-27.34L288,198.92c26.37-35.37,50.29-67.36,67.76-90.41,8.73-11.53,15.84-20.83,20.8-27.23,2.49-3.19,4.43-5.66,5.77-7.32a17.56,17.56,0,0,1,2.15-2.46,15.7,15.7,0,0,1-1.77,2.73c-1.22,1.75-3.05,4.29-5.44,7.56-4.78,6.52-11.76,15.91-20.44,27.48C339.5,132.4,315.33,164.22,288.58,199.31Z" transform="translate(-22.36 -28.76)"/><path class="cls-1" d="M296.26,205.79l-82,78.52-24.74,23.91-6.68,6.55-1.71,1.72a3.8,3.8,0,0,0-.56.61,6.13,6.13,0,0,0,.63-.54l1.78-1.66,6.78-6.44,24.76-23.9,81.3-79.23c31.7-31,60.46-58.93,81.4-79.07,10.47-10.07,19-18.18,24.91-23.74,3-2.79,5.28-4.93,6.87-6.37a17.6,17.6,0,0,1,2.51-2.1,16.35,16.35,0,0,1-2.18,2.43c-1.48,1.54-3.7,3.77-6.59,6.64-5.76,5.72-14.16,13.94-24.58,24C357.27,147.4,328.3,175.17,296.26,205.79Z" transform="translate(-22.36 -28.76)"/><path class="cls-1" d="M302.8,213.36l-93.6,65.16L180.93,298.4l-7.64,5.46-2,1.44a5.58,5.58,0,0,0-.65.52,4,4,0,0,0,.71-.44l2-1.36,7.73-5.35,28.28-19.86,93-66c36.28-25.78,69.16-49.08,93.07-65.8,11.95-8.37,21.66-15.09,28.41-19.69,3.37-2.3,6-4.07,7.8-5.25a16.79,16.79,0,0,1,2.82-1.69,18.06,18.06,0,0,1-2.54,2.07c-1.72,1.29-4.27,3.16-7.57,5.56-6.61,4.78-16.22,11.63-28.14,20.05C372.42,164.9,339.35,188,302.8,213.36Z" transform="translate(-22.36 -28.76)"/><path class="cls-1" d="M308.05,221.83,205.12,272,174,287.3l-8.42,4.23-2.18,1.13a4.35,4.35,0,0,0-.73.42,6.47,6.47,0,0,0,.77-.33l2.23-1,8.49-4.1,31.13-15.32,102.46-51.05c40-20,76.2-38,102.5-50.85,13.15-6.44,23.82-11.61,31.23-15.13,3.7-1.76,6.58-3.11,8.55-4a17.52,17.52,0,0,1,3.06-1.25,18.41,18.41,0,0,1-2.85,1.66c-1.9,1-4.72,2.48-8.37,4.34-7.29,3.72-17.89,9-31,15.53C384.61,184.55,348.24,202.3,308.05,221.83Z" transform="translate(-22.36 -28.76)"/><path class="cls-1" d="M311.87,231,202.11,264.76l-33.22,10.39-9,2.9-2.34.77a7.83,7.83,0,0,0-.78.3,4.79,4.79,0,0,0,.82-.2l2.36-.69,9.05-2.75,33.22-10.37,109.45-34.74c42.7-13.6,81.39-25.85,109.46-34.55,14-4.35,25.4-7.83,33.28-10.17,3.94-1.17,7-2.06,9.09-2.63a18.19,18.19,0,0,1,3.23-.77,17.71,17.71,0,0,1-3.08,1.21c-2,.71-5.07,1.73-9,3-7.81,2.56-19.13,6.18-33.14,10.59C393.51,205.89,354.73,217.85,311.87,231Z" transform="translate(-22.36 -28.76)"/><path class="cls-1" d="M314.16,240.63,200.29,257.19l-34.48,5.19-9.36,1.47-2.43.42a3.88,3.88,0,0,0-.82.17,5.34,5.34,0,0,0,.84-.07l2.44-.32,9.39-1.34,34.48-5.16L314.06,240c44.37-6.89,84.56-13.07,113.69-17.37,14.56-2.16,26.35-3.85,34.51-5,4.08-.55,7.26-1,9.41-1.21a17.4,17.4,0,0,1,3.31-.26,18.16,18.16,0,0,1-3.24.72c-2.13.39-5.28.93-9.34,1.6-8.13,1.33-19.9,3.17-34.45,5.39C398.85,228.32,358.61,234.2,314.16,240.63Z" transform="translate(-22.36 -28.76)"/><path class="cls-2" d="M406,130.86l.17-.12.53-.38a11,11,0,0,0,1.59-1.16,9,9,0,0,0,2.19-5.42l21.1,0v-7.26l-23.54,0a9.53,9.53,0,0,0-2.73-2.08,11.76,11.76,0,0,0-1.92-.44c-.22,0-.42-.11-.64-.15a7.94,7.94,0,0,0-1.7-.39,9.59,9.59,0,0,0-4.82,1.38,9,9,0,0,0-2.07,1.7l-101,.14-.15-.41c0-.09-.07-.17-.1-.25a14.17,14.17,0,0,0-.57-1.5,15.66,15.66,0,0,0-1.85-2.2c-.16-.18-.29-.38-.46-.55a9.6,9.6,0,0,0-.93-1.11,15.72,15.72,0,0,0-2.06-1,13.33,13.33,0,0,0-1.46-.74l-1.31-29.56a4.28,4.28,0,0,0,1.08-2.61,4.38,4.38,0,0,0-8.75,0,4.25,4.25,0,0,0,1.1,2.64l-1.18,29.28a11.9,11.9,0,0,0-3.23,1.82,12.82,12.82,0,0,0-2.75,2.89,14.09,14.09,0,0,0-1.63,3.3l-90.63.12c-.05-.23-.11-.44-.11-.44a6.88,6.88,0,0,0-.65-2.21,9.23,9.23,0,0,0-4.33-4.47,12.13,12.13,0,0,0-1.93-.44c-.21,0-.41-.11-.64-.15a7.85,7.85,0,0,0-1.69-.39,9.56,9.56,0,0,0-4.82,1.38,8.75,8.75,0,0,0-2.12,1.74,9.06,9.06,0,0,0-1.58,2.38,9,9,0,0,0-.75,2.63l-16.8,0v7.26l18.84,0a7.79,7.79,0,0,0,1,1.18,9.05,9.05,0,0,0,2.38,1.58c.21.09.44.11.66.19L98.47,319l.41.14a61.71,61.71,0,0,0,43.33,18c27.16,0,50.54-.06,50.54-.06s25.95-1.57,37.79-17.23l.41-.12L171.77,127.26c.28-.09.6-.12.86-.23a7.7,7.7,0,0,0,1.41-1c.19-.12.35-.25.53-.38a11.75,11.75,0,0,0,1.6-1.16c.11-.12.12-.25.22-.38l92.08-.12c.1.51.09,1.06.24,1.56a13.91,13.91,0,0,0,1.84,3.7,13,13,0,0,0,2.75,2.88,11.76,11.76,0,0,0,2.21,1.24l-6.32,156.33,0,.05h0l1,1.84,4.8,9.07L257.1,330.85l-.39,0a1.42,1.42,0,0,0,.38,0l17,27.13,1.76,2.8a4.13,4.13,0,0,0-1,.38,1.07,1.07,0,0,0,.28,0,16.36,16.36,0,0,0-5.35,25.66c-.06.16-.1.32-.16.48-.45-.45-.76-.82-.8-.78a5.28,5.28,0,0,0,.73,1c-5.85,14.31-25.26,25-29.83,26.59a4.77,4.77,0,0,0-.89.05l.63,0c-.42.13-.73.19-.77.11-7,18.51-27,21-27,21h0l-.37,0h.37l.12,7.59,140.39,1.15-.12-8.34s-20-3-27.05-21.51c0,0-.37-.1-.49-.11l.49,0a7.54,7.54,0,0,0-.82,0c-3.57-.91-24.31-11.91-30.2-27a7.93,7.93,0,0,0,.07-1c.35-.49.83-1.08,1-1.45a5.12,5.12,0,0,0,.52-1.17c-.07,0-.63.91-1.51,2.13,0-.11,0-.22,0-.34A16,16,0,0,0,287,361l18.78-30.14h0l-18-30.21,4.77-9.07.93-1.73h.07v-.12h0v-.05h0l-6.9-156.13a13.75,13.75,0,0,0,2.47-1.58,11.89,11.89,0,0,0,.93-1.11c.17-.17.29-.37.46-.55a16.19,16.19,0,0,0,1.84-2.21,12.15,12.15,0,0,0,.56-1.5c0-.08.06-.16.1-.25a12.83,12.83,0,0,0,.68-1.81,4,4,0,0,0,.1-.57l98-.13a7.47,7.47,0,0,0,0,1.06,9.58,9.58,0,0,0,3,5.16c.13.12.3.18.44.29l-64.77,185,.4.14a61.8,61.8,0,0,0,43.34,18c27.16,0,50.53-.07,50.53-.07s26-1.56,37.79-17.22l.42-.13Zm-175.88,189-130.75-.68,67.19-191.87a9.3,9.3,0,0,0,1.14.34,8.77,8.77,0,0,0,3.28-.17Zm-52.75-205.6c.12.24.2.44.29.64l-.46-.89C177.2,114.09,177.3,114.19,177.33,114.26Zm.83,2.57a1.92,1.92,0,0,1,0-.24l0,.24Zm110.71-5.89s0,0,.06.07l-.18-.13S288.84,110.91,288.87,110.94Zm0,20.71c-.11.09-.26.15-.38.24.15-.11.3-.2.44-.31C288.93,131.6,288.93,131.63,288.9,131.65Zm4.6-7.19c0,.18-.2.44-.26.64.11-.37.15-.78.23-1.17h.12C293.55,124.14,293.56,124.23,293.5,124.46Zm37.76,191L395.91,130.8a7,7,0,0,0,3.83,1.58,9.49,9.49,0,0,0,5-.62c.21-.08.3-.27.5-.36L462,316.11Z" transform="translate(-22.36 -28.76)"/></g><g id="Floor"><path class="cls-3" d="M464.39,444.07c0,.14-96,.26-214.38.26s-214.4-.12-214.4-.26,96-.26,214.4-.26S464.39,443.93,464.39,444.07Z" transform="translate(-22.36 -28.76)"/></g><g id="Plant"><path class="cls-4" d="M67.37,285.44c8.25,4.28,14.58,11.64,19.14,19.74S94,322.18,96.89,331l2.55,45.54C89.83,360.21,82.12,341,80,322.17l6.39-.57c-4.28-.65-7.88-3.76-10.17-7.44s-3.46-7.93-4.61-12.11l7.79,1.16A28.9,28.9,0,0,1,67.37,285.44Z" transform="translate(-22.36 -28.76)"/><g class="cls-5"><path d="M67.37,285.44c8.25,4.28,14.58,11.64,19.14,19.74S94,322.18,96.89,331l2.55,45.54C89.83,360.21,82.12,341,80,322.17l6.39-.57c-4.28-.65-7.88-3.76-10.17-7.44s-3.46-7.93-4.61-12.11l7.79,1.16A28.9,28.9,0,0,1,67.37,285.44Z" transform="translate(-22.36 -28.76)"/></g><path class="cls-4" d="M100.86,387.22s20.85-25,20.6-48.77H113s9.15-6,8.43-9.38-1-16.12-1-16.12l-7.7,1.92s5.78-2.88,6.5-7.45-1.68-25.75-1.68-25.75-9.39,9.87-12.28,20-10.46,21.9-8.24,52.69S100.86,387.22,100.86,387.22Z" transform="translate(-22.36 -28.76)"/><path class="cls-4" d="M90.29,389.58s-22.58-15.05-27.6-34.25l6.77-1.84s-8.67-2.84-8.83-5.7-2.75-13.17-2.75-13.17l6.61-.14s-5.27-1.06-6.85-4.58-4.28-21.06-4.28-21.06,9.7,5.88,14.23,13.37,13.21,15.31,18.16,40.56S90.29,389.58,90.29,389.58Z" transform="translate(-22.36 -28.76)"/><path class="cls-3" d="M111.92,303.43s0,.08-.07.26l-.19.76c-.15.7-.37,1.7-.66,3s-.62,2.87-1,4.7-.81,3.92-1.23,6.24c-.89,4.63-1.83,10.16-2.8,16.31s-1.88,12.94-2.72,20.08-1.45,14-1.94,20.18-.8,11.82-1,16.52c-.12,2.36-.17,4.49-.23,6.36s-.1,3.48-.11,4.8,0,2.31,0,3v.79c0,.18,0,.27,0,.27a.94.94,0,0,0,0-.27c0-.2,0-.46,0-.79,0-.71,0-1.73.1-3s.09-2.93.17-4.8.16-4,.29-6.34c.22-4.71.59-10.3,1.07-16.51s1.16-13,2-20.16,1.76-13.92,2.68-20.08,1.87-11.68,2.73-16.31c.4-2.32.81-4.41,1.16-6.25s.66-3.42.93-4.71.45-2.27.59-3c.06-.33.11-.58.14-.78A1.27,1.27,0,0,0,111.92,303.43Z" transform="translate(-22.36 -28.76)"/><path class="cls-4" d="M103.75,402.5s19.08-21.64,25-34.73l-4.47-1.91c3.24.54,6.56-.86,9.07-3a34.31,34.31,0,0,0,6.17-7.64l-5.89-1a21.87,21.87,0,0,0,12.87-10c-6.95,1.15-13.24,5-18.42,9.74A91.21,91.21,0,0,0,116.92,367a44.35,44.35,0,0,0-4.34,7.13C109.38,380.71,103.74,394.55,103.75,402.5Z" transform="translate(-22.36 -28.76)"/><path class="cls-3" d="M62.39,321.44s0,.07.09.22l.29.63c.28.57.67,1.37,1.16,2.4,1,2.07,2.47,5.1,4.23,8.85s3.78,8.24,6,13.27,4.45,10.59,6.73,16.48S85.17,374.85,87,380s3.3,9.87,4.52,13.82,2.19,7.17,2.83,9.39l.75,2.56.21.67a1.4,1.4,0,0,0,.08.22,1.12,1.12,0,0,0,0-.24c0-.17-.1-.39-.17-.67-.17-.61-.4-1.48-.69-2.58-.6-2.23-1.52-5.46-2.71-9.43s-2.69-8.67-4.45-13.86-3.81-10.85-6.08-16.76-4.6-11.45-6.77-16.48-4.25-9.51-6-13.25-3.27-6.74-4.34-8.8l-1.22-2.37-.33-.61A.77.77,0,0,0,62.39,321.44Z" transform="translate(-22.36 -28.76)"/><path class="cls-3" d="M102.13,411.78a1.17,1.17,0,0,0,.09-.4c0-.3.11-.68.19-1.15s.16-1.11.3-1.81.25-1.52.44-2.4c.34-1.77.83-3.86,1.46-6.16s1.43-4.8,2.4-7.38,2-5,3.07-7.12,2.07-4,3-5.59c.44-.79.88-1.48,1.25-2.09s.7-1.14,1-1.56l.62-1a1.64,1.64,0,0,0,.19-.36,1.57,1.57,0,0,0-.26.31c-.18.25-.4.57-.68,1s-.64.92-1,1.53-.85,1.28-1.3,2.06c-1,1.55-2,3.43-3.07,5.58s-2.13,4.55-3.11,7.14-1.75,5.1-2.38,7.41-1.08,4.43-1.39,6.21c-.17.89-.28,1.7-.38,2.41s-.19,1.33-.24,1.83-.08.85-.11,1.16A1.59,1.59,0,0,0,102.13,411.78Z" transform="translate(-22.36 -28.76)"/><rect class="cls-6" x="54.6" y="377.93" width="41.75" height="8.52"/><polygon class="cls-6" points="92.37 386.45 87.86 415.09 62.63 415.09 58.42 386.45 92.37 386.45"/><path class="cls-3" d="M79.52,415.2c0,.11,7.9.2,17.64.2s17.64-.09,17.64-.2-7.9-.19-17.64-.19S79.52,415.1,79.52,415.2Z" transform="translate(-22.36 -28.76)"/></g><g id="Books"><path class="cls-4" d="M349.07,406.47h53.65a14.9,14.9,0,0,0,14.9-14.9h0a14.9,14.9,0,0,0-14.9-14.9H349.07Z" transform="translate(-22.36 -28.76)"/><path class="cls-4" d="M244.66,381.62H363.92v-4.95H244.66a2.48,2.48,0,0,0-2.48,2.48h0A2.48,2.48,0,0,0,244.66,381.62Z" transform="translate(-22.36 -28.76)"/><path class="cls-4" d="M244.66,406.47H363.92v-4.94H244.66a2.47,2.47,0,0,0-2.48,2.47h0A2.47,2.47,0,0,0,244.66,406.47Z" transform="translate(-22.36 -28.76)"/><path class="cls-1" d="M245.81,401.53H350.34a10,10,0,0,0,10-10h0a10,10,0,0,0-10-9.95H245.81A24.57,24.57,0,0,1,245.81,401.53Z" transform="translate(-22.36 -28.76)"/><g class="cls-5"><path d="M360.29,406.47h42.39a14.94,14.94,0,0,0,14.94-14.94h0a14.85,14.85,0,0,0-14.85-14.86H359.16C370,383.21,369.14,398.86,360.29,406.47Z" transform="translate(-22.36 -28.76)"/></g><path class="cls-3" d="M258.51,392.5c0,.1,21.46.18,47.92.18s47.91-.08,47.91-.18-21.45-.18-47.91-.18S258.51,392.4,258.51,392.5Z" transform="translate(-22.36 -28.76)"/><path class="cls-3" d="M248.65,396.92c0,.1,21.46.18,47.91.18s47.92-.08,47.92-.18-21.45-.18-47.92-.18S248.65,396.82,248.65,396.92Z" transform="translate(-22.36 -28.76)"/><path class="cls-3" d="M251.56,386.22c0,.1,21.45.18,47.91.18s47.92-.08,47.92-.18-21.45-.18-47.92-.18S251.56,386.12,251.56,386.22Z" transform="translate(-22.36 -28.76)"/><path class="cls-3" d="M365.54,404.39c0,.09,10,.17,22.42.17s22.43-.08,22.43-.17-10-.18-22.43-.18S365.54,404.29,365.54,404.39Z" transform="translate(-22.36 -28.76)"/><path class="cls-3" d="M365.54,379.15c0,.09,10,.17,22.42.17s22.43-.08,22.43-.17-10-.18-22.43-.18S365.54,379.05,365.54,379.15Z" transform="translate(-22.36 -28.76)"/><path class="cls-6" d="M352.29,444.31h66.53A19.19,19.19,0,0,0,438,425.12h0a19.19,19.19,0,0,0-19.19-19.19H352.29a2.56,2.56,0,0,0-2.56,2.55v33.28A2.56,2.56,0,0,0,352.29,444.31Z" transform="translate(-22.36 -28.76)"/><path class="cls-6" d="M215.26,412.3h153.6v-6.37H215.26a3.18,3.18,0,0,0-3.18,3.19h0A3.18,3.18,0,0,0,215.26,412.3Z" transform="translate(-22.36 -28.76)"/><path class="cls-6" d="M215.26,444.31h153.6v-6.37H215.26a3.18,3.18,0,0,0-3.18,3.19h0A3.18,3.18,0,0,0,215.26,444.31Z" transform="translate(-22.36 -28.76)"/><path class="cls-1" d="M216.75,437.94H351.36a12.82,12.82,0,0,0,12.82-12.82h0a12.82,12.82,0,0,0-12.82-12.82H216.75A31.71,31.71,0,0,1,216.75,437.94Z" transform="translate(-22.36 -28.76)"/><g class="cls-7"><path d="M364.18,444.31H419a19,19,0,0,0,19-19h0a19.39,19.39,0,0,0-19.39-19.4h-55.9C376.61,414.35,375.58,434.51,364.18,444.31Z" transform="translate(-22.36 -28.76)"/></g><path class="cls-3" d="M233.11,426.31c0,.1,27.62.18,61.7.18s61.71-.08,61.71-.18-27.62-.18-61.71-.18S233.11,426.21,233.11,426.31Z" transform="translate(-22.36 -28.76)"/><path class="cls-3" d="M220.41,432c0,.1,27.63.18,61.7.18s61.71-.08,61.71-.18-27.62-.18-61.71-.18S220.41,431.91,220.41,432Z" transform="translate(-22.36 -28.76)"/><path class="cls-3" d="M224.15,421c0,.1,27.63.18,61.7.18s61.71-.08,61.71-.18-27.62-.17-61.71-.17S224.15,420.92,224.15,421Z" transform="translate(-22.36 -28.76)"/><path class="cls-3" d="M370.94,441.62c0,.1,12.93.18,28.88.18s28.89-.08,28.89-.18-12.93-.18-28.89-.18S370.94,441.52,370.94,441.62Z" transform="translate(-22.36 -28.76)"/><path class="cls-3" d="M370.94,409.12c0,.09,12.93.17,28.88.17s28.89-.08,28.89-.17-12.93-.18-28.89-.18S370.94,409,370.94,409.12Z" transform="translate(-22.36 -28.76)"/><polygon class="cls-6" points="293.62 357.59 293.62 369.53 289.48 366.88 284.87 369.53 284.87 357.59 293.62 357.59"/><path class="cls-6" d="M349.72,380.27H410c9.59,0,17.38-8.12,17.38-18.13h0c0-10-7.79-18.12-17.38-18.12H349.72a2.37,2.37,0,0,0-2.32,2.41v31.42A2.37,2.37,0,0,0,349.72,380.27Z" transform="translate(-22.36 -28.76)"/><path class="cls-6" d="M225.63,350H364.72v-6H225.63a2.94,2.94,0,0,0-2.89,3h0A2.94,2.94,0,0,0,225.63,350Z" transform="translate(-22.36 -28.76)"/><path class="cls-6" d="M225.63,380.27H364.72v-6H225.63a3,3,0,0,0-2.89,3h0A3,3,0,0,0,225.63,380.27Z" transform="translate(-22.36 -28.76)"/><path class="cls-1" d="M227,374.25H348.87a11.86,11.86,0,0,0,11.61-12.11h0A11.86,11.86,0,0,0,348.87,350H227A31.12,31.12,0,0,1,227,374.25Z" transform="translate(-22.36 -28.76)"/><g class="cls-7"><path d="M360.48,380.27h49.67c9.5,0,17.2-8,17.2-17.93h0c0-10.11-7.87-18.31-17.57-18.31H359.16C371.74,352,370.8,371,360.48,380.27Z" transform="translate(-22.36 -28.76)"/></g><path class="cls-3" d="M241.79,363.26c0,.1,25,.17,55.87.17s55.89-.07,55.89-.17-25-.16-55.89-.16S241.79,363.17,241.79,363.26Z" transform="translate(-22.36 -28.76)"/><path class="cls-3" d="M230.29,368.65c0,.09,25,.16,55.87.16s55.89-.07,55.89-.16-25-.17-55.89-.17S230.29,368.55,230.29,368.65Z" transform="translate(-22.36 -28.76)"/><path class="cls-3" d="M233.68,358.27c0,.09,25,.17,55.88.17s55.88-.08,55.88-.17-25-.17-55.88-.17S233.68,358.18,233.68,358.27Z" transform="translate(-22.36 -28.76)"/><path class="cls-3" d="M366.6,377.73c0,.09,11.71.16,26.16.16s26.16-.07,26.16-.16-11.71-.17-26.16-.17S366.6,377.63,366.6,377.73Z" transform="translate(-22.36 -28.76)"/><path class="cls-3" d="M366.6,347c0,.1,11.71.17,26.16.17s26.16-.07,26.16-.17-11.71-.16-26.16-.16S366.6,346.93,366.6,347Z" transform="translate(-22.36 -28.76)"/><rect class="cls-8" x="212.08" y="335.53" width="215.27" height="8.49" transform="translate(617.06 650.79) rotate(180)"/><path class="cls-3" d="M212,335.5H427.37v8.55H212Zm215.27.06H212.11V344h215.2Z" transform="translate(-22.36 -28.76)"/><path class="cls-1" d="M332.76,335.55c-1.41.84-49.18,23.48-49.18,23.48l-47.64-24.35Z" transform="translate(-22.36 -28.76)"/><path class="cls-3" d="M332.76,335.55l-28-.38-68.84-.8-1.34,0,1.19.61,5,2.54,42.69,21.78.12.06.12-.06,35.58-17,10-4.87,2.62-1.32.67-.38.2-.12-49.3,23.23h.25l-42.65-21.84-5-2.54-.15.6,68.49.42Z" transform="translate(-22.36 -28.76)"/><rect class="cls-2" x="338.12" y="306.77" width="66.86" height="8.49"/><path class="cls-3" d="M360.45,335.5h66.92v8.55H360.45Zm66.86.06h-66.8V344h66.8Z" transform="translate(-22.36 -28.76)"/></g><g id="Character"><path class="cls-9" d="M179.27,145.82l-2.8-43.61c-1.05-10.82,4.38-20.46,15.23-21.2l1,0a19.46,19.46,0,0,1,19.57,17.68c.86,9.38,1.69,19.77,1.68,24.81,0,10.43-10.44,12.17-10.44,12.17s.26,6.34.43,9.39l2.81,7-8.67-1.64Z" transform="translate(-22.36 -28.76)"/><path class="cls-10" d="M203.51,135.65a25.25,25.25,0,0,1-13.63-3.88s3.35,7.82,13.75,6.77Z" transform="translate(-22.36 -28.76)"/><path class="cls-3" d="M208,107.93a1.5,1.5,0,0,1-1.42,1.52,1.43,1.43,0,0,1-1.55-1.33,1.48,1.48,0,0,1,1.42-1.52A1.43,1.43,0,0,1,208,107.93Z" transform="translate(-22.36 -28.76)"/><path class="cls-3" d="M210.1,103.3c-.18.19-1.32-.63-2.92-.61s-2.77.84-3,.64.1-.44.61-.82a4.18,4.18,0,0,1,2.36-.75,3.93,3.93,0,0,1,2.33.73C210,102.86,210.19,103.21,210.1,103.3Z" transform="translate(-22.36 -28.76)"/><path class="cls-3" d="M193.28,108.5a1.5,1.5,0,0,1-1.42,1.52,1.44,1.44,0,0,1-1.55-1.33,1.49,1.49,0,0,1,1.42-1.52A1.42,1.42,0,0,1,193.28,108.5Z" transform="translate(-22.36 -28.76)"/><path class="cls-3" d="M194.39,103.84c-.19.19-1.32-.63-2.93-.61s-2.77.83-2.94.64.09-.44.6-.82a4.18,4.18,0,0,1,2.36-.75,3.91,3.91,0,0,1,2.33.72C194.31,103.4,194.48,103.75,194.39,103.84Z" transform="translate(-22.36 -28.76)"/><path class="cls-3" d="M200.27,116.1a10.41,10.41,0,0,1,2.6-.5c.41,0,.8-.13.86-.41a2,2,0,0,0-.28-1.21c-.4-1-.81-2-1.25-3.11-1.73-4.42-3-8.06-2.8-8.13s1.72,3.46,3.45,7.89c.42,1.09.81,2.13,1.19,3.12a2.39,2.39,0,0,1,.23,1.61,1,1,0,0,1-.66.6,3.44,3.44,0,0,1-.7.11A10.74,10.74,0,0,1,200.27,116.1Z" transform="translate(-22.36 -28.76)"/><path class="cls-3" d="M194.85,98.81c-.21.42-1.77,0-3.67,0s-3.47.29-3.66-.13c-.09-.2.23-.57.89-.91a6.34,6.34,0,0,1,5.59.12C194.65,98.23,195,98.62,194.85,98.81Z" transform="translate(-22.36 -28.76)"/><path class="cls-3" d="M210.13,98.58c-.33.37-1.64,0-3.21,0s-2.89.32-3.21,0c-.14-.18.06-.55.63-.91a5.08,5.08,0,0,1,2.6-.67,4.9,4.9,0,0,1,2.57.67C210.08,98,210.27,98.4,210.13,98.58Z" transform="translate(-22.36 -28.76)"/><path class="cls-9" d="M177.4,109.93c-.18-.07-7.19-2-6.89,5.09s7.4,5.35,7.41,5.15S177.4,109.93,177.4,109.93Z" transform="translate(-22.36 -28.76)"/><path class="cls-10" d="M175.62,117.56s-.12.09-.32.2a1.28,1.28,0,0,1-.93.06,3.11,3.11,0,0,1-1.54-2.7,4.06,4.06,0,0,1,.27-1.8,1.43,1.43,0,0,1,.9-1,.62.62,0,0,1,.74.31c.11.2.07.34.11.35s.15-.13.08-.42a.83.83,0,0,0-.3-.43,1,1,0,0,0-.7-.15,1.73,1.73,0,0,0-1.25,1.16,4.18,4.18,0,0,0-.35,2c.11,1.44.9,2.75,1.95,3a1.37,1.37,0,0,0,1.13-.24C175.62,117.73,175.65,117.57,175.62,117.56Z" transform="translate(-22.36 -28.76)"/><path class="cls-3" d="M195.3,117.35c.24,0,.34,1.61,1.8,2.69s3.2.8,3.23,1-.37.34-1.11.4a4,4,0,0,1-2.69-.77,3.58,3.58,0,0,1-1.41-2.26C195,117.76,195.18,117.35,195.3,117.35Z" transform="translate(-22.36 -28.76)"/><path class="cls-3" d="M226.17,88.54a1.66,1.66,0,0,0-.83-1,5.23,5.23,0,0,0-2.69-.33,15,15,0,0,1-6.59-1.37,7.68,7.68,0,0,0,1.87-1.43A4.49,4.49,0,0,0,219,80a1,1,0,0,0-.58-.66c-.47-.13-.86.35-1.17.72a3.83,3.83,0,0,1-3.56,1.68A6.39,6.39,0,0,1,211,81l-.09-.09-1.13-1.06h0c-2.79-2.56-5.17-4.31-7.58-5.17a24.27,24.27,0,0,0-13-.49c-3.59,1.1-6.74,4.18-7.09,7.92-2.11-1.64-5.16-1.5-7.6-.41l-.07,0c-2.72,1.1-4.17,4.08-4.87,6.93,0,.15-.07.31-.1.47a11,11,0,0,1-3.57,3.78c-.27.16-.56.37-.58.68s.24.54.5.71a5.48,5.48,0,0,0,2.27.84,12.2,12.2,0,0,1-.83,2c-.29.54-.64,1.19-.34,1.72a1.17,1.17,0,0,0,1.24.49,3.5,3.5,0,0,0,1.26-.64l-.84,2.25a6.64,6.64,0,0,0,3-.32c.69,2.61,1.33,7.47,2.08,9.23,1.9,0,2.35-.27,3.32,0,1.25.36.87,2.56,2.45,1.88.8-.35,1.93-3.51,2.17-4.35A40.65,40.65,0,0,0,182.65,90,12.9,12.9,0,0,1,186.57,87l-.12.11c2.88-1.13,6.14-2.26,9-1,2.19,1,3.54,3.15,5.22,4.86a14.92,14.92,0,0,0,11.23,4.92c.54,3.13.87,8.28,1.14,11.21l2.27-6v0c.18-.35.34-.71.49-1.06l0-.11h0a18.14,18.14,0,0,1,.75-1.71l0,0a1.84,1.84,0,0,0,2.59-2.56,4.46,4.46,0,0,0-.93-.86,2.91,2.91,0,0,0,2.8.61,2.29,2.29,0,0,0,1.52-2.32,2,2,0,0,0-1.22-1.51,6.49,6.49,0,0,0,3.69-1C225.77,90.17,226.46,89.45,226.17,88.54Z" transform="translate(-22.36 -28.76)"/><path class="cls-4" d="M185.42,83.18a12.11,12.11,0,0,0-1,1A7.53,7.53,0,0,0,183,87.71a14.15,14.15,0,0,0-.16,2.67c0,1,.16,2,.28,3.07a28.55,28.55,0,0,1,.21,3.42,12.54,12.54,0,0,1-.16,1.81,3.78,3.78,0,0,1-.67,1.78A1.59,1.59,0,0,1,181,101a2.3,2.3,0,0,1-1.35-.7,5.3,5.3,0,0,1-1.12-2.61l.22,0a8.7,8.7,0,0,1-1.18,2.24,3.08,3.08,0,0,1-2,1.18,2,2,0,0,1-1.09-.14,1.8,1.8,0,0,1-1-1.61,1.35,1.35,0,0,1,.3-.82l.12.09a6.62,6.62,0,0,1-2.18,1.77,6,6,0,0,1-.68.3c-.16.06-.24.08-.25.07l.24-.11c.15-.07.38-.17.66-.33a6.78,6.78,0,0,0,2.09-1.79l.12.09a1.35,1.35,0,0,0,0,1.56,1.58,1.58,0,0,0,.69.61,1.79,1.79,0,0,0,1,.12,3,3,0,0,0,1.84-1.13,8.56,8.56,0,0,0,1.14-2.19l.13-.34.09.36a5.26,5.26,0,0,0,1.06,2.5,2.14,2.14,0,0,0,1.21.62,1.34,1.34,0,0,0,1.24-.47,3.59,3.59,0,0,0,.61-1.67,11.89,11.89,0,0,0,.16-1.78,26.52,26.52,0,0,0-.2-3.39c-.11-1.08-.22-2.11-.25-3.09a13.57,13.57,0,0,1,.19-2.7,7.4,7.4,0,0,1,1.56-3.56A4.35,4.35,0,0,1,185.42,83.18Z" transform="translate(-22.36 -28.76)"/><path class="cls-4" d="M218.13,92l-.08.08-.26.2a3.84,3.84,0,0,1-.43.3,5.41,5.41,0,0,1-.62.36,9.22,9.22,0,0,1-4.43,1,11.88,11.88,0,0,1-6.4-2.07,20.51,20.51,0,0,1-5.66-6c-.81-1.23-1.48-2.5-2.22-3.67a13.55,13.55,0,0,0-2.46-3.08,7.07,7.07,0,0,0-3.08-1.71,5.42,5.42,0,0,0-1.59-.12,5.84,5.84,0,0,0-1.44.34,6.12,6.12,0,0,0-2.13,1.4,5.89,5.89,0,0,0-1.11,1.58,7.37,7.37,0,0,0-.48,1.58,1,1,0,0,1,0-.11c0-.08,0-.19,0-.32a5.49,5.49,0,0,1,.35-1.19,6.17,6.17,0,0,1,3.26-3.1,5.91,5.91,0,0,1,1.49-.36,5.23,5.23,0,0,1,1.66.11,7.19,7.19,0,0,1,3.18,1.73,14.18,14.18,0,0,1,2.52,3.12c.74,1.18,1.41,2.45,2.21,3.67a20.46,20.46,0,0,0,5.59,6,11.64,11.64,0,0,0,6.27,2.09,9.33,9.33,0,0,0,4.39-.9A14.08,14.08,0,0,0,218.13,92Z" transform="translate(-22.36 -28.76)"/><path class="cls-4" d="M218.89,87.41a1.73,1.73,0,0,1-.36.27,7.87,7.87,0,0,1-1.09.61,11.53,11.53,0,0,1-1.73.65,13.07,13.07,0,0,1-2.23.39,12,12,0,0,1-2.27-.07,10.38,10.38,0,0,1-1.8-.39,7.78,7.78,0,0,1-1.17-.44,2.69,2.69,0,0,1-.4-.22s.61.23,1.61.5a12,12,0,0,0,1.79.33,13.48,13.48,0,0,0,2.22,0,12.67,12.67,0,0,0,2.19-.36,12.2,12.2,0,0,0,1.72-.59C218.32,87.72,218.87,87.37,218.89,87.41Z" transform="translate(-22.36 -28.76)"/><path class="cls-3" d="M221.33,425.85l-2.11,20.63s20.26,9.07,20.24,12.92l-40.14-2.66,2-32.27Z" transform="translate(-22.36 -28.76)"/><path class="cls-4" d="M199.32,456.74l.33-3.24L238,457.26s1.73.89,1.45,2.14Z" transform="translate(-22.36 -28.76)"/><path class="cls-8" d="M219.89,446.31c0,.2-1,.22-2,.79s-1.58,1.36-1.75,1.27.19-1.21,1.42-1.87S219.94,446.14,219.89,446.31Z" transform="translate(-22.36 -28.76)"/><path class="cls-8" d="M224,448.33c0,.2-.84.47-1.56,1.26s-1,1.65-1.16,1.63-.25-1.14.67-2.1S224,448.15,224,448.33Z" transform="translate(-22.36 -28.76)"/><path class="cls-8" d="M226,453.53c-.18,0-.39-1,.18-2s1.52-1.4,1.6-1.23-.54.7-1,1.56S226.24,453.52,226,453.53Z" transform="translate(-22.36 -28.76)"/><path class="cls-8" d="M219.85,441.56c-.1.17-1-.16-2.09-.15s-2,.29-2.09.11.78-.81,2.09-.8S220,441.41,219.85,441.56Z" transform="translate(-22.36 -28.76)"/><path class="cls-3" d="M172.76,422.46l-.64,25.07,5.21,20a2.58,2.58,0,0,1-2,3.18h0a2.55,2.55,0,0,1-2.25-.67c-3.82-3.68-17.8-17.3-17.65-19.13.17-2.12-1.08-26.49-1.08-26.49Z" transform="translate(-22.36 -28.76)"/><path class="cls-4" d="M175.32,470.69l-19.9-21.49v1.06a3.89,3.89,0,0,0,.91,2.51c1.59,1.88,6.09,7,16.66,17.25a2.57,2.57,0,0,0,2.33.67Z" transform="translate(-22.36 -28.76)"/><path class="cls-8" d="M169.62,459.71a7.8,7.8,0,0,1,2.2-1.94,8,8,0,0,1,2.89-.55c0-.06-.29-.25-.88-.34a4.08,4.08,0,0,0-3.94,1.93C169.6,459.32,169.56,459.69,169.62,459.71Z" transform="translate(-22.36 -28.76)"/><path class="cls-8" d="M171.4,463.08a17.65,17.65,0,0,1,2.22-1.08,24.31,24.31,0,0,1,2.45-.31,2.9,2.9,0,0,0-2.61-.22C172,461.9,171.27,463,171.4,463.08Z" transform="translate(-22.36 -28.76)"/><path class="cls-8" d="M166.3,455.4a26.28,26.28,0,0,1,3.33-1.89,26,26,0,0,1,3.72-.86,7.07,7.07,0,0,0-7,2.75Z" transform="translate(-22.36 -28.76)"/><path class="cls-8" d="M165.86,447.76c.07.15,1.46-.43,3.26-.49s3.23.38,3.29.23a6.35,6.35,0,0,0-6.55.26Z" transform="translate(-22.36 -28.76)"/><path class="cls-8" d="M165.86,440.39a13.12,13.12,0,0,1,3.38-.59,12.78,12.78,0,0,1,3.33.84c0-.05-.24-.37-.81-.7a5.64,5.64,0,0,0-5-.19C166.12,440,165.83,440.34,165.86,440.39Z" transform="translate(-22.36 -28.76)"/><path class="cls-8" d="M169.2,438.4a2.23,2.23,0,0,0,0-.95,6.74,6.74,0,0,0-.75-2.49,2.9,2.9,0,0,0-1.25-1.4,1,1,0,0,0-1.16.23,1.65,1.65,0,0,0-.4,1.13,3.63,3.63,0,0,0,3.17,3.37A4.23,4.23,0,0,0,173,436.1a1.51,1.51,0,0,0,.07-1.22,1,1,0,0,0-1.06-.54,3.58,3.58,0,0,0-1.66.86,7.33,7.33,0,0,0-1.71,1.94,2.14,2.14,0,0,0-.39.87,11.72,11.72,0,0,1,2.34-2.5,3.27,3.27,0,0,1,1.46-.71.54.54,0,0,1,.58.29,1,1,0,0,1-.1.79,3.72,3.72,0,0,1-3.61,1.86,3.16,3.16,0,0,1-2.74-2.82,1.2,1.2,0,0,1,.25-.8.55.55,0,0,1,.64-.13,2.59,2.59,0,0,1,1.08,1.16A9.75,9.75,0,0,1,169.2,438.4Z" transform="translate(-22.36 -28.76)"/><path class="cls-4" d="M230.3,249.15a88.78,88.78,0,0,1,3.54,26C233.76,280.75,224,438.4,224,438.4l-24.85-1.23-1.76-144.9-2,.58s-10,62.46-10.55,72.51c-.46,9-8.11,74.89-8.11,74.89l-23.14,1.68,2.1-86.62,3.53-83.21,1.76-24.26Z" transform="translate(-22.36 -28.76)"/><path class="cls-11" d="M163.86,211.87c-.27-2.7-5.06-56.34-6.46-64.61l18.51-6.2,1.4-6.5,17.8,11.1,9.56-6.86,2.73,4.89,20,4.41,3.12,105.54a74.16,74.16,0,0,1-19.58,7c-14.87,3.2-49.94-6.59-49.94-6.59S164.14,214.57,163.86,211.87Z" transform="translate(-22.36 -28.76)"/><polygon class="cls-6" points="177.49 124.27 175.06 127.8 171.45 127.78 169.55 124.22 171.7 119.75 174.55 119.92 177.49 124.27"/><path class="cls-3" d="M176.35,145.67a4.47,4.47,0,0,0,.85.65l2.41,1.63c2,1.35,4.89,3.19,8,5.2l3,1.87.21.13.12-.2a41.4,41.4,0,0,0,3.16-6.49c.33-.83.59-1.5.76-2a2.35,2.35,0,0,0,.22-.72,19.35,19.35,0,0,0-1.26,2.56,50.28,50.28,0,0,1-3.28,6.35l.33-.07-3-1.89c-3.16-2-6-3.8-8.12-5.08l-2.5-1.49A4.39,4.39,0,0,0,176.35,145.67Z" transform="translate(-22.36 -28.76)"/><path class="cls-3" d="M204,149.44a6.87,6.87,0,0,0-1.06,1.26c-.62.82-1.47,2-2.44,3.35h.39c-.39-.55-.8-1.15-1.21-1.78-1.21-1.82-2.29-3.49-3.13-4.67a9.25,9.25,0,0,0-1.46-1.82,13.38,13.38,0,0,0,1.17,2c.76,1.22,1.79,2.92,3,4.76.42.63.84,1.23,1.24,1.78l.2.27.19-.27c1-1.39,1.75-2.59,2.3-3.46A6.53,6.53,0,0,0,204,149.44Z" transform="translate(-22.36 -28.76)"/><polygon class="cls-6" points="175.06 127.8 184.04 209.91 174.28 224.32 163.67 209.48 171.45 127.78 175.06 127.8"/><path class="cls-3" d="M150.71,140.72l-5.08,40.35L135.09,362.73l14.13,6.2c7.59,11.48,24.33,16.76,38,14.16L176.28,139.32A15.73,15.73,0,0,0,171.9,141C169,139.61,159.23,140.36,150.71,140.72Z" transform="translate(-22.36 -28.76)"/><path class="cls-4" d="M154.57,230.2a2,2,0,0,1,0,.36c0,.26,0,.6,0,1,0,1-.09,2.3-.16,4-.17,3.52-.4,8.56-.69,14.78-.64,12.5-1.51,29.72-2.47,48.75s-1.94,36.25-2.6,48.75c-.36,6.21-.65,11.25-.85,14.77-.11,1.72-.19,3.07-.25,4,0,.44-.06.78-.08,1a1.45,1.45,0,0,1,0,.36,1.63,1.63,0,0,1,0-.36c0-.26,0-.6,0-1,0-.95.09-2.3.16-4,.16-3.52.4-8.56.69-14.78.63-12.5,1.5-29.72,2.46-48.76s1.94-36.24,2.61-48.74c.36-6.22.64-11.26.85-14.78.11-1.72.19-3.07.25-4,0-.44.06-.79.08-1A2,2,0,0,1,154.57,230.2Z" transform="translate(-22.36 -28.76)"/><path class="cls-3" d="M233.92,201.85l1.18-8.8-8.68-46.35L207,143l.48,240.74s2.45,4.72,20.07-4.29c1.42-.73,3.32-10.07,3.32-10.07l16.74-2.95C248.19,362.72,233.92,201.85,233.92,201.85Z" transform="translate(-22.36 -28.76)"/><path class="cls-4" d="M225.63,344.51c-.15,0-.26-27.45-.26-61.3s.11-61.3.26-61.3.26,27.44.26,61.3S225.77,344.51,225.63,344.51Z" transform="translate(-22.36 -28.76)"/><path class="cls-3" d="M225.09,146.41a44.38,44.38,0,0,1,6.48,1.71c3.74,1.44,7,5.73,9.37,11.58s9.85,22.66,9.85,22.66l9.64,2.26L266.24,196a73.78,73.78,0,0,1,8.16,31.65,36.48,36.48,0,0,1-.61,8.47c-2.14,9.32-14.31,12-16.9,11.34s-25.14-28.2-25.14-28.2l-8.25-42.65Z" transform="translate(-22.36 -28.76)"/><g class="cls-5"><path d="M245.5,195.13l13.22-6.71c2.52,7,8.42,15.49,10.15,22.69a66.45,66.45,0,0,1,1.92,22c-.32,3.26-1,6.63-3.12,9.15a4.79,4.79,0,0,1-3.09,1.91c-2,.19-3.67-1.58-4.87-3.23C250.35,228.2,245.42,210.48,245.5,195.13Z" transform="translate(-22.36 -28.76)"/></g><path class="cls-11" d="M249.11,219.92s-4-12.88-3.65-22.89c.18-5.49,3.89-10.63,3.89-10.63s9.07-.65,9.37,2a55.86,55.86,0,0,1-.91,6c.07,1.37,1.1,3.19,1.23,5.13,0,0-3.91,16.4-9.93,20.4" transform="translate(-22.36 -28.76)"/><path class="cls-4" d="M261.26,243.57a3,3,0,0,0-.29-.49l-.91-1.35c-.82-1.14-1.9-2.87-3.2-5a83.18,83.18,0,0,1-7.85-18,77.23,77.23,0,0,1-3.33-19.3c0-.63,0-1.23-.07-1.8s0-1.09,0-1.6c0-1,0-1.86.06-2.56s.06-1.2.08-1.62a2.28,2.28,0,0,0,0-.57,2.11,2.11,0,0,0-.09.56c0,.42-.1,1-.17,1.62s-.12,1.56-.15,2.57c0,.5,0,1,0,1.6s0,1.18,0,1.81a73.05,73.05,0,0,0,3.2,19.44,78.69,78.69,0,0,0,8,18c1.33,2.14,2.47,3.85,3.34,5l1,1.3A2.83,2.83,0,0,0,261.26,243.57Z" transform="translate(-22.36 -28.76)"/><path class="cls-4" d="M233.53,202.66a24.8,24.8,0,0,0,1.92-2.7,59,59,0,0,1,4.78-6.34,24.17,24.17,0,0,1,6.06-5c1.77-1,3-1.35,3-1.45a3.38,3.38,0,0,0-.87.22,13.69,13.69,0,0,0-2.25.92,21.86,21.86,0,0,0-6.26,5,45.47,45.47,0,0,0-4.71,6.48c-.54.87-.95,1.59-1.24,2.08A3,3,0,0,0,233.53,202.66Z" transform="translate(-22.36 -28.76)"/><path class="cls-4" d="M240.48,215.48c.08,0-.25-1.25-.61-3.26a44.2,44.2,0,0,1,0-15.89c.36-2,.69-3.24.61-3.26a3.06,3.06,0,0,0-.32.83,22.44,22.44,0,0,0-.63,2.36,37.31,37.31,0,0,0,0,16,21.15,21.15,0,0,0,.63,2.36A3.05,3.05,0,0,0,240.48,215.48Z" transform="translate(-22.36 -28.76)"/><path class="cls-4" d="M231.63,167.52c.14,0,1.34,12.46,2.67,27.85s2.3,27.88,2.15,27.89-1.33-12.45-2.67-27.84S231.49,167.54,231.63,167.52Z" transform="translate(-22.36 -28.76)"/><path class="cls-10" d="M248.89,172.07c-.07-2.68-.33-5.4.29-8a4.22,4.22,0,0,1,.8-1.82,1.91,1.91,0,0,1,1.78-.71,2,2,0,0,1,1.28,1.17,6,6,0,0,1,.37,1.74,14.94,14.94,0,0,0,1.08,5c.85,1.78,2.38,3.15,3.38,4.85a9.4,9.4,0,0,1,.31,8.72c-.71,1.44-2.06,2.81-3.66,2.68l-4.9-2.46C250.28,179.56,249,175.78,248.89,172.07Z" transform="translate(-22.36 -28.76)"/><polygon class="cls-4" points="198.66 134.77 199.23 140.17 238.02 152.04 238.14 150.57 199.98 134.94 198.66 134.77"/><polygon class="cls-4" points="241.85 91.78 257.01 96.36 239.2 151.63 234.53 141.15 241.85 91.78"/><polygon class="cls-2" points="254.67 90.54 234.53 146.13 238.42 152.04 255.59 97.13 254.67 90.54"/><polygon class="cls-8" points="238.42 146.62 238.42 151.63 199.7 139.26 199.23 134.48 238.42 146.62"/><polygon class="cls-6" points="236.75 146.13 198.66 134.77 215.82 79.48 255.12 90.6 236.75 146.13"/><path class="cls-8" d="M240.76,109c.14,0-3.76,12.39-8.7,27.57S223,164,222.86,164s3.76-12.39,8.7-27.58S240.62,108.92,240.76,109Z" transform="translate(-22.36 -28.76)"/><path class="cls-9" d="M264.65,167c.09.15-.06,6.62-.15,8.43s-.73,1.88-.73,1.88a8.14,8.14,0,0,1-.24,3.22,4.54,4.54,0,0,1-1.13,1.4,11.22,11.22,0,0,1-1,2.72c-.54.74-4.48,5.94-4.48,5.94s-2.64,1.44-4.75.15a7.32,7.32,0,0,1-2.87-3.58l.69-5s-1.87-.61-1.95-1.42a4.51,4.51,0,0,1,.6-2,31.79,31.79,0,0,1,3.43.56c1.31.33,4.48,1.21,4.48,1.21l.38-1.34-5.38-2.49s-2.72,0-3.48-.61-.5-2.5.22-2.76,4.11-.14,4.62-.25,5.18,1.36,5.18,1.36S251.88,172,251.7,172s-3.06.21-3.51-.27-.91-2.51.32-3a16.18,16.18,0,0,1,4.42-.47c.52,0,7.38,1.71,7.38,1.71l-.2-2-4.63-4.79a1.9,1.9,0,0,1,.19-2.58,2,2,0,0,1,2.3.4C258.77,161.62,264.36,166.48,264.65,167Z" transform="translate(-22.36 -28.76)"/><path class="cls-10" d="M256.05,183.75a19.7,19.7,0,0,0-6-1.49,19.7,19.7,0,0,0,6,1.49Z" transform="translate(-22.36 -28.76)"/><path class="cls-10" d="M254.82,185c.11-.09-.06-.48-.26-.93s-.38-.84-.52-.82-.16.5.07,1S254.72,185.08,254.82,185Z" transform="translate(-22.36 -28.76)"/><path class="cls-10" d="M262,171.21c.09-.09-.15-.51-.62-.88s-.93-.5-1-.39.26.44.69.78S261.9,171.3,262,171.21Z" transform="translate(-22.36 -28.76)"/><path class="cls-8" d="M245.06,123.22l1.57.46L245.36,128l2.66.78-.37,1.25-4.23-1.24Z" transform="translate(-22.36 -28.76)"/><path class="cls-8" d="M252.38,130.24l-2.35-.69-.75,1-1.61-.48,4.09-4.84,1.55.46.83,6.28-1.64-.48Zm-.12-1.29-.19-2-1.24,1.57Z" transform="translate(-22.36 -28.76)"/><path class="cls-8" d="M264.64,129l-3.43,5-1.69-.5-.07-3.7-2.11,3.06-1.68-.49-.17-6.1,1.62.48.08,3.88,2.21-3.2,1.45.42.07,3.92,2.22-3.25Z" transform="translate(-22.36 -28.76)"/><g class="cls-5"><path class="cls-8" d="M259.92,140.76l-1.54-.44a.62.62,0,0,0-.14-.19s-.08,0-.12-.07l0,0-.1,0a.65.65,0,0,0-.34,0l-.17.08-6.62-1.89v0s0-.07,0-.11-.06-.12-.08-.18l0,0s0-.06,0-.09a1.31,1.31,0,0,0-.12-.11l-.08-.07.47-2a.35.35,0,0,0,.12-.15.3.3,0,0,0-.21-.37.28.28,0,0,0-.36.2.27.27,0,0,0,0,.2l-.63,1.89a1.14,1.14,0,0,0-.25.06.79.79,0,0,0-.23.14,1,1,0,0,0-.17.18L243.32,136v0h0s0,0,0,0a.52.52,0,0,0,0-.18v0c0,.1,0,.16,0,.16a.67.67,0,0,0,0-.16.61.61,0,0,0-.2-.38l-.12-.06,0,0a.33.33,0,0,0-.1-.06.65.65,0,0,0-.34,0,.51.51,0,0,0-.17.07.64.64,0,0,0-.15.13.54.54,0,0,0-.1.16l-1.1-.32-.14.48,1.24.35a.42.42,0,0,0,0,.1.79.79,0,0,0,.12.15l0,0-8,11.32h0a4.2,4.2,0,0,0,2.5,2l3.32.94a3.9,3.9,0,0,0,2.8-.42h0l-.25-13.72h.06l.11,0,0,0,.13,0,0,0,6,1.72a.43.43,0,0,0,0,.11.81.81,0,0,0,0,.27,1.19,1.19,0,0,0,.13.25l.12.12L246,149.05h0l0,.14.14.68-1.74,1.64h0l.6,2.1.06.21h-.05a1.13,1.13,0,0,0-.9.8,1.09,1.09,0,0,0,.07.78l0,0s0-.07,0-.06l0,.07a4.19,4.19,0,0,1-2.45,1.19l-.06,0,0,0h-.05a2.39,2.39,0,0,1-2.17.86h0l-.13.47,4.53,1.29h0l4.67,1.34.14-.48a2.37,2.37,0,0,1-1.38-1.87l0,0h0l0,0a4.13,4.13,0,0,1-1.48-2.34l0-.06.09-.07.06-.07s-.06.05-.14.11v0a1.2,1.2,0,0,0,.37-.55,1.1,1.1,0,0,0-.39-1.18l1.8-1.62h0l-.61-2.32.48-.51.09-.09h0l2.49-10.36a.6.6,0,0,0,.19-.06l.08-.05,0,0a1.11,1.11,0,0,0,.16-.11l.07-.09h0l.08-.11,0,0,6.42,1.84a.14.14,0,0,0,0,.07.59.59,0,0,0,.1.39s0,0,0,0l-7.72,10.9,0,0a4.21,4.21,0,0,0,2.5,2l3.31,1a4,4,0,0,0,2.8-.42h0l-.24-13.2h0a.69.69,0,0,0,.13,0,.6.6,0,0,0,.24-.31l1.38.39Zm-9.1-2.72a.08.08,0,0,0,0,0A.08.08,0,0,1,250.82,138Zm-.14-.33h0Zm-7.43-2.05Zm-.35,14.64-8.56-2.51,8-11.31.07.05a.87.87,0,0,0,.22.05Zm7.39-11.23h0Zm.25-.17,0,0Zm.19-.22,0,0,0-.07h0S250.73,138.67,250.73,138.68Zm7.43,15.73-8.55-2.5L257.32,141l.06.07a.54.54,0,0,0,.16.1.58.58,0,0,0,.34.05h0Zm.15-13.44h0Z" transform="translate(-22.36 -28.76)"/></g><path class="cls-3" d="M157.35,141.36c-.51-.51-3.53-8-11.75-7.29l-.85-.16-11.26-12.53s-3.16-8.06-7.29-6.64c-2.21.76-10.41,6.72-11.77,13.19s-3.92,37.31,0,39.19,7.66-.86,7.49,0-.85,5.45,1,6.13,10.89.68,10.89.68l19.41,20.54s-.16-25.73-.31-36.89C152.76,145.38,157.35,141.36,157.35,141.36Z" transform="translate(-22.36 -28.76)"/><g class="cls-5"><path d="M115.43,131s-3.61,33.45,0,36.74,15.49-42.53,15.49-42.53Z" transform="translate(-22.36 -28.76)"/></g><path class="cls-11" d="M110.2,74c-.06.11-.48,4.48-.48,4.48-2,.91-4.26,48.1-2.76,51.54,1.78,4.1,16.5,20.33,16.5,20.33l6.86-23.13a4.24,4.24,0,0,0-.63-3.7c-1.44-2-3.62-5.13-3.53-5.81.37-2.86-3-29.17-4.39-39.23,0,0,.1-4.85,0-4.78Z" transform="translate(-22.36 -28.76)"/><path class="cls-3" d="M110.2,74s.25,0,.75,0l2.23-.09,8.59-.29-.07,0a.14.14,0,0,1,.17,0c0,.05,0,.05,0,.05v.57c0,.19,0,.38,0,.57V76c0,.8,0,1.64,0,2.51v0c1.07,7.71,2.46,17.93,3.78,29.86.16,1.49.32,3,.46,4.55a39,39,0,0,1,.24,4.77,2.24,2.24,0,0,0,.35,1c.18.35.39.69.6,1,.42.69.88,1.36,1.34,2s.95,1.31,1.43,2a4.41,4.41,0,0,1,.62,2.54,13.27,13.27,0,0,1-.62,2.52c-.24.81-.48,1.64-.73,2.46l-1.48,5q-1.5,5-3,10.27c-.4,1.33-.79,2.65-1.16,3.9l-.13.45-.31-.35q-4.63-5.13-8.9-10.18c-1.41-1.68-2.79-3.35-4.11-5a32.69,32.69,0,0,1-3.55-5.25,13.54,13.54,0,0,1-.38-3.1c0-1-.07-2-.09-3,0-2,0-3.92,0-5.82.07-3.79.2-7.39.35-10.79.31-6.8.71-12.77,1.15-17.68.23-2.45.46-4.64.72-6.54.13-.94.27-1.82.43-2.61.08-.4.17-.78.27-1.13a1.76,1.76,0,0,1,.5-1l0,.06c.17-1.5.3-2.61.38-3.38A7,7,0,0,1,110.2,74c0,.5-.15,1.66-.4,4.49v0l0,0a2,2,0,0,0-.4.87c-.09.35-.17.72-.24,1.12-.15.78-.28,1.66-.4,2.6-.24,1.9-.45,4.09-.65,6.54-.4,4.91-.76,10.87-1,17.66-.14,3.4-.26,7-.31,10.79,0,1.89,0,3.83,0,5.8,0,1,0,2,.09,3a14.19,14.19,0,0,0,.35,3,33.71,33.71,0,0,0,3.5,5.12c1.31,1.67,2.69,3.33,4.1,5,2.83,3.35,5.81,6.75,8.89,10.16l-.44.11c.37-1.26.76-2.58,1.16-3.91q1.55-5.22,3-10.27l1.48-5c.25-.82.49-1.64.73-2.46a13.22,13.22,0,0,0,.61-2.4,4.06,4.06,0,0,0-.55-2.26c-.42-.65-.95-1.34-1.41-2s-.92-1.35-1.35-2c-.21-.35-.42-.69-.62-1.06a2.54,2.54,0,0,1-.39-1.27,42.77,42.77,0,0,0-.23-4.66c-.14-1.55-.29-3.06-.45-4.55-1.28-11.92-2.62-22.15-3.62-29.87h0c0-.87,0-1.71,0-2.51,0-.4,0-.79,0-1.17v-1s-.07,0,.11-.07v.12l-8.53.16L111,74Z" transform="translate(-22.36 -28.76)"/><path class="cls-9" d="M105.53,55.87a2.17,2.17,0,0,0-.81,2.75,2.44,2.44,0,0,0-.6,3.09,3.25,3.25,0,0,0,.53,3.82c1.68,2,5.44,4.76,6.38,6.5l.11,2,10.42-.23s.26-7.38.4-10.73-1.8-8.39-1.7-11.54.63-4.89-2.06-3.95-2,8.71-2.08,9.52-7.35-3.33-7.35-3.33Z" transform="translate(-22.36 -28.76)"/><path class="cls-4" d="M124.31,170.71c0-.05.63-.16,1.7-.63a12.87,12.87,0,0,0,4-2.78,22.78,22.78,0,0,0,4.1-6c.62-1.23,1.23-2.56,1.83-3.93a7,7,0,0,0,.74-4.36c-.16-.71-.62-1.44-1.23-1.45s-1.08.68-1.37,1.32a37,37,0,0,1-1.84,4,32,32,0,0,1-4.26,6,31.16,31.16,0,0,1-3.63,3.42c-.46.37-.84.63-1.09.81s-.4.26-.41.24.49-.43,1.37-1.21a38,38,0,0,0,3.48-3.5,33.65,33.65,0,0,0,4.12-6,39.29,39.29,0,0,0,1.8-3.95,3.9,3.9,0,0,1,.64-1,1.45,1.45,0,0,1,2.39.08,3.28,3.28,0,0,1,.54,1.17,7.44,7.44,0,0,1-.78,4.69c-.62,1.39-1.23,2.7-1.87,3.95a22.21,22.21,0,0,1-4.27,6.05,12.36,12.36,0,0,1-4.19,2.71,8.45,8.45,0,0,1-1.31.38A2.78,2.78,0,0,1,124.31,170.71Z" transform="translate(-22.36 -28.76)"/><path class="cls-4" d="M145,147.57a10.93,10.93,0,0,1,.23,1.55c.12,1,.26,2.44.41,4.23.3,3.58.6,8.54.73,14s.06,10.45-.08,14c-.06,1.8-.14,3.25-.21,4.25a8.79,8.79,0,0,1-.16,1.56,9.72,9.72,0,0,1,0-1.57c0-1.09,0-2.52.05-4.25,0-3.58,0-8.54-.08-14s-.37-10.43-.58-14c-.1-1.72-.18-3.15-.24-4.24A7.86,7.86,0,0,1,145,147.57Z" transform="translate(-22.36 -28.76)"/><path class="cls-4" d="M116.21,87.1V51.88a.63.63,0,0,0-1.25,0V87.1a.63.63,0,0,0,1.25,0Z" transform="translate(-22.36 -28.76)"/><polygon class="cls-3" points="81.69 100.87 67.95 55.99 52.24 100.68 52.06 100.61 67.97 55.37 81.87 100.81 81.69 100.87"/><path class="cls-4" d="M74.51,129.4a13.89,13.89,0,0,0,9.75,4.06H95.63s5.84-.34,8.51-3.86Z" transform="translate(-22.36 -28.76)"/><polygon class="cls-3" points="133.88 100.09 120.15 55.22 104.44 99.91 104.25 99.84 120.16 54.6 134.07 100.04 133.88 100.09"/><path class="cls-4" d="M126.71,128.63a13.86,13.86,0,0,0,9.74,4.06h11.38s5.84-.35,8.51-3.87Z" transform="translate(-22.36 -28.76)"/><rect class="cls-4" x="62.11" y="55.13" width="64.97" height="1.63"/><path class="cls-4" d="M118.48,84.93a2.89,2.89,0,1,1-2.89-3A2.95,2.95,0,0,1,118.48,84.93Z" transform="translate(-22.36 -28.76)"/><path class="cls-3" d="M118.48,84.93a6.62,6.62,0,0,0-.11-.71,3,3,0,0,0-1-1.62,2.82,2.82,0,0,0-1.21-.56,2.64,2.64,0,0,0-1.51.14,2.55,2.55,0,0,0-.72.4,3,3,0,0,0-.6.63,3.19,3.19,0,0,0-.39.81,3,3,0,0,0,0,1.82,3.13,3.13,0,0,0,.39.8,2.58,2.58,0,0,0,.6.63,2.35,2.35,0,0,0,.72.41,2.74,2.74,0,0,0,2.72-.42,3,3,0,0,0,1-1.62,6.62,6.62,0,0,0,.11-.71v.19a.9.9,0,0,1,0,.22,2,2,0,0,1,0,.31,2.66,2.66,0,0,1-.3.8,2.78,2.78,0,0,1-.73.87,2.83,2.83,0,0,1-2.81.46,3,3,0,0,1-1.37-1.07,3,3,0,0,1-.41-.84,3.05,3.05,0,0,1,0-1.89,3.06,3.06,0,0,1,.41-.83,3,3,0,0,1,.62-.65,2.66,2.66,0,0,1,.75-.42,2.85,2.85,0,0,1,1.57-.13,3,3,0,0,1,2,1.46,2.57,2.57,0,0,1,.3.8,1.87,1.87,0,0,1,0,.3,1,1,0,0,1,0,.23Z" transform="translate(-22.36 -28.76)"/><path class="cls-4" d="M92.41,83.79A2.09,2.09,0,1,1,90,82.15,2.09,2.09,0,0,1,92.41,83.79Z" transform="translate(-22.36 -28.76)"/><path class="cls-3" d="M92.41,83.79a4.13,4.13,0,0,0-.18-.48,2.06,2.06,0,0,0-2.92-.85,1.82,1.82,0,0,0-.45.38,2,2,0,0,0-.34.51,2,2,0,0,0-.15,1.25A1.94,1.94,0,0,0,89,85.7a1.64,1.64,0,0,0,.5.34,1.93,1.93,0,0,0,.56.18,2.07,2.07,0,0,0,2.37-1.92,2.91,2.91,0,0,0,0-.51,1.41,1.41,0,0,1,.06.51A2,2,0,0,1,92,85.61a2,2,0,0,1-.79.57,2,2,0,0,1-1.12.14,1.83,1.83,0,0,1-.59-.18,1.73,1.73,0,0,1-.54-.35,2.12,2.12,0,0,1-.66-1.16,2.15,2.15,0,0,1,.16-1.33,2.18,2.18,0,0,1,.35-.54,2.49,2.49,0,0,1,.48-.39,2.09,2.09,0,0,1,1.09-.3,2,2,0,0,1,1,.22,2.06,2.06,0,0,1,1,1A1.67,1.67,0,0,1,92.41,83.79Z" transform="translate(-22.36 -28.76)"/><path class="cls-4" d="M144.64,84.93a2.09,2.09,0,1,1-2.46-1.64A2.09,2.09,0,0,1,144.64,84.93Z" transform="translate(-22.36 -28.76)"/><path class="cls-3" d="M144.64,84.93a3.46,3.46,0,0,0-.18-.48,2.11,2.11,0,0,0-1-1,2,2,0,0,0-.92-.2,2,2,0,0,0-1,.3,1.92,1.92,0,0,0-.44.37,1.75,1.75,0,0,0-.34.51,2.08,2.08,0,0,0-.15,1.26,2,2,0,0,0,1.13,1.44,1.9,1.9,0,0,0,.56.17,2.12,2.12,0,0,0,1.07-.12,1.91,1.91,0,0,0,.77-.54,2.11,2.11,0,0,0,.53-1.25,2.91,2.91,0,0,0,0-.51,1.36,1.36,0,0,1,.06.51,2.12,2.12,0,0,1-1.31,1.88,2.19,2.19,0,0,1-1.12.14,2.11,2.11,0,0,1-.59-.18,2.19,2.19,0,0,1-1.19-1.52,2.11,2.11,0,0,1,.16-1.32,2,2,0,0,1,.35-.54,1.79,1.79,0,0,1,.48-.39,2.09,2.09,0,0,1,1.08-.31,2.23,2.23,0,0,1,1,.22,2.16,2.16,0,0,1,1,1A1.67,1.67,0,0,1,144.64,84.93Z" transform="translate(-22.36 -28.76)"/><path class="cls-4" d="M151.21,168.53a31.77,31.77,0,0,1,.93-3.56c.61-2.19,1.44-5.21,2.26-8.58s1.48-6.43,1.94-8.65a28.29,28.29,0,0,1,.82-3.59,3.88,3.88,0,0,1-.07,1c-.07.63-.2,1.54-.39,2.67-.37,2.24-1,5.33-1.8,8.71s-1.7,6.39-2.41,8.55c-.35,1.09-.65,2-.88,2.55A3.18,3.18,0,0,1,151.21,168.53Z" transform="translate(-22.36 -28.76)"/><path class="cls-9" d="M110.16,60.78s4.62-.89,6.22-1.48.53-2.07.53-2.07a11.61,11.61,0,0,0,1.87.09,1.52,1.52,0,0,0,1.33-2.22c-.36-.8-5-1.6-5-1.6a29.17,29.17,0,0,0,4.26-.36,1.62,1.62,0,0,0,1.06-2.75c-.44-.53-2.75-.27-2.75-.27a2.5,2.5,0,0,0,.71-2.84c-.71-1.68-3.55,1-3.55,1s-5.68,5-6.66,5.86Z" transform="translate(-22.36 -28.76)"/><path class="cls-10" d="M108.21,54.12a6.26,6.26,0,0,1,.86-.87L111.56,51c1.08-1,2.33-2.14,3.85-3.43a6.15,6.15,0,0,1,1.34-.82,2.26,2.26,0,0,1,.84-.22,1.11,1.11,0,0,1,.89.43,2.44,2.44,0,0,1,.33,1.79,3,3,0,0,1-.94,1.61l-.19-.44a10.48,10.48,0,0,1,1.49-.07,5.38,5.38,0,0,1,.78.07,2.83,2.83,0,0,1,.42.13,1,1,0,0,1,.38.34,2.31,2.31,0,0,1,.38,1.65,1.52,1.52,0,0,1-.43.83,2.16,2.16,0,0,1-.77.45,7.16,7.16,0,0,1-1,.2l-1,.15-1.92.28V53.4a22.24,22.24,0,0,1,2.53.6,6.78,6.78,0,0,1,1.2.47,1.41,1.41,0,0,1,.56.49,1.81,1.81,0,0,1,.18.66,1.93,1.93,0,0,1-.32,1.26,1.56,1.56,0,0,1-1.11.64,12,12,0,0,1-2.18-.09l.21-.32a2,2,0,0,1,.37,1,1.17,1.17,0,0,1-.42,1,5,5,0,0,1-1.7.66c-1.07.27-2,.46-2.76.61s-1.37.25-1.78.31a2.49,2.49,0,0,1-.63.06,2.62,2.62,0,0,1,.61-.18l1.74-.43c.76-.18,1.68-.4,2.73-.7a4.73,4.73,0,0,0,1.54-.61c.43-.33.31-1,0-1.51l-.26-.38L117,57a13.8,13.8,0,0,0,2,.06,1.36,1.36,0,0,0,.87-1.9c0-.08-.21-.19-.36-.28a6.91,6.91,0,0,0-1.11-.42,21.35,21.35,0,0,0-2.48-.57l-1.46-.26,1.47-.25c1.24-.2,2.6-.35,3.83-.62a1.13,1.13,0,0,0,.86-.87,1.81,1.81,0,0,0-.3-1.27c-.14-.27-.72-.3-1.17-.32a11,11,0,0,0-1.41,0l-.78.08.59-.52a2.48,2.48,0,0,0,.79-1.32,2,2,0,0,0-.24-1.41c-.22-.34-.74-.27-1.18-.08a6.1,6.1,0,0,0-1.25.75c-1.48,1.23-2.8,2.4-3.9,3.33l-2.59,2.18A6.87,6.87,0,0,1,108.21,54.12Z" transform="translate(-22.36 -28.76)"/><path class="cls-10" d="M108.86,58.28a10.67,10.67,0,0,1,3.92-1.06,10.65,10.65,0,0,1,4.06,0,31,31,0,0,1-4,.56A31.72,31.72,0,0,1,108.86,58.28Z" transform="translate(-22.36 -28.76)"/><path class="cls-10" d="M109,54.63a8.28,8.28,0,0,1,3.11-.8,8.18,8.18,0,0,1,3.21,0,12.55,12.55,0,0,1-3.14.56A12.75,12.75,0,0,1,109,54.63Z" transform="translate(-22.36 -28.76)"/><path class="cls-10" d="M112.2,51.16a5.58,5.58,0,0,1,2.85-1,5.5,5.5,0,0,1,3,.11,24.45,24.45,0,0,1-3,.41A24.35,24.35,0,0,1,112.2,51.16Z" transform="translate(-22.36 -28.76)"/></g></svg>