<svg width="43" height="43" viewBox="0 0 43 43" fill="none" xmlns="http://www.w3.org/2000/svg">
<path d="M18.5479 2.00155C22.4996 2.00155 26.4526 2.00155 30.407 2.00155C33.0355 2.00155 34.999 3.96083 35 6.59452C35 14.5327 35 22.4706 35 30.4081C35 33.0356 33.0335 35 30.4059 35C22.4676 35 14.5296 35 6.59201 35C3.9655 35 2 33.0335 2 30.406C2 22.4692 2 14.5313 2 6.59246C2 3.96495 3.9655 2.00258 6.59408 2.00155C10.5773 1.99948 14.5619 1.99948 18.5479 2.00155ZM19.5565 16.6941C19.5565 16.3136 19.5565 16.095 19.5565 15.8764C19.5482 15.1772 19.3709 15.0019 18.6624 14.9998C17.8031 14.9998 16.9437 14.9998 16.0844 14.9998C15.4265 14.9998 15.2058 15.2061 15.2058 15.8506C15.2058 19.8874 15.2058 23.9252 15.2058 27.9641C15.2058 28.5828 15.4316 28.8045 16.0421 28.8087C16.9011 28.8149 17.7601 28.8087 18.6201 28.8087C19.376 28.8087 19.5482 28.6344 19.5482 27.8589C19.5482 25.8316 19.5482 23.8042 19.5482 21.7748C19.5482 20.9726 19.7122 20.2023 20.1546 19.5186C20.6516 18.7514 21.3817 18.4513 22.2779 18.54C23.206 18.6317 23.7783 19.1587 24.0577 20.0249C24.2165 20.552 24.2913 21.1007 24.2795 21.6511C24.2733 23.7479 24.2733 25.8446 24.2795 27.9414C24.2795 28.588 24.494 28.7994 25.1457 28.8035C26.0566 28.8076 26.9672 28.8076 27.8774 28.8035C28.5332 28.8035 28.7271 28.6035 28.7271 27.9352C28.7271 25.6666 28.725 23.3979 28.7209 21.1293C28.7211 20.3389 28.6465 19.5504 28.4982 18.774C28.0857 16.623 26.8946 15.2463 25.0044 14.9235C22.9678 14.5781 21.0435 14.7493 19.5565 16.6941ZM13.2382 21.9532C13.2382 19.9259 13.2382 17.8979 13.2382 15.8691C13.2382 15.235 13 14.9957 12.373 14.9916C11.4965 14.9854 10.6203 14.9854 9.74444 14.9916C9.14221 14.9916 8.90297 15.235 8.90297 15.8372C8.90297 19.874 8.90297 23.9108 8.90297 27.9476C8.90297 28.5663 9.14634 28.7984 9.78982 28.8025C10.6313 28.808 11.4731 28.808 12.3153 28.8025C13.0093 28.8025 13.2372 28.5725 13.2434 27.8744C13.242 25.9062 13.2403 23.9338 13.2382 21.9574V21.9532ZM8.27187 10.9802C8.26946 11.5325 8.43065 12.0732 8.73511 12.534C9.03958 12.9949 9.47368 13.3552 9.98268 13.5697C10.4917 13.7841 11.0528 13.843 11.5952 13.739C12.1377 13.635 12.6372 13.3727 13.0307 12.9851C13.4243 12.5976 13.6943 12.1022 13.8067 11.5615C13.919 11.0207 13.8688 10.4588 13.6622 9.94652C13.4557 9.43428 13.102 8.99468 12.646 8.68314C12.1899 8.3716 11.6518 8.20209 11.0995 8.19598C10.7299 8.18911 10.3627 8.25611 10.0194 8.39306C9.67604 8.53001 9.36352 8.73414 9.10014 8.99348C8.83677 9.25282 8.62783 9.56214 8.4856 9.9033C8.34337 10.2445 8.2707 10.6106 8.27187 10.9802Z" fill="white"/>
</svg>
