<svg width="658" height="412" viewBox="0 0 658 412" fill="none" xmlns="http://www.w3.org/2000/svg">
<line x1="411" y1="309.5" x2="62" y2="309.5" stroke="black" stroke-width="7"/>
<line x1="617" y1="309.5" x2="268" y2="309.5" stroke="black" stroke-width="7"/>
<rect x="345" y="290" width="37" height="16" fill="black"/>
<rect x="551" y="290" width="37" height="16" fill="black"/>
<rect x="277" y="290" width="37" height="16" fill="black"/>
<rect x="483" y="290" width="37" height="16" fill="black"/>
<rect x="209" y="290" width="37" height="16" fill="black"/>
<rect x="415" y="290" width="37" height="16" fill="black"/>
<rect x="141" y="290" width="37" height="16" fill="black"/>
<rect x="347" y="290" width="37" height="16" fill="black"/>
<rect x="72.9995" y="290" width="37" height="16" fill="black"/>
<rect x="279" y="290" width="37" height="16" fill="black"/>
<path d="M496.336 350H578.585C579.69 353.636 578.585 355 575.335 355C550.02 354.927 524.706 354.927 499.391 355C495.962 355.018 495.556 353.345 496.336 350Z" fill="black"/>
<path d="M184 351.156C182.377 352.733 181.224 354.836 180.056 354.853C153.647 355.046 127.254 354.993 100.619 354.993C99.8719 352.173 99.0765 349.983 102.94 350L181.728 350.123C182.516 350.382 183.277 350.728 184 351.156Z" fill="black"/>
<path d="M524.249 341.972C516.006 341.972 507.747 342.075 499.521 341.886C498.32 341.886 497.168 340.498 496 339.76C497.168 338.835 498.337 337.137 499.521 337.137C516.168 336.954 532.821 336.954 549.479 337.137C550.664 337.137 551.832 338.526 553 339.263C551.832 340.172 550.664 341.852 549.463 341.886C541.058 342.075 532.653 341.972 524.249 341.972Z" fill="black"/>
<path d="M182.492 337.018C183.614 340.401 182.964 342 179.664 342C162.954 341.926 146.234 341.926 129.502 342C126.349 342 125.357 340.713 126.397 337L182.492 337.018Z" fill="black"/>
<path d="M210.656 373.59C207.706 373.59 205.071 373.256 202.75 372.587C200.469 371.918 198.443 370.955 196.673 369.696C194.942 368.437 193.389 366.962 192.012 365.271L198.856 357.542C200.823 360.099 202.848 361.81 204.933 362.675C207.018 363.501 209.043 363.914 211.01 363.914C211.875 363.914 212.662 363.835 213.37 363.678C214.078 363.481 214.609 363.186 214.963 362.793C215.356 362.36 215.553 361.829 215.553 361.2C215.553 360.649 215.396 360.177 215.081 359.784C214.766 359.391 214.334 359.056 213.783 358.781C213.232 358.466 212.623 358.191 211.954 357.955C211.285 357.719 210.617 357.542 209.948 357.424C209.279 357.267 208.63 357.109 208.001 356.952C205.68 356.441 203.655 355.792 201.924 355.005C200.193 354.218 198.738 353.294 197.558 352.232C196.417 351.131 195.552 349.872 194.962 348.456C194.411 347.04 194.136 345.447 194.136 343.677C194.136 341.75 194.588 339.98 195.493 338.367C196.398 336.754 197.597 335.378 199.092 334.237C200.587 333.057 202.298 332.172 204.225 331.582C206.192 330.953 208.237 330.638 210.361 330.638C213.272 330.638 215.75 330.933 217.795 331.523C219.84 332.074 221.551 332.88 222.928 333.942C224.344 335.004 225.563 336.243 226.586 337.659L219.624 344.385C218.798 343.48 217.893 342.733 216.91 342.143C215.966 341.553 214.983 341.12 213.96 340.845C212.937 340.53 211.895 340.373 210.833 340.373C209.85 340.373 208.984 340.471 208.237 340.668C207.529 340.865 206.978 341.16 206.585 341.553C206.192 341.907 205.995 342.399 205.995 343.028C205.995 343.579 206.211 344.07 206.644 344.503C207.077 344.896 207.627 345.231 208.296 345.506C208.965 345.781 209.673 346.017 210.42 346.214C211.207 346.371 211.915 346.509 212.544 346.627C214.707 347.06 216.674 347.63 218.444 348.338C220.253 349.007 221.827 349.872 223.164 350.934C224.501 351.957 225.524 353.215 226.232 354.71C226.94 356.205 227.294 357.955 227.294 359.961C227.294 362.911 226.547 365.409 225.052 367.454C223.597 369.46 221.61 370.994 219.093 372.056C216.615 373.079 213.803 373.59 210.656 373.59ZM243.56 373V341.789H231.052V331.7H268.163V341.789H255.242V373H243.56ZM266.37 373L282.831 331.7H292.271L308.614 373H296.991L289.911 353.825C289.517 352.763 289.163 351.78 288.849 350.875C288.534 349.97 288.239 349.085 287.964 348.22C287.688 347.355 287.413 346.47 287.138 345.565C286.902 344.66 286.685 343.677 286.489 342.615L288.377 342.556C288.141 343.697 287.885 344.719 287.61 345.624C287.374 346.529 287.118 347.394 286.843 348.22C286.567 349.046 286.253 349.911 285.899 350.816C285.584 351.721 285.23 352.724 284.837 353.825L277.757 373H266.37ZM274.394 366.156L277.875 357.896H296.991L300.236 366.156H274.394ZM319.327 373V341.789H306.819V331.7H343.93V341.789H331.009V373H319.327ZM350.149 373V363.442H357.347V341.258H350.149V331.7H376.168V341.258H369.029V363.442H376.168V373H350.149ZM404.086 373.59C400.9 373.59 397.97 373.059 395.295 371.997C392.621 370.935 390.3 369.44 388.333 367.513C386.367 365.586 384.833 363.324 383.731 360.728C382.669 358.093 382.138 355.221 382.138 352.114C382.138 348.967 382.669 346.096 383.731 343.5C384.833 340.904 386.367 338.642 388.333 336.715C390.3 334.788 392.621 333.293 395.295 332.231C397.97 331.169 400.9 330.638 404.086 330.638C407.272 330.638 410.183 331.169 412.818 332.231C415.493 333.293 417.814 334.788 419.78 336.715C421.786 338.642 423.32 340.904 424.382 343.5C425.444 346.096 425.975 348.948 425.975 352.055C425.975 355.202 425.444 358.093 424.382 360.728C423.32 363.324 421.786 365.586 419.78 367.513C417.814 369.44 415.493 370.935 412.818 371.997C410.183 373.059 407.272 373.59 404.086 373.59ZM404.086 362.734C405.502 362.734 406.82 362.478 408.039 361.967C409.259 361.456 410.321 360.728 411.225 359.784C412.13 358.801 412.818 357.66 413.29 356.362C413.802 355.064 414.057 353.648 414.057 352.114C414.057 350.58 413.802 349.164 413.29 347.866C412.818 346.568 412.13 345.447 411.225 344.503C410.321 343.52 409.259 342.772 408.039 342.261C406.82 341.75 405.502 341.494 404.086 341.494C402.631 341.494 401.294 341.75 400.074 342.261C398.855 342.772 397.793 343.52 396.888 344.503C395.984 345.447 395.276 346.568 394.764 347.866C394.292 349.125 394.056 350.541 394.056 352.114C394.056 353.648 394.292 355.064 394.764 356.362C395.276 357.66 395.984 358.801 396.888 359.784C397.793 360.728 398.855 361.456 400.074 361.967C401.294 362.478 402.631 362.734 404.086 362.734ZM433.303 373V331.7H443.746L463.806 359.194L461.387 358.604C461.19 357.149 461.013 355.831 460.856 354.651C460.738 353.471 460.62 352.35 460.502 351.288C460.423 350.226 460.344 349.164 460.266 348.102C460.226 347.04 460.207 345.88 460.207 344.621C460.207 343.362 460.207 341.946 460.207 340.373V331.7H471.476V373H460.915L439.321 343.5L443.392 344.503C443.588 346.116 443.746 347.512 443.864 348.692C444.021 349.872 444.139 350.934 444.218 351.878C444.296 352.822 444.355 353.727 444.395 354.592C444.473 355.457 444.513 356.382 444.513 357.365C444.552 358.348 444.572 359.469 444.572 360.728V373H433.303Z" fill="#29A6EC"/>
<g clip-path="url(#clip0_198_23)">
<path d="M61.0825 182.47C61.0825 180.809 61.2225 179.147 61.2225 177.485C61.2225 136.144 61.2225 94.8057 61.2225 53.4699V48.741C58.5029 46.3571 54.5733 48.6711 52.1436 46.6988C55.8531 43.849 60.6326 44.5479 65.072 44.5479C109.513 44.4806 153.958 44.4806 198.406 44.5479C330.13 44.5479 461.85 44.5634 593.568 44.5945C598.757 44.5945 604.376 43.4996 608.926 46.6988C608.506 46.9395 608.146 47.3045 607.676 47.4054C606.416 47.6694 604.896 47.5685 603.867 48.0732C602.307 48.8497 602.937 50.3328 602.937 51.5131C602.937 94.7643 602.937 138.015 602.937 181.267C602.937 181.678 603.007 182.098 603.037 182.509C593.978 186.135 584.779 185.382 575.53 183.045C573.04 180.529 573.37 177.539 573.34 174.659C573.23 165.504 573.48 156.341 573.23 147.186C572.94 136.594 567.571 132.432 554.063 132.308C533.165 132.161 512.268 132.262 491.36 132.262H121.605C118.385 132.262 115.176 132.199 111.956 132.316C100.258 132.72 94.7884 136.882 94.5284 145.928C94.2584 155.495 94.5284 165.069 94.4184 174.659C94.4184 177.547 94.7085 180.529 92.2188 183.06C81.8 185.32 71.4213 186.306 61.0825 182.47Z" fill="#E1524C"/>
<path d="M642.052 210.634C642.052 216.233 641.972 221.831 641.892 227.43C641.782 234.938 643.142 234.17 633.603 234.247C631.513 234.247 629.293 233.89 627.504 235.164C625.284 236.134 622.844 235.94 620.444 235.94C568.521 235.769 516.587 235.94 464.663 235.863C456.664 235.863 448.665 235.536 440.916 237.617C440.296 234.31 440.296 234.302 437.087 234.24C435.487 234.24 433.877 234.24 432.267 234.24H226.292C224.693 235.979 225.882 237.493 225.423 238.899C218.833 235.451 211.354 235.855 203.935 235.863C155.781 235.863 107.63 235.863 59.4828 235.863C51.5437 235.863 43.5846 235.342 37.2654 240.157C37.3653 238.526 37.4654 236.895 37.5854 234.853C34.5858 233.844 31.3761 234.341 28.3065 234.294C17.4978 234.139 18.9776 235.265 18.8776 227.034C18.8076 220.822 18.8776 214.61 18.8776 208.343C18.8776 206.487 19.1675 204.593 17.8777 202.908C15.7299 200.246 14.6445 197.149 14.7581 194.009C16.9278 193.83 18.8676 193.636 18.9076 191.268C18.9076 188.426 18.2877 185.53 19.5075 182.726C20.9801 181.706 22.8564 181.107 24.8269 181.026C31.5461 180.7 38.2752 180.816 45.0044 180.917C48.394 180.917 51.9036 180.63 54.6833 182.695V182.82C57.8829 185.328 57.3729 188.558 57.4929 191.641C57.8128 200.407 57.9928 200.563 69.4914 200.648C71.0912 200.648 72.7011 200.648 74.3109 200.648H587.059C588.138 200.648 586.799 200.648 587.868 200.648C605.116 200.695 604.006 200.501 603.956 189.125C603.956 186.795 604.316 184.536 606.486 182.719L606.436 182.626C608.846 181.034 611.736 180.886 614.695 180.925C621.384 180.793 628.074 180.746 634.763 180.925C637.203 181.026 639.652 181.088 641.462 182.657C641.655 188.765 641.842 194.879 642.022 200.998C644.512 204.212 645.161 207.427 642.052 210.634Z" fill="#3A3B3F"/>
<path d="M606.486 182.703C606.486 188.31 606.486 193.924 606.416 199.538C606.416 202.069 605.766 202.527 602.777 202.644C600.637 202.722 598.497 202.69 596.347 202.69H64.8122C62.4125 202.69 60.0028 202.69 57.5931 202.613C57.1904 202.64 56.7848 202.599 56.4049 202.491C56.025 202.384 55.68 202.213 55.3941 201.991C55.1083 201.769 54.8885 201.501 54.7502 201.206C54.6118 200.911 54.5584 200.596 54.5935 200.283C54.5935 194.467 54.6534 188.636 54.6934 182.835L61.0426 182.509C71.2372 183.009 81.4615 183.027 91.6589 182.564C94.2486 181.011 97.2882 180.871 100.378 180.917C115.043 180.669 129.681 180.669 144.293 180.917C146.292 180.876 148.319 180.876 150.372 180.917C168.7 180.684 187.037 180.646 205.365 180.917C207.905 180.84 210.454 180.824 212.994 180.917C231.352 180.684 249.71 180.646 268.067 180.917C270.607 180.84 273.157 180.824 275.697 180.917C294.054 180.684 312.412 180.646 330.77 180.917C333.32 180.84 335.859 180.824 338.409 180.917C356.767 180.684 375.124 180.646 393.482 180.917C396.032 180.84 398.572 180.824 401.121 180.917C419.479 180.684 437.837 180.646 456.195 180.917C458.734 180.84 461.284 180.824 463.824 180.917C482.161 180.684 500.509 180.646 518.817 180.917C521.337 180.847 523.816 180.816 526.396 180.917C539.954 180.723 553.523 180.653 567.081 180.917C570.081 180.917 573.23 180.809 575.71 182.587C584.801 183.023 593.92 182.997 603.007 182.509L606.486 182.703Z" fill="#E1524C"/>
<path d="M608.936 46.691H593.678H70.6115C64.4522 46.691 58.303 46.691 52.1438 46.7454C51.8054 46.1983 51.5762 45.6144 51.4639 45.0138C51.4639 34.8494 49.4642 36.4723 61.9827 36.4024C73.9112 36.3014 85.8397 36.4024 97.7682 36.3558C101.318 34.531 105.347 34.5698 109.367 34.5698C157.721 34.5698 206.075 34.5698 254.429 34.5698C258.429 34.5698 262.488 34.4611 265.998 36.4024H412.7C414.03 36.4024 415.37 36.48 416.699 36.5266C420.269 34.8183 424.219 34.5776 428.288 34.5776C477.229 34.5776 526.173 34.5776 575.12 34.5776C578.87 34.5776 582.649 34.5776 585.879 36.4179C592.818 36.4179 599.747 36.4179 606.676 36.4179C608.576 36.4179 609.676 37.1944 609.556 38.7474C609.356 41.3332 610.146 44.0432 608.936 46.691Z" fill="#3A3C3F"/>
<path d="M37.2655 240.118C39.3652 238.984 38.6653 237.113 39.2652 235.575C39.3726 235.165 39.6474 234.792 40.0491 234.512C40.4507 234.232 40.9577 234.061 41.4949 234.022C43.0947 233.929 44.6946 233.875 46.2944 233.875H216.474C217.274 233.875 218.083 233.914 218.883 233.875C221.633 233.743 223.623 234.348 223.823 236.81C223.882 237.223 224.057 237.622 224.335 237.977C224.613 238.332 224.988 238.636 225.433 238.868C225.933 240.032 226.522 241.197 226.902 242.362C228.596 247.539 230.262 252.744 231.902 257.977C232.392 259.53 231.702 260.058 229.492 260.206C226.552 260.408 224.493 259.717 222.933 257.62C221.933 256.215 221.093 254.615 219.183 253.738C216.775 252.996 214.093 252.996 211.684 253.738C205.615 254.934 199.496 255.85 193.197 255.656C189.984 255.702 186.774 255.702 183.568 255.656C177.43 255.9 171.296 255.13 165.57 253.396C155.851 251.688 147.022 256.688 137.393 255.648C134.114 255.795 130.834 255.687 127.565 255.648C121.17 255.762 114.797 255.045 108.707 253.528C105.767 252.86 102.708 253.311 99.7779 253.202C97.3982 253.652 95.0685 254.273 92.6688 254.716C91.8777 254.913 91.0689 255.063 90.249 255.166C86.9285 255.442 83.5892 255.559 80.2502 255.516C76.8906 255.578 73.5211 255.562 70.1615 255.516C66.8699 255.555 63.5781 255.446 60.3027 255.19C59.5187 255.103 58.7435 254.973 57.983 254.802C55.8033 254.242 53.5036 254.025 51.3538 253.326C48.7841 253.326 46.1344 252.612 43.6847 253.808C42.6085 254.7 41.6536 255.675 40.8351 256.719C38.7454 260.066 35.6657 261.091 30.9062 259.507C32.2761 255.221 33.606 250.896 35.0658 246.594C35.7857 244.459 35.5357 242.082 37.2655 240.118Z" fill="#2B2F32"/>
<path d="M440.917 237.625C441.561 236.981 442.133 236.295 442.626 235.575C442.852 235.088 443.268 234.668 443.817 234.374C444.366 234.08 445.02 233.927 445.686 233.937C447.556 233.937 449.426 233.882 451.295 233.882H617.355C620.815 233.882 624.354 233.587 627.484 235.164C628.174 237.353 628.884 239.535 629.564 241.725C631.393 247.665 633.213 253.613 635.023 259.523C633.853 260.299 632.493 260.136 631.193 260.206C630.279 260.306 629.347 260.191 628.517 259.877C627.687 259.563 626.997 259.064 626.534 258.443C625.274 256.89 623.834 255.423 622.475 253.908C619.825 252.588 617.015 253.28 614.246 253.528C609.006 254.895 603.707 255.904 598.107 255.213C597.263 255.128 596.428 254.996 595.608 254.817C586.399 253.823 576.86 256.851 567.851 253.466C564.062 253.466 560.092 252.2 556.633 254.468C555.044 255.158 553.263 255.537 551.443 255.57C547.774 255.687 544.114 255.663 540.444 255.617C536.755 255.702 533.065 255.725 529.386 255.617C523.332 255.913 517.268 255.19 511.608 253.497C508.398 252.984 505.169 253.217 501.939 253.334C495.779 255.031 489.265 255.821 482.731 255.663C479.472 255.749 476.212 255.718 472.953 255.663C467.085 255.785 461.237 255.091 455.685 253.613C452.575 252.837 448.976 252.511 445.786 254.048C445.126 254.933 444.526 255.858 443.786 256.712C440.667 260.361 440.657 260.353 433.857 259.585C435.377 254.631 436.777 249.661 438.447 244.746C439.297 242.37 439.147 239.792 440.917 237.625Z" fill="#2B2F32"/>
<path d="M265.998 36.3559C263.328 36.418 260.658 36.5345 257.999 36.5345C207.525 36.5345 157.048 36.5345 106.567 36.5345C103.637 36.5345 100.708 36.3869 97.7681 36.3093C97.918 34.4535 97.9981 32.5898 98.2081 30.7418C98.738 26.0206 102.098 23.0932 108.077 22.3633C110.454 22.134 112.851 22.0483 115.246 22.1071C136.837 22.1071 158.427 22.1071 180.018 22.1071C182.148 22.1071 184.278 22.1071 186.407 22.045C187.075 22.0512 187.719 21.8523 188.198 21.4916C188.677 21.1308 188.954 20.6376 188.967 20.1192C189.307 18.5119 188.517 16.788 189.827 15.2816C192.737 20.5308 198.316 21.0433 204.825 21.0821C217.044 21.1442 229.322 20.0882 241.511 21.5868C244.34 22.3633 247.28 21.9984 250.18 22.1226C252.294 22.1355 254.403 22.2784 256.489 22.5497C258.856 22.8933 261.012 23.8307 262.627 25.218C264.242 26.6053 265.226 28.3658 265.428 30.2293C265.778 32.2482 265.828 34.3059 265.998 36.3559Z" fill="#E1524C"/>
<path d="M585.879 36.3791C583.749 36.4335 581.609 36.5344 579.479 36.5344C526.286 36.5344 473.092 36.5344 419.899 36.5344C418.829 36.5344 417.769 36.48 416.699 36.4567C418.239 34.795 417.639 32.8615 417.849 31.0212C418.479 25.6556 422.209 22.7903 429.128 22.3865C430.988 22.2778 432.867 22.3399 434.737 22.3399H567.891C570.031 22.3399 572.17 22.3399 574.3 22.4098C579.829 22.5807 584.129 25.5935 585.159 30.1748C585.619 32.2326 585.659 34.3214 585.879 36.3791Z" fill="#E1524C"/>
<path d="M226.002 0C227.372 3.99899 228.822 7.97468 230.102 11.9892C230.202 12.5995 230.6 13.1566 231.215 13.5453C231.829 13.9341 232.612 14.1248 233.402 14.078C233.931 14.078 234.461 14.078 235.001 14.078C242.31 13.9538 241.631 14.078 241.641 19.661C241.641 20.2822 241.581 20.9034 241.551 21.5246C239.409 22.3706 237.034 22.7996 234.631 22.7748C221.573 22.7205 208.505 22.7748 195.446 22.7748H194.646C191.027 22.6195 190.387 22.1924 190.107 19.5912C189.947 18.1546 189.907 16.7026 189.817 15.2583C191.487 13.2083 194.126 14.2876 196.316 14.1712C198.506 14.0547 199.626 13.4568 200.186 11.7718C201.445 7.97468 202.965 4.22417 204.305 0.434839" fill="#3B3C40"/>
<path d="M614.725 182.4L606.436 182.61C606.436 170.543 606.469 158.479 606.536 146.417C606.536 143.925 606.466 141.432 607.736 139.041C610.506 133.807 615.205 130.39 622.644 129.994C627.983 129.715 633.353 129.909 638.712 129.94C640.512 129.94 641.712 130.608 641.842 132.145C641.842 132.976 641.932 133.807 641.932 134.638C641.892 149.614 641.842 164.593 641.782 179.574C641.782 180.607 641.572 181.639 641.462 182.68L635.743 182.424C632.473 180.211 633.053 177.167 633.013 174.325C632.893 164.813 633.013 155.293 632.923 145.781C632.923 142.574 633.673 138.792 627.154 138.528C621.414 138.295 617.845 140.493 617.315 145.586C616.425 154.252 617.205 162.957 616.905 171.638C616.785 175.272 618.055 179.139 614.725 182.4Z" fill="#EFCA2D"/>
<path d="M54.6831 182.672L45.6842 182.424C42.2846 180.257 42.9145 177.182 42.8645 174.348C42.7345 166.047 42.8646 157.746 42.8046 149.453C42.9273 147.373 42.7361 145.288 42.2347 143.241C40.9749 139.134 36.9952 138.427 32.3758 138.544C27.5564 138.668 26.9565 141.316 26.8965 144.173C26.7165 154.128 26.8965 164.09 26.7865 174.045C26.7865 176.903 27.3564 179.916 24.6668 182.385L19.4775 182.641C19.3775 176.615 19.2274 170.59 19.1774 164.564C19.1108 154.796 19.0775 145.025 19.0775 135.251C19.0708 134.005 19.1643 132.761 19.3575 131.524C19.3975 131.105 19.6386 130.713 20.0329 130.425C20.4273 130.138 20.9463 129.976 21.4872 129.971C27.9064 129.699 34.3856 129.264 40.7049 130.25C47.2541 131.275 51.4336 134.715 53.3333 139.693C54.2057 142.313 54.5862 145.017 54.4632 147.722C54.5132 159.385 54.6131 171.025 54.6831 182.672Z" fill="#EFCA2D"/>
<path d="M136.983 253.831C141.663 253.544 146.322 253.512 150.981 252.852C155.641 252.192 160.9 252.689 165.87 252.682L166.41 253.458L165.81 254.18C162.196 253.546 158.453 253.493 154.811 254.025C151.701 255.399 152.241 257.907 151.671 260.082C149.672 267.583 142.093 272.785 132.804 272.987C122.355 273.22 115.186 268.988 112.686 260.804C111.866 258.102 111.016 255.586 108.007 253.815C107.537 253.66 107.337 253.458 107.427 253.217C107.517 252.977 107.637 252.829 107.777 252.829C109.846 252.829 112.076 252.433 113.966 252.891C118.325 253.947 122.735 253.551 127.124 253.745C129.124 255.819 126.454 260.299 132.004 260.346C137.553 260.392 135.263 255.997 136.983 253.831Z" fill="#656A6D"/>
<path d="M445.816 254.017C446.044 253.538 446.465 253.128 447.016 252.849C447.567 252.569 448.219 252.434 448.876 252.464C452.265 252.464 455.805 252.123 459.004 252.759C463.654 253.668 468.313 253.489 473.003 253.745C473.334 254.064 473.551 254.444 473.633 254.848C474.003 257.178 473.373 260.284 477.922 260.284C482.472 260.284 481.712 257.084 482.112 254.763C482.203 254.362 482.446 253.991 482.811 253.699C487.201 253.458 491.62 253.893 495.98 252.821C497.87 252.356 500.099 252.744 502.169 252.744C502.559 253.031 502.649 253.264 502.449 253.458C502.391 253.53 502.314 253.59 502.222 253.636C502.131 253.682 502.027 253.711 501.919 253.722C498.99 255.477 498.11 257.97 497.26 260.656C494.83 268.421 486.801 273.142 477.052 272.878C467.833 272.622 460.434 267.521 458.295 259.981C457.685 257.838 458.204 255.322 455.105 253.963C452.038 253.472 448.873 253.491 445.816 254.017Z" fill="#656A6D"/>
<path d="M642.052 210.634V201.013C648.231 200.858 651.051 198.078 651.831 193.582C651.998 192.359 652.333 191.154 652.83 189.987C653.26 189.024 654.56 189.21 655.6 189.21C655.862 189.18 656.13 189.19 656.387 189.24C656.644 189.29 656.886 189.38 657.098 189.504C657.31 189.627 657.489 189.782 657.623 189.96C657.757 190.137 657.844 190.334 657.88 190.538C657.935 190.743 657.965 190.951 657.97 191.159C657.97 200.92 657.97 210.681 657.97 220.449C657.97 222.002 656.84 222.615 654.9 222.491C653.74 222.414 652.77 222.103 652.461 221.218C652.136 220.21 651.912 219.185 651.791 218.151C651.111 213.639 648.191 210.867 642.052 210.634Z" fill="#313436"/>
<path d="M14.7583 193.931C17.0581 195.484 18.5479 197.239 17.9979 199.763C17.8602 200.795 17.8201 201.833 17.878 202.869C10.5389 203.04 6.56933 205.975 5.9994 211.651C5.87462 212.475 5.64011 213.287 5.29953 214.074C4.90958 215.13 3.69973 214.967 2.67986 215.029C2.15746 215.113 1.61325 215.041 1.15685 214.826C0.700442 214.612 0.365785 214.271 0.220194 213.872C0.0494936 213.263 -0.0211434 212.639 0.0101367 212.016C0.0101367 202.885 0.0101367 193.745 0.0101367 184.613C0.0101367 183.425 -0.149785 182.067 2.06994 181.764C4.28967 181.461 5.14951 182.067 5.75944 184.093C5.9616 184.695 6.10537 185.307 6.18944 185.926C6.59939 190.173 9.64896 192.674 14.7583 193.931Z" fill="#2E3134"/>
<path d="M455.035 254.017C459.814 254.281 460.134 254.289 460.034 257.123C459.932 259.096 460.393 261.063 461.383 262.882C462.373 264.701 463.869 266.327 465.763 267.645C471.213 271.752 477.712 272.482 484.291 270.479C490.87 268.476 495.29 264.64 495.64 258.738C495.64 258.109 495.64 257.488 495.64 256.867C495.88 254.359 495.96 254.289 499.419 253.815C500.212 253.743 501.011 253.717 501.809 253.738C501.809 255.182 501.809 256.642 501.649 258.086C500.849 266.527 493.57 275.091 478.922 275.814C468.293 276.326 458.324 271.085 455.275 261.969C454.295 259.381 454.212 256.638 455.035 254.017Z" fill="#929BA2"/>
<path d="M212.644 253.955C211.834 256.774 212.354 259.67 211.244 262.535C208.395 269.904 199.926 276.248 187.907 275.884C174.409 275.464 167.18 268.018 165.59 260.858C165.08 258.529 164.78 256.362 165.84 254.149C165.752 254.031 165.706 253.897 165.706 253.761C165.706 253.625 165.752 253.491 165.84 253.373C172.399 252.332 172.339 256.028 173.129 259.336C174.419 264.772 178.658 268.235 185.597 269.384C192.086 270.456 198.376 268.033 201.885 263.491C203.125 261.887 203.84 260.071 203.965 258.203C204.245 254.32 206.605 252.534 211.714 253.334L212.644 253.955Z" fill="#929BA2"/>
<path d="M98.6079 254.072C98.5379 255.726 98.538 257.38 98.398 259.026C98.0098 263.629 95.3812 267.946 91.0455 271.1C86.7097 274.254 80.9915 276.009 75.0508 276.009C69.1102 276.009 63.392 274.254 59.0562 271.1C54.7205 267.946 52.0919 263.629 51.7037 259.026C51.5537 257.38 51.5636 255.726 51.4937 254.072L52.3036 253.373C54.3034 253.373 56.3031 252.783 58.1229 253.916C59.4627 255.609 58.8028 257.574 59.3228 259.352C61.0926 265.642 67.1518 269.64 75.1408 269.664C83.3998 269.664 88.9592 265.999 90.839 259.36C91.3489 257.543 90.6989 255.578 92.0488 253.924C93.5286 252.814 95.3684 253.419 97.0482 253.272C97.3818 253.267 97.7095 253.341 97.988 253.484C98.2665 253.626 98.4826 253.831 98.6079 254.072Z" fill="#939CA3"/>
<path d="M108.077 253.815C109.396 253.877 110.736 253.877 112.076 254.033C112.609 254.065 113.109 254.245 113.486 254.541C113.862 254.836 114.089 255.226 114.126 255.64C114.266 256.867 114.196 258.117 114.386 259.336C115.256 264.943 118.865 269.05 125.944 270.696C132.334 272.187 138.483 271.869 143.762 268.041C147.872 265.051 150.172 261.642 149.962 257.17C149.832 254.351 150.162 254.336 154.961 254.017C154.961 255.469 155.121 256.921 155.061 258.373C154.661 267.653 146.482 274.765 134.133 275.829C123.785 276.722 113.716 271.947 109.726 263.646C108.097 260.416 108.277 257.123 108.077 253.815Z" fill="#929BA2"/>
<path d="M551.813 253.87L556.092 253.714C556.275 253.6 556.485 253.516 556.711 253.467C556.937 253.418 557.173 253.406 557.405 253.431C557.638 253.455 557.861 253.517 558.062 253.611C558.262 253.705 558.436 253.83 558.572 253.978C558.432 255.826 558.492 257.706 558.132 259.523C556.362 268.406 549.133 275.301 535.645 275.767C524.426 276.155 516.027 271.745 512.228 262.698C511.108 260.043 511.578 256.976 511.328 254.095L512.068 253.388C518.277 252.441 517.907 256.207 518.877 259.088C521.047 265.486 525.506 268.91 532.695 269.485C539.264 270.013 544.694 268.274 548.443 263.918C551.083 260.874 550.363 257.123 551.813 253.87Z" fill="#929BA2"/>
<path d="M614.825 254.134C614.825 255.78 614.825 257.434 614.695 259.08C614.462 262.712 612.774 266.198 609.866 269.049C606.958 271.9 602.977 273.974 598.477 274.983C583.209 278.57 569.481 270.122 568.041 258.925C567.831 257.294 567.821 255.64 567.721 253.994L568.561 253.365C572.97 252.744 575.24 253.621 575.86 257.612C577.1 265.478 582.279 269.26 590.858 269.664C599.237 270.044 604.856 266.34 607.376 258.738C608.196 256.285 607.686 253 612.955 253.303C613.336 253.288 613.715 253.359 614.046 253.506C614.378 253.653 614.648 253.871 614.825 254.134Z" fill="#929BA2"/>
<path d="M558.572 254.017L556.092 253.753C559.782 252.029 563.801 252.977 567.691 252.868L568.241 253.582L567.721 254.033L558.572 254.017Z" fill="#929BA2"/>
<path d="M501.879 253.784C501.917 253.452 502.001 253.124 502.129 252.806L511.368 252.884L511.848 253.66L511.328 254.103L501.879 253.784Z" fill="#929BA2"/>
<path d="M107.827 252.821C107.958 253.141 108.035 253.473 108.057 253.808L98.608 254.072L98.0981 253.621C98.2581 253.365 98.4281 253.116 98.5781 252.845L107.827 252.821Z" fill="#929BA2"/>
<path d="M43.6646 253.839C43.9046 253.492 44.2701 253.207 44.7161 253.019C45.162 252.832 45.6689 252.749 46.1743 252.783C47.954 252.783 49.7338 252.837 51.5136 252.86C51.6736 253.117 51.8435 253.373 52.0135 253.637L51.4936 254.079L43.6646 253.839Z" fill="#939CA3"/>
<path d="M614.755 252.891C616.525 252.852 618.295 252.806 620.064 252.79C620.567 252.766 621.068 252.859 621.501 253.059C621.934 253.258 622.281 253.554 622.494 253.908L614.825 254.134L614.305 253.676L614.755 252.891Z" fill="#929BA2"/>
<path d="M212.704 252.806C214.874 252.969 217.313 252.029 219.133 253.707L212.644 253.955L212.104 253.481L212.704 252.806Z" fill="#929BA2"/>
<path d="M212.404 182.579H206.785C202.985 180.599 203.685 177.47 203.635 174.651C203.455 164.883 203.405 155.106 203.635 145.338C203.745 140.267 201.246 138.241 194.636 138.349C183.398 138.582 172.139 138.544 160.901 138.349C154.761 138.256 152.202 140.104 152.282 144.926C152.442 154.695 152.392 164.471 152.282 174.239C152.282 177.128 152.601 180.125 149.742 182.509H144.413C142.173 180.18 142.543 177.384 142.513 174.744C142.433 165.201 142.513 155.658 142.453 146.114C142.373 138.955 141.713 138.497 132.244 138.427C126.105 138.38 119.956 138.295 113.816 138.427C105.167 138.66 102.818 140.337 102.548 147.023C102.178 156.147 102.548 165.279 102.388 174.402C102.388 177.268 102.818 180.296 99.6279 182.54H91.6289C91.6289 169.844 91.6989 157.149 91.6289 144.492C91.6289 140.034 93.4487 136.369 97.7482 133.434C100.491 131.404 104.091 130.217 107.877 130.095C110.017 130.056 112.166 130.033 114.306 130.033H553.123C555.003 130.033 556.882 130.033 558.752 130.087C563.077 130.198 567.198 131.539 570.332 133.856C573.466 136.172 575.394 139.303 575.75 142.651C575.854 143.684 575.884 144.721 575.84 145.757C575.84 158.036 575.817 170.31 575.77 182.579H567.861C565.031 180.187 565.461 177.19 565.421 174.317C565.311 165.814 565.551 157.304 565.321 148.801C565.091 140.298 562.832 138.575 552.063 138.45C547.523 138.404 542.984 138.396 538.445 138.45C529.306 138.567 528.646 139.056 528.556 146.425C528.456 155.743 528.556 165.061 528.496 174.426C528.496 177.291 528.916 180.312 525.796 182.587H520.087C516.697 180.436 517.187 177.376 517.147 174.519C517.007 164.96 517.147 155.401 517.057 145.843C516.967 139.18 516.227 138.575 508.058 138.497C496.82 138.396 485.571 138.606 474.342 138.419C468.073 138.311 465.783 140.361 465.863 145.089C466.023 154.858 465.983 164.626 465.863 174.395C465.863 177.275 466.203 180.288 463.134 182.579H457.374C453.975 180.428 454.465 177.369 454.375 174.511C454.245 164.952 454.425 155.394 454.285 145.843C454.195 139.173 453.455 138.559 445.286 138.481C434.057 138.38 422.809 138.59 411.58 138.404C405.341 138.303 402.991 140.306 403.071 145.051C403.241 154.811 403.191 164.58 403.071 174.348C403.071 177.229 403.381 180.234 400.401 182.556H394.702C391.152 180.467 391.702 177.384 391.702 174.542C391.552 164.976 391.702 155.417 391.612 145.85C391.512 139.025 390.803 138.497 381.834 138.45C370.595 138.388 359.346 138.489 348.108 138.412C342.638 138.373 340.419 140.229 340.429 144.398C340.429 154.167 340.509 163.935 340.429 173.711C340.429 176.817 340.949 180.024 337.749 182.54H332.04C328.53 180.436 329.04 177.361 329.04 174.511C328.887 164.748 328.887 154.982 329.04 145.214C329.11 140.656 327.27 138.225 320.791 138.365C309.023 138.559 297.244 138.481 285.475 138.365C280.026 138.326 277.766 140.143 277.786 144.328C277.786 154.097 277.856 163.865 277.786 173.634C277.786 176.74 278.276 179.939 275.167 182.486H269.527C265.758 180.498 266.448 177.369 266.398 174.55C266.208 164.774 266.158 154.998 266.398 145.229C266.518 140.151 263.988 138.148 257.399 138.287C246.16 138.52 234.902 138.481 223.663 138.287C217.494 138.186 214.974 140.073 215.054 144.88C215.224 154.656 215.164 164.432 215.054 174.201C214.994 177.19 215.324 180.195 212.404 182.579Z" fill="#EEC927"/>
<path d="M344.388 76.5165C311.459 76.5165 278.536 76.5165 245.62 76.5165C243.482 76.5854 241.341 76.5413 239.211 76.3845C235.551 75.9962 233.301 73.6124 233.471 70.584C233.471 69.3297 234.052 68.117 235.107 67.1676C236.163 66.2181 237.623 65.5952 239.221 65.4125C240.818 65.2843 242.426 65.2454 244.03 65.296H446.376C447.715 65.296 449.065 65.2339 450.375 65.3349C452.13 65.3851 453.792 65.9616 455.011 66.9433C456.231 67.925 456.913 69.2356 456.914 70.5996C457.084 73.8609 454.575 76.1748 450.365 76.4699C448.235 76.6174 446.086 76.5165 443.946 76.5165H344.388Z" fill="#40593D"/>
<path d="M345.278 94.0112H245.71C243.57 94.0775 241.426 94.0385 239.291 93.8947C235.622 93.522 233.292 91.1692 233.462 88.1564C233.441 86.9012 234 85.6818 235.039 84.7199C236.077 83.758 237.526 83.1176 239.121 82.915C240.718 82.7803 242.326 82.7387 243.931 82.7907H446.276C447.606 82.7907 448.956 82.7286 450.275 82.8296C454.525 83.1479 457.035 85.3842 456.905 88.6456C456.937 90.0112 456.279 91.3324 455.071 92.3255C453.864 93.3185 452.203 93.9042 450.445 93.9568C448.326 94.1044 446.166 94.0112 444.026 94.0112H345.278Z" fill="#40593D"/>
<path d="M346.388 100.27H444.376C446.246 100.27 448.125 100.332 449.995 100.27C457.214 99.9979 457.324 103.275 456.864 107.095C456.838 107.727 456.565 108.337 456.081 108.845C455.597 109.353 454.925 109.734 454.155 109.937C451.635 110.574 449.215 111.568 446.445 111.49C444.836 111.444 443.226 111.49 441.626 111.49H248.87C245.13 111.49 241.42 111.552 237.871 110.372C234.321 109.192 233.191 108.043 233.521 105.255C233.791 102.925 235.961 100.743 238.831 100.433C241.226 100.247 243.635 100.19 246.04 100.262C279.469 100.236 312.918 100.239 346.388 100.27Z" fill="#40593D"/>
<path d="M486.011 117.749C483.511 116.972 482.611 115.419 482.631 113.393C482.691 108.943 482.721 104.502 482.771 100.052C488.77 88.8862 496.519 78.3646 503.199 67.4392C504.218 65.5283 505.962 63.9034 508.198 62.7802C514.087 62.4774 516.537 63.5567 517.697 67.5712C518.197 69.295 517.917 71.1509 517.987 72.9524C509.988 87.4341 498.919 100.666 489.9 114.728C489.147 116.083 487.755 117.163 486.011 117.749Z" fill="#3A3C3F"/>
<path d="M529.296 90.0898V70.1415C529.236 68.8962 529.266 67.6492 529.386 66.4065C530.026 62.2289 533.385 59.3636 538.714 59.1617C545.925 58.8667 553.151 58.8667 560.362 59.1617C562.268 59.1555 564.117 59.6726 565.58 60.6216C567.044 61.5707 568.029 62.8907 568.361 64.3488C569.026 66.134 569.415 67.9743 569.521 69.8309C569.521 83.3368 569.521 96.8428 569.521 110.349C569.465 112.203 569.13 114.045 568.521 115.839C567.421 119.504 564.271 121.173 560.002 121.336C553.063 121.608 546.094 121.569 539.144 121.375C534.475 121.243 529.586 118.976 529.426 113.113C529.266 107.507 529.426 101.893 529.426 96.2863L529.296 90.0898Z" fill="#415B3F"/>
<path d="M517.977 83.9089C517.977 93.2269 518.137 102.545 518.077 111.902C518.077 117.601 514.638 120.203 507.308 120.273C501.709 120.327 496.1 120.195 490.501 120.14C490.361 119.737 490.111 119.271 490.301 118.937C497.366 106.587 506.139 94.8706 516.467 83.9943C516.727 83.7381 517.427 83.8157 517.977 83.9089Z" fill="#3A3C3F"/>
<path d="M517.977 83.9089C514.197 88.63 510.288 93.2968 506.678 98.0878C501.179 105.395 495.88 112.787 490.5 120.14L486.011 117.749C492.49 106.878 500.319 96.5038 507.778 86.0054C510.088 82.7519 512.188 79.3974 514.357 76.0662C515.197 74.7617 515.937 73.4183 517.977 72.9602V83.9089Z" fill="#5E6063"/>
<path d="M482.771 90.3926C482.721 83.9709 482.861 77.5337 482.541 71.1121C482.351 67.2295 484.601 64.7059 488.541 63.0209C493.43 60.9476 498.539 60.6137 503.689 62.788C504.859 65.5212 502.689 67.6023 501.189 69.6833C497.02 75.4372 492.76 81.1445 488.541 86.8751C487.281 88.6222 486.191 90.711 482.771 90.3926Z" fill="#3A3C3F"/>
<path d="M482.771 90.3926C484.096 89.7005 485.176 88.7606 485.911 87.6594C491.823 79.3767 497.759 71.094 503.719 62.8113H508.188C500.902 74.2 493.62 85.5887 486.341 96.9774C485.511 98.2741 484.771 99.602 482.761 100.083C482.775 96.8428 482.778 93.6125 482.771 90.3926Z" fill="#5E5F63"/>
<path d="M109.636 57.7795C115.526 57.7795 121.415 57.6941 127.304 57.7795C132.824 57.8805 135.093 59.6354 135.303 63.8207C135.494 66.1052 135.454 68.3977 135.183 70.6772C134.574 74.7694 132.084 76.4467 126.704 76.4777C115.706 76.5476 104.707 76.5631 93.7684 76.4777C87.8391 76.4234 85.6794 74.6607 85.5094 70.0172C85.4094 67.5246 85.3894 65.0165 85.5094 62.5317C85.6994 58.8356 86.9693 57.8727 91.9487 57.7873C97.838 57.6941 103.737 57.7873 109.626 57.7873L109.636 57.7795Z" fill="#425B40"/>
<path d="M199.736 75.3285C199.292 75.7173 198.742 76.0247 198.127 76.2288C197.511 76.4329 196.845 76.5285 196.176 76.5088C184.938 76.5088 173.699 76.5865 162.46 76.5088C157.031 76.4622 154.841 74.6219 154.641 70.3512C154.531 67.8586 154.541 65.366 154.641 62.8734C154.821 58.7813 155.961 57.8961 161.5 57.8262C168.72 57.7408 175.949 57.8262 183.168 57.8262C187.987 57.8262 192.797 57.8262 197.616 57.8262C200.766 57.8262 202.615 59.0375 202.925 61.5379L201.696 61.8795C193.207 60.3265 184.578 60.839 175.989 60.7924C173.189 60.7924 170.379 60.6837 167.59 60.6837C163.74 60.5983 159.811 60.3731 158.851 64.3954C158.626 65.2142 158.479 66.0447 158.411 66.8802C158.051 71.7333 161.41 73.6435 167.23 73.6202C170.709 73.6202 174.229 73.6202 177.679 73.5426C180.678 73.5426 183.678 73.6358 186.677 73.5426C190.677 73.6979 194.886 73.131 198.746 74.5986L199.736 75.3285Z" fill="#425B40"/>
<path d="M202.936 61.5145C205.645 65.397 204.935 69.2796 203.276 73.2397C203.035 73.8288 202.566 74.3457 201.932 74.7196C201.298 75.0935 200.531 75.3062 199.736 75.3285L199.566 75.2043C199.339 74.9813 199.175 74.7235 199.085 74.4478C198.995 74.172 198.982 73.8847 199.046 73.6047C199.376 72.471 199.886 71.3683 200.326 70.2579C201.326 67.4004 199.826 64.108 202.786 61.5922L202.936 61.5145Z" fill="#425B40"/>
<path d="M24.6968 182.4C24.6968 168.941 24.6968 155.464 24.6968 141.968C24.6968 140.726 24.7568 139.483 24.8468 138.241C24.8472 137.98 24.9168 137.723 25.0511 137.484C25.1854 137.246 25.3816 137.031 25.6275 136.854C25.8733 136.677 26.1634 136.541 26.4798 136.455C26.7962 136.369 27.1321 136.335 27.4665 136.354C30.6669 136.214 33.8749 136.214 37.0753 136.354C39.2344 136.413 41.2913 137.083 42.8599 138.237C44.4284 139.39 45.4008 140.949 45.5943 142.62C45.7795 144.065 45.8396 145.518 45.7742 146.969C45.7742 158.787 45.7742 170.605 45.7742 182.424C38.7547 182.76 31.715 182.752 24.6968 182.4Z" fill="#FFFFFE"/>
<path d="M614.725 182.4C614.725 170.39 614.725 158.378 614.725 146.363C614.68 145.327 614.72 144.289 614.845 143.257C615.465 139.499 619.205 136.268 624.404 136.268C637.553 136.33 635.783 135.057 635.823 144.515C635.883 157.149 635.753 169.782 635.713 182.416C628.724 182.755 621.714 182.75 614.725 182.4Z" fill="#FFFFFE"/>
<path d="M149.772 182.579C149.772 169.503 149.789 156.426 149.822 143.35C149.822 141.696 149.822 140.034 149.992 138.38C149.995 138.121 150.063 137.865 150.193 137.627C150.323 137.388 150.512 137.172 150.75 136.99C150.988 136.809 151.269 136.665 151.578 136.568C151.887 136.471 152.218 136.422 152.552 136.424C153.872 136.323 155.211 136.315 156.551 136.315H199.836C201.176 136.315 202.506 136.362 203.835 136.455C204.509 136.455 205.156 136.661 205.635 137.029C206.114 137.396 206.387 137.896 206.395 138.419C206.545 140.275 206.575 142.146 206.585 144.01C206.665 156.874 206.728 169.741 206.775 182.61C187.777 182.921 168.77 182.967 149.772 182.579Z" fill="#E1524C"/>
<path d="M275.117 182.579C275.117 169.513 275.14 156.442 275.187 143.366C275.187 141.704 275.187 140.05 275.347 138.388C275.352 137.867 275.623 137.368 276.101 137.001C276.579 136.634 277.225 136.429 277.896 136.431C279.226 136.338 280.566 136.323 281.896 136.323H325.181C326.511 136.323 327.85 136.362 329.18 136.455C329.853 136.455 330.498 136.661 330.976 137.029C331.454 137.397 331.725 137.897 331.73 138.419C331.87 140.073 331.9 141.735 331.91 143.389C331.963 156.465 332.01 169.536 332.05 182.602C316.812 182.68 301.573 182.781 286.335 182.82C282.586 182.796 278.846 182.626 275.117 182.579Z" fill="#E1524C"/>
<path d="M337.759 182.579C337.759 169.503 337.785 156.426 337.839 143.35C337.839 141.688 337.839 140.027 338.009 138.373C338.017 137.851 338.291 137.353 338.77 136.988C339.25 136.622 339.897 136.42 340.569 136.424C341.898 136.33 343.238 136.315 344.568 136.315H387.873C389.203 136.315 390.542 136.354 391.872 136.439C392.545 136.437 393.192 136.642 393.671 137.008C394.151 137.375 394.424 137.874 394.432 138.396C394.582 140.252 394.612 142.123 394.622 143.987C394.682 156.851 394.735 169.72 394.782 182.594C380.054 182.672 365.325 182.773 350.597 182.812C346.318 182.796 342.038 182.633 337.759 182.579Z" fill="#E1524C"/>
<path d="M400.481 182.579C400.481 169.513 400.508 156.442 400.562 143.366C400.562 141.704 400.561 140.05 400.721 138.396C400.723 138.137 400.79 137.881 400.919 137.642C401.047 137.403 401.236 137.186 401.472 137.004C401.709 136.821 401.99 136.677 402.298 136.579C402.607 136.48 402.938 136.43 403.271 136.431C404.601 136.338 405.941 136.323 407.271 136.323H450.555C451.885 136.323 453.225 136.362 454.555 136.455C455.227 136.455 455.871 136.661 456.347 137.03C456.823 137.398 457.092 137.898 457.095 138.419C457.235 140.073 457.265 141.735 457.275 143.389C457.321 156.46 457.361 169.531 457.395 182.602C442.166 182.68 426.928 182.781 411.69 182.82C407.951 182.796 404.221 182.626 400.481 182.579Z" fill="#E1524C"/>
<path d="M463.124 182.579C463.124 169.503 463.157 156.426 463.223 143.35C463.223 141.696 463.224 140.034 463.394 138.38C463.399 137.859 463.67 137.36 464.148 136.993C464.626 136.626 465.271 136.422 465.943 136.424C467.273 136.338 468.613 136.315 469.943 136.315H513.237C514.577 136.315 515.907 136.315 517.237 136.439C517.909 136.435 518.555 136.638 519.035 137.003C519.515 137.368 519.789 137.866 519.797 138.388C519.927 140.042 519.967 141.704 519.977 143.366C520.03 156.442 520.073 169.516 520.107 182.587C505.928 182.672 491.75 182.773 477.562 182.812C472.752 182.796 467.943 182.633 463.124 182.579Z" fill="#E1524C"/>
<path d="M212.404 182.579C212.404 169.497 212.424 156.416 212.464 143.335C212.464 141.681 212.464 140.019 212.634 138.365C212.645 137.841 212.922 137.342 213.406 136.977C213.889 136.611 214.539 136.41 215.214 136.416C216.544 136.323 217.884 136.315 219.214 136.315H262.518C263.858 136.315 265.188 136.354 266.518 136.447C267.192 136.443 267.841 136.646 268.323 137.013C268.805 137.38 269.079 137.88 269.087 138.404C269.237 140.267 269.267 142.131 269.287 144.002C269.354 156.872 269.417 169.741 269.477 182.61C250.46 182.913 231.402 182.983 212.404 182.579Z" fill="#E1524C"/>
<path d="M99.6577 182.579C99.6577 170.931 99.691 159.284 99.7577 147.636C99.6825 145.973 99.7426 144.308 99.9377 142.651C100.219 141.098 101.136 139.656 102.553 138.537C103.97 137.419 105.811 136.683 107.807 136.439C109.134 136.322 110.471 136.278 111.806 136.307C120.655 136.307 129.494 136.268 138.333 136.307C144.332 136.307 144.492 136.416 144.502 141.339C144.502 155.075 144.502 168.812 144.442 182.54C129.514 182.975 114.586 182.936 99.6577 182.579Z" fill="#E1524C"/>
<path d="M525.816 182.579L525.906 143.397C525.906 141.735 525.906 140.081 526.076 138.427C526.078 137.907 526.342 137.408 526.811 137.037C527.28 136.666 527.916 136.451 528.586 136.439C529.112 136.379 529.643 136.345 530.175 136.338C539.254 136.338 548.333 136.23 557.402 136.338C563.711 136.431 567.211 139.141 567.771 143.979C567.931 145.423 567.831 146.883 567.841 148.335C567.841 159.724 567.841 171.126 567.841 182.54C553.849 182.97 539.841 182.983 525.816 182.579Z" fill="#E1524C"/>
<path d="M212.704 252.806C212.609 253.079 212.397 253.32 212.104 253.489L211.325 253.621C206.515 254.483 206.205 254.483 206.325 257.706C206.485 262.559 203.495 265.999 198.926 268.817C193.617 272.086 187.497 272.358 181.598 270.37C175.699 268.382 171.599 264.935 170.779 259.662C170.64 259.05 170.62 258.424 170.719 257.807C171.429 254.747 169.08 253.776 165.83 253.373C165.89 253.14 165.92 252.903 165.92 252.666C171.829 252.72 177.599 254.219 183.568 253.8C183.887 254.12 184.099 254.496 184.188 254.895C184.548 257.224 183.928 260.377 188.477 260.33C193.027 260.284 192.257 257.131 192.667 254.809C192.76 254.41 193 254.041 193.357 253.745C197.746 253.505 202.176 253.94 206.535 252.86C208.405 252.418 210.635 252.806 212.704 252.806Z" fill="#656A6D"/>
<path d="M92.0188 253.916C95.0185 257.729 92.5787 261.177 90.609 264.554C88.7392 267.746 85.3596 269.609 81.0202 270.696C70.9014 273.243 57.893 269.143 56.7831 257.449C56.6731 256.3 57.6331 255.12 58.093 253.908H69.5116C72.1712 255.531 70.3415 259.825 74.681 260.066C79.9203 260.353 77.7606 255.5 80.6003 253.854L92.0188 253.916Z" fill="#666B6D"/>
<path d="M136.983 253.831C137.543 255.182 138.623 256.417 138.413 257.946C138.209 259.175 137.452 260.309 136.275 261.146C135.098 261.983 133.578 262.47 131.984 262.52C130.391 262.458 128.88 261.954 127.727 261.098C126.574 260.243 125.856 259.094 125.705 257.861C125.535 256.308 126.574 255.089 127.184 253.745C130.432 253.331 133.748 253.36 136.983 253.831Z" fill="#8F989F"/>
<path d="M193.337 253.761C193.979 254.881 194.449 256.057 194.736 257.263C194.8 257.933 194.687 258.606 194.402 259.24C194.117 259.875 193.667 260.457 193.08 260.95C192.494 261.444 191.782 261.839 190.991 262.11C190.199 262.381 189.345 262.523 188.48 262.526C187.615 262.53 186.758 262.396 185.962 262.131C185.167 261.867 184.45 261.479 183.856 260.99C183.263 260.502 182.805 259.923 182.511 259.292C182.217 258.66 182.093 257.988 182.148 257.317C182.248 256.129 183.058 254.988 183.548 253.815C186.781 253.347 190.095 253.329 193.337 253.761Z" fill="#90999F"/>
<path d="M80.6003 253.924C80.6603 255.368 80.8602 256.813 80.7602 258.241C80.6986 259.384 80.0707 260.464 79.0076 261.256C77.9446 262.048 76.5288 262.49 75.056 262.49C73.5831 262.49 72.1672 262.048 71.1042 261.256C70.0412 260.464 69.4133 259.384 69.3517 258.241C69.2417 256.805 69.4416 255.361 69.5116 253.924C73.1607 253.276 76.9513 253.276 80.6003 253.924Z" fill="#90999F"/>
<path d="M98.5781 252.86C98.501 253.144 98.34 253.41 98.108 253.637L91.9888 253.932C93.7486 251.905 96.2783 252.806 98.5781 252.86Z" fill="#666B6D"/>
<path d="M52.0136 253.621C51.7669 253.398 51.5951 253.132 51.5137 252.845C53.8334 252.736 56.3431 251.928 58.1229 253.893L52.0136 253.621Z" fill="#666B6D"/>
<path d="M614.755 252.891C614.677 253.172 614.524 253.436 614.305 253.668C611.836 253.885 609.306 254.087 609.676 256.774C610.046 259.461 608.676 262.039 606.966 264.422C603.127 269.796 597.217 272.125 588.908 271.279C583.169 270.697 575.98 267.769 574.15 260.695C573.89 259.686 573.5 258.692 573.27 257.682C573.01 256.549 574.71 255.104 572.86 254.312C571.54 253.738 569.791 253.761 568.241 253.536C567.974 253.343 567.784 253.095 567.691 252.821C570.283 252.474 572.942 252.572 575.48 253.109C579.1 253.955 582.659 253.707 586.339 253.109C589.828 252.542 593.568 251.711 596.817 253.885C595.298 255.213 593.068 255.182 591.108 255.702C589.508 256.122 588.308 256.883 588.718 258.381C588.837 258.885 589.166 259.344 589.653 259.687C590.141 260.031 590.762 260.241 591.418 260.284C593.248 260.47 594.348 259.67 595.038 258.459C595.868 256.991 595.118 255.151 596.817 253.885C601.507 253.559 606.266 253.971 610.816 252.783C612.016 252.464 613.455 252.829 614.755 252.891Z" fill="#656A6D"/>
<path d="M511.848 253.652C511.62 253.422 511.456 253.158 511.368 252.876C512.678 252.814 514.117 252.449 515.267 252.744C519.877 253.955 524.656 253.52 529.335 253.885C530.036 254.495 530.446 255.274 530.495 256.09C530.715 257.985 531.085 259.934 534.135 260.136C537.185 260.338 537.954 258.42 538.634 256.619C538.969 255.635 539.588 254.724 540.444 253.955L551.813 253.862C556.322 261.782 546.983 270.712 537.175 271.31C524.796 272.086 518.987 266.767 516.617 259.235C516.413 258.425 516.37 257.595 516.487 256.774C516.757 254.079 514.277 253.901 511.848 253.652Z" fill="#656A6D"/>
<path d="M482.771 253.761C483.412 254.879 483.882 256.052 484.171 257.255C484.224 257.921 484.101 258.587 483.811 259.214C483.521 259.842 483.068 260.416 482.482 260.903C481.896 261.39 481.188 261.779 480.402 262.046C479.615 262.313 478.767 262.453 477.909 262.456C477.05 262.46 476.2 262.328 475.41 262.068C474.62 261.807 473.906 261.425 473.313 260.943C472.72 260.461 472.26 259.89 471.961 259.266C471.661 258.641 471.529 257.975 471.572 257.31C471.672 256.129 472.482 254.98 472.962 253.808C476.203 253.346 479.523 253.33 482.771 253.761Z" fill="#8F999F"/>
<path d="M540.444 253.963C540.599 255.201 540.649 256.446 540.594 257.69C540.254 260.478 537.314 262.66 534.435 262.427C533.507 262.373 532.605 262.164 531.79 261.816C530.975 261.467 530.266 260.986 529.712 260.405C529.158 259.824 528.772 259.158 528.579 258.451C528.386 257.744 528.392 257.013 528.596 256.308C528.765 255.531 529.085 254.701 529.335 253.893C533 253.279 536.793 253.303 540.444 253.963Z" fill="#9099A0"/>
<path d="M556.622 62.7803C563.812 63.153 565.621 64.4498 566.251 69.6756C566.371 70.7084 566.251 71.7566 566.251 72.7816C558.462 87.6749 547.524 101.287 537.525 115.287C537.266 115.767 536.788 116.156 536.183 116.378C535.577 116.6 534.887 116.641 534.245 116.491C532.475 115.52 532.505 114.06 532.505 112.608C532.505 108.089 532.505 103.567 532.505 99.0429C537.145 87.3954 545.744 77.1999 552.233 66.2279C553.237 64.7736 554.761 63.5761 556.622 62.7803Z" fill="#3A3C3F"/>
<path d="M566.241 84.0719C566.241 92.572 566.241 101.072 566.241 109.572C566.316 110.607 566.296 111.645 566.181 112.678C565.561 115.947 563.952 118.486 559.182 119.341C552.833 120.482 546.614 120.894 540.404 118.983C538.795 117.329 539.984 115.877 540.984 114.433C547.664 104.882 554.903 95.5797 561.982 86.2228C562.942 85.0503 563.812 83.5672 566.241 84.0719Z" fill="#3A3B3F"/>
<path d="M566.241 84.0719C562.912 86.58 561.522 90.051 559.162 93.025C552.733 101.124 546.854 109.495 540.794 117.78C540.602 118.165 540.487 118.571 540.454 118.983C539.244 118.957 538.056 118.722 536.978 118.293C535.901 117.864 534.96 117.254 534.225 116.506C536.975 112.966 539.884 109.518 542.434 105.876C547.803 98.2198 553.013 90.4936 558.232 82.7674C560.528 79.2729 563.204 75.9373 566.231 72.7971C566.231 76.5554 566.235 80.3137 566.241 84.0719Z" fill="#5E6064"/>
<path d="M532.515 89.0182C532.515 82.6276 532.425 76.2448 532.515 69.8619C532.575 65.001 533.715 63.9217 539.804 62.4153C543.894 61.4058 547.963 60.6526 551.883 62.8113C552.334 63.1996 552.616 63.6883 552.689 64.2081C552.763 64.7279 552.624 65.2525 552.293 65.7076C547.308 73.3004 541.825 80.6895 535.865 87.8457C535.115 88.7154 534.075 89.3987 532.515 89.0182Z" fill="#3A3C3F"/>
<path d="M532.515 89.0182C534.435 86.8052 536.515 84.6621 538.234 82.3636C542.764 76.2836 547.133 70.1415 551.543 64.0149C551.732 63.6293 551.843 63.2233 551.873 62.8113H556.622C549.73 73.5374 542.831 84.2583 535.925 94.974C534.985 96.4338 534.395 98.08 532.525 99.0895C532.518 95.735 532.515 92.3779 532.515 89.0182Z" fill="#5E5F63"/>
<path d="M88.7092 63.945C88.4892 63.1685 87.8293 62.2678 88.1692 61.7087C88.7973 60.8515 89.6996 60.1347 90.7889 59.6277C92.6087 58.6803 94.7884 59.1152 96.7882 59.0608C107.577 61.4757 116.556 66.7793 126.615 70.3667C127.615 70.6643 128.501 71.156 129.187 71.7949C129.873 72.4338 130.337 73.1986 130.534 74.0163C130.129 74.4215 129.604 74.7447 129.003 74.9583C128.402 75.1719 127.744 75.2696 127.085 75.2431C123.925 75.2431 120.755 75.2431 117.586 75.2431C107.267 72.5176 97.2282 69.4038 88.7092 63.945Z" fill="#3B3C40"/>
<path d="M106.417 59.0531C112.566 59.0531 118.715 58.9754 124.865 59.0531C131.804 59.1307 133.724 60.707 133.724 66.259C133.724 68.0605 134.434 70.0406 132.304 71.5315C122.415 68.8758 112.736 66.0494 106.417 59.0531Z" fill="#3A3C40"/>
<path d="M106.417 59.053C112.926 62.8113 120.115 65.7154 127.064 68.9146C128.854 69.7377 130.954 70.1647 132.304 71.5236C132.184 72.5408 131.884 73.4882 130.574 74.0162C125.825 71.3295 120.435 69.5591 115.266 67.4547C108.903 64.9552 102.745 62.1519 96.8281 59.0607L106.417 59.053Z" fill="#5D5E62"/>
<path d="M108.047 75.2276C103.567 75.2276 99.048 75.3518 94.6185 75.2276C89.7491 75.0956 87.4695 73.3018 87.1695 69.5824C87.0595 68.1536 87.1695 66.7171 87.1695 65.2883C95.1485 67.3461 103.757 68.5496 108.047 75.2276Z" fill="#3B3E40"/>
<path d="M108.047 75.2276C107.266 74.4133 106.344 73.6869 105.307 73.0689C99.308 70.4133 93.2487 67.8741 87.2095 65.3039L88.7093 63.9528C96.6083 65.8241 103.477 69.3883 110.887 72.075C113.236 72.9214 115.886 73.496 117.576 75.2276H108.047Z" fill="#5A5C5F"/>
<path d="M199.636 74.024C199.636 74.42 199.636 74.8005 199.576 75.2043H186.697C176.399 72.4943 166.35 69.3883 157.841 63.9139C157.621 63.1374 156.961 62.2444 157.291 61.6931C157.916 60.8344 158.819 60.1172 159.911 59.6121C161.73 58.6648 163.91 59.1074 165.91 59.0453C176.179 61.763 185.318 66.2667 194.826 70.1648C196.856 71.0189 199.006 72.0051 199.636 74.024Z" fill="#3B3C40"/>
<path d="M202.785 61.5921V68.239C202.785 69.4658 202.685 70.6539 201.326 71.5158C191.597 68.7437 181.548 66.3754 175.449 59.0918C181.198 59.0918 186.967 59.2393 192.717 58.9986C194.534 58.8712 196.366 59.0357 198.098 59.4819C199.831 59.9281 201.426 60.6464 202.785 61.5921Z" fill="#3A3C40"/>
<path d="M175.478 59.0608C181.608 63.285 189.387 65.4359 196.126 68.8991C197.856 69.7843 200.005 70.157 201.355 71.5159C201.396 72.0166 201.256 72.5162 200.953 72.959C200.649 73.4019 200.193 73.7705 199.636 74.024C189.197 69.541 178.761 65.058 168.329 60.575C167.463 60.1237 166.647 59.6172 165.89 59.0608H175.478Z" fill="#5D5E62"/>
<path d="M177.168 75.2276C172.689 75.2276 168.169 75.3441 163.75 75.2276C158.88 75.0956 156.601 73.3096 156.301 69.5824C156.191 68.1614 156.301 66.7249 156.301 65.2961C164.35 67.2529 172.859 68.5807 177.168 75.2276Z" fill="#3B3E40"/>
<path d="M177.168 75.2276C176.377 74.422 175.449 73.7037 174.409 73.0922C168.409 70.4443 162.35 67.9052 156.301 65.3272L157.811 63.9528C166.1 66.1425 173.549 69.7222 181.398 72.6418C183.277 73.3329 185.397 73.8066 186.667 75.2431L177.168 75.2276Z" fill="#595B5F"/>
<path d="M596.817 253.862C597.697 256.432 598.817 258.987 595.817 261.27C594.765 262.054 593.368 262.5 591.909 262.515C590.451 262.531 589.039 262.117 587.958 261.355C585.529 259.802 584.829 257.115 586.379 255.33C586.748 254.905 587.248 254.558 587.832 254.319C588.417 254.081 589.068 253.958 589.728 253.963C592.098 253.893 594.468 253.893 596.827 253.862H596.817Z" fill="#8F989F"/>
<rect x="76" y="55" width="513" height="105" rx="23" fill="black"/>
</g>
<path d="M85.8843 108.9C85.8843 103.969 86.515 99.5547 87.7763 95.656C89.0377 91.7573 90.8437 88.4893 93.1943 85.852C95.6023 83.1573 98.5263 81.122 101.966 79.746C105.406 78.3127 109.305 77.596 113.662 77.596C118.306 77.596 122.348 78.37 125.788 79.918C129.286 81.4087 132.181 83.53 134.474 86.282C136.825 89.034 138.574 92.3307 139.72 96.172C140.924 100.013 141.526 104.256 141.526 108.9C141.526 113.831 140.867 118.245 139.548 122.144C138.287 126.043 136.452 129.339 134.044 132.034C131.636 134.671 128.712 136.707 125.272 138.14C121.832 139.516 117.962 140.204 113.662 140.204C109.018 140.204 104.948 139.459 101.45 137.968C98.0103 136.42 95.115 134.27 92.7643 131.518C90.471 128.766 88.751 125.469 87.6043 121.628C86.4577 117.787 85.8843 113.544 85.8843 108.9ZM99.3863 108.9C99.3863 111.881 99.673 114.605 100.246 117.07C100.82 119.535 101.68 121.657 102.826 123.434C103.973 125.211 105.435 126.587 107.212 127.562C109.047 128.537 111.197 129.024 113.662 129.024C118.192 129.024 121.718 127.476 124.24 124.38C126.763 121.284 128.024 116.124 128.024 108.9C128.024 106.033 127.766 103.367 127.25 100.902C126.734 98.4367 125.874 96.3153 124.67 94.538C123.524 92.7033 122.033 91.2987 120.198 90.324C118.421 89.292 116.242 88.776 113.662 88.776C109.19 88.776 105.693 90.3813 103.17 93.592C100.648 96.8027 99.3863 101.905 99.3863 108.9ZM186.037 78.8H198.077V117.414C198.077 121.313 197.503 124.695 196.357 127.562C195.267 130.429 193.691 132.779 191.627 134.614C189.62 136.449 187.183 137.825 184.317 138.742C181.507 139.602 178.411 140.032 175.029 140.032C166.945 140.032 160.781 138.283 156.539 134.786C152.296 131.231 150.175 125.928 150.175 118.876V78.8H162.903V116.554C162.903 121.141 163.906 124.351 165.913 126.186C167.919 127.963 170.901 128.852 174.857 128.852C178.641 128.852 181.45 127.906 183.285 126.014C185.119 124.065 186.037 120.911 186.037 116.554V78.8ZM255.242 89.98H236.15V139H223.422V89.98H204.33V78.8H255.242V89.98ZM290.09 122.488C290.09 120.711 289.345 119.306 287.854 118.274C286.363 117.242 284.5 116.296 282.264 115.436C280.085 114.576 277.706 113.716 275.126 112.856C272.546 111.996 270.138 110.849 267.902 109.416C265.723 107.983 263.889 106.177 262.398 103.998C260.907 101.819 260.162 98.9813 260.162 95.484C260.162 92.5027 260.678 89.894 261.71 87.658C262.799 85.3647 264.29 83.5013 266.182 82.068C268.131 80.5773 270.453 79.4593 273.148 78.714C275.9 77.9687 278.91 77.596 282.178 77.596C285.962 77.596 289.545 77.94 292.928 78.628C296.368 79.2587 299.177 80.176 301.356 81.38L297.314 92.044C296.626 91.6427 295.737 91.2413 294.648 90.84C293.616 90.3813 292.412 90.0087 291.036 89.722C289.66 89.378 288.198 89.12 286.65 88.948C285.102 88.7187 283.525 88.604 281.92 88.604C279.053 88.604 276.817 89.12 275.212 90.152C273.664 91.1267 272.89 92.5027 272.89 94.28C272.89 96.0573 273.635 97.4907 275.126 98.58C276.617 99.612 278.451 100.587 280.63 101.504C282.866 102.364 285.274 103.253 287.854 104.17C290.434 105.03 292.813 106.177 294.992 107.61C297.228 108.986 299.091 110.735 300.582 112.856C302.073 114.977 302.818 117.701 302.818 121.026C302.818 124.351 302.245 127.218 301.098 129.626C299.951 132.034 298.317 134.041 296.196 135.646C294.132 137.194 291.638 138.341 288.714 139.086C285.79 139.831 282.579 140.204 279.082 140.204C276.731 140.204 274.495 140.061 272.374 139.774C270.31 139.545 268.389 139.258 266.612 138.914C264.835 138.513 263.258 138.111 261.882 137.71C260.563 137.251 259.503 136.821 258.7 136.42L262.914 125.67C263.545 126.014 264.405 126.387 265.494 126.788C266.641 127.189 267.902 127.591 269.278 127.992C270.654 128.336 272.116 128.623 273.664 128.852C275.269 129.081 276.875 129.196 278.48 129.196C282.264 129.196 285.131 128.651 287.08 127.562C289.087 126.473 290.09 124.781 290.09 122.488ZM309.199 108.9C309.199 103.969 309.829 99.5547 311.091 95.656C312.352 91.7573 314.158 88.4893 316.509 85.852C318.917 83.1573 321.841 81.122 325.281 79.746C328.721 78.3127 332.619 77.596 336.977 77.596C341.621 77.596 345.663 78.37 349.103 79.918C352.6 81.4087 355.495 83.53 357.789 86.282C360.139 89.034 361.888 92.3307 363.035 96.172C364.239 100.013 364.841 104.256 364.841 108.9C364.841 113.831 364.181 118.245 362.863 122.144C361.601 126.043 359.767 129.339 357.359 132.034C354.951 134.671 352.027 136.707 348.587 138.14C345.147 139.516 341.277 140.204 336.977 140.204C332.333 140.204 328.262 139.459 324.765 137.968C321.325 136.42 318.429 134.27 316.079 131.518C313.785 128.766 312.065 125.469 310.919 121.628C309.772 117.787 309.199 113.544 309.199 108.9ZM322.701 108.9C322.701 111.881 322.987 114.605 323.561 117.07C324.134 119.535 324.994 121.657 326.141 123.434C327.287 125.211 328.749 126.587 330.527 127.562C332.361 128.537 334.511 129.024 336.977 129.024C341.506 129.024 345.032 127.476 347.555 124.38C350.077 121.284 351.339 116.124 351.339 108.9C351.339 106.033 351.081 103.367 350.565 100.902C350.049 98.4367 349.189 96.3153 347.985 94.538C346.838 92.7033 345.347 91.2987 343.513 90.324C341.735 89.292 339.557 88.776 336.977 88.776C332.505 88.776 329.007 90.3813 326.485 93.592C323.962 96.8027 322.701 101.905 322.701 108.9ZM409.351 78.8H421.391V117.414C421.391 121.313 420.818 124.695 419.671 127.562C418.582 130.429 417.005 132.779 414.941 134.614C412.934 136.449 410.498 137.825 407.631 138.742C404.822 139.602 401.726 140.032 398.343 140.032C390.259 140.032 384.096 138.283 379.853 134.786C375.61 131.231 373.489 125.928 373.489 118.876V78.8H386.217V116.554C386.217 121.141 387.22 124.351 389.227 126.186C391.234 127.963 394.215 128.852 398.171 128.852C401.955 128.852 404.764 127.906 406.599 126.014C408.434 124.065 409.351 120.911 409.351 116.554V78.8ZM432.202 79.402C433.578 79.1727 435.069 78.972 436.674 78.8C438.337 78.5707 440 78.3987 441.662 78.284C443.325 78.1693 444.93 78.0833 446.478 78.026C448.084 77.9687 449.546 77.94 450.864 77.94C453.903 77.94 456.884 78.198 459.808 78.714C462.79 79.23 465.427 80.1187 467.72 81.38C470.071 82.6413 471.963 84.39 473.396 86.626C474.83 88.8047 475.546 91.5567 475.546 94.882C475.546 99.8127 474.314 103.883 471.848 107.094C469.44 110.247 466.086 112.397 461.786 113.544L466.344 116.21L481.394 139H466.602L451.638 115.694L444.93 114.662V139H432.202V79.402ZM451.724 89.12C450.406 89.12 449.116 89.1487 447.854 89.206C446.65 89.206 445.676 89.292 444.93 89.464V106.062H450.348C453.96 106.062 456.798 105.374 458.862 103.998C460.984 102.622 462.044 100.243 462.044 96.86C462.044 94.3373 461.156 92.4167 459.378 91.098C457.601 89.7793 455.05 89.12 451.724 89.12ZM529.4 136.42C527.508 137.739 525.014 138.685 521.918 139.258C518.822 139.889 515.64 140.204 512.372 140.204C508.531 140.204 504.833 139.631 501.278 138.484C497.781 137.337 494.656 135.503 491.904 132.98C489.21 130.457 487.06 127.218 485.454 123.262C483.849 119.306 483.046 114.519 483.046 108.9C483.046 103.052 483.964 98.15 485.798 94.194C487.633 90.1807 489.984 86.97 492.85 84.562C495.717 82.0967 498.899 80.3193 502.396 79.23C505.894 78.1407 509.334 77.596 512.716 77.596C516.443 77.596 519.568 77.8253 522.09 78.284C524.67 78.7427 526.792 79.2873 528.454 79.918L525.96 90.582C524.527 89.9513 522.836 89.4927 520.886 89.206C518.994 88.9193 516.586 88.776 513.662 88.776C511.082 88.776 508.732 89.206 506.61 90.066C504.546 90.8687 502.769 92.1013 501.278 93.764C499.788 95.4267 498.612 97.5193 497.752 100.042C496.95 102.565 496.548 105.517 496.548 108.9C496.548 111.881 496.921 114.605 497.666 117.07C498.412 119.535 499.53 121.657 501.02 123.434C502.511 125.211 504.403 126.587 506.696 127.562C508.99 128.537 511.656 129.024 514.694 129.024C517.504 129.024 519.854 128.766 521.746 128.25C523.696 127.734 525.416 127.075 526.906 126.272L529.4 136.42ZM537.435 78.8H576.221V89.98H550.163V103.052H573.813V114.232H550.163V127.82H576.651V139H537.435V78.8Z" fill="white"/>
<defs>
<clipPath id="clip0_198_23">
<rect width="658" height="276" fill="white"/>
</clipPath>
</defs>
</svg>
