<svg width="14" height="14" viewBox="0 0 14 14" fill="none" xmlns="http://www.w3.org/2000/svg">
<g clip-path="url(#clip0_159_6048)">
<path d="M6.98819 13.9991C3.13843 13.9991 -0.00218622 10.841 1.14189e-06 6.97113C0.00218851 3.13755 3.16424 0 7.02231 0C10.869 0.00218736 14.0039 3.16468 14 7.0385C13.9961 10.8598 10.8318 14.0013 6.98819 13.9991ZM6.9965 12.5992C10.0697 12.5992 12.5931 10.0837 12.5962 7.01006C12.5992 3.93638 10.0868 1.41041 7.01269 1.40341C3.93026 1.39554 1.39948 3.92063 1.40035 7.00306C1.40298 10.075 3.92326 12.5957 6.9965 12.5992Z" fill="white"/>
<path d="M9.43014 4.54451C8.651 3.58207 7.0411 3.22903 5.73262 3.72687C4.30471 4.27021 3.42889 5.64125 3.50151 7.21747C3.57107 8.69437 4.60744 9.97354 6.03885 10.373C7.43176 10.7614 8.84742 10.2102 9.40739 9.46127C9.0876 9.13929 8.77087 8.81993 8.45282 8.49883C7.37445 9.30421 6.24971 9.28978 5.4592 8.45158C4.73299 7.68206 4.70543 6.41952 5.40145 5.61325C5.7413 5.21382 6.22434 4.96374 6.74668 4.9168C7.41076 4.84593 7.9961 5.0301 8.46114 5.50957L9.43014 4.54451Z" fill="white"/>
<path d="M9.43025 4.54425L8.46519 5.50932C8.00015 5.0281 7.41525 4.84567 6.75073 4.91654C6.22839 4.96348 5.74535 5.21357 5.4055 5.613C4.70949 6.41926 4.73705 7.68181 5.46325 8.45132C6.25376 9.28952 7.37851 9.30396 8.45688 8.49857C8.77492 8.81968 9.09165 9.13903 9.41144 9.46101C8.8506 10.21 7.43494 10.7612 6.0429 10.3727C4.60974 9.97373 3.57337 8.69412 3.50556 7.21721C3.43163 5.64231 4.30745 4.26996 5.73667 3.72662C7.04122 3.22877 8.65111 3.58313 9.43025 4.54425Z" fill="white"/>
</g>
<defs>
<clipPath id="clip0_159_6048">
<rect width="14" height="14" fill="white"/>
</clipPath>
</defs>
</svg>
