<svg width="232" height="258" viewBox="0 0 232 258" fill="none" xmlns="http://www.w3.org/2000/svg">
<path d="M203.692 99.5934C220.482 117.254 226.703 144.534 229.101 174.219C231.5 203.904 230.001 235.918 213.286 242.983C196.497 250.047 164.566 232.086 129.413 235.242C94.2602 238.474 55.8841 262.748 32.4987 255.759C9.18822 248.694 0.793449 210.217 0.0439155 171.138C-0.630664 131.984 6.34 92.0782 29.7254 74.4176C53.0359 56.7569 92.8361 61.3412 126.265 67.5788C159.769 73.8915 186.978 81.9327 203.692 99.5934Z" fill="#50DBF5"/>
<g clip-path="url(#clip0_217_500)">
<path d="M144.328 7.01594C144.328 14.3451 144.328 21.2889 144.328 28.2327C144.328 35.8689 148.126 39.6445 155.779 39.6576C162.738 39.6576 169.697 39.6576 177.062 39.6576V71.0777C176.251 70.7641 175.661 70.5812 175.098 70.3264C170.679 68.2557 166.948 68.7718 163.399 72.1555C160.244 75.1603 157.199 78.2762 154.136 81.379C152.77 82.6461 151.786 84.2679 151.294 86.0622C150.801 87.8564 150.819 89.7522 151.347 91.5366C151.429 92.118 151.385 92.7102 151.219 93.2735C151.053 93.8368 150.769 94.3581 150.384 94.8028C146.175 99.212 141.873 103.536 137.415 107.717C136.919 108.118 136.343 108.41 135.726 108.575C135.109 108.739 134.464 108.772 133.834 108.671C129.906 107.73 126.718 108.788 123.955 111.473C120.983 114.354 118.063 117.293 115.169 120.252C110.403 125.125 110.357 130.626 115.169 135.486C123.527 143.921 131.935 152.308 140.394 160.648C141.305 161.419 142.274 162.118 143.294 162.738L142.738 163.822H139.373C132.498 163.822 125.624 163.777 118.757 163.822C112.446 163.875 108.282 167.964 108.373 174.274C108.413 176.887 107.895 178.585 105.454 180.068C101.322 182.577 99.0835 186.666 98.6514 191.428C98.3175 195.086 98.5794 198.803 98.5794 202.977H95.7839C78.6574 202.977 61.531 202.977 44.4045 202.977C36.7841 202.977 33 199.175 33 191.513C33 133.833 33 76.151 33 18.467C33 10.772 36.7448 6.98981 44.3718 6.98328H144.328V7.01594ZM105.048 59.2739H151.53C152.505 59.2739 153.749 59.6136 154.411 59.1498C155.589 58.3202 157.029 57.066 157.186 55.8837C157.285 54.9691 155.589 53.728 154.489 52.8984C153.998 52.5261 153.01 52.7939 152.25 52.7939C120.825 52.7939 89.4007 52.7939 57.9761 52.7939C57.0006 52.7939 55.724 52.5065 55.1086 53.0029C54.0676 53.8456 52.8565 55.1912 52.8172 56.354C52.8172 57.2881 54.2706 58.4966 55.3442 59.1498C56.0709 59.5874 57.2625 59.2804 58.2379 59.2804L105.048 59.2739ZM95.2863 98.4674H132.538C133.408 98.4674 134.502 98.7809 135.104 98.3628C136.204 97.5855 137.814 96.3117 137.723 95.3776C137.611 94.1887 136.138 93.0064 135.032 92.1115C134.58 91.7326 133.559 92.02 132.8 92.02H58.2838C57.413 92.02 56.2739 91.7196 55.7305 92.1442C54.5783 93.0456 53.1118 94.2737 52.9743 95.4887C52.8827 96.377 54.6306 97.6378 55.7763 98.3955C56.3917 98.8005 57.472 98.5 58.3427 98.5L95.2863 98.4674ZM114.874 72.3906H106.678C98.4943 72.3906 90.3108 72.3906 82.1403 72.3906C78.808 72.3906 76.8571 74.7553 78.4152 77.022C79.1419 78.0802 81.1125 78.7792 82.5266 78.7922C95.6202 78.9229 108.714 78.8706 121.807 78.8706C130.096 78.8706 138.384 78.8706 146.685 78.8706C149.69 78.8706 151.779 76.8587 150.613 74.886C150.108 74.201 149.46 73.6329 148.714 73.2203C147.969 72.8077 147.143 72.5604 146.293 72.4952C135.791 72.2731 125.323 72.371 114.855 72.371L114.874 72.3906ZM101.46 39.6902H127.261C129.546 39.6902 131.189 38.7953 131.143 36.3457C131.104 34.0921 129.559 33.1906 127.398 33.1906H75.1549C73.1516 33.1906 71.7309 34.0398 71.6393 36.1955C71.5345 38.9325 73.2694 39.6902 75.6655 39.6902C84.255 39.6641 92.8466 39.6576 101.44 39.6706L101.46 39.6902ZM80.5102 137.674C88.1241 137.674 95.7446 137.674 103.359 137.674C105.827 137.674 108.249 137.458 108.203 134.31C108.157 131.383 105.859 131.142 103.496 131.142C88.1547 131.176 72.8133 131.176 57.472 131.142C55.0955 131.142 52.8106 131.429 52.7845 134.336C52.7845 137.478 55.1937 137.687 57.6553 137.674C65.2692 137.635 72.8832 137.661 80.5036 137.661L80.5102 137.674ZM77.0404 176.867C83.7967 176.867 90.5595 176.835 97.3355 176.867C99.6661 176.867 101.65 176.332 101.683 173.647C101.715 170.962 99.7643 170.335 97.414 170.342C84.0062 170.368 70.5983 170.368 57.1905 170.342C54.7878 170.342 52.6404 170.786 52.7059 173.745C52.7648 176.534 54.8402 176.867 57.1119 176.861C63.7373 176.828 70.3823 176.854 77.0338 176.854L77.0404 176.867ZM101.768 157.271C107.981 157.271 114.207 157.271 120.413 157.271C122.803 157.271 124.662 156.532 124.577 153.867C124.498 151.398 122.685 150.745 120.446 150.751C108.02 150.778 95.5809 150.778 83.1289 150.751C80.831 150.751 78.8473 151.254 78.8277 154.018C78.808 156.781 80.7917 157.284 83.0962 157.284C89.3287 157.231 95.5482 157.258 101.761 157.258L101.768 157.271ZM69.0336 111.545C65.0008 111.545 60.9614 111.584 56.9286 111.545C54.6961 111.512 52.863 112.165 52.7779 114.628C52.6797 117.287 54.5259 118.071 56.922 118.064C64.9877 118.038 73.0621 118.038 81.1452 118.064C83.5348 118.064 85.3941 117.3 85.2959 114.641C85.2108 112.179 83.3908 111.512 81.1518 111.545C77.0993 111.63 73.0665 111.565 69.0271 111.565L69.0336 111.545ZM62.9975 157.225C65.1776 157.225 67.3511 157.258 69.5443 157.225C71.5541 157.192 72.9224 156.278 72.9879 154.142C73.0599 151.849 71.7178 150.778 69.5246 150.765C65.0663 150.725 60.6079 150.706 56.1495 150.765C53.9956 150.797 52.5946 151.888 52.6862 154.181C52.7714 156.297 54.1462 157.205 56.1692 157.225C58.4278 157.264 60.7061 157.251 62.9909 157.244L62.9975 157.225ZM62.1267 78.838C64.3003 78.838 66.4738 78.838 68.6735 78.838C70.8733 78.838 72.5427 77.6426 72.0975 75.5326C71.8357 74.298 70.0091 72.6193 68.7652 72.5082C64.5322 72.2458 60.2882 72.2087 56.0513 72.3972C54.0873 72.4298 52.6928 73.4489 52.6862 75.5784C52.6862 77.8908 54.1004 78.8445 56.2674 78.8445C58.2052 78.8706 60.1627 78.8641 62.1202 78.8576L62.1267 78.838ZM102.062 111.551C99.8953 111.551 97.7283 111.551 95.5613 111.551C93.3943 111.551 91.6987 112.721 92.1373 114.818C92.3926 116.059 94.1865 117.757 95.4107 117.868C99.6205 118.247 103.856 118.247 108.066 117.868C109.29 117.757 111.09 116.052 111.339 114.818C111.765 112.708 110.089 111.551 107.902 111.551C105.977 111.551 104.026 111.571 102.075 111.571L102.062 111.551Z" fill="black"/>
<path d="M171.328 141.502L184.153 128.692L195.282 137.602C204.932 145.278 214.51 152.986 224.16 160.622C228.874 164.352 230.976 169.009 229.575 174.954C228.056 181.388 223.984 185.405 217.535 186.842C211.708 188.149 207.126 186.13 203.453 181.532C192.723 168.101 181.94 154.743 171.328 141.502Z" fill="#1A2E35"/>
<path d="M141.048 203.003C130.7 203.003 120.347 203.003 109.99 203.003C105.938 203.003 105.27 202.069 104.982 198.012C104.19 186.823 108.871 182.988 119.464 183.282C134.816 183.713 150.188 183.387 165.553 183.393C173.259 183.393 177.036 187.143 177.062 194.733C177.095 203.01 177.095 203.01 168.84 203.01L141.048 203.003Z" fill="black"/>
<path d="M170.522 75.2715C171.576 75.8461 172.575 76.5151 173.508 77.2703C182.857 86.5331 192.177 95.8219 201.469 105.137C203.944 107.626 203.898 108.939 201.41 111.473C198.674 114.269 195.858 116.993 193.102 119.776C191.138 121.781 189.22 121.846 187.21 119.815C177.757 110.356 168.29 100.908 158.81 91.4715C157.049 89.7143 156.846 87.8918 158.653 86.0627C161.717 82.973 164.781 79.8833 167.91 76.8654C168.722 76.2438 169.598 75.7096 170.522 75.2715Z" fill="#1A2E35"/>
<path d="M150.725 160.798C149.71 160.269 148.752 159.639 147.864 158.917C138.445 149.576 129.048 140.213 119.673 130.828C117.657 128.823 117.637 126.909 119.673 124.949C122.541 122.132 125.378 119.286 128.184 116.412C130.148 114.406 132.073 114.289 134.076 116.32C143.53 125.779 152.992 135.231 162.463 144.677C163.943 146.146 164.643 147.891 163.072 149.563C159.799 153.051 156.368 156.389 152.944 159.727C152.486 160.191 151.668 160.354 150.725 160.798Z" fill="#1A2E35"/>
<path d="M179.773 122.807L165.37 137.132L141.88 113.655L156.381 99.1534L179.773 122.807Z" fill="black"/>
<path d="M166.961 176.704H115.182C114.364 171.367 115.228 170.322 120.38 170.322C134.107 170.322 147.84 170.322 161.579 170.322C166.791 170.322 167.616 171.243 166.961 176.704Z" fill="black"/>
<path d="M150.862 9.68127L174.359 33.132C167.557 33.132 160.754 33.2692 153.965 32.9883C152.892 32.9426 151.052 31.0287 151.006 29.9182C150.725 23.2096 150.862 16.4879 150.862 9.68127Z" fill="black"/>
<path d="M170.555 150.954C172.375 153.201 174.378 155.638 176.316 158.14C176.723 158.634 176.97 159.24 177.023 159.877C177.076 166.475 177.056 173.072 177.056 179.67L176.008 180.127C175.255 178.821 173.92 177.593 173.841 176.273C173.298 166.814 170.457 163.96 160.997 163.862C160.342 163.862 159.74 163.81 158.542 163.757L170.555 150.954Z" fill="black"/>
<path d="M105.028 59.2741H58.238C57.2625 59.2741 56.071 59.5811 55.3443 59.1434C54.2706 58.4902 52.7911 57.2817 52.8172 56.3476C52.8565 55.1849 54.0677 53.8392 55.1086 52.9966C55.724 52.5001 57.0007 52.7876 57.9761 52.7876C89.4008 52.7876 120.825 52.7876 152.25 52.7876C153.01 52.7876 153.998 52.5197 154.489 52.8921C155.589 53.7216 157.285 54.9628 157.186 55.8773C157.056 57.0792 155.589 58.3334 154.411 59.1434C153.756 59.6072 152.505 59.261 151.53 59.2675L105.028 59.2741Z" fill="white"/>
<path d="M101.44 39.6708C92.8467 39.6708 84.2485 39.6708 75.646 39.6708C73.2499 39.6708 71.515 38.9131 71.6197 36.1761C71.7114 34.0204 73.1321 33.1778 75.1354 33.1713H127.379C129.539 33.1713 131.084 34.0727 131.124 36.3263C131.17 38.7759 129.526 39.6708 127.241 39.6708H101.44Z" fill="white"/>
</g>
<defs>
<clipPath id="clip0_217_500">
<rect width="197" height="196" fill="white" transform="translate(33 7.01611)"/>
</clipPath>
</defs>
</svg>
