<svg width="158" height="1536" viewBox="0 0 158 1536" fill="none" xmlns="http://www.w3.org/2000/svg">
<g id="service-track">
<g id="Group">
<path id="Vector" d="M158 30.4698L135.976 32.1982L116.82 32.1982L100.723 31.5327L57.2777 31.5327L41.1809 32.1982L22.0246 32.1982L0.000343132 30.4698L0.000343724 16.9345L22.0246 15.206L41.1809 15.206L57.2777 15.8716L100.723 15.8716L116.82 15.2061L135.976 15.2061L158 16.9345L158 30.4698Z" fill="#B0BEC5"/>
<path id="Vector_2" d="M39.1088 15.2062L24.0988 15.2062L24.0988 32.1984L39.1088 32.1984L39.1088 15.2062Z" fill="#90A4AE"/>
<path id="Vector_3" d="M133.904 15.2062L118.894 15.2062L118.894 32.1984L133.904 32.1984L133.904 15.2062Z" fill="#90A4AE"/>
<path id="Vector_4" d="M118.894 15.2062L116.82 15.2062L116.82 32.1984L118.894 32.1984L118.894 15.2062Z" fill="#CFD8DC"/>
<path id="Vector_5" d="M135.977 15.2059L133.904 15.2059L133.904 32.1981L135.977 32.1981L135.977 15.2059Z" fill="#CFD8DC"/>
<path id="Vector_6" d="M24.0988 15.2062L22.0257 15.2062L22.0257 32.1984L24.0988 32.1984L24.0988 15.2062Z" fill="#CFD8DC"/>
<path id="Vector_7" d="M41.1819 15.2062L39.1088 15.2062L39.1088 32.1984L41.1819 32.1984L41.1819 15.2062Z" fill="#CFD8DC"/>
<path id="Vector_8" d="M133.194 28.2435L133.194 19.1609L119.606 19.1609L119.606 28.2435L133.194 28.2435Z" fill="#37474F"/>
<path id="Vector_9" d="M38.3948 28.2435L38.3948 19.1609L24.8068 19.1609L24.8068 28.2435L38.3948 28.2435Z" fill="#37474F"/>
<path id="Vector_10" d="M57.2777 15.8718L41.1809 15.2062L41.1809 32.1984L57.2777 31.5329L57.2777 15.8718Z" fill="#90A4AE"/>
<path id="Vector_11" d="M100.723 15.8718L116.82 15.2062L116.82 32.1984L100.723 31.5329L100.723 15.8718Z" fill="#90A4AE"/>
<path id="Vector_12" d="M2.81534 30.6903L22.0244 32.1984L22.0244 15.2062L2.81534 16.7096L2.81534 30.6903Z" fill="#90A4AE"/>
<path id="Vector_13" d="M155.185 30.6903L135.976 32.1984L135.976 15.2062L155.185 16.7096L155.185 30.6903Z" fill="#90A4AE"/>
</g>
<g id="Group_2">
<path id="Vector_14" d="M158 313.47L135.976 315.198L116.82 315.198L100.723 314.533L57.2777 314.533L41.1809 315.198L22.0246 315.198L0.000343132 313.47L0.000343724 299.935L22.0246 298.206L41.1809 298.206L57.2777 298.872L100.723 298.872L116.82 298.206L135.976 298.206L158 299.935L158 313.47Z" fill="#B0BEC5"/>
<path id="Vector_15" d="M39.1088 298.206L24.0988 298.206L24.0988 315.198L39.1088 315.198L39.1088 298.206Z" fill="#90A4AE"/>
<path id="Vector_16" d="M133.904 298.206L118.894 298.206L118.894 315.198L133.904 315.198L133.904 298.206Z" fill="#90A4AE"/>
<path id="Vector_17" d="M118.894 298.206L116.82 298.206L116.82 315.198L118.894 315.198L118.894 298.206Z" fill="#CFD8DC"/>
<path id="Vector_18" d="M135.977 298.206L133.904 298.206L133.904 315.198L135.977 315.198L135.977 298.206Z" fill="#CFD8DC"/>
<path id="Vector_19" d="M24.0988 298.206L22.0257 298.206L22.0257 315.198L24.0988 315.198L24.0988 298.206Z" fill="#CFD8DC"/>
<path id="Vector_20" d="M41.1819 298.206L39.1088 298.206L39.1088 315.198L41.1819 315.198L41.1819 298.206Z" fill="#CFD8DC"/>
<path id="Vector_21" d="M133.194 311.244L133.194 302.161L119.606 302.161L119.606 311.244L133.194 311.244Z" fill="#37474F"/>
<path id="Vector_22" d="M38.3948 311.244L38.3948 302.161L24.8068 302.161L24.8068 311.244L38.3948 311.244Z" fill="#37474F"/>
<path id="Vector_23" d="M57.2777 298.872L41.1809 298.206L41.1809 315.198L57.2777 314.533L57.2777 298.872Z" fill="#90A4AE"/>
<path id="Vector_24" d="M100.723 298.872L116.82 298.206L116.82 315.198L100.723 314.533L100.723 298.872Z" fill="#90A4AE"/>
<path id="Vector_25" d="M2.81534 313.69L22.0244 315.198L22.0244 298.206L2.81534 299.71L2.81534 313.69Z" fill="#90A4AE"/>
<path id="Vector_26" d="M155.185 313.69L135.976 315.198L135.976 298.206L155.185 299.71L155.185 313.69Z" fill="#90A4AE"/>
</g>
<g id="Group_3">
<path id="Vector_27" d="M158 655.47L135.976 657.198L116.82 657.198L100.723 656.533L57.2777 656.533L41.1809 657.198L22.0246 657.198L0.000343132 655.47L0.000343724 641.935L22.0246 640.206L41.1809 640.206L57.2777 640.872L100.723 640.872L116.82 640.206L135.976 640.206L158 641.935L158 655.47Z" fill="#B0BEC5"/>
<path id="Vector_28" d="M39.1088 640.206L24.0988 640.206L24.0988 657.198L39.1088 657.198L39.1088 640.206Z" fill="#90A4AE"/>
<path id="Vector_29" d="M133.904 640.206L118.894 640.206L118.894 657.198L133.904 657.198L133.904 640.206Z" fill="#90A4AE"/>
<path id="Vector_30" d="M118.894 640.206L116.82 640.206L116.82 657.198L118.894 657.198L118.894 640.206Z" fill="#CFD8DC"/>
<path id="Vector_31" d="M135.977 640.206L133.904 640.206L133.904 657.198L135.977 657.198L135.977 640.206Z" fill="#CFD8DC"/>
<path id="Vector_32" d="M24.0988 640.206L22.0257 640.206L22.0257 657.198L24.0988 657.198L24.0988 640.206Z" fill="#CFD8DC"/>
<path id="Vector_33" d="M41.1819 640.206L39.1088 640.206L39.1088 657.198L41.1819 657.198L41.1819 640.206Z" fill="#CFD8DC"/>
<path id="Vector_34" d="M133.194 653.244L133.194 644.161L119.606 644.161L119.606 653.244L133.194 653.244Z" fill="#37474F"/>
<path id="Vector_35" d="M38.3948 653.244L38.3948 644.161L24.8068 644.161L24.8068 653.244L38.3948 653.244Z" fill="#37474F"/>
<path id="Vector_36" d="M57.2777 640.872L41.1809 640.206L41.1809 657.198L57.2777 656.533L57.2777 640.872Z" fill="#90A4AE"/>
<path id="Vector_37" d="M100.723 640.872L116.82 640.206L116.82 657.198L100.723 656.533L100.723 640.872Z" fill="#90A4AE"/>
<path id="Vector_38" d="M2.81534 655.69L22.0244 657.198L22.0244 640.206L2.81534 641.71L2.81534 655.69Z" fill="#90A4AE"/>
<path id="Vector_39" d="M155.185 655.69L135.976 657.198L135.976 640.206L155.185 641.71L155.185 655.69Z" fill="#90A4AE"/>
</g>
<g id="Group_4">
<path id="Vector_40" d="M158 997.47L135.976 999.198L116.82 999.198L100.723 998.533L57.2777 998.533L41.1809 999.198L22.0246 999.198L0.000343132 997.47L0.000343724 983.935L22.0246 982.206L41.1809 982.206L57.2777 982.872L100.723 982.872L116.82 982.206L135.976 982.206L158 983.935L158 997.47Z" fill="#B0BEC5"/>
<path id="Vector_41" d="M39.1088 982.206L24.0988 982.206L24.0988 999.198L39.1088 999.198L39.1088 982.206Z" fill="#90A4AE"/>
<path id="Vector_42" d="M133.904 982.206L118.894 982.206L118.894 999.198L133.904 999.198L133.904 982.206Z" fill="#90A4AE"/>
<path id="Vector_43" d="M118.894 982.206L116.82 982.206L116.82 999.198L118.894 999.198L118.894 982.206Z" fill="#CFD8DC"/>
<path id="Vector_44" d="M135.977 982.206L133.904 982.206L133.904 999.198L135.977 999.198L135.977 982.206Z" fill="#CFD8DC"/>
<path id="Vector_45" d="M24.0988 982.206L22.0257 982.206L22.0257 999.198L24.0988 999.198L24.0988 982.206Z" fill="#CFD8DC"/>
<path id="Vector_46" d="M41.1819 982.206L39.1088 982.206L39.1088 999.198L41.1819 999.198L41.1819 982.206Z" fill="#CFD8DC"/>
<path id="Vector_47" d="M133.194 995.244L133.194 986.161L119.606 986.161L119.606 995.244L133.194 995.244Z" fill="#37474F"/>
<path id="Vector_48" d="M38.3948 995.244L38.3948 986.161L24.8068 986.161L24.8068 995.244L38.3948 995.244Z" fill="#37474F"/>
<path id="Vector_49" d="M57.2777 982.872L41.1809 982.206L41.1809 999.198L57.2777 998.533L57.2777 982.872Z" fill="#90A4AE"/>
<path id="Vector_50" d="M100.723 982.872L116.82 982.206L116.82 999.198L100.723 998.533L100.723 982.872Z" fill="#90A4AE"/>
<path id="Vector_51" d="M2.81534 997.69L22.0244 999.198L22.0244 982.206L2.81534 983.71L2.81534 997.69Z" fill="#90A4AE"/>
<path id="Vector_52" d="M155.185 997.69L135.976 999.198L135.976 982.206L155.185 983.71L155.185 997.69Z" fill="#90A4AE"/>
</g>
<g id="Group_5">
<path id="Vector_53" d="M158 77.8701L135.976 79.5986L116.82 79.5986L100.723 78.9331L57.2777 78.9331L41.1809 79.5986L22.0246 79.5986L0.000343132 77.8701L0.000343724 64.3348L22.0246 62.6064L41.1809 62.6064L57.2777 63.2719L100.723 63.2719L116.82 62.6064L135.976 62.6064L158 64.3348L158 77.8701Z" fill="#B0BEC5"/>
<path id="Vector_54" d="M39.1088 62.6064L24.0988 62.6064L24.0988 79.5986L39.1088 79.5986L39.1088 62.6064Z" fill="#90A4AE"/>
<path id="Vector_55" d="M133.904 62.6064L118.894 62.6064L118.894 79.5986L133.904 79.5986L133.904 62.6064Z" fill="#90A4AE"/>
<path id="Vector_56" d="M118.894 62.6064L116.82 62.6064L116.82 79.5986L118.894 79.5986L118.894 62.6064Z" fill="#CFD8DC"/>
<path id="Vector_57" d="M135.976 62.6061L133.903 62.6061L133.903 79.5984L135.976 79.5984L135.976 62.6061Z" fill="#CFD8DC"/>
<path id="Vector_58" d="M24.0988 62.6064L22.0257 62.6064L22.0257 79.5986L24.0988 79.5986L24.0988 62.6064Z" fill="#CFD8DC"/>
<path id="Vector_59" d="M41.1819 62.6064L39.1088 62.6064L39.1088 79.5986L41.1819 79.5986L41.1819 62.6064Z" fill="#CFD8DC"/>
<path id="Vector_60" d="M133.194 75.6437L133.194 66.5611L119.606 66.5611L119.606 75.6437L133.194 75.6437Z" fill="#37474F"/>
<path id="Vector_61" d="M38.3948 75.6437L38.3948 66.5611L24.8068 66.5611L24.8068 75.6437L38.3948 75.6437Z" fill="#37474F"/>
<path id="Vector_62" d="M57.2777 63.2719L41.1809 62.6064L41.1809 79.5986L57.2777 78.9331L57.2777 63.2719Z" fill="#90A4AE"/>
<path id="Vector_63" d="M100.723 63.2719L116.82 62.6064L116.82 79.5986L100.723 78.9331L100.723 63.2719Z" fill="#90A4AE"/>
<path id="Vector_64" d="M2.81534 78.0904L22.0244 79.5986L22.0244 62.6064L2.81534 64.1098L2.81534 78.0904Z" fill="#90A4AE"/>
<path id="Vector_65" d="M155.185 78.0904L135.976 79.5986L135.976 62.6064L155.185 64.1098L155.185 78.0904Z" fill="#90A4AE"/>
</g>
<g id="Group_6">
<path id="Vector_66" d="M158 360.87L135.976 362.599L116.82 362.599L100.723 361.933L57.2777 361.933L41.1809 362.599L22.0246 362.599L0.000343132 360.87L0.000343724 347.335L22.0246 345.606L41.1809 345.606L57.2777 346.272L100.723 346.272L116.82 345.606L135.976 345.606L158 347.335L158 360.87Z" fill="#B0BEC5"/>
<path id="Vector_67" d="M39.1088 345.606L24.0988 345.606L24.0988 362.599L39.1088 362.599L39.1088 345.606Z" fill="#90A4AE"/>
<path id="Vector_68" d="M133.904 345.606L118.894 345.606L118.894 362.599L133.904 362.599L133.904 345.606Z" fill="#90A4AE"/>
<path id="Vector_69" d="M118.894 345.606L116.82 345.606L116.82 362.599L118.894 362.599L118.894 345.606Z" fill="#CFD8DC"/>
<path id="Vector_70" d="M135.976 345.606L133.903 345.606L133.903 362.598L135.976 362.598L135.976 345.606Z" fill="#CFD8DC"/>
<path id="Vector_71" d="M24.0988 345.606L22.0257 345.606L22.0257 362.599L24.0988 362.599L24.0988 345.606Z" fill="#CFD8DC"/>
<path id="Vector_72" d="M41.1819 345.606L39.1088 345.606L39.1088 362.599L41.1819 362.599L41.1819 345.606Z" fill="#CFD8DC"/>
<path id="Vector_73" d="M133.194 358.644L133.194 349.561L119.606 349.561L119.606 358.644L133.194 358.644Z" fill="#37474F"/>
<path id="Vector_74" d="M38.3948 358.644L38.3948 349.561L24.8068 349.561L24.8068 358.644L38.3948 358.644Z" fill="#37474F"/>
<path id="Vector_75" d="M57.2777 346.272L41.1809 345.606L41.1809 362.599L57.2777 361.933L57.2777 346.272Z" fill="#90A4AE"/>
<path id="Vector_76" d="M100.723 346.272L116.82 345.606L116.82 362.599L100.723 361.933L100.723 346.272Z" fill="#90A4AE"/>
<path id="Vector_77" d="M2.81534 361.09L22.0244 362.599L22.0244 345.606L2.81534 347.11L2.81534 361.09Z" fill="#90A4AE"/>
<path id="Vector_78" d="M155.185 361.09L135.976 362.599L135.976 345.606L155.185 347.11L155.185 361.09Z" fill="#90A4AE"/>
</g>
<g id="Group_7">
<path id="Vector_79" d="M158 702.87L135.976 704.599L116.82 704.599L100.723 703.933L57.2777 703.933L41.1809 704.599L22.0246 704.599L0.000343132 702.87L0.000343724 689.335L22.0246 687.606L41.1809 687.606L57.2777 688.272L100.723 688.272L116.82 687.606L135.976 687.606L158 689.335L158 702.87Z" fill="#B0BEC5"/>
<path id="Vector_80" d="M39.1088 687.606L24.0988 687.606L24.0988 704.599L39.1088 704.599L39.1088 687.606Z" fill="#90A4AE"/>
<path id="Vector_81" d="M133.904 687.606L118.894 687.606L118.894 704.599L133.904 704.599L133.904 687.606Z" fill="#90A4AE"/>
<path id="Vector_82" d="M118.894 687.606L116.82 687.606L116.82 704.599L118.894 704.599L118.894 687.606Z" fill="#CFD8DC"/>
<path id="Vector_83" d="M135.976 687.606L133.903 687.606L133.903 704.598L135.976 704.598L135.976 687.606Z" fill="#CFD8DC"/>
<path id="Vector_84" d="M24.0988 687.606L22.0257 687.606L22.0257 704.599L24.0988 704.599L24.0988 687.606Z" fill="#CFD8DC"/>
<path id="Vector_85" d="M41.1819 687.606L39.1088 687.606L39.1088 704.599L41.1819 704.599L41.1819 687.606Z" fill="#CFD8DC"/>
<path id="Vector_86" d="M133.194 700.644L133.194 691.561L119.606 691.561L119.606 700.644L133.194 700.644Z" fill="#37474F"/>
<path id="Vector_87" d="M38.3948 700.644L38.3948 691.561L24.8068 691.561L24.8068 700.644L38.3948 700.644Z" fill="#37474F"/>
<path id="Vector_88" d="M57.2777 688.272L41.1809 687.606L41.1809 704.599L57.2777 703.933L57.2777 688.272Z" fill="#90A4AE"/>
<path id="Vector_89" d="M100.723 688.272L116.82 687.606L116.82 704.599L100.723 703.933L100.723 688.272Z" fill="#90A4AE"/>
<path id="Vector_90" d="M2.81534 703.09L22.0244 704.599L22.0244 687.606L2.81534 689.11L2.81534 703.09Z" fill="#90A4AE"/>
<path id="Vector_91" d="M155.185 703.09L135.976 704.599L135.976 687.606L155.185 689.11L155.185 703.09Z" fill="#90A4AE"/>
</g>
<g id="Group_8">
<path id="Vector_92" d="M158 1044.87L135.976 1046.6L116.82 1046.6L100.723 1045.93L57.2777 1045.93L41.1809 1046.6L22.0246 1046.6L0.000343132 1044.87L0.000343724 1031.33L22.0246 1029.61L41.1809 1029.61L57.2777 1030.27L100.723 1030.27L116.82 1029.61L135.976 1029.61L158 1031.33L158 1044.87Z" fill="#B0BEC5"/>
<path id="Vector_93" d="M39.1088 1029.61L24.0988 1029.61L24.0988 1046.6L39.1088 1046.6L39.1088 1029.61Z" fill="#90A4AE"/>
<path id="Vector_94" d="M133.904 1029.61L118.894 1029.61L118.894 1046.6L133.904 1046.6L133.904 1029.61Z" fill="#90A4AE"/>
<path id="Vector_95" d="M118.894 1029.61L116.82 1029.61L116.82 1046.6L118.894 1046.6L118.894 1029.61Z" fill="#CFD8DC"/>
<path id="Vector_96" d="M135.976 1029.61L133.903 1029.61L133.903 1046.6L135.976 1046.6L135.976 1029.61Z" fill="#CFD8DC"/>
<path id="Vector_97" d="M24.0988 1029.61L22.0257 1029.61L22.0257 1046.6L24.0988 1046.6L24.0988 1029.61Z" fill="#CFD8DC"/>
<path id="Vector_98" d="M41.1819 1029.61L39.1088 1029.61L39.1088 1046.6L41.1819 1046.6L41.1819 1029.61Z" fill="#CFD8DC"/>
<path id="Vector_99" d="M133.194 1042.64L133.194 1033.56L119.606 1033.56L119.606 1042.64L133.194 1042.64Z" fill="#37474F"/>
<path id="Vector_100" d="M38.3948 1042.64L38.3948 1033.56L24.8068 1033.56L24.8068 1042.64L38.3948 1042.64Z" fill="#37474F"/>
<path id="Vector_101" d="M57.2777 1030.27L41.1809 1029.61L41.1809 1046.6L57.2777 1045.93L57.2777 1030.27Z" fill="#90A4AE"/>
<path id="Vector_102" d="M100.723 1030.27L116.82 1029.61L116.82 1046.6L100.723 1045.93L100.723 1030.27Z" fill="#90A4AE"/>
<path id="Vector_103" d="M2.81534 1045.09L22.0244 1046.6L22.0244 1029.61L2.81534 1031.11L2.81534 1045.09Z" fill="#90A4AE"/>
<path id="Vector_104" d="M155.185 1045.09L135.976 1046.6L135.976 1029.61L155.185 1031.11L155.185 1045.09Z" fill="#90A4AE"/>
</g>
<g id="Group_9">
<path id="Vector_105" d="M158 1233.87L135.976 1235.6L116.82 1235.6L100.723 1234.93L57.2777 1234.93L41.1809 1235.6L22.0246 1235.6L0.000343132 1233.87L0.000343724 1220.33L22.0246 1218.61L41.1809 1218.61L57.2777 1219.27L100.723 1219.27L116.82 1218.61L135.976 1218.61L158 1220.33L158 1233.87Z" fill="#B0BEC5"/>
<path id="Vector_106" d="M39.1088 1218.61L24.0988 1218.61L24.0988 1235.6L39.1088 1235.6L39.1088 1218.61Z" fill="#90A4AE"/>
<path id="Vector_107" d="M133.904 1218.61L118.894 1218.61L118.894 1235.6L133.904 1235.6L133.904 1218.61Z" fill="#90A4AE"/>
<path id="Vector_108" d="M118.894 1218.61L116.82 1218.61L116.82 1235.6L118.894 1235.6L118.894 1218.61Z" fill="#CFD8DC"/>
<path id="Vector_109" d="M135.976 1218.61L133.903 1218.61L133.903 1235.6L135.976 1235.6L135.976 1218.61Z" fill="#CFD8DC"/>
<path id="Vector_110" d="M24.0988 1218.61L22.0257 1218.61L22.0257 1235.6L24.0988 1235.6L24.0988 1218.61Z" fill="#CFD8DC"/>
<path id="Vector_111" d="M41.1819 1218.61L39.1088 1218.61L39.1088 1235.6L41.1819 1235.6L41.1819 1218.61Z" fill="#CFD8DC"/>
<path id="Vector_112" d="M133.194 1231.64L133.194 1222.56L119.606 1222.56L119.606 1231.64L133.194 1231.64Z" fill="#37474F"/>
<path id="Vector_113" d="M38.3948 1231.64L38.3948 1222.56L24.8068 1222.56L24.8068 1231.64L38.3948 1231.64Z" fill="#37474F"/>
<path id="Vector_114" d="M57.2777 1219.27L41.1809 1218.61L41.1809 1235.6L57.2777 1234.93L57.2777 1219.27Z" fill="#90A4AE"/>
<path id="Vector_115" d="M100.723 1219.27L116.82 1218.61L116.82 1235.6L100.723 1234.93L100.723 1219.27Z" fill="#90A4AE"/>
<path id="Vector_116" d="M2.81534 1234.09L22.0244 1235.6L22.0244 1218.61L2.81534 1220.11L2.81534 1234.09Z" fill="#90A4AE"/>
<path id="Vector_117" d="M155.185 1234.09L135.976 1235.6L135.976 1218.61L155.185 1220.11L155.185 1234.09Z" fill="#90A4AE"/>
</g>
<g id="Group_10">
<path id="Vector_118" d="M158 125.27L135.976 126.999L116.82 126.999L100.723 126.333L57.2777 126.333L41.1809 126.999L22.0246 126.999L0.000343132 125.27L0.000343724 111.735L22.0246 110.006L41.1809 110.006L57.2777 110.672L100.723 110.672L116.82 110.006L135.976 110.006L158 111.735L158 125.27Z" fill="#B0BEC5"/>
<path id="Vector_119" d="M39.1088 110.007L24.0988 110.007L24.0988 126.999L39.1088 126.999L39.1088 110.007Z" fill="#90A4AE"/>
<path id="Vector_120" d="M133.904 110.007L118.894 110.007L118.894 126.999L133.904 126.999L133.904 110.007Z" fill="#90A4AE"/>
<path id="Vector_121" d="M118.894 110.007L116.82 110.007L116.82 126.999L118.894 126.999L118.894 110.007Z" fill="#CFD8DC"/>
<path id="Vector_122" d="M135.976 110.006L133.903 110.006L133.903 126.998L135.976 126.998L135.976 110.006Z" fill="#CFD8DC"/>
<path id="Vector_123" d="M24.0988 110.007L22.0257 110.007L22.0257 126.999L24.0988 126.999L24.0988 110.007Z" fill="#CFD8DC"/>
<path id="Vector_124" d="M41.1819 110.007L39.1088 110.007L39.1088 126.999L41.1819 126.999L41.1819 110.007Z" fill="#CFD8DC"/>
<path id="Vector_125" d="M133.194 123.044L133.194 113.961L119.606 113.961L119.606 123.044L133.194 123.044Z" fill="#37474F"/>
<path id="Vector_126" d="M38.3948 123.044L38.3948 113.961L24.8068 113.961L24.8068 123.044L38.3948 123.044Z" fill="#37474F"/>
<path id="Vector_127" d="M57.2777 110.672L41.1809 110.007L41.1809 126.999L57.2777 126.333L57.2777 110.672Z" fill="#90A4AE"/>
<path id="Vector_128" d="M100.723 110.672L116.82 110.007L116.82 126.999L100.723 126.333L100.723 110.672Z" fill="#90A4AE"/>
<path id="Vector_129" d="M2.81534 125.491L22.0244 126.999L22.0244 110.007L2.81534 111.515L2.81534 125.491Z" fill="#90A4AE"/>
<path id="Vector_130" d="M155.185 125.491L135.976 126.999L135.976 110.007L155.185 111.515L155.185 125.491Z" fill="#90A4AE"/>
</g>
<g id="Group_11">
<path id="Vector_131" d="M158 408.27L135.976 409.999L116.82 409.999L100.723 409.333L57.2777 409.333L41.1809 409.999L22.0246 409.999L0.000343132 408.27L0.000343724 394.735L22.0246 393.006L41.1809 393.006L57.2777 393.672L100.723 393.672L116.82 393.006L135.976 393.006L158 394.735L158 408.27Z" fill="#B0BEC5"/>
<path id="Vector_132" d="M39.1088 393.007L24.0988 393.007L24.0988 409.999L39.1088 409.999L39.1088 393.007Z" fill="#90A4AE"/>
<path id="Vector_133" d="M133.904 393.007L118.894 393.007L118.894 409.999L133.904 409.999L133.904 393.007Z" fill="#90A4AE"/>
<path id="Vector_134" d="M118.894 393.007L116.82 393.007L116.82 409.999L118.894 409.999L118.894 393.007Z" fill="#CFD8DC"/>
<path id="Vector_135" d="M135.976 393.006L133.903 393.006L133.903 409.998L135.976 409.998L135.976 393.006Z" fill="#CFD8DC"/>
<path id="Vector_136" d="M24.0988 393.007L22.0257 393.007L22.0257 409.999L24.0988 409.999L24.0988 393.007Z" fill="#CFD8DC"/>
<path id="Vector_137" d="M41.1819 393.007L39.1088 393.007L39.1088 409.999L41.1819 409.999L41.1819 393.007Z" fill="#CFD8DC"/>
<path id="Vector_138" d="M133.194 406.044L133.194 396.961L119.606 396.961L119.606 406.044L133.194 406.044Z" fill="#37474F"/>
<path id="Vector_139" d="M38.3948 406.044L38.3948 396.961L24.8068 396.961L24.8068 406.044L38.3948 406.044Z" fill="#37474F"/>
<path id="Vector_140" d="M57.2777 393.672L41.1809 393.007L41.1809 409.999L57.2777 409.333L57.2777 393.672Z" fill="#90A4AE"/>
<path id="Vector_141" d="M100.723 393.672L116.82 393.007L116.82 409.999L100.723 409.333L100.723 393.672Z" fill="#90A4AE"/>
<path id="Vector_142" d="M2.81534 408.491L22.0244 409.999L22.0244 393.007L2.81534 394.515L2.81534 408.491Z" fill="#90A4AE"/>
<path id="Vector_143" d="M155.185 408.491L135.976 409.999L135.976 393.007L155.185 394.515L155.185 408.491Z" fill="#90A4AE"/>
</g>
<g id="Group_12">
<path id="Vector_144" d="M158 750.27L135.976 751.999L116.82 751.999L100.723 751.333L57.2777 751.333L41.1809 751.999L22.0246 751.999L0.000343132 750.27L0.000343724 736.735L22.0246 735.006L41.1809 735.006L57.2777 735.672L100.723 735.672L116.82 735.006L135.976 735.006L158 736.735L158 750.27Z" fill="#B0BEC5"/>
<path id="Vector_145" d="M39.1088 735.007L24.0988 735.007L24.0988 751.999L39.1088 751.999L39.1088 735.007Z" fill="#90A4AE"/>
<path id="Vector_146" d="M133.904 735.007L118.894 735.007L118.894 751.999L133.904 751.999L133.904 735.007Z" fill="#90A4AE"/>
<path id="Vector_147" d="M118.894 735.007L116.82 735.007L116.82 751.999L118.894 751.999L118.894 735.007Z" fill="#CFD8DC"/>
<path id="Vector_148" d="M135.976 735.006L133.903 735.006L133.903 751.998L135.976 751.998L135.976 735.006Z" fill="#CFD8DC"/>
<path id="Vector_149" d="M24.0988 735.007L22.0257 735.007L22.0257 751.999L24.0988 751.999L24.0988 735.007Z" fill="#CFD8DC"/>
<path id="Vector_150" d="M41.1819 735.007L39.1088 735.007L39.1088 751.999L41.1819 751.999L41.1819 735.007Z" fill="#CFD8DC"/>
<path id="Vector_151" d="M133.194 748.044L133.194 738.961L119.606 738.961L119.606 748.044L133.194 748.044Z" fill="#37474F"/>
<path id="Vector_152" d="M38.3948 748.044L38.3948 738.961L24.8068 738.961L24.8068 748.044L38.3948 748.044Z" fill="#37474F"/>
<path id="Vector_153" d="M57.2777 735.672L41.1809 735.007L41.1809 751.999L57.2777 751.333L57.2777 735.672Z" fill="#90A4AE"/>
<path id="Vector_154" d="M100.723 735.672L116.82 735.007L116.82 751.999L100.723 751.333L100.723 735.672Z" fill="#90A4AE"/>
<path id="Vector_155" d="M2.81534 750.491L22.0244 751.999L22.0244 735.007L2.81534 736.515L2.81534 750.491Z" fill="#90A4AE"/>
<path id="Vector_156" d="M155.185 750.491L135.976 751.999L135.976 735.007L155.185 736.515L155.185 750.491Z" fill="#90A4AE"/>
</g>
<g id="Group_13">
<path id="Vector_157" d="M158 1092.27L135.976 1094L116.82 1094L100.723 1093.33L57.2777 1093.33L41.1809 1094L22.0246 1094L0.000343132 1092.27L0.000343724 1078.73L22.0246 1077.01L41.1809 1077.01L57.2777 1077.67L100.723 1077.67L116.82 1077.01L135.976 1077.01L158 1078.73L158 1092.27Z" fill="#B0BEC5"/>
<path id="Vector_158" d="M39.1088 1077.01L24.0988 1077.01L24.0988 1094L39.1088 1094L39.1088 1077.01Z" fill="#90A4AE"/>
<path id="Vector_159" d="M133.904 1077.01L118.894 1077.01L118.894 1094L133.904 1094L133.904 1077.01Z" fill="#90A4AE"/>
<path id="Vector_160" d="M118.894 1077.01L116.82 1077.01L116.82 1094L118.894 1094L118.894 1077.01Z" fill="#CFD8DC"/>
<path id="Vector_161" d="M135.976 1077.01L133.903 1077.01L133.903 1094L135.976 1094L135.976 1077.01Z" fill="#CFD8DC"/>
<path id="Vector_162" d="M24.0988 1077.01L22.0257 1077.01L22.0257 1094L24.0988 1094L24.0988 1077.01Z" fill="#CFD8DC"/>
<path id="Vector_163" d="M41.1819 1077.01L39.1088 1077.01L39.1088 1094L41.1819 1094L41.1819 1077.01Z" fill="#CFD8DC"/>
<path id="Vector_164" d="M133.194 1090.04L133.194 1080.96L119.606 1080.96L119.606 1090.04L133.194 1090.04Z" fill="#37474F"/>
<path id="Vector_165" d="M38.3948 1090.04L38.3948 1080.96L24.8068 1080.96L24.8068 1090.04L38.3948 1090.04Z" fill="#37474F"/>
<path id="Vector_166" d="M57.2777 1077.67L41.1809 1077.01L41.1809 1094L57.2777 1093.33L57.2777 1077.67Z" fill="#90A4AE"/>
<path id="Vector_167" d="M100.723 1077.67L116.82 1077.01L116.82 1094L100.723 1093.33L100.723 1077.67Z" fill="#90A4AE"/>
<path id="Vector_168" d="M2.81534 1092.49L22.0244 1094L22.0244 1077.01L2.81534 1078.51L2.81534 1092.49Z" fill="#90A4AE"/>
<path id="Vector_169" d="M155.185 1092.49L135.976 1094L135.976 1077.01L155.185 1078.51L155.185 1092.49Z" fill="#90A4AE"/>
</g>
<g id="Group_14">
<path id="Vector_170" d="M158 1281.27L135.976 1283L116.82 1283L100.723 1282.33L57.2777 1282.33L41.1809 1283L22.0246 1283L0.000343132 1281.27L0.000343724 1267.73L22.0246 1266.01L41.1809 1266.01L57.2777 1266.67L100.723 1266.67L116.82 1266.01L135.976 1266.01L158 1267.73L158 1281.27Z" fill="#B0BEC5"/>
<path id="Vector_171" d="M39.1088 1266.01L24.0988 1266.01L24.0988 1283L39.1088 1283L39.1088 1266.01Z" fill="#90A4AE"/>
<path id="Vector_172" d="M133.904 1266.01L118.894 1266.01L118.894 1283L133.904 1283L133.904 1266.01Z" fill="#90A4AE"/>
<path id="Vector_173" d="M118.894 1266.01L116.82 1266.01L116.82 1283L118.894 1283L118.894 1266.01Z" fill="#CFD8DC"/>
<path id="Vector_174" d="M135.976 1266.01L133.903 1266.01L133.903 1283L135.976 1283L135.976 1266.01Z" fill="#CFD8DC"/>
<path id="Vector_175" d="M24.0988 1266.01L22.0257 1266.01L22.0257 1283L24.0988 1283L24.0988 1266.01Z" fill="#CFD8DC"/>
<path id="Vector_176" d="M41.1819 1266.01L39.1088 1266.01L39.1088 1283L41.1819 1283L41.1819 1266.01Z" fill="#CFD8DC"/>
<path id="Vector_177" d="M133.194 1279.04L133.194 1269.96L119.606 1269.96L119.606 1279.04L133.194 1279.04Z" fill="#37474F"/>
<path id="Vector_178" d="M38.3948 1279.04L38.3948 1269.96L24.8068 1269.96L24.8068 1279.04L38.3948 1279.04Z" fill="#37474F"/>
<path id="Vector_179" d="M57.2777 1266.67L41.1809 1266.01L41.1809 1283L57.2777 1282.33L57.2777 1266.67Z" fill="#90A4AE"/>
<path id="Vector_180" d="M100.723 1266.67L116.82 1266.01L116.82 1283L100.723 1282.33L100.723 1266.67Z" fill="#90A4AE"/>
<path id="Vector_181" d="M2.81534 1281.49L22.0244 1283L22.0244 1266.01L2.81534 1267.51L2.81534 1281.49Z" fill="#90A4AE"/>
<path id="Vector_182" d="M155.185 1281.49L135.976 1283L135.976 1266.01L155.185 1267.51L155.185 1281.49Z" fill="#90A4AE"/>
</g>
<g id="Group_15">
<path id="Vector_183" d="M158 172.67L135.976 174.398L116.82 174.398L100.723 173.732L57.2777 173.732L41.1809 174.398L22.0246 174.398L0.000343132 172.67L0.000343724 159.134L22.0246 157.406L41.1809 157.406L57.2777 158.071L100.723 158.071L116.82 157.406L135.976 157.406L158 159.134L158 172.67Z" fill="#B0BEC5"/>
<path id="Vector_184" d="M39.1088 157.406L24.0988 157.406L24.0988 174.398L39.1088 174.398L39.1088 157.406Z" fill="#90A4AE"/>
<path id="Vector_185" d="M133.904 157.406L118.894 157.406L118.894 174.398L133.904 174.398L133.904 157.406Z" fill="#90A4AE"/>
<path id="Vector_186" d="M118.894 157.406L116.82 157.406L116.82 174.398L118.894 174.398L118.894 157.406Z" fill="#CFD8DC"/>
<path id="Vector_187" d="M135.977 157.406L133.904 157.406L133.904 174.398L135.977 174.398L135.977 157.406Z" fill="#CFD8DC"/>
<path id="Vector_188" d="M24.0988 157.406L22.0257 157.406L22.0257 174.398L24.0988 174.398L24.0988 157.406Z" fill="#CFD8DC"/>
<path id="Vector_189" d="M41.1819 157.406L39.1088 157.406L39.1088 174.398L41.1819 174.398L41.1819 157.406Z" fill="#CFD8DC"/>
<path id="Vector_190" d="M133.194 170.444L133.194 161.361L119.606 161.361L119.606 170.444L133.194 170.444Z" fill="#37474F"/>
<path id="Vector_191" d="M38.3948 170.444L38.3948 161.361L24.8068 161.361L24.8068 170.444L38.3948 170.444Z" fill="#37474F"/>
<path id="Vector_192" d="M57.2777 158.072L41.1809 157.406L41.1809 174.398L57.2777 173.733L57.2777 158.072Z" fill="#90A4AE"/>
<path id="Vector_193" d="M100.723 158.072L116.82 157.406L116.82 174.398L100.723 173.733L100.723 158.072Z" fill="#90A4AE"/>
<path id="Vector_194" d="M2.81534 172.89L22.0244 174.398L22.0244 157.406L2.81534 158.91L2.81534 172.89Z" fill="#90A4AE"/>
<path id="Vector_195" d="M155.185 172.89L135.976 174.398L135.976 157.406L155.185 158.91L155.185 172.89Z" fill="#90A4AE"/>
</g>
<g id="Group_16">
<path id="Vector_196" d="M158 455.67L135.976 457.398L116.82 457.398L100.723 456.732L57.2777 456.732L41.1809 457.398L22.0246 457.398L0.000343132 455.67L0.000343724 442.134L22.0246 440.406L41.1809 440.406L57.2777 441.071L100.723 441.071L116.82 440.406L135.976 440.406L158 442.134L158 455.67Z" fill="#B0BEC5"/>
<path id="Vector_197" d="M39.1088 440.406L24.0988 440.406L24.0988 457.398L39.1088 457.398L39.1088 440.406Z" fill="#90A4AE"/>
<path id="Vector_198" d="M133.904 440.406L118.894 440.406L118.894 457.398L133.904 457.398L133.904 440.406Z" fill="#90A4AE"/>
<path id="Vector_199" d="M118.894 440.406L116.82 440.406L116.82 457.398L118.894 457.398L118.894 440.406Z" fill="#CFD8DC"/>
<path id="Vector_200" d="M135.977 440.406L133.904 440.406L133.904 457.398L135.977 457.398L135.977 440.406Z" fill="#CFD8DC"/>
<path id="Vector_201" d="M24.0988 440.406L22.0257 440.406L22.0257 457.398L24.0988 457.398L24.0988 440.406Z" fill="#CFD8DC"/>
<path id="Vector_202" d="M41.1819 440.406L39.1088 440.406L39.1088 457.398L41.1819 457.398L41.1819 440.406Z" fill="#CFD8DC"/>
<path id="Vector_203" d="M133.194 453.444L133.194 444.361L119.606 444.361L119.606 453.444L133.194 453.444Z" fill="#37474F"/>
<path id="Vector_204" d="M38.3948 453.444L38.3948 444.361L24.8068 444.361L24.8068 453.444L38.3948 453.444Z" fill="#37474F"/>
<path id="Vector_205" d="M57.2777 441.072L41.1809 440.406L41.1809 457.398L57.2777 456.733L57.2777 441.072Z" fill="#90A4AE"/>
<path id="Vector_206" d="M100.723 441.072L116.82 440.406L116.82 457.398L100.723 456.733L100.723 441.072Z" fill="#90A4AE"/>
<path id="Vector_207" d="M2.81534 455.89L22.0244 457.398L22.0244 440.406L2.81534 441.91L2.81534 455.89Z" fill="#90A4AE"/>
<path id="Vector_208" d="M155.185 455.89L135.976 457.398L135.976 440.406L155.185 441.91L155.185 455.89Z" fill="#90A4AE"/>
</g>
<g id="Group_17">
<path id="Vector_209" d="M158 797.67L135.976 799.398L116.82 799.398L100.723 798.732L57.2777 798.732L41.1809 799.398L22.0246 799.398L0.000343132 797.67L0.000343724 784.134L22.0246 782.406L41.1809 782.406L57.2777 783.071L100.723 783.071L116.82 782.406L135.976 782.406L158 784.134L158 797.67Z" fill="#B0BEC5"/>
<path id="Vector_210" d="M39.1088 782.406L24.0988 782.406L24.0988 799.398L39.1088 799.398L39.1088 782.406Z" fill="#90A4AE"/>
<path id="Vector_211" d="M133.904 782.406L118.894 782.406L118.894 799.398L133.904 799.398L133.904 782.406Z" fill="#90A4AE"/>
<path id="Vector_212" d="M118.894 782.406L116.82 782.406L116.82 799.398L118.894 799.398L118.894 782.406Z" fill="#CFD8DC"/>
<path id="Vector_213" d="M135.977 782.406L133.904 782.406L133.904 799.398L135.977 799.398L135.977 782.406Z" fill="#CFD8DC"/>
<path id="Vector_214" d="M24.0988 782.406L22.0257 782.406L22.0257 799.398L24.0988 799.398L24.0988 782.406Z" fill="#CFD8DC"/>
<path id="Vector_215" d="M41.1819 782.406L39.1088 782.406L39.1088 799.398L41.1819 799.398L41.1819 782.406Z" fill="#CFD8DC"/>
<path id="Vector_216" d="M133.194 795.444L133.194 786.361L119.606 786.361L119.606 795.444L133.194 795.444Z" fill="#37474F"/>
<path id="Vector_217" d="M38.3948 795.444L38.3948 786.361L24.8068 786.361L24.8068 795.444L38.3948 795.444Z" fill="#37474F"/>
<path id="Vector_218" d="M57.2777 783.072L41.1809 782.406L41.1809 799.398L57.2777 798.733L57.2777 783.072Z" fill="#90A4AE"/>
<path id="Vector_219" d="M100.723 783.072L116.82 782.406L116.82 799.398L100.723 798.733L100.723 783.072Z" fill="#90A4AE"/>
<path id="Vector_220" d="M2.81534 797.89L22.0244 799.398L22.0244 782.406L2.81534 783.91L2.81534 797.89Z" fill="#90A4AE"/>
<path id="Vector_221" d="M155.185 797.89L135.976 799.398L135.976 782.406L155.185 783.91L155.185 797.89Z" fill="#90A4AE"/>
</g>
<g id="Group_18">
<path id="Vector_222" d="M158 1139.67L135.976 1141.4L116.82 1141.4L100.723 1140.73L57.2777 1140.73L41.1809 1141.4L22.0246 1141.4L0.000343132 1139.67L0.000343724 1126.13L22.0246 1124.41L41.1809 1124.41L57.2777 1125.07L100.723 1125.07L116.82 1124.41L135.976 1124.41L158 1126.13L158 1139.67Z" fill="#B0BEC5"/>
<path id="Vector_223" d="M39.1088 1124.41L24.0988 1124.41L24.0988 1141.4L39.1088 1141.4L39.1088 1124.41Z" fill="#90A4AE"/>
<path id="Vector_224" d="M133.904 1124.41L118.894 1124.41L118.894 1141.4L133.904 1141.4L133.904 1124.41Z" fill="#90A4AE"/>
<path id="Vector_225" d="M118.894 1124.41L116.82 1124.41L116.82 1141.4L118.894 1141.4L118.894 1124.41Z" fill="#CFD8DC"/>
<path id="Vector_226" d="M135.977 1124.41L133.904 1124.41L133.904 1141.4L135.977 1141.4L135.977 1124.41Z" fill="#CFD8DC"/>
<path id="Vector_227" d="M24.0988 1124.41L22.0257 1124.41L22.0257 1141.4L24.0988 1141.4L24.0988 1124.41Z" fill="#CFD8DC"/>
<path id="Vector_228" d="M41.1819 1124.41L39.1088 1124.41L39.1088 1141.4L41.1819 1141.4L41.1819 1124.41Z" fill="#CFD8DC"/>
<path id="Vector_229" d="M133.194 1137.44L133.194 1128.36L119.606 1128.36L119.606 1137.44L133.194 1137.44Z" fill="#37474F"/>
<path id="Vector_230" d="M38.3948 1137.44L38.3948 1128.36L24.8068 1128.36L24.8068 1137.44L38.3948 1137.44Z" fill="#37474F"/>
<path id="Vector_231" d="M57.2777 1125.07L41.1809 1124.41L41.1809 1141.4L57.2777 1140.73L57.2777 1125.07Z" fill="#90A4AE"/>
<path id="Vector_232" d="M100.723 1125.07L116.82 1124.41L116.82 1141.4L100.723 1140.73L100.723 1125.07Z" fill="#90A4AE"/>
<path id="Vector_233" d="M2.81534 1139.89L22.0244 1141.4L22.0244 1124.41L2.81534 1125.91L2.81534 1139.89Z" fill="#90A4AE"/>
<path id="Vector_234" d="M155.185 1139.89L135.976 1141.4L135.976 1124.41L155.185 1125.91L155.185 1139.89Z" fill="#90A4AE"/>
</g>
<g id="Group_19">
<path id="Vector_235" d="M158 1328.67L135.976 1330.4L116.82 1330.4L100.723 1329.73L57.2777 1329.73L41.1809 1330.4L22.0246 1330.4L0.000343132 1328.67L0.000343724 1315.13L22.0246 1313.41L41.1809 1313.41L57.2777 1314.07L100.723 1314.07L116.82 1313.41L135.976 1313.41L158 1315.13L158 1328.67Z" fill="#B0BEC5"/>
<path id="Vector_236" d="M39.1088 1313.41L24.0988 1313.41L24.0988 1330.4L39.1088 1330.4L39.1088 1313.41Z" fill="#90A4AE"/>
<path id="Vector_237" d="M133.904 1313.41L118.894 1313.41L118.894 1330.4L133.904 1330.4L133.904 1313.41Z" fill="#90A4AE"/>
<path id="Vector_238" d="M118.894 1313.41L116.82 1313.41L116.82 1330.4L118.894 1330.4L118.894 1313.41Z" fill="#CFD8DC"/>
<path id="Vector_239" d="M135.977 1313.41L133.904 1313.41L133.904 1330.4L135.977 1330.4L135.977 1313.41Z" fill="#CFD8DC"/>
<path id="Vector_240" d="M24.0988 1313.41L22.0257 1313.41L22.0257 1330.4L24.0988 1330.4L24.0988 1313.41Z" fill="#CFD8DC"/>
<path id="Vector_241" d="M41.1819 1313.41L39.1088 1313.41L39.1088 1330.4L41.1819 1330.4L41.1819 1313.41Z" fill="#CFD8DC"/>
<path id="Vector_242" d="M133.194 1326.44L133.194 1317.36L119.606 1317.36L119.606 1326.44L133.194 1326.44Z" fill="#37474F"/>
<path id="Vector_243" d="M38.3948 1326.44L38.3948 1317.36L24.8068 1317.36L24.8068 1326.44L38.3948 1326.44Z" fill="#37474F"/>
<path id="Vector_244" d="M57.2777 1314.07L41.1809 1313.41L41.1809 1330.4L57.2777 1329.73L57.2777 1314.07Z" fill="#90A4AE"/>
<path id="Vector_245" d="M100.723 1314.07L116.82 1313.41L116.82 1330.4L100.723 1329.73L100.723 1314.07Z" fill="#90A4AE"/>
<path id="Vector_246" d="M2.81534 1328.89L22.0244 1330.4L22.0244 1313.41L2.81534 1314.91L2.81534 1328.89Z" fill="#90A4AE"/>
<path id="Vector_247" d="M155.185 1328.89L135.976 1330.4L135.976 1313.41L155.185 1314.91L155.185 1328.89Z" fill="#90A4AE"/>
</g>
<g id="Group_20">
<path id="Vector_248" d="M158 220.07L135.976 221.798L116.82 221.798L100.723 221.133L57.2777 221.133L41.1809 221.798L22.0246 221.798L0.000343132 220.07L0.000343724 206.535L22.0246 204.806L41.1809 204.806L57.2777 205.472L100.723 205.472L116.82 204.806L135.976 204.806L158 206.535L158 220.07Z" fill="#B0BEC5"/>
<path id="Vector_249" d="M39.1088 204.807L24.0988 204.807L24.0988 221.799L39.1088 221.799L39.1088 204.807Z" fill="#90A4AE"/>
<path id="Vector_250" d="M133.904 204.807L118.894 204.807L118.894 221.799L133.904 221.799L133.904 204.807Z" fill="#90A4AE"/>
<path id="Vector_251" d="M118.894 204.807L116.82 204.807L116.82 221.799L118.894 221.799L118.894 204.807Z" fill="#CFD8DC"/>
<path id="Vector_252" d="M135.977 204.806L133.904 204.806L133.904 221.798L135.977 221.798L135.977 204.806Z" fill="#CFD8DC"/>
<path id="Vector_253" d="M24.0988 204.807L22.0257 204.807L22.0257 221.799L24.0988 221.799L24.0988 204.807Z" fill="#CFD8DC"/>
<path id="Vector_254" d="M41.1819 204.807L39.1088 204.807L39.1088 221.799L41.1819 221.799L41.1819 204.807Z" fill="#CFD8DC"/>
<path id="Vector_255" d="M133.194 217.843L133.194 208.761L119.606 208.761L119.606 217.843L133.194 217.843Z" fill="#37474F"/>
<path id="Vector_256" d="M38.3948 217.843L38.3948 208.761L24.8068 208.761L24.8068 217.843L38.3948 217.843Z" fill="#37474F"/>
<path id="Vector_257" d="M57.2777 205.472L41.1809 204.807L41.1809 221.799L57.2777 221.133L57.2777 205.472Z" fill="#90A4AE"/>
<path id="Vector_258" d="M100.723 205.472L116.82 204.807L116.82 221.799L100.723 221.133L100.723 205.472Z" fill="#90A4AE"/>
<path id="Vector_259" d="M2.81534 220.29L22.0244 221.799L22.0244 204.807L2.81534 206.31L2.81534 220.29Z" fill="#90A4AE"/>
<path id="Vector_260" d="M155.185 220.29L135.976 221.799L135.976 204.807L155.185 206.31L155.185 220.29Z" fill="#90A4AE"/>
</g>
<g id="Group_21">
<path id="Vector_261" d="M158 503.07L135.976 504.798L116.82 504.798L100.723 504.133L57.2777 504.133L41.1809 504.798L22.0246 504.798L0.000343132 503.07L0.000343724 489.535L22.0246 487.806L41.1809 487.806L57.2777 488.472L100.723 488.472L116.82 487.806L135.976 487.806L158 489.535L158 503.07Z" fill="#B0BEC5"/>
<path id="Vector_262" d="M39.1088 487.807L24.0988 487.807L24.0988 504.799L39.1088 504.799L39.1088 487.807Z" fill="#90A4AE"/>
<path id="Vector_263" d="M133.904 487.807L118.894 487.807L118.894 504.799L133.904 504.799L133.904 487.807Z" fill="#90A4AE"/>
<path id="Vector_264" d="M118.894 487.807L116.82 487.807L116.82 504.799L118.894 504.799L118.894 487.807Z" fill="#CFD8DC"/>
<path id="Vector_265" d="M135.977 487.806L133.904 487.806L133.904 504.798L135.977 504.798L135.977 487.806Z" fill="#CFD8DC"/>
<path id="Vector_266" d="M24.0988 487.807L22.0257 487.807L22.0257 504.799L24.0988 504.799L24.0988 487.807Z" fill="#CFD8DC"/>
<path id="Vector_267" d="M41.1819 487.807L39.1088 487.807L39.1088 504.799L41.1819 504.799L41.1819 487.807Z" fill="#CFD8DC"/>
<path id="Vector_268" d="M133.194 500.843L133.194 491.761L119.606 491.761L119.606 500.843L133.194 500.843Z" fill="#37474F"/>
<path id="Vector_269" d="M38.3948 500.843L38.3948 491.761L24.8068 491.761L24.8068 500.843L38.3948 500.843Z" fill="#37474F"/>
<path id="Vector_270" d="M57.2777 488.472L41.1809 487.807L41.1809 504.799L57.2777 504.133L57.2777 488.472Z" fill="#90A4AE"/>
<path id="Vector_271" d="M100.723 488.472L116.82 487.807L116.82 504.799L100.723 504.133L100.723 488.472Z" fill="#90A4AE"/>
<path id="Vector_272" d="M2.81534 503.29L22.0244 504.799L22.0244 487.807L2.81534 489.31L2.81534 503.29Z" fill="#90A4AE"/>
<path id="Vector_273" d="M155.185 503.29L135.976 504.799L135.976 487.807L155.185 489.31L155.185 503.29Z" fill="#90A4AE"/>
</g>
<g id="Group_22">
<path id="Vector_274" d="M158 845.07L135.976 846.798L116.82 846.798L100.723 846.133L57.2777 846.133L41.1809 846.798L22.0246 846.798L0.000343132 845.07L0.000343724 831.535L22.0246 829.806L41.1809 829.806L57.2777 830.472L100.723 830.472L116.82 829.806L135.976 829.806L158 831.535L158 845.07Z" fill="#B0BEC5"/>
<path id="Vector_275" d="M39.1088 829.807L24.0988 829.807L24.0988 846.799L39.1088 846.799L39.1088 829.807Z" fill="#90A4AE"/>
<path id="Vector_276" d="M133.904 829.807L118.894 829.807L118.894 846.799L133.904 846.799L133.904 829.807Z" fill="#90A4AE"/>
<path id="Vector_277" d="M118.894 829.807L116.82 829.807L116.82 846.799L118.894 846.799L118.894 829.807Z" fill="#CFD8DC"/>
<path id="Vector_278" d="M135.977 829.806L133.904 829.806L133.904 846.798L135.977 846.798L135.977 829.806Z" fill="#CFD8DC"/>
<path id="Vector_279" d="M24.0988 829.807L22.0257 829.807L22.0257 846.799L24.0988 846.799L24.0988 829.807Z" fill="#CFD8DC"/>
<path id="Vector_280" d="M41.1819 829.807L39.1088 829.807L39.1088 846.799L41.1819 846.799L41.1819 829.807Z" fill="#CFD8DC"/>
<path id="Vector_281" d="M133.194 842.843L133.194 833.761L119.606 833.761L119.606 842.843L133.194 842.843Z" fill="#37474F"/>
<path id="Vector_282" d="M38.3948 842.843L38.3948 833.761L24.8068 833.761L24.8068 842.843L38.3948 842.843Z" fill="#37474F"/>
<path id="Vector_283" d="M57.2777 830.472L41.1809 829.807L41.1809 846.799L57.2777 846.133L57.2777 830.472Z" fill="#90A4AE"/>
<path id="Vector_284" d="M100.723 830.472L116.82 829.807L116.82 846.799L100.723 846.133L100.723 830.472Z" fill="#90A4AE"/>
<path id="Vector_285" d="M2.81534 845.29L22.0244 846.799L22.0244 829.807L2.81534 831.31L2.81534 845.29Z" fill="#90A4AE"/>
<path id="Vector_286" d="M155.185 845.29L135.976 846.799L135.976 829.807L155.185 831.31L155.185 845.29Z" fill="#90A4AE"/>
</g>
<g id="Group_23">
<path id="Vector_287" d="M158 1187.07L135.976 1188.8L116.82 1188.8L100.723 1188.13L57.2777 1188.13L41.1809 1188.8L22.0246 1188.8L0.000343132 1187.07L0.000343724 1173.53L22.0246 1171.81L41.1809 1171.81L57.2777 1172.47L100.723 1172.47L116.82 1171.81L135.976 1171.81L158 1173.53L158 1187.07Z" fill="#B0BEC5"/>
<path id="Vector_288" d="M39.1088 1171.81L24.0988 1171.81L24.0988 1188.8L39.1088 1188.8L39.1088 1171.81Z" fill="#90A4AE"/>
<path id="Vector_289" d="M133.904 1171.81L118.894 1171.81L118.894 1188.8L133.904 1188.8L133.904 1171.81Z" fill="#90A4AE"/>
<path id="Vector_290" d="M118.894 1171.81L116.82 1171.81L116.82 1188.8L118.894 1188.8L118.894 1171.81Z" fill="#CFD8DC"/>
<path id="Vector_291" d="M135.977 1171.81L133.904 1171.81L133.904 1188.8L135.977 1188.8L135.977 1171.81Z" fill="#CFD8DC"/>
<path id="Vector_292" d="M24.0988 1171.81L22.0257 1171.81L22.0257 1188.8L24.0988 1188.8L24.0988 1171.81Z" fill="#CFD8DC"/>
<path id="Vector_293" d="M41.1819 1171.81L39.1088 1171.81L39.1088 1188.8L41.1819 1188.8L41.1819 1171.81Z" fill="#CFD8DC"/>
<path id="Vector_294" d="M133.194 1184.84L133.194 1175.76L119.606 1175.76L119.606 1184.84L133.194 1184.84Z" fill="#37474F"/>
<path id="Vector_295" d="M38.3948 1184.84L38.3948 1175.76L24.8068 1175.76L24.8068 1184.84L38.3948 1184.84Z" fill="#37474F"/>
<path id="Vector_296" d="M57.2777 1172.47L41.1809 1171.81L41.1809 1188.8L57.2777 1188.13L57.2777 1172.47Z" fill="#90A4AE"/>
<path id="Vector_297" d="M100.723 1172.47L116.82 1171.81L116.82 1188.8L100.723 1188.13L100.723 1172.47Z" fill="#90A4AE"/>
<path id="Vector_298" d="M2.81534 1187.29L22.0244 1188.8L22.0244 1171.81L2.81534 1173.31L2.81534 1187.29Z" fill="#90A4AE"/>
<path id="Vector_299" d="M155.185 1187.29L135.976 1188.8L135.976 1171.81L155.185 1173.31L155.185 1187.29Z" fill="#90A4AE"/>
</g>
<g id="Group_24">
<path id="Vector_300" d="M158 1376.07L135.976 1377.8L116.82 1377.8L100.723 1377.13L57.2777 1377.13L41.1809 1377.8L22.0246 1377.8L0.000343132 1376.07L0.000343724 1362.53L22.0246 1360.81L41.1809 1360.81L57.2777 1361.47L100.723 1361.47L116.82 1360.81L135.976 1360.81L158 1362.53L158 1376.07Z" fill="#B0BEC5"/>
<path id="Vector_301" d="M39.1088 1360.81L24.0988 1360.81L24.0988 1377.8L39.1088 1377.8L39.1088 1360.81Z" fill="#90A4AE"/>
<path id="Vector_302" d="M133.904 1360.81L118.894 1360.81L118.894 1377.8L133.904 1377.8L133.904 1360.81Z" fill="#90A4AE"/>
<path id="Vector_303" d="M118.894 1360.81L116.82 1360.81L116.82 1377.8L118.894 1377.8L118.894 1360.81Z" fill="#CFD8DC"/>
<path id="Vector_304" d="M135.977 1360.81L133.904 1360.81L133.904 1377.8L135.977 1377.8L135.977 1360.81Z" fill="#CFD8DC"/>
<path id="Vector_305" d="M24.0988 1360.81L22.0257 1360.81L22.0257 1377.8L24.0988 1377.8L24.0988 1360.81Z" fill="#CFD8DC"/>
<path id="Vector_306" d="M41.1819 1360.81L39.1088 1360.81L39.1088 1377.8L41.1819 1377.8L41.1819 1360.81Z" fill="#CFD8DC"/>
<path id="Vector_307" d="M133.194 1373.84L133.194 1364.76L119.606 1364.76L119.606 1373.84L133.194 1373.84Z" fill="#37474F"/>
<path id="Vector_308" d="M38.3948 1373.84L38.3948 1364.76L24.8068 1364.76L24.8068 1373.84L38.3948 1373.84Z" fill="#37474F"/>
<path id="Vector_309" d="M57.2777 1361.47L41.1809 1360.81L41.1809 1377.8L57.2777 1377.13L57.2777 1361.47Z" fill="#90A4AE"/>
<path id="Vector_310" d="M100.723 1361.47L116.82 1360.81L116.82 1377.8L100.723 1377.13L100.723 1361.47Z" fill="#90A4AE"/>
<path id="Vector_311" d="M2.81534 1376.29L22.0244 1377.8L22.0244 1360.81L2.81534 1362.31L2.81534 1376.29Z" fill="#90A4AE"/>
<path id="Vector_312" d="M155.185 1376.29L135.976 1377.8L135.976 1360.81L155.185 1362.31L155.185 1376.29Z" fill="#90A4AE"/>
</g>
<g id="Group_25">
<path id="Vector_313" d="M158 267.47L135.976 269.198L116.82 269.198L100.723 268.533L57.2777 268.533L41.1809 269.198L22.0246 269.198L0.000343132 267.47L0.000343724 253.935L22.0246 252.206L41.1809 252.206L57.2777 252.872L100.723 252.872L116.82 252.206L135.976 252.206L158 253.935L158 267.47Z" fill="#B0BEC5"/>
<path id="Vector_314" d="M39.1088 252.207L24.0988 252.207L24.0988 269.199L39.1088 269.199L39.1088 252.207Z" fill="#90A4AE"/>
<path id="Vector_315" d="M133.904 252.207L118.894 252.207L118.894 269.199L133.904 269.199L133.904 252.207Z" fill="#90A4AE"/>
<path id="Vector_316" d="M118.894 252.207L116.82 252.207L116.82 269.199L118.894 269.199L118.894 252.207Z" fill="#CFD8DC"/>
<path id="Vector_317" d="M135.977 252.206L133.904 252.206L133.904 269.198L135.977 269.198L135.977 252.206Z" fill="#CFD8DC"/>
<path id="Vector_318" d="M24.0988 252.207L22.0257 252.207L22.0257 269.199L24.0988 269.199L24.0988 252.207Z" fill="#CFD8DC"/>
<path id="Vector_319" d="M41.1819 252.207L39.1088 252.207L39.1088 269.199L41.1819 269.199L41.1819 252.207Z" fill="#CFD8DC"/>
<path id="Vector_320" d="M133.194 265.244L133.194 256.161L119.606 256.161L119.606 265.244L133.194 265.244Z" fill="#37474F"/>
<path id="Vector_321" d="M38.3948 265.244L38.3948 256.161L24.8068 256.161L24.8068 265.244L38.3948 265.244Z" fill="#37474F"/>
<path id="Vector_322" d="M57.2777 252.872L41.1809 252.207L41.1809 269.199L57.2777 268.533L57.2777 252.872Z" fill="#90A4AE"/>
<path id="Vector_323" d="M100.723 252.872L116.82 252.207L116.82 269.199L100.723 268.533L100.723 252.872Z" fill="#90A4AE"/>
<path id="Vector_324" d="M2.81534 267.691L22.0244 269.199L22.0244 252.207L2.81534 253.71L2.81534 267.691Z" fill="#90A4AE"/>
<path id="Vector_325" d="M155.185 267.691L135.976 269.199L135.976 252.207L155.185 253.71L155.185 267.691Z" fill="#90A4AE"/>
</g>
<g id="Group_26">
<path id="Vector_326" d="M158 550.47L135.976 552.198L116.82 552.198L100.723 551.533L57.2777 551.533L41.1809 552.198L22.0246 552.198L0.000343132 550.47L0.000343724 536.935L22.0246 535.206L41.1809 535.206L57.2777 535.872L100.723 535.872L116.82 535.206L135.976 535.206L158 536.935L158 550.47Z" fill="#B0BEC5"/>
<path id="Vector_327" d="M39.1088 535.207L24.0988 535.207L24.0988 552.199L39.1088 552.199L39.1088 535.207Z" fill="#90A4AE"/>
<path id="Vector_328" d="M133.904 535.207L118.894 535.207L118.894 552.199L133.904 552.199L133.904 535.207Z" fill="#90A4AE"/>
<path id="Vector_329" d="M118.894 535.207L116.82 535.207L116.82 552.199L118.894 552.199L118.894 535.207Z" fill="#CFD8DC"/>
<path id="Vector_330" d="M135.977 535.206L133.904 535.206L133.904 552.198L135.977 552.198L135.977 535.206Z" fill="#CFD8DC"/>
<path id="Vector_331" d="M24.0988 535.207L22.0257 535.207L22.0257 552.199L24.0988 552.199L24.0988 535.207Z" fill="#CFD8DC"/>
<path id="Vector_332" d="M41.1819 535.207L39.1088 535.207L39.1088 552.199L41.1819 552.199L41.1819 535.207Z" fill="#CFD8DC"/>
<path id="Vector_333" d="M133.194 548.244L133.194 539.161L119.606 539.161L119.606 548.244L133.194 548.244Z" fill="#37474F"/>
<path id="Vector_334" d="M38.3948 548.244L38.3948 539.161L24.8068 539.161L24.8068 548.244L38.3948 548.244Z" fill="#37474F"/>
<path id="Vector_335" d="M57.2777 535.872L41.1809 535.207L41.1809 552.199L57.2777 551.533L57.2777 535.872Z" fill="#90A4AE"/>
<path id="Vector_336" d="M100.723 535.872L116.82 535.207L116.82 552.199L100.723 551.533L100.723 535.872Z" fill="#90A4AE"/>
<path id="Vector_337" d="M2.81534 550.691L22.0244 552.199L22.0244 535.207L2.81534 536.71L2.81534 550.691Z" fill="#90A4AE"/>
<path id="Vector_338" d="M155.185 550.691L135.976 552.199L135.976 535.207L155.185 536.71L155.185 550.691Z" fill="#90A4AE"/>
</g>
<g id="Group_27">
<path id="Vector_339" d="M158 892.47L135.976 894.198L116.82 894.198L100.723 893.533L57.2777 893.533L41.1809 894.198L22.0246 894.198L0.000343132 892.47L0.000343724 878.935L22.0246 877.206L41.1809 877.206L57.2777 877.872L100.723 877.872L116.82 877.206L135.976 877.206L158 878.935L158 892.47Z" fill="#B0BEC5"/>
<path id="Vector_340" d="M39.1088 877.207L24.0988 877.207L24.0988 894.199L39.1088 894.199L39.1088 877.207Z" fill="#90A4AE"/>
<path id="Vector_341" d="M133.904 877.207L118.894 877.207L118.894 894.199L133.904 894.199L133.904 877.207Z" fill="#90A4AE"/>
<path id="Vector_342" d="M118.894 877.207L116.82 877.207L116.82 894.199L118.894 894.199L118.894 877.207Z" fill="#CFD8DC"/>
<path id="Vector_343" d="M135.977 877.206L133.904 877.206L133.904 894.198L135.977 894.198L135.977 877.206Z" fill="#CFD8DC"/>
<path id="Vector_344" d="M24.0988 877.207L22.0257 877.207L22.0257 894.199L24.0988 894.199L24.0988 877.207Z" fill="#CFD8DC"/>
<path id="Vector_345" d="M41.1819 877.207L39.1088 877.207L39.1088 894.199L41.1819 894.199L41.1819 877.207Z" fill="#CFD8DC"/>
<path id="Vector_346" d="M133.194 890.244L133.194 881.161L119.606 881.161L119.606 890.244L133.194 890.244Z" fill="#37474F"/>
<path id="Vector_347" d="M38.3948 890.244L38.3948 881.161L24.8068 881.161L24.8068 890.244L38.3948 890.244Z" fill="#37474F"/>
<path id="Vector_348" d="M57.2777 877.872L41.1809 877.207L41.1809 894.199L57.2777 893.533L57.2777 877.872Z" fill="#90A4AE"/>
<path id="Vector_349" d="M100.723 877.872L116.82 877.207L116.82 894.199L100.723 893.533L100.723 877.872Z" fill="#90A4AE"/>
<path id="Vector_350" d="M2.81534 892.691L22.0244 894.199L22.0244 877.207L2.81534 878.71L2.81534 892.691Z" fill="#90A4AE"/>
<path id="Vector_351" d="M155.185 892.691L135.976 894.199L135.976 877.207L155.185 878.71L155.185 892.691Z" fill="#90A4AE"/>
</g>
<g id="Group_28">
<path id="Vector_352" d="M158 1234.47L135.976 1236.2L116.82 1236.2L100.723 1235.53L57.2777 1235.53L41.1809 1236.2L22.0246 1236.2L0.000343132 1234.47L0.000343724 1220.93L22.0246 1219.21L41.1809 1219.21L57.2777 1219.87L100.723 1219.87L116.82 1219.21L135.976 1219.21L158 1220.93L158 1234.47Z" fill="#B0BEC5"/>
<path id="Vector_353" d="M39.1088 1219.21L24.0988 1219.21L24.0988 1236.2L39.1088 1236.2L39.1088 1219.21Z" fill="#90A4AE"/>
<path id="Vector_354" d="M133.904 1219.21L118.894 1219.21L118.894 1236.2L133.904 1236.2L133.904 1219.21Z" fill="#90A4AE"/>
<path id="Vector_355" d="M118.894 1219.21L116.82 1219.21L116.82 1236.2L118.894 1236.2L118.894 1219.21Z" fill="#CFD8DC"/>
<path id="Vector_356" d="M135.977 1219.21L133.904 1219.21L133.904 1236.2L135.977 1236.2L135.977 1219.21Z" fill="#CFD8DC"/>
<path id="Vector_357" d="M24.0988 1219.21L22.0257 1219.21L22.0257 1236.2L24.0988 1236.2L24.0988 1219.21Z" fill="#CFD8DC"/>
<path id="Vector_358" d="M41.1819 1219.21L39.1088 1219.21L39.1088 1236.2L41.1819 1236.2L41.1819 1219.21Z" fill="#CFD8DC"/>
<path id="Vector_359" d="M133.194 1232.24L133.194 1223.16L119.606 1223.16L119.606 1232.24L133.194 1232.24Z" fill="#37474F"/>
<path id="Vector_360" d="M38.3948 1232.24L38.3948 1223.16L24.8068 1223.16L24.8068 1232.24L38.3948 1232.24Z" fill="#37474F"/>
<path id="Vector_361" d="M57.2777 1219.87L41.1809 1219.21L41.1809 1236.2L57.2777 1235.53L57.2777 1219.87Z" fill="#90A4AE"/>
<path id="Vector_362" d="M100.723 1219.87L116.82 1219.21L116.82 1236.2L100.723 1235.53L100.723 1219.87Z" fill="#90A4AE"/>
<path id="Vector_363" d="M2.81534 1234.69L22.0244 1236.2L22.0244 1219.21L2.81534 1220.71L2.81534 1234.69Z" fill="#90A4AE"/>
<path id="Vector_364" d="M155.185 1234.69L135.976 1236.2L135.976 1219.21L155.185 1220.71L155.185 1234.69Z" fill="#90A4AE"/>
</g>
<g id="Group_29">
<path id="Vector_365" d="M158 1423.47L135.976 1425.2L116.82 1425.2L100.723 1424.53L57.2777 1424.53L41.1809 1425.2L22.0246 1425.2L0.000343132 1423.47L0.000343724 1409.93L22.0246 1408.21L41.1809 1408.21L57.2777 1408.87L100.723 1408.87L116.82 1408.21L135.976 1408.21L158 1409.93L158 1423.47Z" fill="#B0BEC5"/>
<path id="Vector_366" d="M39.1088 1408.21L24.0988 1408.21L24.0988 1425.2L39.1088 1425.2L39.1088 1408.21Z" fill="#90A4AE"/>
<path id="Vector_367" d="M133.904 1408.21L118.894 1408.21L118.894 1425.2L133.904 1425.2L133.904 1408.21Z" fill="#90A4AE"/>
<path id="Vector_368" d="M118.894 1408.21L116.82 1408.21L116.82 1425.2L118.894 1425.2L118.894 1408.21Z" fill="#CFD8DC"/>
<path id="Vector_369" d="M135.977 1408.21L133.904 1408.21L133.904 1425.2L135.977 1425.2L135.977 1408.21Z" fill="#CFD8DC"/>
<path id="Vector_370" d="M24.0988 1408.21L22.0257 1408.21L22.0257 1425.2L24.0988 1425.2L24.0988 1408.21Z" fill="#CFD8DC"/>
<path id="Vector_371" d="M41.1819 1408.21L39.1088 1408.21L39.1088 1425.2L41.1819 1425.2L41.1819 1408.21Z" fill="#CFD8DC"/>
<path id="Vector_372" d="M133.194 1421.24L133.194 1412.16L119.606 1412.16L119.606 1421.24L133.194 1421.24Z" fill="#37474F"/>
<path id="Vector_373" d="M38.3948 1421.24L38.3948 1412.16L24.8068 1412.16L24.8068 1421.24L38.3948 1421.24Z" fill="#37474F"/>
<path id="Vector_374" d="M57.2777 1408.87L41.1809 1408.21L41.1809 1425.2L57.2777 1424.53L57.2777 1408.87Z" fill="#90A4AE"/>
<path id="Vector_375" d="M100.723 1408.87L116.82 1408.21L116.82 1425.2L100.723 1424.53L100.723 1408.87Z" fill="#90A4AE"/>
<path id="Vector_376" d="M2.81534 1423.69L22.0244 1425.2L22.0244 1408.21L2.81534 1409.71L2.81534 1423.69Z" fill="#90A4AE"/>
<path id="Vector_377" d="M155.185 1423.69L135.976 1425.2L135.976 1408.21L155.185 1409.71L155.185 1423.69Z" fill="#90A4AE"/>
</g>
<g id="Group_30">
<path id="Vector_378" d="M158 314.87L135.976 316.598L116.819 316.598L100.723 315.933L57.2774 315.933L41.1805 316.598L22.0243 316.598L-2.30785e-05 314.87L-2.24869e-05 301.334L22.0243 299.606L41.1805 299.606L57.2774 300.272L100.723 300.272L116.819 299.606L135.976 299.606L158 301.334L158 314.87Z" fill="#B0BEC5"/>
<path id="Vector_379" d="M39.1085 299.607L24.0984 299.607L24.0984 316.599L39.1085 316.599L39.1085 299.607Z" fill="#90A4AE"/>
<path id="Vector_380" d="M133.903 299.607L118.893 299.607L118.893 316.599L133.903 316.599L133.903 299.607Z" fill="#90A4AE"/>
<path id="Vector_381" d="M118.893 299.607L116.82 299.607L116.82 316.599L118.893 316.599L118.893 299.607Z" fill="#CFD8DC"/>
<path id="Vector_382" d="M135.976 299.606L133.903 299.606L133.903 316.598L135.976 316.598L135.976 299.606Z" fill="#CFD8DC"/>
<path id="Vector_383" d="M24.0985 299.607L22.0253 299.607L22.0253 316.599L24.0985 316.599L24.0985 299.607Z" fill="#CFD8DC"/>
<path id="Vector_384" d="M41.1816 299.607L39.1084 299.607L39.1084 316.599L41.1816 316.599L41.1816 299.607Z" fill="#CFD8DC"/>
<path id="Vector_385" d="M133.194 312.644L133.194 303.561L119.606 303.561L119.606 312.644L133.194 312.644Z" fill="#37474F"/>
<path id="Vector_386" d="M38.3945 312.644L38.3945 303.561L24.8065 303.561L24.8065 312.644L38.3945 312.644Z" fill="#37474F"/>
<path id="Vector_387" d="M57.2774 300.272L41.1806 299.607L41.1806 316.599L57.2774 315.933L57.2774 300.272Z" fill="#90A4AE"/>
<path id="Vector_388" d="M100.723 300.272L116.82 299.607L116.82 316.599L100.723 315.933L100.723 300.272Z" fill="#90A4AE"/>
<path id="Vector_389" d="M2.815 315.091L22.024 316.599L22.024 299.607L2.815 301.11L2.815 315.091Z" fill="#90A4AE"/>
<path id="Vector_390" d="M155.185 315.091L135.976 316.599L135.976 299.607L155.185 301.11L155.185 315.091Z" fill="#90A4AE"/>
</g>
<g id="Group_31">
<path id="Vector_391" d="M158 597.87L135.976 599.598L116.819 599.598L100.723 598.933L57.2774 598.933L41.1805 599.598L22.0243 599.598L-2.30785e-05 597.87L-2.24869e-05 584.334L22.0243 582.606L41.1805 582.606L57.2774 583.272L100.723 583.272L116.819 582.606L135.976 582.606L158 584.334L158 597.87Z" fill="#B0BEC5"/>
<path id="Vector_392" d="M39.1085 582.607L24.0984 582.607L24.0984 599.599L39.1085 599.599L39.1085 582.607Z" fill="#90A4AE"/>
<path id="Vector_393" d="M133.903 582.607L118.893 582.607L118.893 599.599L133.903 599.599L133.903 582.607Z" fill="#90A4AE"/>
<path id="Vector_394" d="M118.893 582.607L116.82 582.607L116.82 599.599L118.893 599.599L118.893 582.607Z" fill="#CFD8DC"/>
<path id="Vector_395" d="M135.976 582.606L133.903 582.606L133.903 599.598L135.976 599.598L135.976 582.606Z" fill="#CFD8DC"/>
<path id="Vector_396" d="M24.0985 582.607L22.0253 582.607L22.0253 599.599L24.0985 599.599L24.0985 582.607Z" fill="#CFD8DC"/>
<path id="Vector_397" d="M41.1816 582.607L39.1084 582.607L39.1084 599.599L41.1816 599.599L41.1816 582.607Z" fill="#CFD8DC"/>
<path id="Vector_398" d="M133.194 595.644L133.194 586.561L119.606 586.561L119.606 595.644L133.194 595.644Z" fill="#37474F"/>
<path id="Vector_399" d="M38.3945 595.644L38.3945 586.561L24.8065 586.561L24.8065 595.644L38.3945 595.644Z" fill="#37474F"/>
<path id="Vector_400" d="M57.2774 583.272L41.1806 582.607L41.1806 599.599L57.2774 598.933L57.2774 583.272Z" fill="#90A4AE"/>
<path id="Vector_401" d="M100.723 583.272L116.82 582.607L116.82 599.599L100.723 598.933L100.723 583.272Z" fill="#90A4AE"/>
<path id="Vector_402" d="M2.815 598.091L22.024 599.599L22.024 582.607L2.815 584.11L2.815 598.091Z" fill="#90A4AE"/>
<path id="Vector_403" d="M155.185 598.091L135.976 599.599L135.976 582.607L155.185 584.11L155.185 598.091Z" fill="#90A4AE"/>
</g>
<g id="Group_32">
<path id="Vector_404" d="M158 939.87L135.976 941.598L116.819 941.598L100.723 940.933L57.2774 940.933L41.1805 941.598L22.0243 941.598L-2.30785e-05 939.87L-2.24869e-05 926.334L22.0243 924.606L41.1805 924.606L57.2774 925.272L100.723 925.272L116.819 924.606L135.976 924.606L158 926.334L158 939.87Z" fill="#B0BEC5"/>
<path id="Vector_405" d="M39.1085 924.607L24.0984 924.607L24.0984 941.599L39.1085 941.599L39.1085 924.607Z" fill="#90A4AE"/>
<path id="Vector_406" d="M133.903 924.607L118.893 924.607L118.893 941.599L133.903 941.599L133.903 924.607Z" fill="#90A4AE"/>
<path id="Vector_407" d="M118.893 924.607L116.82 924.607L116.82 941.599L118.893 941.599L118.893 924.607Z" fill="#CFD8DC"/>
<path id="Vector_408" d="M135.976 924.606L133.903 924.606L133.903 941.598L135.976 941.598L135.976 924.606Z" fill="#CFD8DC"/>
<path id="Vector_409" d="M24.0985 924.607L22.0253 924.607L22.0253 941.599L24.0985 941.599L24.0985 924.607Z" fill="#CFD8DC"/>
<path id="Vector_410" d="M41.1816 924.607L39.1084 924.607L39.1084 941.599L41.1816 941.599L41.1816 924.607Z" fill="#CFD8DC"/>
<path id="Vector_411" d="M133.194 937.644L133.194 928.561L119.606 928.561L119.606 937.644L133.194 937.644Z" fill="#37474F"/>
<path id="Vector_412" d="M38.3945 937.644L38.3945 928.561L24.8065 928.561L24.8065 937.644L38.3945 937.644Z" fill="#37474F"/>
<path id="Vector_413" d="M57.2774 925.272L41.1806 924.607L41.1806 941.599L57.2774 940.933L57.2774 925.272Z" fill="#90A4AE"/>
<path id="Vector_414" d="M100.723 925.272L116.82 924.607L116.82 941.599L100.723 940.933L100.723 925.272Z" fill="#90A4AE"/>
<path id="Vector_415" d="M2.815 940.091L22.024 941.599L22.024 924.607L2.815 926.11L2.815 940.091Z" fill="#90A4AE"/>
<path id="Vector_416" d="M155.185 940.091L135.976 941.599L135.976 924.607L155.185 926.11L155.185 940.091Z" fill="#90A4AE"/>
</g>
<g id="Group_33">
<path id="Vector_417" d="M158 1281.87L135.976 1283.6L116.819 1283.6L100.723 1282.93L57.2774 1282.93L41.1805 1283.6L22.0243 1283.6L-2.30785e-05 1281.87L-2.24869e-05 1268.33L22.0243 1266.61L41.1805 1266.61L57.2774 1267.27L100.723 1267.27L116.819 1266.61L135.976 1266.61L158 1268.33L158 1281.87Z" fill="#B0BEC5"/>
<path id="Vector_418" d="M39.1085 1266.61L24.0984 1266.61L24.0984 1283.6L39.1085 1283.6L39.1085 1266.61Z" fill="#90A4AE"/>
<path id="Vector_419" d="M133.903 1266.61L118.893 1266.61L118.893 1283.6L133.903 1283.6L133.903 1266.61Z" fill="#90A4AE"/>
<path id="Vector_420" d="M118.893 1266.61L116.82 1266.61L116.82 1283.6L118.893 1283.6L118.893 1266.61Z" fill="#CFD8DC"/>
<path id="Vector_421" d="M135.976 1266.61L133.903 1266.61L133.903 1283.6L135.976 1283.6L135.976 1266.61Z" fill="#CFD8DC"/>
<path id="Vector_422" d="M24.0985 1266.61L22.0253 1266.61L22.0253 1283.6L24.0985 1283.6L24.0985 1266.61Z" fill="#CFD8DC"/>
<path id="Vector_423" d="M41.1816 1266.61L39.1084 1266.61L39.1084 1283.6L41.1816 1283.6L41.1816 1266.61Z" fill="#CFD8DC"/>
<path id="Vector_424" d="M133.194 1279.64L133.194 1270.56L119.606 1270.56L119.606 1279.64L133.194 1279.64Z" fill="#37474F"/>
<path id="Vector_425" d="M38.3945 1279.64L38.3945 1270.56L24.8065 1270.56L24.8065 1279.64L38.3945 1279.64Z" fill="#37474F"/>
<path id="Vector_426" d="M57.2774 1267.27L41.1806 1266.61L41.1806 1283.6L57.2774 1282.93L57.2774 1267.27Z" fill="#90A4AE"/>
<path id="Vector_427" d="M100.723 1267.27L116.82 1266.61L116.82 1283.6L100.723 1282.93L100.723 1267.27Z" fill="#90A4AE"/>
<path id="Vector_428" d="M2.815 1282.09L22.024 1283.6L22.024 1266.61L2.815 1268.11L2.815 1282.09Z" fill="#90A4AE"/>
<path id="Vector_429" d="M155.185 1282.09L135.976 1283.6L135.976 1266.61L155.185 1268.11L155.185 1282.09Z" fill="#90A4AE"/>
</g>
<g id="Group_34">
<path id="Vector_430" d="M158 1470.87L135.976 1472.6L116.819 1472.6L100.723 1471.93L57.2774 1471.93L41.1805 1472.6L22.0243 1472.6L-2.30785e-05 1470.87L-2.24869e-05 1457.33L22.0243 1455.61L41.1805 1455.61L57.2774 1456.27L100.723 1456.27L116.819 1455.61L135.976 1455.61L158 1457.33L158 1470.87Z" fill="#B0BEC5"/>
<path id="Vector_431" d="M39.1085 1455.61L24.0984 1455.61L24.0984 1472.6L39.1085 1472.6L39.1085 1455.61Z" fill="#90A4AE"/>
<path id="Vector_432" d="M133.903 1455.61L118.893 1455.61L118.893 1472.6L133.903 1472.6L133.903 1455.61Z" fill="#90A4AE"/>
<path id="Vector_433" d="M118.893 1455.61L116.82 1455.61L116.82 1472.6L118.893 1472.6L118.893 1455.61Z" fill="#CFD8DC"/>
<path id="Vector_434" d="M135.976 1455.61L133.903 1455.61L133.903 1472.6L135.976 1472.6L135.976 1455.61Z" fill="#CFD8DC"/>
<path id="Vector_435" d="M24.0985 1455.61L22.0253 1455.61L22.0253 1472.6L24.0985 1472.6L24.0985 1455.61Z" fill="#CFD8DC"/>
<path id="Vector_436" d="M41.1816 1455.61L39.1084 1455.61L39.1084 1472.6L41.1816 1472.6L41.1816 1455.61Z" fill="#CFD8DC"/>
<path id="Vector_437" d="M133.194 1468.64L133.194 1459.56L119.606 1459.56L119.606 1468.64L133.194 1468.64Z" fill="#37474F"/>
<path id="Vector_438" d="M38.3945 1468.64L38.3945 1459.56L24.8065 1459.56L24.8065 1468.64L38.3945 1468.64Z" fill="#37474F"/>
<path id="Vector_439" d="M57.2774 1456.27L41.1806 1455.61L41.1806 1472.6L57.2774 1471.93L57.2774 1456.27Z" fill="#90A4AE"/>
<path id="Vector_440" d="M100.723 1456.27L116.82 1455.61L116.82 1472.6L100.723 1471.93L100.723 1456.27Z" fill="#90A4AE"/>
<path id="Vector_441" d="M2.815 1471.09L22.024 1472.6L22.024 1455.61L2.815 1457.11L2.815 1471.09Z" fill="#90A4AE"/>
<path id="Vector_442" d="M155.185 1471.09L135.976 1472.6L135.976 1455.61L155.185 1457.11L155.185 1471.09Z" fill="#90A4AE"/>
</g>
<g id="Group_35">
<path id="Vector_443" d="M131.14 379.2L131.14 0L121.66 -4.14383e-07L121.66 379.2L131.14 379.2Z" fill="#455A64"/>
<path id="Vector_444" d="M36.3399 379.2L36.34 0L26.86 -4.14383e-07L26.86 379.2L36.3399 379.2Z" fill="#455A64"/>
<path id="Vector_445" d="M34.6162 379.2L34.6162 0L28.5883 -2.63487e-07L28.5883 379.2L34.6162 379.2Z" fill="#526873"/>
<path id="Vector_446" d="M129.412 379.2L129.412 0L123.384 -2.6349e-07L123.384 379.2L129.412 379.2Z" fill="#526873"/>
</g>
<g id="Group_36">
<path id="Vector_447" d="M131.14 662.2L131.14 283L121.66 283L121.66 662.2L131.14 662.2Z" fill="#455A64"/>
<path id="Vector_448" d="M36.3399 662.2L36.34 283L26.86 283L26.86 662.2L36.3399 662.2Z" fill="#455A64"/>
<path id="Vector_449" d="M34.6162 662.2L34.6162 283L28.5883 283L28.5883 662.2L34.6162 662.2Z" fill="#526873"/>
<path id="Vector_450" d="M129.412 662.2L129.412 283L123.384 283L123.384 662.2L129.412 662.2Z" fill="#526873"/>
</g>
<g id="Group_37">
<path id="Vector_451" d="M131.14 1004.2L131.14 625L121.66 625L121.66 1004.2L131.14 1004.2Z" fill="#455A64"/>
<path id="Vector_452" d="M36.3399 1004.2L36.34 625L26.86 625L26.86 1004.2L36.3399 1004.2Z" fill="#455A64"/>
<path id="Vector_453" d="M34.6162 1004.2L34.6162 625L28.5883 625L28.5883 1004.2L34.6162 1004.2Z" fill="#526873"/>
<path id="Vector_454" d="M129.412 1004.2L129.412 625L123.384 625L123.384 1004.2L129.412 1004.2Z" fill="#526873"/>
</g>
<g id="Group_38">
<path id="Vector_455" d="M131.14 1346.2L131.14 967L121.66 967L121.66 1346.2L131.14 1346.2Z" fill="#455A64"/>
<path id="Vector_456" d="M36.3399 1346.2L36.34 967L26.86 967L26.86 1346.2L36.3399 1346.2Z" fill="#455A64"/>
<path id="Vector_457" d="M34.6162 1346.2L34.6162 967L28.5883 967L28.5883 1346.2L34.6162 1346.2Z" fill="#526873"/>
<path id="Vector_458" d="M129.412 1346.2L129.412 967L123.384 967L123.384 1346.2L129.412 1346.2Z" fill="#526873"/>
</g>
<g id="Group_39">
<path id="Vector_459" d="M131.14 1535.2L131.14 1156L121.66 1156L121.66 1535.2L131.14 1535.2Z" fill="#455A64"/>
<path id="Vector_460" d="M36.3399 1535.2L36.34 1156L26.86 1156L26.86 1535.2L36.3399 1535.2Z" fill="#455A64"/>
<path id="Vector_461" d="M34.6162 1535.2L34.6162 1156L28.5883 1156L28.5883 1535.2L34.6162 1535.2Z" fill="#526873"/>
<path id="Vector_462" d="M129.412 1535.2L129.412 1156L123.384 1156L123.384 1535.2L129.412 1535.2Z" fill="#526873"/>
</g>
</g>
</svg>
