<svg xmlns="http://www.w3.org/2000/svg" viewBox="0 0 417.42 346.24"><defs><style>.cls-1{isolation:isolate;}.cls-14,.cls-2{fill:#4f4bab;}.cls-2{opacity:0.2;}.cls-3{fill:#fff;}.cls-4{fill:#5fcc7b;}.cls-5{fill:#ffbfa6;}.cls-17,.cls-19,.cls-20,.cls-22,.cls-24,.cls-25,.cls-6{fill:none;stroke-width:2px;}.cls-6{stroke:#d17c6b;}.cls-17,.cls-19,.cls-20,.cls-22,.cls-24,.cls-6{stroke-miterlimit:10;}.cls-7{fill:#fcb94e;}.cls-8{fill:#1a1538;}.cls-9{fill:#ff725e;}.cls-10,.cls-11{fill:#8c533c;}.cls-10,.cls-13,.cls-15,.cls-16{mix-blend-mode:multiply;}.cls-10,.cls-13{opacity:0.25;}.cls-12,.cls-15{fill:#080399;}.cls-13,.cls-18{fill:#38261f;}.cls-15,.cls-16{opacity:0.17;}.cls-17{stroke:#8c533c;}.cls-19{stroke:#fff;}.cls-20{stroke:#a66e37;}.cls-21{fill:#ffeb54;}.cls-22{stroke:#36302d;}.cls-23{fill:#362b75;}.cls-24,.cls-25{stroke:#4f4bab;stroke-linecap:round;}.cls-25{stroke-linejoin:round;}</style></defs><g class="cls-1"><g id="BACKGROUND"><path class="cls-2" d="M499.84,122.27a2.88,2.88,0,0,1-4.18,1,85.38,85.38,0,0,1-16.32-14.79l-.22-.24c-.07-.08-.13-.18-.2-.26a85.54,85.54,0,0,1-11.51-18.77,2.89,2.89,0,0,1,1.73-3.94,17.89,17.89,0,0,0,4.18-2.07,2.79,2.79,0,0,0,1.17-2.58l-2.31-26.75a2.8,2.8,0,0,0-1.59-2.33,18.13,18.13,0,0,0-25.5,16.74h0a.43.43,0,0,1,0,0v.06a79.05,79.05,0,0,0,2.1,14.88,84.16,84.16,0,0,0,50.56,60.95A79.69,79.69,0,0,0,512,149h.12a18.12,18.12,0,0,0,21.17-22,2.78,2.78,0,0,0-2-2l-25.85-7.22a2.8,2.8,0,0,0-2.75.67A18,18,0,0,0,499.84,122.27Z" transform="translate(-116.33 -49.95)"/></g><g id="OBJECTS"><circle class="cls-3" cx="438.11" cy="210.62" r="44.01" transform="translate(17.76 539.98) rotate(-76.96)"/><path class="cls-4" d="M434.13,186.51a23.64,23.64,0,0,0-14.67,36.13l-1.6,9.89a1.13,1.13,0,0,0,1.47,1.25l9.13-3.13a23.64,23.64,0,1,0,5.67-44.14Z" transform="translate(-116.33 -49.95)"/><path class="cls-3" d="M449.53,212.12a2.22,2.22,0,1,1,2.22-2.22A2.22,2.22,0,0,1,449.53,212.12Z" transform="translate(-116.33 -49.95)"/><path class="cls-3" d="M439.19,212.12a2.22,2.22,0,1,1,2.21-2.22A2.21,2.21,0,0,1,439.19,212.12Z" transform="translate(-116.33 -49.95)"/><path class="cls-3" d="M428.84,212.12a2.22,2.22,0,1,1,2.22-2.22A2.21,2.21,0,0,1,428.84,212.12Z" transform="translate(-116.33 -49.95)"/><path class="cls-5" d="M121.12,204.19s4-22.86,30.84-13.1l6.47,21.16L158.8,227l-21.38,8.19s-8.71-10.78-11.57-17.45A114.46,114.46,0,0,1,121.12,204.19Z" transform="translate(-116.33 -49.95)"/><path class="cls-5" d="M136.84,203.29s-4.4-21.21-6.49-29.1-6.45-19.26-4.28-20.09,4.19-2.85,9.28,12.9,12.06,38.76,12.06,38.76Z" transform="translate(-116.33 -49.95)"/><path class="cls-5" d="M127.41,210.44s-2.18-21.44-3.26-29.53-4-19.92-1.72-20.47,4.51-2.3,7.59,14,7.56,39.82,7.56,39.82Z" transform="translate(-116.33 -49.95)"/><path class="cls-5" d="M121.67,205.55a2.92,2.92,0,0,1-.52-1.23c-.28-1.73-1.05-6.63-1.7-12.36-.76-6.75-4.47-20.61-2.6-21.06s5.18,1.81,7.75,15.34,5.11,30,5.11,30Z" transform="translate(-116.33 -49.95)"/><path class="cls-5" d="M148,203.76s-4.55-16-7.3-23.14-9.39-21-7.46-22,3.62-3.08,10,11.08S158.09,205,158.09,205Z" transform="translate(-116.33 -49.95)"/><path class="cls-5" d="M141.34,186.93s2,3.44,2.54-1l2.39,4-4.81-.25Z" transform="translate(-116.33 -49.95)"/><path class="cls-5" d="M132.21,189s1.49,2.51,2.07-1.9l2.39,4-4.34.67Z" transform="translate(-116.33 -49.95)"/><path class="cls-6" d="M124.84,187.55a41.19,41.19,0,0,1,1,6.76" transform="translate(-116.33 -49.95)"/><path class="cls-6" d="M126.94,163a59.74,59.74,0,0,1,2.19,7.37" transform="translate(-116.33 -49.95)"/><path class="cls-6" d="M132.59,159.69s1.35,3.21,2.11,5.35c1,2.89,2.22,6.55,2.22,6.55" transform="translate(-116.33 -49.95)"/><path class="cls-6" d="M124,196.77s6.54-10.8,23-8.31" transform="translate(-116.33 -49.95)"/><path class="cls-5" d="M158.8,227a17.48,17.48,0,0,0,4.64-9.35c.64-5.42-1.29-16.21-2.43-21.21-.84-3.7-.26-14.95-1.37-15.41-2.76-1.14-7.11,6.1-5.75,14.38S158.8,227,158.8,227Z" transform="translate(-116.33 -49.95)"/><path class="cls-6" d="M153.63,194.73s-.68,6.35-.54,7.72-17.19,13.61-2.21,25.91" transform="translate(-116.33 -49.95)"/><path class="cls-5" d="M158,225.23s5.46,22.24,9.72,27.35c0,0-16.39,15.87-24,17.6,0,0-6.67-29.38-7.62-36.43C135.79,231.85,158,225.23,158,225.23Z" transform="translate(-116.33 -49.95)"/><path class="cls-7" d="M345.17,178.63s-8.43-12.69.92-25.39c0,0,11,2.47,11,12.57C357.12,178.63,345.17,178.63,345.17,178.63Z" transform="translate(-116.33 -49.95)"/><ellipse class="cls-8" cx="225.35" cy="116.12" rx="10.25" ry="17.62"/><path class="cls-9" d="M385.92,268.89a19.46,19.46,0,0,0-8.95-15,160.27,160.27,0,0,0-39.57-18c-46.58,7.41-78-2.7-78-2.7S225.3,240.45,213,258.71L183.21,298l-17.84-62.54-33.11,8,22.42,98.8a21.58,21.58,0,0,0,16,14.53l.28.06a21.57,21.57,0,0,0,20.68-7.19l46.76-50.11,68.22,83.83L349,316.66l10.5,56.93-.08,22.6h32l2.6-21.33Z" transform="translate(-116.33 -49.95)"/><path class="cls-3" d="M328.76,221.54s-15.23-7.51-57-2.13l31.49,32.48Z" transform="translate(-116.33 -49.95)"/><path class="cls-5" d="M278.76,219.14v-63H315.3v58.49a10.34,10.34,0,0,0,5.51,9.16c10.34,5.45,4.95,43.17-25.11,34.31-7.23-2.13-37-21.29-22-30A10.22,10.22,0,0,0,278.76,219.14Z" transform="translate(-116.33 -49.95)"/><path class="cls-10" d="M315.3,206.35s-21.35-6.23-34.1-18.11c0,0-2.73,25.28,34.1,27.49Z" transform="translate(-116.33 -49.95)"/><path class="cls-5" d="M295.8,101.07c28.14-4.95,43.44,2.9,48,28.7,0,0-.52,22.73-.35,24.09,0,.17,6.7,29.45-17.77,54.63-3,3-8.89,2.71-12.43,2.12C280.3,205.22,275,173.78,275,173.78c-.69-2.06-16.16-17.44-16.55-19.64C253.93,128.34,267.67,106,295.8,101.07Z" transform="translate(-116.33 -49.95)"/><path class="cls-11" d="M323.14,115.41s2.49,24.06-42,30c0,0-1.95,35.79-2.39,46,0,0-22.6-9.07-23.49-46-.77-31.88,36-50.88,55.72-47.65s49.83,10.18,32.81,51.91C343.8,149.64,333.92,118.42,323.14,115.41Z" transform="translate(-116.33 -49.95)"/><ellipse class="cls-5" cx="275.24" cy="169.72" rx="12.67" ry="14.02" transform="translate(-146.24 12.79) rotate(-12.34)"/><path class="cls-3" d="M270.18,231.85s23.76,15.25,58.68,0l-29.34,60.91Z" transform="translate(-116.33 -49.95)"/><polygon class="cls-12" points="178.86 204.96 189.03 204.96 192.87 223 183.17 242.81 173.28 222.29 178.86 204.96"/><path class="cls-13" d="M304.93,262.8a2.36,2.36,0,0,0,1.9-.94l-1.5-7.35h-10l-2.52,7.65a3.58,3.58,0,0,0,2.22.75Z" transform="translate(-116.33 -49.95)"/><path class="cls-12" d="M288.14,244.44l3.44,13.05a3.84,3.84,0,0,0,3.69,3l9.88-.11a3.87,3.87,0,0,0,3.64-3.09l3.06-13.12a4,4,0,0,0-3.72-5.09l-16.38.19A4,4,0,0,0,288.14,244.44Z" transform="translate(-116.33 -49.95)"/><path class="cls-14" d="M308.28,250.7c-.35,4-2.22,7.11-4.18,6.91s-3.25-3.61-2.9-7.63,2.22-7.11,4.18-6.91S308.64,246.69,308.28,250.7Z" transform="translate(-116.33 -49.95)"/><path class="cls-13" d="M270.18,231.85l29.34,60.91,29.34-60.91C293.15,247.89,270.18,231.85,270.18,231.85Zm29.25,56.42-19.25-43.58,19.8-.82L319,246.06Z" transform="translate(-116.33 -49.95)"/><path class="cls-3" d="M328.76,221.54s-16,13.31-30,17.2c0,0,22.19,16.74,23.9,22s15.84-24.69,15.84-24.69S337.06,228.32,328.76,221.54Z" transform="translate(-116.33 -49.95)"/><path class="cls-3" d="M271.77,219.41s13.41,14.43,27,19.33c0,0-23.36,15.06-25.44,20.22s-14-25.79-14-25.79A40.11,40.11,0,0,1,271.77,219.41Z" transform="translate(-116.33 -49.95)"/><path class="cls-15" d="M285.64,238.73a3.18,3.18,0,0,1,3.31-1.45c3.15.6,6.47,1.11,9.9,1.47a51.42,51.42,0,0,0,11.73-.25,3.25,3.25,0,0,1,3.26,1.63l7.42,13.43a15.07,15.07,0,0,1,1.87,7.83h0l-23.74-18.53-26.7,16.65Z" transform="translate(-116.33 -49.95)"/><polygon class="cls-9" points="122.58 346.24 241.64 346.24 235.6 312.05 252.18 245.31 108.47 245.31 128.36 314.63 122.58 346.24"/><g class="cls-16"><path class="cls-12" d="M228.29,299.42l0-.41S228.26,299.16,228.29,299.42Z" transform="translate(-116.33 -49.95)"/><path class="cls-12" d="M341.68,349.5c-15.16,2.56-26.78-5.31-39.64-5.87s-19.42,7.84-43.55,5.87C235.66,347.64,238.65,304.69,238,300l-9.05,9.7,15.74,54.86-.93,5.08c58.28-26,87.13-10.17,109.55.14l-1.38-7.8,8.25-33.25.51-7S354.65,347.31,341.68,349.5Z" transform="translate(-116.33 -49.95)"/></g><path class="cls-11" d="M274.44,129.6c8.05-6.38,10-17.83,5.33-28.92-1.81-4.31-10.49-18.29-26.83-15.92-19.53,2.82-26.16,23.37-21.17,38.45C236.44,137.34,262.9,138.74,274.44,129.6Z" transform="translate(-116.33 -49.95)"/><path class="cls-17" d="M277.61,111.51s10.36-23.46-14.21-31" transform="translate(-116.33 -49.95)"/><path class="cls-17" d="M319,109.62s9.32,33.13-34,41.42" transform="translate(-116.33 -49.95)"/><path class="cls-11" d="M329.34,140s1.3-2.49,6.29-2.27c3.32.15,5.35,2.77,4.73,3.57S327.74,141.88,329.34,140Z" transform="translate(-116.33 -49.95)"/><path class="cls-11" d="M297.62,142.78s.95-2.65,5.93-3.09c3.31-.3,5.67,2,5.16,2.9S296.28,144.81,297.62,142.78Z" transform="translate(-116.33 -49.95)"/><path class="cls-6" d="M323.55,149.26a23.55,23.55,0,0,0,4.18,12.64c1.76,2.51,4.27,5.9-4.18,9.13" transform="translate(-116.33 -49.95)"/><path class="cls-18" d="M302.36,158.62c.32,1.47,1.27,2.51,2.13,2.33s1.29-1.54,1-3-1.28-2.51-2.13-2.32S302,157.15,302.36,158.62Z" transform="translate(-116.33 -49.95)"/><path class="cls-18" d="M333,154.71c.29,1.34,1.17,2.29,2,2.12s1.17-1.39.88-2.73-1.16-2.29-1.94-2.12S332.67,153.37,333,154.71Z" transform="translate(-116.33 -49.95)"/><path class="cls-6" d="M325.49,182.84s-9.83,4-21-5.58" transform="translate(-116.33 -49.95)"/><circle class="cls-19" cx="188.31" cy="108.34" r="10.63"/><path class="cls-19" d="M327.48,155.05c.65,5.31,4.92,9.16,9.53,8.59s7.83-5.34,7.17-10.65-4.92-9.15-9.54-8.58S326.82,149.75,327.48,155.05Z" transform="translate(-116.33 -49.95)"/><line class="cls-19" x1="177.68" y1="110.49" x2="160.56" y2="108.34"/><path class="cls-19" d="M327.48,155.05s-8.68-2.4-12.21,2" transform="translate(-116.33 -49.95)"/><path class="cls-8" d="M281.26,168.91c0,10.32-3.36,18.69-9.49,18.69-7.08,0-11.51-6-12.68-18.69-.95-10.27,5-18.68,11.09-18.68S281.26,158.59,281.26,168.91Z" transform="translate(-116.33 -49.95)"/><path class="cls-8" d="M265.7,155.9a73.31,73.31,0,0,1-.56-21.85c.94-7.2,3.15-14.42,7.34-20.51a36.19,36.19,0,0,1,7.5-8,38.3,38.3,0,0,1,9.5-5.31,58.24,58.24,0,0,1,21.09-3.47l0,1.15a56.78,56.78,0,0,0-20.3,4.26,36.28,36.28,0,0,0-8.67,5.38,33.19,33.19,0,0,0-6.56,7.68,43,43,0,0,0-5.9,19.28,63.65,63.65,0,0,0,0,10.24c.11,1.71.31,3.41.54,5.1s.54,3.41.92,4.94Z" transform="translate(-116.33 -49.95)"/><path class="cls-7" d="M268.77,156.22s9.45,12,1.18,25.38c0,0-11.19-1.54-12-11.61C256.86,157.21,268.77,156.22,268.77,156.22Z" transform="translate(-116.33 -49.95)"/><path class="cls-20" d="M355,349.5s9.79-35.74,5.74-50.49" transform="translate(-116.33 -49.95)"/><line class="cls-20" x1="113.85" y1="258.46" x2="121.67" y2="249.06"/><rect class="cls-3" x="129.81" y="234.38" width="39.53" height="17.37" rx="1.83" transform="matrix(0.96, -0.26, 0.26, 0.96, -175.17, -1.86)"/><path class="cls-20" d="M183.21,298s-1,15.69-5,26.22" transform="translate(-116.33 -49.95)"/><path class="cls-21" d="M264,168.12c0,3.95-1.22,7.15-2.73,7.15s-2.73-3.2-2.73-7.15,1.22-7.15,2.73-7.15S264,164.17,264,168.12Z" transform="translate(-116.33 -49.95)"/><path class="cls-22" d="M266.77,116.09a34.84,34.84,0,0,0-10.55,19.26" transform="translate(-116.33 -49.95)"/><path class="cls-20" d="M220.15,301.23" transform="translate(-116.33 -49.95)"/><rect class="cls-23" x="201.55" y="5.63" width="78.47" height="25.2" rx="4.08"/><path class="cls-21" d="M349.17,62.6l1.3,2.62a.35.35,0,0,0,.27.2l2.89.42a.36.36,0,0,1,.2.61l-2.09,2a.34.34,0,0,0-.11.31l.5,2.89a.36.36,0,0,1-.52.38L349,70.71a.4.4,0,0,0-.34,0l-2.59,1.37a.36.36,0,0,1-.52-.38l.5-2.89a.34.34,0,0,0-.11-.31l-2.09-2a.35.35,0,0,1,.2-.61l2.89-.42a.35.35,0,0,0,.27-.2l1.3-2.62A.35.35,0,0,1,349.17,62.6Z" transform="translate(-116.33 -49.95)"/><path class="cls-21" d="M361.56,62.6l1.29,2.62a.35.35,0,0,0,.27.2l2.9.42a.36.36,0,0,1,.2.61l-2.1,2a.36.36,0,0,0-.1.31l.49,2.89a.36.36,0,0,1-.52.38l-2.59-1.37a.38.38,0,0,0-.33,0l-2.59,1.37a.36.36,0,0,1-.52-.38l.49-2.89a.36.36,0,0,0-.1-.31l-2.1-2a.36.36,0,0,1,.2-.61l2.9-.42a.37.37,0,0,0,.27-.2l1.29-2.62A.36.36,0,0,1,361.56,62.6Z" transform="translate(-116.33 -49.95)"/><path class="cls-21" d="M373.94,62.6l1.3,2.62a.35.35,0,0,0,.27.2l2.89.42a.36.36,0,0,1,.2.61l-2.09,2a.34.34,0,0,0-.11.31l.5,2.89a.36.36,0,0,1-.52.38l-2.59-1.37a.4.4,0,0,0-.34,0l-2.59,1.37a.36.36,0,0,1-.52-.38l.5-2.89a.34.34,0,0,0-.11-.31l-2.09-2a.36.36,0,0,1,.2-.61l2.89-.42a.35.35,0,0,0,.27-.2l1.3-2.62A.35.35,0,0,1,373.94,62.6Z" transform="translate(-116.33 -49.95)"/><path class="cls-21" d="M385.71,62.6l1.3,2.62a.35.35,0,0,0,.27.2l2.89.42a.36.36,0,0,1,.2.61l-2.09,2a.34.34,0,0,0-.11.31l.5,2.89a.36.36,0,0,1-.52.38l-2.59-1.37a.4.4,0,0,0-.34,0l-2.59,1.37a.36.36,0,0,1-.52-.38l.5-2.89a.34.34,0,0,0-.11-.31l-2.09-2a.35.35,0,0,1,.2-.61l2.89-.42a.35.35,0,0,0,.27-.2l1.3-2.62A.35.35,0,0,1,385.71,62.6Z" transform="translate(-116.33 -49.95)"/><path class="cls-4" d="M334.31,72.24a.52.52,0,0,1-.76.17,15.48,15.48,0,0,1-2.93-2.65l0-.05s0,0,0,0a15.57,15.57,0,0,1-2.07-3.37.53.53,0,0,1,.31-.71,3.08,3.08,0,0,0,.75-.37.51.51,0,0,0,.21-.47l-.41-4.8a.49.49,0,0,0-.29-.41,3.24,3.24,0,0,0-4.57,3h0a15.29,15.29,0,0,0,.38,2.67,15.11,15.11,0,0,0,9.08,11,13.68,13.68,0,0,0,2.55.86h0a3.26,3.26,0,0,0,3.8-4,.54.54,0,0,0-.36-.36l-4.64-1.29a.51.51,0,0,0-.5.12A2.93,2.93,0,0,0,334.31,72.24Z" transform="translate(-116.33 -49.95)"/><circle class="cls-24" cx="88.09" cy="140.99" r="20.06"/><circle class="cls-14" cx="65.75" cy="158.29" r="2.38"/><polyline class="cls-25" points="95.15 142.07 86.93 142.07 86.93 133.39"/><path class="cls-24" d="M204.42,162.49a28.45,28.45,0,1,1-21.54,47" transform="translate(-116.33 -49.95)"/><path class="cls-2" d="M449.77,254a39.18,39.18,0,0,0-24.3,59.87l-2.65,16.38a1.87,1.87,0,0,0,2.45,2.06l15.11-5.17A39.16,39.16,0,1,0,449.77,254ZM441,296.43a3.67,3.67,0,1,1,3.67-3.67A3.67,3.67,0,0,1,441,296.43Zm17.13,0a3.67,3.67,0,1,1,3.68-3.67A3.67,3.67,0,0,1,458.15,296.43Zm17.14,0a3.67,3.67,0,1,1,3.67-3.67A3.67,3.67,0,0,1,475.29,296.43Z" transform="translate(-116.33 -49.95)"/></g></g></svg>