<svg width="159" height="231" viewBox="0 0 159 231" fill="none" xmlns="http://www.w3.org/2000/svg">
<g clip-path="url(#clip0_155_5540)">
<path d="M116.8 230.12C96.6499 230.18 76.5099 230.2 56.3699 230.35C52.6799 230.35 53.7399 228.86 54.6599 226.81C68.3699 196.34 80.2799 165.15 91.9999 133.88C93.0914 131.098 93.9935 128.244 94.6999 125.34C95.5099 121.71 93.3599 119.52 89.7599 119.94C69.5599 122.28 60.6199 112.86 63.6699 91.94C66.1099 92.94 68.2799 95.5101 71.2199 93.5401C73.5699 91.9701 73.9399 89.54 74.2199 87.03C76.7099 87.38 77.0699 89.49 77.6499 91.33C78.2299 93.17 78.5099 95.18 79.0299 97.09C80.6699 103.01 82.0899 104.01 88.5299 103.72C95.7199 92.04 96.0599 79.61 92.1699 66.9C91.4299 64.49 89.5799 62.14 86.2399 62.58C82.3899 64.64 80.4199 68.13 78.9099 72.03C78.1799 73.91 78.1599 76.35 75.5299 76.95C73.9199 77.6 74.5299 76.3301 74.5299 75.7301C74.5299 75.1301 74.7399 74.4201 74.7399 73.7301C74.7399 68.7301 72.7399 66.7301 67.3299 66.7301C69.9299 56.1901 74.3299 47.4 85.9799 44.62C95.2999 43.62 101.58 48.62 104.65 59.35C104.72 56.25 103.51 52.92 105.49 49.84C105.49 34.99 99.8299 21.36 95.8899 7.25004C98.4899 10.35 99.0099 16.25 104.76 14.11C108.76 12.62 107.62 8.76005 106.52 5.51005C110.1 4.51005 111.17 7.41005 112.41 9.57005C116.55 16.7901 117.75 24.9 119.11 32.94C120.043 39.0298 120.418 45.1921 120.23 51.35C119.977 53.937 120.604 56.5337 122.01 58.72C122.374 54.8682 122.31 50.9879 121.82 47.15C120.496 37.9292 118.694 28.7835 116.42 19.75C115.83 17.5 115.09 15.21 116.98 13.15C117.68 14.07 118.31 15.06 119.09 15.9C119.824 16.8193 120.857 17.4533 122.009 17.6924C123.161 17.9316 124.36 17.761 125.4 17.21C128.03 15.89 128.25 13.39 127.61 10.77C130.61 10.77 131.31 13.1801 132.25 15.2301C135.98 23.3201 137.59 31.9401 138.1 40.7601C138.45 46.9901 139.86 53.14 139.38 59.44C140.54 54.65 140.05 49.88 139.76 45.05C139.51 40.98 136.88 36.66 140.37 32.75C141.58 34.21 142.13 36.58 144.66 36.28C147.19 35.98 147.66 33.9601 148.31 32.0401C150.87 32.6801 151.47 34.87 151.92 36.96C153.182 42.4718 153.961 48.083 154.25 53.7301C155.25 79.4501 151.46 104.47 144.14 129.06C135.88 156.82 130.14 185.22 123.14 213.28C122.14 217.28 121.19 221.37 120.07 225.38C119.56 227.39 119 229.34 116.8 230.12Z" fill="#F2B81D"/>
<path d="M116.8 230.12C127 190.59 136 150.79 146.58 111.34C152.96 87.5598 154.63 63.2198 150.44 38.7298C150.178 36.4128 149.479 34.1664 148.38 32.1098C147.28 29.9498 148.02 26.9398 145.38 25.4898L145.46 25.5698C146.03 23.5698 147.3 22.4398 149.46 22.7998C150.349 22.9334 151.18 23.3206 151.854 23.9148C152.528 24.509 153.016 25.285 153.26 26.1498C158.13 38.3398 158.37 51.0998 158.38 63.9298C158.38 88.4998 151.61 111.79 145.38 135.27C137.9 163.66 131.3 192.27 124.31 220.81C123.88 222.58 123.31 224.32 123.02 226.12C122.49 229.97 120.39 231.17 116.8 230.12Z" fill="#B4B0B0"/>
<path d="M140.44 32.8399C140.83 41.4299 142.87 49.84 142.44 58.57C142.32 61.27 142.29 63.5099 139.44 63.4899C136.59 63.4699 136.73 60.72 136.79 58.54C137.05 47.89 136.68 37.29 134.15 26.88C132.79 21.25 131.34 15.61 127.69 10.88C126.69 9.48995 127.58 6.59995 124.5 6.87995C123.18 7.34995 122.6 6.66996 122.35 5.47996C127.53 1.78996 130.35 2.57995 133.62 8.02994C138.009 15.5674 140.36 24.118 140.44 32.8399Z" fill="#FEFDFC"/>
<path d="M117.05 13.2398C118.98 22.3298 121.05 31.3898 122.79 40.5198C123.97 46.7198 124.79 53.0198 124 59.3598C123.82 60.6798 123.95 62.8698 122.06 62.9798C120 63.0898 119.64 60.9798 119.27 59.4198C118.369 54.8438 117.98 50.1818 118.11 45.5198C118.167 35.1942 116.438 24.9365 113 15.1998C111.69 11.6098 110.71 7.48983 106.62 5.59983C106.06 3.51983 103.85 2.82983 102.81 1.12983C108.88 -1.87017 115.08 1.41982 116.31 8.33982C116.57 9.96982 116.8 11.6098 117.05 13.2398Z" fill="#FEFDFB"/>
<path d="M51.5299 72.4904C44.9999 75.5504 38.4499 78.3404 31.2699 79.3404C30.277 79.3638 29.2861 79.2391 28.3299 78.9704C25.4899 78.4804 23.0099 77.0304 22.6799 74.1404C22.3499 71.2504 25.0199 70.1404 27.4799 69.3804C28.4099 69.1004 29.3699 68.8804 30.3199 68.6304C37.8599 67.3404 45.3699 66.2404 51.5299 72.4904Z" fill="#72569F"/>
<path d="M54.5301 57.4195C55.4401 59.6295 56.3401 61.8395 57.3801 64.4195C52.1101 61.7895 47.1801 59.4195 42.2901 56.8895C39.5201 55.4595 36.1001 54.1595 36.5001 50.3095C36.9301 46.2195 40.6001 45.6895 43.8501 45.0195C49.5801 45.6695 53.5801 50.3395 54.5301 57.4195Z" fill="#72559F"/>
<path d="M47.3201 98.6497C42.3201 102.27 38.9501 102.55 36.9301 99.4998C34.7701 96.2398 36.7401 91.4997 41.6401 88.9897C45.7301 86.9897 50.0301 85.3198 54.2401 83.5098C54.5034 86.4173 54.0035 89.3432 52.7899 91.9984C51.5763 94.6536 49.6909 96.9462 47.3201 98.6497Z" fill="#7256A0"/>
<path d="M88.58 103.74C83.94 107.32 80.38 106.42 78.19 101.23C76.26 96.6598 77.01 91.3798 74.27 87.0498C73.55 85.8598 73.96 83.8398 71.83 83.6798C71.17 83.6798 70.92 83.3398 71.09 82.6798C75.55 78.9398 78.45 79.4498 80.25 84.6798C81.62 88.6798 82.31 92.9298 83.31 97.0598C84.05 100.14 85.47 102.62 88.58 103.74Z" fill="#FCFCFB"/>
<path d="M105.56 49.9299C106.632 54.9444 106.443 60.1464 105.01 65.0699C102.35 54.7199 98.08 46.0699 86.01 44.7099C93.35 40.8799 98.1 42.1499 105.56 49.9299Z" fill="#FDFBF8"/>
<path d="M54.5301 57.4197C51.3601 52.9497 49.2301 47.5797 43.8601 45.0097C48.1001 42.3597 51.5601 42.6297 54.7301 46.3297C58.4001 50.6197 60.5201 55.7697 62.8301 61.6397C59.5201 60.1297 57.4701 57.8597 54.5301 57.4197Z" fill="#FAF9FA"/>
<path d="M51.5301 72.4902C44.6401 70.2402 37.7301 68.0802 30.3201 68.6102C36.8601 64.7702 48.3201 65.6102 56.3201 70.6102C55.1301 72.2302 52.8001 71.0702 51.5301 72.4902Z" fill="#F7F6F8"/>
<path d="M47.3201 98.6502C49.6201 93.6102 51.9234 88.5636 54.2301 83.5102L59.5701 80.9502C57.9901 86.5502 56.1801 91.5902 52.8301 95.9502C51.4901 97.6602 49.7301 98.9102 47.3201 98.6502Z" fill="#F8F6F9"/>
<path d="M75.5801 76.9705C76.5101 74.1405 77.1301 71.1605 78.4501 68.5305C80.0101 65.4105 82.0801 62.4605 86.2901 62.6005C84.4237 65.3065 83.0461 68.3187 82.2201 71.5005C81.3901 74.5905 80.2901 78.2105 75.5801 76.9705Z" fill="#F8F6F2"/>
<path d="M122.34 5.4502L124.49 6.85022C124.94 8.44022 125.34 10.0402 125.86 11.6102C126.38 13.1802 126.22 14.7202 124.69 15.5002C123.95 15.9149 123.081 16.0372 122.256 15.8428C121.43 15.6484 120.707 15.1515 120.23 14.4502C119.444 13.4773 118.862 12.3562 118.518 11.1536C118.175 9.95096 118.077 8.69148 118.23 7.4502C118.6 5.2002 120.76 5.6702 122.34 5.4502Z" fill="#EEB51C"/>
<path d="M39.7 107.1C39.8707 106.627 40.2137 106.236 40.6604 106.004C41.1071 105.772 41.6247 105.717 42.11 105.85C44.92 106.3 48.18 112.23 48.19 117.39C48.19 120.83 46.4699 123.22 41.4799 124.3C44.2199 121.3 47.62 119.74 45.86 115.71C44.67 115.29 43.95 116.97 42.74 117.02C42.3297 117.052 41.9195 116.959 41.5628 116.754C41.2061 116.548 40.9194 116.241 40.74 115.87C40.01 114.59 40.74 113.66 41.56 112.79C45.15 108.97 45.06 108.66 39.7 107.1Z" fill="#DFDEDF"/>
<path d="M73.2099 73.4997C72.4499 75.6297 72.9499 78.7997 70.1499 79.4997C68.3699 79.9397 66.7099 77.8197 66.5999 76.0397C66.4399 73.4597 66.7899 70.0397 69.2599 69.1297C72.2099 68.0297 72.7099 71.0997 73.2099 73.4997Z" fill="#E9B01B"/>
<path d="M100.06 2.15039C102.134 2.97843 103.816 4.56132 104.77 6.58038C105.282 7.34802 105.58 8.23912 105.631 9.16077C105.682 10.0824 105.485 11.0009 105.06 11.8204C104.796 12.2534 104.386 12.578 103.904 12.7356C103.421 12.8933 102.899 12.8737 102.43 12.6804C100.43 12.1604 97.3499 4.85039 98.5199 3.18039C98.8499 2.70039 99.5599 2.47039 100.06 2.15039Z" fill="#EAB11B"/>
<path d="M71.09 82.7004L71.83 83.7004C71.91 85.6304 72.36 87.7004 71.97 89.4804C71.58 91.2604 70.35 92.9504 68.05 92.2604C67.5982 92.1601 67.1749 91.9589 66.8118 91.6719C66.4487 91.3849 66.1552 91.0195 65.9532 90.6031C65.7513 90.1867 65.6461 89.7299 65.6455 89.2671C65.645 88.8043 65.7491 88.3473 65.95 87.9304C66.85 85.4904 66.94 82.0004 71.09 82.7004Z" fill="#EBB31C"/>
<path d="M29.27 44.72C20.33 41.84 11.55 38.52 2.71997 35.29C12.0914 36.7072 21.1042 39.9083 29.27 44.72Z" fill="#D8D7D8"/>
<path d="M46.2701 24.14C45.9401 20.66 45.82 17.37 40.79 17.04C47.29 17.82 44.79 12.52 46.69 9.20996C47.84 13.16 46.46 17.87 52.34 18.38C47.43 17.64 47.2901 21.12 46.2701 24.14Z" fill="#CCCBCC"/>
<path d="M145.36 25.51C144.52 27.75 146.19 29.67 146.13 31.81C146.13 33.24 145.5 35.11 144.05 34.22C141.64 32.73 141.46 29.65 141.42 27.08C141.36 23.6 144.14 26.29 145.42 25.59L145.36 25.51Z" fill="#E6AF1B"/>
<path d="M16.33 101.27L4.33003 109.62L3.53003 108.41C7.26651 105.184 11.622 102.754 16.33 101.27Z" fill="#C3C2C3"/>
<path d="M19.77 73.9899C16.77 71.8299 14.77 68.4099 11.93 73.1699C10.87 70.4199 11.88 68.8499 13.81 68.8099C16.34 68.7499 19 69.4699 19.77 73.9899Z" fill="#D1D0D1"/>
<path d="M31.77 38.6897C28.4153 36.9229 25.6256 34.2476 23.72 30.9697C27.32 32.5197 29.61 35.5697 31.77 38.6897Z" fill="#E1E0E1"/>
<path d="M32.26 98.3401C30.79 101.19 28.93 103.68 25.26 104.58L31.26 97.5801L32.26 98.3401Z" fill="#D4D3D4"/>
<path d="M22.1799 97.3395C22.8299 94.3395 25.4299 93.7895 28.8299 92.2695C27.2699 95.9395 24.1099 95.8295 22.1799 97.3395Z" fill="#CAC8C9"/>
<path d="M6.53003 74.46C8.52209 75.1984 10.7073 75.2302 12.72 74.55C9.83003 78.22 9.78003 78.22 6.53003 74.46Z" fill="#C7C6C7"/>
<path d="M0 75.5701C0.86 72.5701 2.76999 71.89 5.89999 73.25C4.06999 75.02 1.59 74.1401 0 75.5701Z" fill="#D4D3D4"/>
<path d="M143 98.1198C144.14 89.9934 144.699 81.7959 144.67 73.5898C147.55 79.4398 146.61 92.3898 143 98.1198Z" fill="#FBE2CB"/>
<path d="M138.22 125.12C137.888 120.144 139.003 115.177 141.43 110.82C141.581 115.781 140.477 120.7 138.22 125.12Z" fill="#FBE2CE"/>
<path d="M84.56 49.7899C79.45 50.7899 77.21 55.2699 73.48 59.1899C74.6 52.5199 78.94 48.8699 84.56 49.7899Z" fill="#FBE3D0"/>
<path d="M143 101.53C144.48 104.3 143.93 106.02 141.94 108.22C140.92 105.55 141.06 103.74 143 101.53Z" fill="#FADDB9"/>
<path d="M91.4301 50.2801C89.2701 51.1501 88.1401 50.0801 85.8701 49.4101C88.5501 47.6001 89.8501 48.1801 91.4301 50.2801Z" fill="#FBE3CF"/>
</g>
<defs>
<clipPath id="clip0_155_5540">
<rect width="158.37" height="230.48" fill="white"/>
</clipPath>
</defs>
</svg>
