<svg width="153" height="233" viewBox="0 0 153 233" fill="none" xmlns="http://www.w3.org/2000/svg">
<g clip-path="url(#clip0_155_1275)">
<path d="M124.22 107.05C126.04 104.45 126.43 101.25 128.12 97.2295C129.652 114.778 129.92 132.413 128.92 150C128.602 158.484 127.498 166.92 125.62 175.2C125.14 177.14 125.02 179.36 123.96 180.93C116.14 192.48 120.1 204.93 120.89 217.18C121.13 220.99 121.73 224.78 122.24 228.57C122.56 230.95 122.11 232.21 119.24 232.19C100.24 232.01 81.2901 231.98 62.3201 231.9C60.6801 230.17 60.6201 227.96 60.7001 225.81C61.6001 199.4 57.9701 173.51 51.9501 147.81C49.7201 138.33 50.2701 128.68 51.7301 119.1C51.8757 117.609 52.3541 116.17 53.1301 114.89C54.6401 112.8 56.3601 113.89 57.9801 114.67C60.9801 116.15 63.7501 115.62 66.3801 113.67C74.1401 107.97 81.3801 101.67 88.6601 95.3595C89.6601 94.4895 90.4501 93.3595 91.5301 92.5995C93.9901 90.8395 96.1101 90.9895 96.6001 94.3195C97.2301 98.6895 99.1601 100.96 103.85 100.43C106.6 100.11 107.1 101.49 105.8 103.73C104.974 104.978 103.985 106.112 102.86 107.1C95.1601 114.63 88.1301 122.82 80.2201 130.1C79.2397 130.971 78.4708 132.054 77.9717 133.267C77.4727 134.48 77.2567 135.791 77.3401 137.1C77.3401 141.37 77.7301 145.64 76.5601 149.94C75.2701 154.69 73.5601 159.03 71.5101 161.2C75.8301 156.32 78.3801 148.69 77.2501 140.52C75.9701 131.34 83.2501 127.99 87.6701 122.58C87.8445 122.395 88.0613 122.255 88.3018 122.173C88.5423 122.091 88.7992 122.07 89.0501 122.11C96.3901 123.37 99.1801 117.86 102.49 113.11C102.78 112.7 102.98 112.23 103.28 111.84C104.44 110.38 104.9 107.45 107.28 108.24C109.21 108.9 108.28 111.45 108.28 113.24C108.28 116.02 108.59 118.9 111.48 119.93C114.55 121.03 116.16 118.58 117.8 116.34C120 113.37 121.33 109.66 124.22 107.05Z" fill="#F1B61C"/>
<path d="M39.7101 10.9998C45.1101 9.47975 48.6301 11.8697 51.2301 16.4197C57.1801 26.8397 59.3701 38.4997 62.4401 49.8797C64.3001 56.7397 65.0101 63.8797 68.1501 70.4197C71.7001 72.9397 73.3301 71.4197 74.3101 67.7297C77.3112 56.9871 78.3278 45.7872 77.3101 34.6797C76.2898 26.2606 76.3402 17.7462 77.4601 9.33975C78.4101 3.16975 80.2801 1.64974 86.4601 0.649744C94.7801 -0.160256 98.6301 3.39973 98.7201 12.5397C98.8401 26.6297 97.3301 40.6297 95.7201 54.6097C95.0101 60.8397 94.1801 67.0597 93.4101 73.2797C93.2701 79.8997 91.4101 86.2797 90.4101 92.7597C90.0601 95.2097 87.9501 96.6997 86.1701 98.0897C80.4401 102.55 75.0501 107.4 69.4301 111.99C62.8901 117.34 60.2301 117.39 53.6201 111.8C52.5001 107.04 53.8401 102.26 53.3401 97.4197C51.8301 82.6797 46.6701 68.9497 42.3401 54.9797C39.3401 45.2897 35.6701 35.7997 34.2301 25.6697C33.7019 22.2092 33.9063 18.6763 34.8301 15.2997C35.6001 12.8197 36.9401 11.1097 39.7101 10.9998Z" fill="#F2B71D"/>
<path d="M39.7099 10.9998C37.2199 12.4998 36.2799 14.7498 35.9799 17.6098C35.2199 24.8898 36.8299 31.8198 38.9099 38.6098C42.9699 51.9198 47.3599 65.1398 51.4099 78.4598C54.7609 89.2754 55.8635 100.662 54.6499 111.92C54.8598 112.238 54.9561 112.617 54.9234 112.996C54.8908 113.375 54.731 113.733 54.4699 114.01C51.3873 126.798 51.4525 140.143 54.6599 152.9C61.0967 178.711 63.6714 205.334 62.2999 231.9C55.4299 232.53 55.3799 232.53 55.6499 225.84C56.5799 202.15 54.5899 178.73 48.5999 155.75C45.0322 142.57 44.5565 128.744 47.2099 115.35C49.9799 101.5 47.8599 87.8998 43.7399 74.5798C39.9699 62.3998 35.9699 50.2898 32.1699 38.1098C29.9062 31.489 28.922 24.4982 29.2699 17.5098C29.6799 10.9798 33.3199 8.71981 39.7099 10.9998Z" fill="#B4B0B0"/>
<path d="M54.47 114.05L54.65 111.96C61.58 115.91 63.5 115.76 69.84 110.45C75.42 105.77 80.84 100.94 86.49 96.3203C87.3592 95.5946 88.0763 94.7042 88.5997 93.7001C89.1232 92.6961 89.4428 91.5984 89.54 90.4702C90.48 84.6702 90.61 78.6503 93.46 73.2803L94.68 74.2803C96.33 76.6703 94.95 79.0803 94.68 81.4803C94.5 83.4103 93.47 85.2603 94.23 87.6003C97.94 85.0903 101.77 83.4002 106.23 83.4702C109 83.4702 109.41 80.3503 111.31 79.1203C111.689 79.0604 112.076 79.1073 112.43 79.2557C112.783 79.4041 113.088 79.6481 113.31 79.9603C113.821 84.3542 113.948 88.7843 113.69 93.2003C112.49 97.4403 111.94 101.84 111.09 105.56C114.44 100.99 116.69 100.71 120.62 105.19C121.54 106.24 122.31 105.77 123.2 105.88L124.2 107.06C123.2 111.58 120.42 115.06 117.8 118.72C116.26 120.86 114.38 122.58 111.55 121.8C108.45 120.95 107 118.46 106.77 115.46C106.745 112.931 106.882 110.402 107.18 107.89C104.1 112.71 102.18 117.56 98.23 121.04C96.56 122.51 94.85 124.04 92.6 123.8C90.17 123.55 88.07 122.57 86.13 125.32C83.13 129.57 77.52 131.91 78.24 138.75C79.24 147.75 77.37 156.33 70.95 163.3C69.72 164.64 68.63 166.46 64.6 166.48C76.41 157.53 76.78 145.86 76.38 133.95C76.31 131.79 78.03 130.8 79.27 129.53C88.17 120.35 97.17 111.21 106.9 101.21C102.98 101.82 100.16 102.73 97.64 100.55C95.12 98.3703 94.9 95.5503 95.04 91.7703C87.98 97.7703 81.44 103.29 74.89 108.77C72.73 110.59 70.61 112.47 68.34 114.14C62.99 118.11 59.69 118.05 54.47 114.05Z" fill="#2A2420"/>
<path d="M86.4899 0.64964C80.3399 2.38964 78.4399 6.98963 78.4899 12.7596C78.5599 19.8796 78.6399 27.0096 78.9699 34.1196C79.5599 46.5896 79.3199 58.9596 75.0199 70.8796C74.3999 72.5896 74.2899 75.2996 71.6599 75.1496C69.0299 74.9996 68.5299 72.5996 68.1499 70.4196C72.3299 60.1896 72.4699 49.4196 72.3599 38.6196C72.2599 28.8596 70.8099 19.0996 72.0999 9.32963C73.0699 1.96963 78.9999 -1.55036 86.4899 0.64964Z" fill="#FEFDFD"/>
<path d="M123.25 105.87C122.49 107.11 121.74 108.36 120.68 110.11C119.53 107.43 120.21 103.47 116.51 103.23C112.81 102.99 111.51 106.43 109.18 110.06C110.59 103.94 109.67 98.6301 112.5 94.0601C113.16 90.7301 112.81 87.3601 112.93 84.0001C112.93 82.9201 111.88 80.8201 114.55 81.0001C115.635 81.3694 116.697 81.8035 117.73 82.3001C126.42 87.0201 127.86 90.5101 125.05 99.7201C124.42 101.76 123.85 103.82 123.25 105.87Z" fill="#F0B61D"/>
<path d="M111.37 79.11C111.1 83.29 110.09 85.99 104.67 85.11C99.57 84.26 96.03 88.5401 91.74 91.2401C92.12 85.1901 93.57 79.77 94.68 74.29L111.37 79.11Z" fill="#F0B61C"/>
<path d="M0 76.8603C0.745522 78.2298 1.59466 79.5403 2.53999 80.7803C3.1951 81.5421 4.06449 82.0888 5.03485 82.3492C6.00521 82.6096 7.03152 82.5717 7.98 82.2403C9.64 81.7503 10.78 81.3103 9.84999 78.8203C9.18999 77.0703 12.51 78.2603 13.44 76.4103C13.88 75.5203 14.25 77.3303 14.44 78.1803C15.07 80.9803 16.24 78.8803 17.09 78.3403C19.02 77.1303 18.57 74.0303 22.09 72.5703C20.44 77.1103 19.63 80.9703 14.72 81.4103C13.07 81.5603 12.03 82.4103 10.77 83.1803C5.44 86.4303 0.24 83.7103 0 76.8603Z" fill="#B4B0B0"/>
<path d="M121.92 44.5498C131.952 46.5883 142.102 47.9944 152.31 48.7598C146.87 51.3498 126.84 48.7298 121.92 44.5498Z" fill="#B4B0B0"/>
<path d="M120.59 64.3797C122.52 59.1997 125.39 58.6297 127.99 62.0097C128.54 62.7097 128.76 64.7397 129.45 64.0797C134.92 58.7697 136.99 66.6497 141.26 66.2597C140.31 68.2597 139.15 68.1797 138.06 67.6597C137.143 67.2828 136.342 66.6684 135.74 65.8797C132.95 61.5797 129.91 68.9897 127.74 65.8797C125.72 62.9597 124.6 59.7397 120.59 64.3797Z" fill="#B4B0B0"/>
<path d="M0.22998 34.4102C6.47998 35.0502 17.32 41.3102 20.02 45.8102C13.48 41.9202 6.92998 38.1102 0.22998 34.4102Z" fill="#B4B0B0"/>
<path d="M138.7 34.2301C136.2 34.0301 136.19 31.8101 134.7 31.4101C133.21 31.0101 131.28 30.2101 131.54 33.2301C131.68 34.7501 132.26 37.0901 129.75 36.8501C127.75 36.6601 127.83 34.6801 128.1 32.8501C128.26 31.8501 127.68 30.7501 127.33 29.2401C131.45 30.1101 136.82 26.7401 138.7 34.2301Z" fill="#B4B0B0"/>
<path d="M27.4101 84.91C22.2801 89.76 17.1501 94.6 11.3101 98.58L10.3101 97.39L26.1701 83.54L27.4101 84.91Z" fill="#B4B0B0"/>
<path d="M5.85008 63.1095C3.58008 61.1695 4.69008 59.6995 5.85008 58.5895C6.52259 57.843 7.43234 57.3516 8.42543 57.1985C9.41852 57.0455 10.434 57.2401 11.3001 57.7495C13.7601 59.1195 16.0601 60.2295 17.3001 55.5195C18.2301 60.5195 16.1101 62.5195 12.6301 60.6695C9.1501 58.8195 6.97008 58.8395 5.85008 63.1095Z" fill="#B4B0B0"/>
<path d="M127.86 10.5004L117.86 14.0304L117.45 12.8104C120.337 10.4714 123.925 9.16855 127.64 9.11035L127.86 10.5004Z" fill="#D1CFD0"/>
<path d="M126.02 78.8799C126.77 78.2199 127.02 77.8799 127.24 77.8799C129.696 78.0546 132.024 79.0395 133.86 80.6799C133.91 80.6799 133.41 81.7799 133.16 81.7799C130.42 81.7599 128.47 80.1099 126.02 78.8799Z" fill="#BFBDBE"/>
<path d="M114.55 81.0002C112 83.6702 114.46 87.0002 113.43 89.8802C112.97 91.1902 113.72 92.8802 112.5 94.0402C113.27 89.3802 111.23 84.5402 113.36 79.9502L114.55 81.0002Z" fill="#F0B61C"/>
<path d="M16.77 27.0095C17.77 26.8095 17.96 26.6995 18.07 26.7595C19.92 27.8095 21.53 29.0895 22.15 31.2395C22.15 31.3795 21.66 31.8995 21.52 31.8495C19.24 31.1095 18.03 29.3495 16.77 27.0095Z" fill="#B4B0B0"/>
<path d="M32.8001 91.1104C32.6001 93.6204 30.9601 94.9704 28.6201 97.5004C28.8301 93.4304 30.6001 92.1104 32.8001 91.1104Z" fill="#D8D7D8"/>
<path d="M122.25 36.9695C120.07 33.7495 121.12 31.9695 123.56 30.2695C123.17 32.1795 122.82 34.1095 122.25 36.9695Z" fill="#B4B0B0"/>
<path d="M124.35 149.68C126.013 159.357 124.101 169.308 118.97 177.68C121.81 168.55 124.03 159.31 124.35 149.68Z" fill="#FDF4DF"/>
<path d="M117.78 181.2C116.697 184.654 115.825 188.17 115.17 191.73C113.52 187.63 114.25 184.11 117.78 181.2Z" fill="#FDF2D8"/>
<path d="M97.0599 95.1095C97.1599 90.8795 101.55 86.8995 105.54 87.1095C108.02 87.2295 110.79 87.3595 110.93 90.8295C111.09 94.5295 105.34 100.27 101.75 99.9595C101.121 99.9558 100.5 99.8266 99.9224 99.5795C99.3445 99.3324 98.8219 98.9725 98.3851 98.5207C97.9482 98.069 97.606 97.5345 97.3784 96.9488C97.1509 96.363 97.0426 95.7377 97.0599 95.1095Z" fill="#EEB51C"/>
<path d="M117.67 109.46C117.41 112.78 117.3 115.46 115.83 117.82C114.78 119.49 113.29 120.61 111.24 119.48C109.56 118.56 109.08 117.14 109.91 115.26C110.85 113.14 111.53 110.9 112.47 108.78C113.21 107.1 114.25 104.96 116.27 105.42C118.66 105.96 117.36 108.47 117.67 109.46Z" fill="#EEB41C"/>
<path d="M91.1699 121.11L99.7699 112.91C100.32 117.88 96.4399 122.02 91.1699 121.11Z" fill="#DDA81C"/>
</g>
<defs>
<clipPath id="clip0_155_1275">
<rect width="152.31" height="232.18" fill="white"/>
</clipPath>
</defs>
</svg>
