<svg width="36" height="36" viewBox="0 0 36 36" fill="none" xmlns="http://www.w3.org/2000/svg">
<g clip-path="url(#clip0_159_6041)">
<path d="M17.9685 35.9958C8.041 35.9958 -0.0056217 27.8963 2.94696e-06 17.9227C0.00450267 8.04242 8.113 -0.00195312 18.0585 -0.00195312C27.9748 0.00367152 36.009 8.10991 35.9989 18.0982C35.9888 27.9514 27.8791 36.0025 17.9685 35.9958ZM19.5704 29.0212V18.6246H22.4705C22.5976 17.3726 22.718 16.1903 22.8451 14.9405H19.6087C19.5872 14.8669 19.5717 14.7916 19.5625 14.7155C19.5625 14.1159 19.5535 13.5163 19.5569 12.9156C19.5625 12.0427 19.8246 11.7806 20.6976 11.7749C21.3827 11.7749 22.0689 11.7749 22.7641 11.7749V8.22578C21.4142 8.22578 20.0969 8.14591 18.7942 8.24491C17.0337 8.3799 15.8176 9.46658 15.4115 11.2035C15.2428 11.9223 15.2518 12.6861 15.2091 13.4308C15.1809 13.9258 15.2091 14.423 15.2091 14.9821H13.1853V18.6381H15.2102V29.0291L19.5704 29.0212Z" fill="white"/>
</g>
<defs>
<clipPath id="clip0_159_6041">
<rect width="36" height="36" fill="white"/>
</clipPath>
</defs>
</svg>
