<svg width="38" height="37" viewBox="0 0 38 37" fill="none" xmlns="http://www.w3.org/2000/svg">
<path d="M22.1263 24.4463C22.9915 24.2602 23.8302 24.1343 24.637 23.8976C27.7157 22.9938 29.4759 20.7279 29.7328 17.4344C29.8655 15.7409 29.8389 14.0645 28.8453 12.6217C28.3378 11.8804 28.1308 11.2445 28.2922 10.3063C28.4429 9.43045 28.1552 8.47716 28.0554 7.55615C28.0024 7.0709 27.6934 6.91058 27.2751 7.03539C26.3855 7.31084 25.4301 7.49482 24.6487 7.96501C23.6837 8.54602 22.8143 8.72678 21.6943 8.47716C19.4903 7.98653 17.2641 8.16729 15.0634 8.67621C14.8575 8.72463 14.5963 8.63855 14.3893 8.5471C13.3277 8.07584 12.3 7.49913 11.2045 7.12362C10.1789 6.77179 10.0197 6.94825 9.7596 8.01558C9.49103 9.06174 9.50055 10.1613 9.78721 11.2025C9.83392 11.3715 9.79782 11.6437 9.68741 11.7642C7.2818 14.4131 8.07058 19.4679 9.67786 21.5187C10.8669 23.0347 12.4795 23.7674 14.2884 24.1548C14.7842 24.2623 15.2864 24.3323 15.6834 24.4011C15.4095 25.1037 15.1452 25.8096 14.8543 26.5025C14.7842 26.6384 14.6692 26.745 14.5294 26.8037C12.7088 27.5806 10.9953 27.0372 9.91778 25.3415C9.34982 24.4474 8.6258 23.7793 7.55782 23.577C7.49028 23.5503 7.41789 23.5385 7.3455 23.5425C7.07054 23.62 6.80089 23.7136 6.52912 23.8018C6.67774 24.0084 6.7839 24.2871 6.98243 24.4108C8.01325 25.0564 8.62262 26.0065 9.08017 27.1007C9.75217 28.7146 11.3934 29.6216 13.3372 29.4796C13.7937 29.4463 14.2481 29.386 14.764 29.3311C14.764 30.3425 14.7832 31.3431 14.7545 32.3438C14.7439 32.7268 14.4742 32.9646 14.0931 32.9893C13.865 33.0055 13.6359 32.9796 13.4169 32.9129C7.37947 30.9859 2.7158 25.0327 2.08521 18.6965C1.22105 10.0179 7.02277 2.27434 15.2704 0.41726C23.947 -1.53666 32.6862 3.54288 35.2808 12.0708C37.9157 20.7311 33.08 30.1123 24.5468 32.8947C23.6232 33.1959 23.1529 32.8505 23.155 31.865C23.155 30.5028 23.1476 29.1385 23.171 27.7764C23.2007 26.5466 22.9852 25.3975 22.1263 24.4463Z" fill="white"/>
</svg>
