<svg width="28" height="29" viewBox="0 0 28 29" fill="none" xmlns="http://www.w3.org/2000/svg">
<path d="M27.0858 0.00895955C23.5616 4.15841 20.1133 8.21731 16.658 12.2835L27.9991 28.9945H27.5197C25.0294 28.9945 22.5401 28.989 20.0507 29.0026C19.7439 29.0026 19.5749 28.8985 19.4049 28.6476C17.0429 25.149 14.6734 21.6552 12.2965 18.1662C12.2133 18.044 12.1256 17.9244 12.0093 17.7596C11.4073 18.466 10.8259 19.1452 10.2472 19.8253C7.73907 22.7763 5.23273 25.7295 2.72817 28.6848C2.65003 28.7913 2.54661 28.8762 2.42748 28.9316C2.30835 28.987 2.17734 29.0111 2.04658 29.0017C1.39539 28.98 0.742421 28.9954 0.0116287 28.9954C0.149379 28.8143 0.238827 28.6857 0.339904 28.5661C3.73298 24.5736 7.12873 20.5839 10.5272 16.5968C10.8313 16.2409 10.8626 16.02 10.5862 15.6161C7.14304 10.5821 3.71419 5.53795 0.299652 0.483495C0.210204 0.351278 0.127911 0.211814 0 0.00895955H0.490176C2.96521 0.00895955 5.43935 0.0143925 7.91438 0.00261969C8.04393 -0.00882598 8.17402 0.0173907 8.28937 0.0781867C8.40471 0.138983 8.50053 0.231835 8.56557 0.345843C10.791 3.64705 13.0249 6.94253 15.267 10.2323C15.3502 10.3554 15.4397 10.4759 15.5613 10.6479C15.7313 10.4505 15.8842 10.2757 16.0354 10.0982C18.8059 6.83808 21.5743 3.57612 24.3407 0.312336C24.4197 0.206698 24.5237 0.122937 24.6432 0.0688013C24.7626 0.0146654 24.8936 -0.00809795 25.0241 0.00261969C25.6735 0.0225429 26.3255 0.00895955 27.0858 0.00895955ZM24.5813 27.1878C24.4444 26.9759 24.3603 26.8373 24.2682 26.7051L14.4334 12.4628C12.0773 9.05107 9.72184 5.63756 7.36696 2.22224C7.30519 2.11405 7.21424 2.02592 7.10477 1.96818C6.99531 1.91044 6.87185 1.88548 6.74887 1.89623C5.74974 1.91434 4.7506 1.90166 3.75236 1.90528C3.63235 1.91308 3.51288 1.92789 3.39456 1.94966C3.51979 2.13712 3.60924 2.27477 3.70226 2.4097L13.2571 16.2436C15.6991 19.7797 18.144 23.314 20.5919 26.8464C20.6965 26.9967 20.8978 27.1697 21.057 27.1733C22.2002 27.2014 23.3478 27.1878 24.5813 27.1878Z" fill="white"/>
</svg>
