<svg width="215" height="251" viewBox="0 0 215 251" fill="none" xmlns="http://www.w3.org/2000/svg">
<path d="M212.728 70.7883C219.908 82.1994 195.435 121.136 183.545 148.122C171.656 175.108 172.273 190.143 165.016 205.717C157.759 221.292 142.704 237.252 119.389 245.425C96.0731 253.598 64.5739 253.983 42.1848 238.409C19.7956 222.911 6.51655 191.453 1.80711 155.292C-2.90233 119.131 0.880651 78.1901 23.2698 66.779C45.6589 55.3679 86.6542 73.3327 126.569 74.335C166.483 75.3373 205.471 59.3772 212.728 70.7883Z" fill="#50DBF5"/>
<g clip-path="url(#clip0_217_502)">
<path d="M99.4303 44.4351C79.6409 44.4351 59.8515 44.3418 40.0622 44.4662C28.3091 44.5408 19.9496 53.0679 19.9247 64.7856C19.8709 88.8346 19.8709 112.884 19.9247 136.933C19.9247 148.072 27.787 156.375 38.9496 157.165C41.7589 157.364 43.1014 158.546 43.0517 161.413C42.9833 165.767 42.859 170.12 43.1201 174.474C43.2382 176.471 43.6484 179.008 44.9349 180.252C46.93 182.162 48.9251 179.885 50.6592 178.741C60.1623 172.459 69.6654 166.177 79.0815 159.765C81.527 158.031 84.4631 157.126 87.4597 157.184C110.773 157.277 134.074 157.24 157.394 157.227C170.875 157.227 179.079 149.024 179.085 135.558C179.085 112.44 178.805 89.3156 179.209 66.2036C179.414 54.5543 171.005 44.0059 157.238 44.3169C137.996 44.7398 118.698 44.4351 99.4303 44.4351ZM102.799 37.637C102.799 33.0656 102.917 28.6373 102.749 24.2214C102.662 21.9513 103.19 20.8006 105.54 19.9486C108.762 18.7324 111.518 16.5293 113.415 13.6535C115.313 10.7777 116.254 7.37592 116.106 3.93312C115.571 -4.5193 109.12 -11.2862 100.972 -11.9455C92.8235 -12.6048 85.0979 -7.11909 83.3514 0.680273C81.4868 9.09538 85.7008 17.1808 93.8241 20.1351C95.813 20.8628 96.2729 21.8082 96.2232 23.7052C96.1113 28.3263 96.1921 32.9475 96.1921 37.637H102.799ZM13.088 80.9689C4.33688 80.3781 0.0359241 84.3648 0.0359241 92.6928C0.0359241 98.701 -0.0262284 104.709 0.0359241 110.73C0.129153 117.708 6.25118 122.118 13.088 120.19V80.9689ZM185.94 120.326C193.846 121.657 198.955 117.497 198.992 109.853C198.992 103.434 199.092 97.0092 198.992 90.572C198.856 83.8859 192.497 79.4327 185.978 81.311L185.94 120.326Z" fill="white"/>
<path d="M99.4301 44.4351C118.697 44.4351 137.965 44.7585 157.232 44.3293C170.999 44.0184 179.408 54.5668 179.203 66.2161C178.799 89.3281 179.091 112.452 179.079 135.571C179.079 149.036 170.868 157.227 157.387 157.24C134.074 157.24 110.773 157.289 87.4533 157.196C84.4625 157.151 81.5356 158.065 79.1 159.802C69.6839 166.215 60.1808 172.496 50.6777 178.778C48.9436 179.923 46.9485 182.199 44.9534 180.29C43.6669 179.046 43.2566 176.508 43.1386 174.512C42.8775 170.158 43.0018 165.804 43.0702 161.45C43.1199 158.583 41.7774 157.401 38.9681 157.202C27.7807 156.413 19.9681 148.109 19.9432 136.97C19.8894 112.921 19.8894 88.872 19.9432 64.8229C19.9432 53.1052 28.3276 44.5781 40.0807 44.5035C59.87 44.3791 79.6594 44.4724 99.4488 44.4724L99.4301 44.4351ZM59.7457 74.401C57.5684 74.3821 55.4089 74.7953 53.3922 75.6166C51.3754 76.4379 49.5412 77.6511 47.9958 79.186C46.4504 80.7209 45.2243 82.5472 44.3885 84.5591C43.5526 86.5711 43.1236 88.7289 43.1261 90.9078C43.2017 95.2511 44.9767 99.3915 48.07 102.439C51.1632 105.487 55.3277 107.199 59.6686 107.207C64.0095 107.215 68.1804 105.519 71.2851 102.483C74.3897 99.4467 76.1803 95.313 76.2721 90.97C76.2902 88.7933 75.876 86.6347 75.0535 84.6195C74.2309 82.6043 73.0164 80.7727 71.4806 79.2312C69.9447 77.6896 68.1181 76.4688 66.1068 75.6396C64.0955 74.8104 61.9396 74.3894 59.7644 74.401H59.7457ZM139.45 74.401C137.275 74.364 135.115 74.7593 133.094 75.564C131.073 76.3688 129.232 77.567 127.678 79.0891C126.123 80.6113 124.886 82.4271 124.038 84.4313C123.19 86.4355 122.748 88.5883 122.737 90.7648C122.695 92.9697 123.092 95.161 123.905 97.2106C124.719 99.2601 125.933 101.127 127.476 102.701C129.019 104.276 130.861 105.526 132.893 106.38C134.925 107.234 137.106 107.674 139.31 107.674C141.514 107.674 143.696 107.234 145.728 106.38C147.76 105.526 149.601 104.276 151.144 102.701C152.687 101.127 153.901 99.2601 154.715 97.2106C155.529 95.161 155.926 92.9697 155.883 90.7648C155.855 86.4227 154.115 82.2673 151.041 79.2027C147.967 76.1382 143.808 74.4124 139.469 74.401H139.45ZM99.3369 127.268C100.164 127.268 100.996 127.33 101.823 127.268C108.156 126.646 113.999 124.923 118.318 119.854C119.617 118.324 119.891 116.632 118.318 115.158C116.746 113.684 115.211 113.914 113.632 115.282C105.142 122.789 93.8613 122.746 85.3091 115.401C84.3892 114.611 82.1206 114.48 80.9957 115.052C79.1684 115.998 79.2119 117.975 80.5171 119.58C81.4259 120.709 82.4696 121.722 83.6247 122.597C88.28 126.08 93.6624 127.23 99.3555 127.286L99.3369 127.268Z" fill="#1A2E35"/>
<path d="M102.817 37.6371H96.2231C96.2231 32.9475 96.1423 28.3077 96.2542 23.7052C96.3039 21.8083 95.844 20.8629 93.8551 20.1352C85.7317 17.1809 81.4991 9.09543 83.3824 0.680332C85.1289 -7.11903 92.7923 -12.6109 101.003 -11.9454C109.213 -11.2799 115.59 -4.51924 116.137 3.93317C116.285 7.37598 115.343 10.7778 113.446 13.6536C111.549 16.5294 108.793 18.7324 105.571 19.9486C103.221 20.8007 102.693 21.9513 102.78 24.2215C102.936 28.6374 102.817 33.0657 102.817 37.6371Z" fill="#1A2E35"/>
<path d="M13.0879 80.9689V120.152C6.25116 122.08 0.160215 117.664 0.0359104 110.692C-0.0448879 104.684 0.0359104 98.6761 0.0359104 92.6555C0.0545561 84.3648 4.33687 80.378 13.0879 80.9689Z" fill="black"/>
<path d="M185.917 132.328V93.3312C192.437 91.4653 198.795 95.9061 198.932 102.592C199.056 109.011 198.975 115.436 198.932 121.873C198.932 129.511 193.823 133.659 185.917 132.328Z" fill="black"/>
<path d="M59.7644 74.401C61.9412 74.3869 64.0991 74.8061 66.1126 75.6342C68.126 76.4622 69.9549 77.6827 71.4927 79.2245C73.0305 80.7663 74.2467 82.5986 75.0704 84.6151C75.8941 86.6315 76.3089 88.7917 76.2907 90.97C76.1989 95.313 74.4083 99.4466 71.3037 102.483C68.1991 105.519 64.0282 107.215 59.6873 107.207C55.3464 107.199 51.1819 105.487 48.0886 102.439C44.9954 99.3914 43.2203 95.2511 43.1448 90.9078C43.1422 88.7289 43.5713 86.5711 44.4071 84.5591C45.243 82.5471 46.4691 80.7209 48.0145 79.186C49.5599 77.651 51.394 76.4379 53.4108 75.6166C55.4276 74.7952 57.5871 74.3821 59.7644 74.401ZM59.8762 100.735C61.1679 100.732 62.4465 100.475 63.6386 99.9772C64.8307 99.4795 65.913 98.7514 66.8235 97.8345C67.734 96.9176 68.4547 95.83 68.9445 94.6339C69.4343 93.4379 69.6834 92.1568 69.6777 90.8643C69.6797 89.5574 69.4246 88.263 68.9267 87.0549C68.4288 85.8467 67.698 84.7485 66.776 83.823C65.8541 82.8975 64.7589 82.1628 63.5532 81.6608C62.3475 81.1588 61.0548 80.8994 59.7488 80.8974C58.4429 80.8953 57.1494 81.1507 55.9421 81.6489C54.7348 82.1471 53.6374 82.8784 52.7125 83.8011C51.7877 84.7237 51.0535 85.8196 50.5518 87.0261C50.0502 88.2327 49.7909 89.5263 49.7889 90.8331C49.7826 92.1507 50.0408 93.456 50.5482 94.6718C51.0556 95.8876 51.8018 96.989 52.7426 97.9108C53.6834 98.8325 54.7996 99.5557 56.025 100.038C57.2504 100.52 58.5601 100.75 59.8762 100.716V100.735Z" fill="white"/>
<path d="M139.469 74.401C143.813 74.4125 147.977 76.1425 151.052 79.2137C154.127 82.285 155.864 86.4484 155.883 90.7958C155.926 93.0008 155.529 95.1921 154.715 97.2416C153.902 99.2911 152.688 101.158 151.144 102.732C149.601 104.307 147.76 105.557 145.728 106.411C143.696 107.265 141.514 107.705 139.31 107.705C137.107 107.705 134.925 107.265 132.893 106.411C130.861 105.557 129.02 104.307 127.476 102.732C125.933 101.158 124.719 99.2911 123.906 97.2416C123.092 95.1921 122.695 93.0008 122.737 90.7958C122.744 88.6152 123.183 86.4575 124.031 84.4484C124.878 82.4393 126.116 80.619 127.673 79.0933C129.23 77.5676 131.075 76.367 133.1 75.5614C135.125 74.7559 137.29 74.3614 139.469 74.401ZM139.208 100.716C140.527 100.746 141.839 100.51 143.066 100.022C144.292 99.5343 145.408 98.8042 146.346 97.8756C147.284 96.947 148.026 95.8388 148.528 94.6172C149.029 93.3955 149.28 92.0853 149.264 90.7648C149.257 89.4579 148.993 88.1653 148.487 86.9606C147.981 85.7559 147.243 84.6627 146.314 83.7436C145.386 82.8244 144.286 82.0972 143.077 81.6035C141.867 81.1099 140.573 80.8593 139.267 80.8663C137.961 80.8732 136.669 81.1375 135.465 81.644C134.262 82.1505 133.169 82.8894 132.251 83.8183C131.332 84.7473 130.605 85.8482 130.112 87.0583C129.619 88.2683 129.368 89.5637 129.375 90.8705C129.372 92.1638 129.624 93.4451 130.117 94.6407C130.61 95.8363 131.334 96.9227 132.248 97.8375C133.161 98.7523 134.246 99.4776 135.441 99.9715C136.635 100.466 137.915 100.719 139.208 100.716Z" fill="white"/>
<path d="M99.3556 127.286C93.6624 127.23 88.28 126.08 83.6185 122.603C82.4634 121.728 81.4197 120.715 80.5109 119.586C79.2057 117.982 79.1622 116.004 80.9895 115.058C82.1144 114.486 84.383 114.617 85.3029 115.407C93.8551 122.733 105.136 122.796 113.626 115.289C115.186 113.908 116.796 113.74 118.312 115.164C119.829 116.588 119.605 118.33 118.312 119.86C113.992 124.929 108.15 126.702 101.817 127.274C101.015 127.348 100.182 127.286 99.3556 127.286Z" fill="white"/>
<path d="M59.8763 100.716C58.558 100.751 57.2461 100.52 56.0188 100.038C54.7914 99.5551 53.6736 98.8303 52.7319 97.9065C51.7902 96.9827 51.0438 95.8788 50.5371 94.6604C50.0304 93.442 49.7739 92.1341 49.7827 90.8144C49.7868 88.1752 50.8385 85.6457 52.7063 83.7824C54.5742 81.919 57.1052 80.8746 59.7426 80.8787C62.3801 80.8828 64.9078 81.9352 66.7698 83.8043C68.6319 85.6735 69.6756 88.2063 69.6715 90.8456C69.6772 92.1376 69.4283 93.4181 68.9389 94.6138C68.4495 95.8095 67.7293 96.8968 66.8195 97.8136C65.9097 98.7304 64.8281 99.4587 63.6367 99.9567C62.4453 100.455 61.1674 100.713 59.8763 100.716Z" fill="black"/>
<path d="M139.208 100.716C137.915 100.72 136.635 100.469 135.44 99.9764C134.245 99.4839 133.159 98.76 132.244 97.8464C131.329 96.9327 130.604 95.8472 130.109 94.6522C129.615 93.4573 129.361 92.1763 129.363 90.883C129.356 89.5762 129.606 88.2808 130.1 87.0708C130.593 85.8608 131.32 84.7598 132.238 83.8309C133.157 82.9019 134.249 82.1631 135.453 81.6565C136.657 81.15 137.949 80.8857 139.255 80.8788C140.56 80.8719 141.855 81.1224 143.064 81.6161C144.273 82.1098 145.373 82.8369 146.302 83.7561C147.23 84.6753 147.968 85.7684 148.475 86.9731C148.981 88.1778 149.245 89.4704 149.252 90.7773C149.265 92.0957 149.014 93.4035 148.513 94.6229C148.011 95.8422 147.27 96.9483 146.333 97.8754C145.396 98.8025 144.283 99.5317 143.059 100.02C141.835 100.508 140.525 100.745 139.208 100.716Z" fill="black"/>
</g>
<defs>
<clipPath id="clip0_217_502">
<rect width="199" height="193" fill="white"/>
</clipPath>
</defs>
</svg>
